/* XPM */
static char *AGASB0[] = {
/* columns rows colors chars-per-pixel */
"23 32 33 1 ",
"  c #0B0B0B",
". c #170F07",
"X c #1F170B",
"o c #131313",
"O c #1B1B1B",
"+ c #2F1B0B",
"@ c #372313",
"# c #3F2B1B",
"$ c #232323",
"% c #2F2F2F",
"& c #373F27",
"* c #373737",
"= c #432F1B",
"- c #4F3B2B",
"; c #574333",
": c #53573B",
"> c #434343",
", c gray28",
"< c gray34",
"1 c #5B5B5B",
"2 c #5B6347",
"3 c gray39",
"4 c #6F6F6F",
"5 c gray50",
"6 c #A33B3B",
"7 c #A73F3F",
"8 c #CB5707",
"9 c #BF7B4B",
"0 c #C39B2F",
"q c #FF8F3B",
"w c #8B8B8B",
"e c #979797",
"r c None",
/* pixels */
"rrr,<1<3>rrrrr,<111>rrr",
"rr*,<1453*rrr*,<3453*rr",
"r%*,<13e3>%r%*,<14w4,%r",
"r%*,<1141>%O%*,<1<31>%r",
"r$%>>,>>>%$o$%>,<,>>%$r",
"+*>1341<,>*o*><131<,>*+",
"+%&>;;;>&#*o&#-;;;>*#@+",
".X+@===@@+XoX+@===#@+X+",
".X+@===#@+XoX+@===@@+XX",
".X+@==->@+Xo###===@@+X.",
".@@#->>*#$%r%*>;;--&#%.",
".O$*>,>*%$Or%*,<1<,>*%.",
".>,13431<,*r%*,<1,,>*%.",
".%*,<1<,>*%o%*,<1<>>*%.",
".%*,<1<,>*%o%*,141>>*%.",
".%*,<1<,>*%o%*,<43>>*%.",
".%*,<1<,>*%o%*,<11,>*$.",
".%*,<1<,>*%o%*,<1<,>*$X",
"X%*,<1<,>*%o%*,<1<,>*%.",
".%*,<1<,>*%o%*,<1<,>*%.",
".%*,<<,,>*%o%*,<1<,>*%.",
"X%*,14,>>*%o%*,<1<,>*%.",
"+%*,<3,>>*%=%*,<1<,>*%+",
"+%*,<1,,>*%=%*,<1<,>*%+",
"+%*,<1<,>*%=%*,<1<,>*%+",
"+%*,<1<,>*%r%*,<1<,>*%+",
"+%*,<1<,>*%o%*,<1<,>*%+",
"r%*>:22:>**o**>:22:>--+",
"r6 7 q 8 6 $ 7 8 q 9 6+",
"r6 6 0 9 6 > 6 7 q 6 6r",
"r%*,<1<,>*%r%*,<1<,>*%r",
"rO$*>,>*%$OroO%*>*%$Oor"
};
