/* XPM */
static char *AGASA0[] = {
/* columns rows colors chars-per-pixel */
"12 17 29 1 ",
"  c #0B0B0B",
". c #170F07",
"X c #1F170B",
"o c #1B1B1B",
"O c #2F1B0B",
"+ c #372313",
"@ c #3F2B1B",
"# c #232323",
"$ c #2F2F2F",
"% c #373F27",
"& c #373737",
"* c #432F1B",
"= c #4F3B2B",
"- c #574333",
"; c #434343",
": c gray28",
"> c gray34",
", c #5B5B5B",
"< c gray39",
"1 c #6F6F6F",
"2 c gray50",
"3 c #A33B3B",
"4 c #A73F3F",
"5 c #CB5707",
"6 c #BF7B4B",
"7 c #C39B2F",
"8 c #FF8F3B",
"9 c #979797",
"0 c None",
/* pixels */
"000:>,><;000",
"00&:>,12<&00",
"0$&:>,<9<;$0",
"0$&:>,,1,;$0",
"0#$;;:;;;$#0",
".&;,<1,>:;&.",
".$%;---;%@&X",
"XXO+***++OXO",
"OXO+***@+OXO",
"OXO+**=;+OXO",
"X++@=;;&@#$X",
".o#&;:;&$#oX",
"X;:,<1<,>:&.",
".3 4 8 5 3 .",
"03 3 7 6 3 0",
"0$&:>,>:;&$0",
"0o#&;:;&$#o0"
};
