/* XPM */
static char *FLMEA0[] = {
/* columns rows colors chars-per-pixel */
"31 51 15 1 ",
"  c #874307",
". c #AF4300",
"X c #B74700",
"o c #CB5707",
"O c #D75F0B",
"+ c #DF670F",
"@ c #CB7F4F",
"# c #FF8F3B",
"$ c #CF8353",
"% c #FFA35B",
"& c #EFA373",
"* c #FFB37B",
"= c #FFC79B",
"- c #FFFFB3",
"; c None",
/* pixels */
";;;;;.;;;;;;;;;;;;;;;;;;;;;;;;;",
";;;;oX;;;;;;;;;;;;;;;;;;;;;;;;;",
";;;;  ;;;;;;;;;;; o ;;;;;;;;;;;",
";;;;.;;;;;;#@@ ;;;  ;;;;;;;;;;;",
"..ooX;;;;;;@#%%@;;;;;;;;;;;;;;;",
" . o# ;;;;;@%%%%@X.;;  ;;;;;;;;",
";  @%#.oo;;o#%%&%@ ; @##o;;;;;;",
";;;@#%@##ooo#%%&%&#@#%%#% ;;;;;",
";;;@#@@####%%&%&%%&%##oo% ;;;;;",
";;;  XX#o##%&&%%%%&#@o.@@;;;;;;",
";;;;;.; Xo##%%#%&%&%###@;;;;;;;",
";;;;@;;; ;.%%%%&&####@# ;;;;;;;",
";;;;;;;;;&&%%%%&*#o#.;;;;;;;;;;",
";;;;;;;%%**%%%&**&#X;;;;;;;;;;;",
";;;;;;;%%&*%%%****X;;;;;;;;;;;;",
";;;;;;@&%%*%%%****.;;;;;;;;;;;;",
";;;;;..%&%*%*%&**=%;;;;;;;;;;;;",
";;;;;.@%%%&&&%%**&#X;;;;;;;;;;;",
";;;;.+&&&&&@&%%&**@o;;;;;;;;;;;",
";;;. %*&&&;X&&%%***%#% ;;;;;;;;",
";;;@%%%%  Xo%&&&****=*#;;;;;;;;",
";;.%%%*.  #%&&&***=***%;;;;;;;;",
";;@%%*$o ;o%**&&**=*&&#;;;;;;;;",
";.*&#$OX.  @%&*******&%@ ;;;;;;",
";@&%#X;O@Oo%********=**%#;;;;;;",
";+%%o.;;@$&=======****#%X;;;;;;",
";.@@.;;;@&%&======***%#& ;;;;;;",
";;;;;;;;@&&&*=====***%#.;;;;;;;",
";;;;;;XO@&%*==-===***&@;;;;;;;;",
";;;;;;;X@&*&&*===*****$;;;;;;;;",
";;;;;;;@$%&&%%&==**==*@;;;;;;;;",
";;;;;;;$$*&&*&%==*****$;;;;;;;;",
";;;;;;X$%%&&**&==*&&&**@;;;;;;;",
";;;;;;@$%%&&****=%. .X%$X;;;;;;",
";;;;;O%*******=**%oo;;#$O;;;;;;",
";;;;;@$***=*==*=*%%%%#&&@;;;;;;",
";;;;O$&****=====*******%$O;;;;;",
";;;; O%%&***===****=**&*$O;;;;;",
";;;;O*@@&****====*=****&$.;;;;;",
";;;oo=#%*********==&***&*.;;;;;",
";; %%***&***&**&&**%****=@;;;;;",
";;o%#*&*&**=**=*&****====$;;;;;",
";;;o#=#&%**&%*=******===*$O;;;;",
";; #*=%&%**%@%****=*===***@O;;;",
";#&=*=**===*==========*%%@@@$$;",
".%**&*&**=========*==*%%#@@@o@;",
"#%*&*&****=*==**=*&&%*%oXXoX@#o",
"#%*&%&**&&&&******###&=#.X@#%%%",
"#@%%%%%%%%%&&&**%&##%%**#%%#@@o",
";+@@##%#%%%###%&%###%%%%%o.. .;",
";;o+@Xo..oX..X.@@@o@@oo##++  ;;"
};
