/* XPM */
static char *FLMEC0[] = {
/* columns rows colors chars-per-pixel */
"32 58 14 1 ",
"  c #874307",
". c #AF4300",
"X c #B74700",
"o c #CB5707",
"O c #D75F0B",
"+ c #CB7F4F",
"@ c #FF8F3B",
"# c #CF8353",
"$ c #D78B5B",
"% c #FFA35B",
"& c #EFA373",
"* c #FFB37B",
"= c #FFC79B",
"- c None",
/* pixels */
"----- --------------------------",
"-----o---.----------------------",
"----oX- Xo  --------------------",
"---- -   ....-------------------",
"---------.@++o -----------------",
"-------- o@@@@+.@ --------------",
"----------.o@@@@&+- ------------",
"-----------o+%%%%@X ------------",
"----------X@%%%%&%++.-----------",
"----------+%%%%%%%@@@-- --------",
"---------.o@%%%%%%@@%X- X-------",
"--------- +@@%%%%%@@@o- .oX-----",
"------ @o.+@@@%%&%%+XoooX+oX ---",
"-------%%%@@@@%%&%%@o---- ------",
"------- +@@%@@%%&%%% -----------",
"---------- %%%@%%%@ ------------",
"-----------+%%%%%@+-------------",
"----------- %&%%*@+.------------",
"------------@%*%**@o------------",
"------------@%&***%+------------",
"------------o%%%**%@------------",
"-------------+%%%**%X---o-------",
"--------------+%&*&&%+--@ ------",
"-------------- %&*%**&o-@-------",
"------  o.----X%&*****%oX-------",
"------ o@+o.+%@+&*****%+.-------",
"-------o++@@*=*%&****&X----@+ --",
"-----   ..X+&*==**&*=*+----.X---",
"-----o+.ooo@%*****%*==*@--------",
"-----@@@@@@@%*&***&****=+-------",
"-----.@%@@%%%&&&***=****o-------",
"------ %%%%%&*&%&**=*%*X--------",
"------.&*%%%%&&%%&***&&@--------",
"-----X%@%%@@@@&@@&&*&&&%% ------",
"-----@@+%&%@@%@+%*&*&%%%&%------",
"-----@&&&&%@@%&***&%**&&*%------",
"----X**&&*&&**&&*&&%**%Xo@+-----",
"---.%&&&**==*%&**&&**%+---+O----",
"--.%%%&&*==***&***%@@%&&@+#O----",
"- &%@@&*==**=**&**&@o+@%&%#O.---",
"- %%%@@%*=*****%%&**&%%&&**+.---",
"-.@@o+&***=**&%%&*****==&@%#----",
"--+%Xo&***==****=====****%%#X---",
"--@%+o@****=*&&*****==*%*&&$O---",
"--@%@o+****=****====*&&%%**$O---",
"--X%@o@**&*=*==**===*%%%%&*$$.--",
"---%%%&&&&*=======***&&&&*==#+--",
"---%&&%@&*&**====*********&*#O--",
"---%&&&***&**==*****&&*=*&%*##--",
"---o&*****&*********%&***&%&#X--",
"---@&&****&**&&**==&%*****%X++--",
"---%&%**********=**%**&%&&&%&*o-",
"--.%%&****=*****=*&***&%%%%%*%Xo",
"-  +%***&**********&@+%%%%@@%%oo",
"---X%%&&&**&&&&**&&&@o%%%%%%@%@X",
".- @%%&%&*%%%%%%&&%%%@oo++.+++@+",
" --X++@@@%@@++o.+@%%@+ ---- .X.o",
"------ ...       .ooo ------   -"
};
