/* XPM */
static char *FLMED0[] = {
/* columns rows colors chars-per-pixel */
"32 59 13 1 ",
"  c #874307",
". c #AF4300",
"X c #B74700",
"o c #CB5707",
"O c #D75F0B",
"+ c #CB7F4F",
"@ c #FF8F3B",
"# c #CF8353",
"$ c #FFA35B",
"% c #EFA373",
"& c #FFB37B",
"* c #FFC79B",
"= c None",
/* pixels */
"=======     ====================",
"=======oo.o+ ===================",
"====== +@o@@o ==================",
"=======Xo..o++Xo@ ==============",
"=========  X$$@$$o =============",
"=========o@@$$%%$@+..===========",
"========.@$$$$$%$@oo.===========",
"======= o@$$$$$$$@++ ===========",
"=======.@@$$$$$$$@+@X===========",
"======= @@@@$$@$$@+++ ==========",
"=====X+o@@@@@$@@$@++X.= .=======",
"==== $$@@@++o@$@$@++o..  o======",
"==== o oo+@o.+$$@@.= ===========",
"========@@$$@$$@++o=============",
"======== @$$$$$$@o+.============",
"========= @%$$$$+oo+============",
"========== $$%%$++XX============",
"===========o@@%&$@o=============",
"=========== +@$%&@o ============",
"=============o@$&&@o ===========",
"==============o@$$%@+.==========",
"========  ==== @%%&&$+o ========",
"=======X+o====o@%&&&&$$o========",
"=======X@@o.o@@@$&&&&&$o =======",
"======= @@@$$$$@%&&&&&$=========",
"===== ==o++$&$%&&%%%&&$======.==",
"=====Xo.oXo@%%%&%%%%&&@=========",
"=====+$@++@+@%%%%%%&&*%o========",
"===== +$@+oX@%%%%&&&&&**@=======",
"=======@$$+o$%%&&%&&&&%*&=======",
"=======+%%$$$%&%$%&&%&@@o=======",
"=====.++@$$@$$@+@%%&%&+=========",
"==== $+.+$$@@@..@$%$&&$@========",
"===== o@$$$@+@o+&$$$@&%%$=======",
"======$&%$%$+$$$%&%%$%*&&+======",
"=====+&%%&&&%%$$%&%$%&&%@@O=====",
"====@$%$$&&&&%$$%%%@.  ====+====",
"== @$@$%%&&&%%$$$+@%$X  ===XX===",
"= %$$@@$&*&&%%$$$ =@**%$ =.X.===",
"==oo+@@+$&*&&%@$%@o$&&$@@@#X.===",
"==.$@+%&*&&$$%%$&&&&%%&&**$.====",
"== $$+%&&&*&$%%%&%%%***&*&&.====",
"== $$@$%%%&*&****&&%&*&&&%%O====",
"===+%@o$%%&&******&&***&$$%+====",
"===@%+.$&%&&***&*&***%%$$%%#O===",
"==+$@oX$%%%&&&&&*&&&&$$%&&%#O===",
"===X@@@$$%&&&&&&&&%%&%$&*&&$+.==",
"====$$$$&&&%*&&&&&&&&%$%&$%&++.=",
"=== $$$%&%&%*&%&&&&&&%$$&@$%%+O=",
"=== %$$&&&%%&&$%**&&%&$$*&&$$*$=",
"====@$$&*&%%&&%&**&$$&&&&&*%%&+=",
"====o%%*&&&&*&&&**%+@&&&$$&&%$ =",
"====@$&&&&&&&*&$&&&$@+@%%%&&%$..",
"=== o@&&*&&&&&%$&&&%%..$@@@%%$@.",
"=    @&&&&&&%%&&&&%%$. .   o$$$+",
" X. o$%%&%%%$$%$$%%$@+$$X  .o@@$",
"oX= +@$$$$$$$@$@@$%$@@$$.    X++",
"=..  X+@@@@+oo@+o@$$@+o.=====.. ",
"=======  .. ==X. ..oo =========="
};
