/* XPM */
static char *FLMEH0[] = {
/* columns rows colors chars-per-pixel */
"32 71 12 1 ",
"  c #874307",
". c #AF4300",
"X c #B74700",
"o c #CB5707",
"O c #CB7F4F",
"+ c #FF8F3B",
"@ c #CF8353",
"# c #FFA35B",
"$ c #EFA373",
"% c #FFB37B",
"& c #FFC79B",
"* c None",
/* pixels */
"*****Xo*************************",
"****.O++OO *********************",
"  ** +##+++*********************",
"* ** O###++.********************",
"*****X#+++++.*******************",
"******.o..O++o******************",
"******* *.oOoOO.****************",
"*********oo.X+X*****************",
"********    .+o*****************",
"*************  *****************",
"** .****************************",
"Xoo.*******  *******************",
" **********  *******************",
"********************************",
"********************************",
"**************** .**************",
"************** *.o *************",
"***********X  ..XoX.  **********",
"***********X+X . .X *X *********",
"********* **..*.  o **. ********",
"********** +X   oXoX **X********",
"********** ##+O.oOoXOO* ********",
"***********.+++O++o .OX ********",
"************##+oO#+..XOo.*******",
"*******  ** $+OoO##+Ooooo*******",
"*******. **X$+O#####++OOo*******",
"******* o***+++######+OO+*******",
"******* +X**o++####++ * + ******",
"********#+** +oo##++o***  ******",
"******* ##.**X* +OO#.***********",
"*******X###O+ooO+O+$.***********",
"**** ** #++#+OO++++## **********",
"****.*  O##OOOoo+####$o*********",
"******oO#$#+OO##O+##+## ********",
"*******o#$##++#$OO###+.*********",
"****** **O#$###++###o **********",
"*****.O+* #$$$#OO++.************",
"*****X++++$$$$#++OoX************",
"******oOO+%$$$$+X***************",
"*** oo+###%%%$# ****************",
"+++###$$$%%%$$ ** **************",
"########%&%$##X  ***************",
"$#$%$$%$%%%$$$$$o***************",
"%%%%%%%%%%%%%%##.***************",
"%%%%&%$%%%%%%%%+****************",
"o%%%%$%%%%$$$%$#****************",
"O$%%%%%%%%%%%$+# ***************",
"$#$$$$#$#$$%%$+#o***************",
"O##o.##+$$%%$$##+O#O************",
"***** O +%%%$%%%$%$@O.**********",
"*****X+ o#$$$%%&&%%%#..*********",
"****O+#+#+#$%%&&&&&%%O.*********",
"****.+#$#+%%%%&&%&%$%#O*********",
"*****#$$##%%%&&&%%%%%$@*********",
"*****+#%$$$$%%&&$###$#@*********",
"***** #%%%%$%%%&%$$$$$%*********",
"******O#$%%$%%%$#$$$$$%@********",
"******X+#$%%&&%$$$$$$$#@.*******",
"****** +$%%%%%&&&%$$$##O********",
"****** $%$$%$$%&&%$$###+********",
"****** $$%%%$$%&&%$$###+********",
"********.$%%$$%&%%$$$###***** o*",
"********O$%%%%&&%%%%$##+ ****.X+",
"*******+$$%&&%&&%$&%%$$+  * o%#.",
"******.#$%%&%%&&%%%%$#%+  +%%$O ",
" o *** +$%%&%%&&&%%%%$#+.+#+o.. ",
".#+. **X#%%%%&%%%%%$$$##.X.     ",
"O+++o* +#%%%%%%%%$#$$$$#o   **  ",
"O+OX**o#++$#%$$$$+###$$O   *****",
" .o **oO++####++++####+o *******",
"********  XooOo .o++OO.*********"
};
