/* XPM */
static char *FLMEE0[] = {
/* columns rows colors chars-per-pixel */
"32 62 13 1 ",
"  c #874307",
". c #AF4300",
"X c #B74700",
"o c #CB5707",
"O c #D75F0B",
"+ c #CB7F4F",
"@ c #FF8F3B",
"# c #CF8353",
"$ c #FFA35B",
"% c #EFA373",
"& c #FFB37B",
"* c #FFC79B",
"= c None",
/* pixels */
"======    ======================",
"===== ...o =====================",
"==== X.  .=== ==================",
"===== === .+o. X ===============",
"======= oo@$$+@@+ ==============",
"====== X@@@%%$%$$$+ ============",
"====== o$$$$$%%$$@@@+===========",
"====== X$$@@$$$$@@+X ===========",
"======.+@@@@@@$$@XX.============",
"======+@+@$@o+@@@X = ===========",
"===== @@Xo@o==X+@ =.o===========",
"====X+@+ == ===.@ ==. = ========",
"====.@@@ =======X+       =======",
"=====+$$+==o. === .=============",
"======@$@==+%$.=================",
"=======@@@. @$+=================",
"========.+$@@$+++ ==============",
"==========.$%$@@@+ =============",
"=========== +@@o@@+ ============",
"=============Xoo@$@@.===========",
"==============X@%&$@@. =========",
"========X+==== +%&&$$@+o========",
"========o@oXXo++@&&&$$@@========",
"========o$@@@$$@@$&&&$$@========",
"========X$$@@$@@%%%%&%$o========",
"======== @%$%$@$%%%$$&@=========",
"=====oo==.+%&$$$%%%&%&&=========",
"=====o$o= o$$$%$%%%%$%$=========",
"======.$o.X+@$%%%%$@@$.=========",
"=======+$$$+X$$&%%@o$%o=========",
"=======o%%%@o$%&%&&%$%$o+=======",
"======.@+$%@@$%$++&&&% =+ ======",
"===.$@@o+%$@$@@@++$&&@==========",
"====.@oX@$$@@o++$&$%&$==========",
"======+@$$$$+o+@%&%%&&$X========",
"======@%%&&%$$@@%&%%%%*$========",
"=====+%%%&&&&&$$%$@+@@@@========",
"===o$$%$$&&&%$$$+ .+ ===========",
"===@$@@$%%&&@o$%===+$===========",
" ++$@@@$%%&&$Xo$= @o%%==========",
"=++$$@$%%&&&%+X$ @&@ + = =======",
"== +$%$%%&&&&$o$@%$@++$#+X======",
"====@%$%%&&%%$$%%&&$%&&&$+.=====",
"====+$@$%&%$$%&&&*%%&%%%&&+X====",
"===o$+o$$%&&******&&%%&&&*&+.===",
"== $$..@@%%&&*****&&&&&&&&%%O===",
"==X%@ o@@$&&&&**&*&&%&%%%%%%#===",
"===@@X+$@$%&&**&&&&&&&%%%&%@#X==",
"====o@+o+%$%&&*&&&*&&&&%$$$$%O==",
"=====o@Xo%&&&&*&&&*&%&&%%%$$$OX=",
"======+Xo&*&&&*&&%&&%%&&%**&&+X=",
"=======o$&&%%&&&%%&&%$$$$&&&&%+=",
"====== $&&&%&&&%%%**$@%%%&%&&$#=",
"====== %&&&&%%&&$$**$%%%@+$@+$#O",
"====== $*&&&%&&&%%**%$$@ = ==o%+",
"====== $*&**&&&&&&&&$$%X===  .$$",
"====== %&&&*&&&&&$%%@@$o.o$@ .@$",
".=== =o%$&&&&&&&%$%%$$$%%%&@  X$",
"@+    o+@$&%%%$%&&&&%%$++$%$.  +",
"ooX.o+X+$@$%$$$$%%%$$@. o@@X ==o",
"=====...@@@$@@@@@@@@@@++X. =====",
"========     . .. ....  ========"
};
