/* XPM */
static char *FLMEK0[] = {
/* columns rows colors chars-per-pixel */
"32 80 14 1 ",
"  c #874307",
". c #AF4300",
"X c #B74700",
"o c #CB5707",
"O c #D75F0B",
"+ c #CB7F4F",
"@ c #FF8F3B",
"# c #CF8353",
"$ c #D78B5B",
"% c #FFA35B",
"& c #EFA373",
"* c #FFB37B",
"= c #FFC79B",
"- c None",
/* pixels */
"------X ------------------------",
"---- o -------------------------",
"- XX. --------------------------",
"+oX.------o---------------------",
"---------- ---------------------",
"--------------------------------",
"-----.--------------------------",
"---- ---------------------------",
"--------------------------------",
"--------------------------------",
"--------------------------------",
"--------------------------------",
"--------------------------------",
"--------------------------------",
"--------------------------------",
"--------------------------------",
"------  ------------------------",
"-------XX ----------------------",
"--------------------------------",
"--------------- ----------------",
"---------------.----------------",
"-------XoXX----X.---------------",
"-------oo oX---.o --------------",
"------- + -+---.X.--------------",
"--------oX--+.  Xo -------------",
"--------.@-- +X X+o-------------",
"---------@----.oo+.-------------",
"---------------ooo -------------",
"----------- ---     ------------",
"-----------X--------------------",
"-----------  -------------------",
"--------------------------------",
"--------------------------------",
"------------@+------------------",
"----------- %% -----------------",
"-----------X%@ -----------------",
"-----------@%%+-----------------",
"-------.+ -+@@%+----------------",
"------- @+X o+@+-- X-- ---------",
"--------+@@@@@+@X+%@------------",
"--------o%%%@++%%@%@------------",
"--------o@%&%@%&%%&%------------",
" .---.@%@@%@&&&&%&*% -----------",
"@%@X%***%&*%**%@%*@ ------------",
"+@++**********%&*@--------------",
"X+%&***%&&&***%**%--------------",
".+@&&&%%%&&****%&*X-------------",
"@%%*&*&*&&****&%%*.-------------",
"%@&&%%%&****&&&**@--------------",
"%@X%%**&*****&&**.--------------",
"@@.@%****&***%%*%---------------",
"-X%%%*******&@%%X---------------",
"-o%***&%****%@%@----------------",
"@@%&%*%@&%&&&%%%----------------",
"%@%%%&&%++%&&&%% ---------------",
"%@@%+%*%o@&*&&&&+ --------------",
"-- @%**&%*=*&&**&%+..-----------",
"---X&*****==*****&#+..----------",
"---@%***&&*******&&%+.----------",
"--o@%&&%&******=***=$+X---------",
"--o%&+ o%===***=====%$X---------",
"---@*o %&=====**====*#O---------",
"----.@%%&*****=====*&&#---------",
"-----.%%@&*****==**&*&#---------",
"-----.%%o%***&*===**&&*#--------",
"-----.@%X@=****===&&*&&#--------",
"------o%oo&*****=*&%=&%% -------",
"-------X+X%**=*&*==*=&%%.-------",
"------- %%***==*===**&%%.-------",
"-----. X*=*****====***&%. ------",
"--.@%%oX*&&**=*======*&%.   ----",
".%%%+-- &&***========*&%X.....--",
"&&@%X--.*&&**=**======*%o+@+oX.-",
"@%%%% -@**%*****======*@@@@ooo..",
" %&%& X********=====**=&+oo++oXX",
"o%%@@.%&&**&***=====**&*@.XooX..",
" @%%%%%%%&&******==***@@@.......",
" +%%&%@@%&&&&&*******%@++.    .@",
"-o@@@@+@%@@@%%%%%%%%%@@++    .o-",
"--      .. ..+o++oX++o...     --"
};
