/* XPM */
static char *FLMEF0[] = {
/* columns rows colors chars-per-pixel */
"32 64 13 1 ",
"  c #874307",
". c #AF4300",
"X c #B74700",
"o c #CB5707",
"O c #D75F0B",
"+ c #CB7F4F",
"@ c #FF8F3B",
"# c #CF8353",
"$ c #FFA35B",
"% c #EFA373",
"& c #FFB37B",
"* c #FFC79B",
"= c None",
/* pixels */
"======= ========================",
"======= .oX=====================",
"====   .+@@ooX =================",
"====  o+o@$$@@$o================",
"====  +@@$$$$$$$+.==============",
"====== @$$$$$$@@+@o=============",
"=======@$$$$@@@oo+@o ===========",
"======oo@$$@+++o. ==============",
"=====.@=.+X = . ================",
"== . = =========================",
"= +@@===========================",
"=X@@@.==== =========== =========",
"== @o=====X.====================",
"=== X===== + =X.================",
"====  ========.@.===============",
"====== .. =====+@.==============",
"=======.+o ==== $@X=============",
"=========.o.= ==@$@o============",
"=============.@o@$@@+.==========",
"=========X=== +%$$$@@@+.========",
"=========@@o. .+$$$@@@@+========",
"=========@@@@ooo+$$@++++.=======",
"=========@@@$@@@+$$$@+@+.=======",
"=========.o+@$@@$$%&%+@+========",
"====== ===+$$$@@$$$$%@@X========",
"===== @====$&%$@$%$%%$@o========",
"======++ ==X$&&$$$$$$$&@========",
"=======@@X .@%$%$$$o@$$X========",
"=======o@@@+@o$%$$+=============",
"=======o$&&$@o@%%%@.  ==========",
"=======+%&&$@@@$%&%$$$.=========",
"== $.=.@@$%@@@+@$%%%%$ =========",
"===+%$$+@$$@@@+@@$%%&@==========",
"====.$@@@+@$$@+oo+$&%X==========",
"======+@$$$$$$$+++@&$===========",
"======@$$%&%%%%$@o@@@ ==========",
"==== +$$%&&%%%%@o= =============",
"==.@$%$$%&&%$$&o== =============",
"==+$+o+$%%$%$$&@==.X============",
"++%$@@@$%%%%$$&@================",
"+@%&&&%%%%&&$$%$================",
"=X$%&&&%&&*&%$&%@===============",
"==@%&&$&*&&&%&&&$X.++OXX========",
"==@$$@@%&&&&%&&%$%&&&%+X.=======",
"==$@. X$%%&&&&&&&&%%%$$+OO======",
"=.%@.=.$&&**&*&&&&%%$%%&$+.=====",
"==@$+..$&&****&&&&&&&&&%$%+=====",
"==X$$@ +$%&*********&&%%%$$X====",
"====.@X.@%&**&****&%&&%%%%$$X===",
"=====+@X$%&&&&*&&*&%%%&%$%&&++==",
"======$o$%&&&&&&%%%$%&%&&&&&#+O=",
"======.@$%$%&&&&%&%$%%%&%%&%%# =",
"=======$%%$$%&&&&&*%%%%%++%@$$+ ",
"====== %%&%&%%&*&&&%%%$$ =.= $$.",
"====== %&&&&&&***&%%$%$$=====@%.",
"====== %&&&&&&*&&&%%$$$@==== +%+",
"=======$&&%%&**&&%%$@@$X==X$+X%$",
"=======@%&&%**&&&&$%@@$o .$%@ @%",
"+ ==== +X$&&&&&&&&%$@@$$$$@$&X.$",
"+@ == = X%&&&&&&&&%@@@$..o$&%X o",
"+@.= X.o$&&%&&&&&&&$$@@X@$$$X   ",
"oo.==.X@%%$%&%$$$$$$$@+@@+o.== .",
"=  ====+@$@@$@@@@+@@@@+. ======.",
"========    . .oXXoX.X ========="
};
