/* XPM */
static char *FLMEI0[] = {
/* columns rows colors chars-per-pixel */
"32 74 14 1 ",
"  c #874307",
". c #AF4300",
"X c #B74700",
"o c #CB5707",
"O c #D75F0B",
"+ c #CB7F4F",
"@ c #FF8F3B",
"# c #CF8353",
"$ c #D78B5B",
"% c #FFA35B",
"& c #EFA373",
"* c #FFB37B",
"= c #FFC79B",
"- c None",
/* pixels */
"- -Xo. .  ----------------------",
" .o+@@@@@@ ---------------------",
" - +@@@@@@.---------------------",
"---X++@+++o---------------------",
"---.+@@@+++---------------------",
"---- .+oo+o.--------------------",
"-------   ...-------------------",
"--------  XoX-------------------",
"-------- Xo@+.------------------",
"--------- -  -------------------",
"--------------------------------",
"--. ----------------------------",
"-. -----------------------------",
"--------------------------------",
"--------------------------------",
"----------------X --------------",
"-------------..-..--------------",
"-------------. --. -------------",
"----------  -  --.. ------------",
"---------.@+X .  . -------------",
"----------%@++...X   -----------",
"---------- .X.X-.oX.o.----------",
"-----------.+-X..@ooooX --------",
"-----------@@X.++@@Xo  Xo-------",
"--------   @+o.X+@@oo..XX ------",
"-------- +X+@o.X%%@+o...o-------",
"-------- @X+@@o+%@%@ ---..------",
"-------- o-+@@+@@@@+o----.------",
"--------  --++o+@%+o@-----------",
"--------X.-- .X+o+oo@-----------",
"--------X@+ooo@+X.X@+-----------",
"---------+%%@+. --X%------------",
"---------+@@. o -  -------------",
"-------- %%@oX&%+ --------------",
"--------@%&%%%%&%.--------------",
"---------X%*%%%@@.--------------",
"------ o- %&&%%+X+o.------------",
"----- o%%+%&*&%@@+++ -----------",
"----- X@%@%&*&%%@o -------------",
"-------.%@+%*%%%.---------------",
"--- +++@@@@%*%%@ ---------------",
"++@&&%*&%%***&&%&@--------------",
"%&***&&*&&**&&*&&%--------------",
"%%***&%%%&***&&&&@--------------",
"%&***&&&&&****&%+ --------------",
"*&%*=********&*@----------------",
"=*&*=*******&%&@----------------",
"o&*&&**%&****%%& ---------------",
"-+&%%%&&&&***%%*@---------------",
"X@&&%%&****&&&&*%---------------",
"&%%%@@%%@&**&&&*%o+.------------",
"Xo .@@%.+%&&%&&&*%+X -----------",
"---.@@o+%%%&&***=**=+..---------",
"--- %+X@%&&***=*****&O.---------",
"----@&%%%&**==****&&&#X.--------",
"-----o@&****==*****&*##O--------",
"----- o*********&&&***$$--------",
"-----X.@&***=*****&&***#--------",
"-----. o*****==**=****&#--------",
"------ %****&***=*****&O--------",
"-------%****&**==****&%O--------",
"-------@=***&&*=*****&%%--------",
"-------%=***&&*******&%% -------",
"-------o&&************&& -------",
"-------+*****===**=****&.-------",
"-------+**=**===**=****%  -- .%&",
"-- ----@**==**======*&%o     .+o",
"-+&@---+&*&***======*&@.......  ",
"@%%+.--@%%**=*==******%+++X...  ",
"%%@. -X&@%*=**==****=**&%@....  ",
"%%@  -@&%&*************@X...... ",
"+@% --X+%%&*&%%*&&*&&*&+        ",
" o+ ---.o@%%@@%%%%%%%@@o ----   ",
"---------.X. .o+oo++o.  ------  "
};
