/* XPM */
static char *FLMEJ0[] = {
/* columns rows colors chars-per-pixel */
"32 77 14 1 ",
"  c #874307",
". c #AF4300",
"X c #B74700",
"o c #CB5707",
"O c #D75F0B",
"+ c #CB7F4F",
"@ c #FF8F3B",
"# c #CF8353",
"$ c #D78B5B",
"% c #FFA35B",
"& c #EFA373",
"* c #FFB37B",
"= c #FFC79B",
"- c None",
/* pixels */
"-----.+X  .---------------------",
"Xooo+@@+..o --------------------",
".+@@+XX..oX---------------------",
"-.. - --.oX---------------------",
"----  -  . ---------------------",
"--- .X+.- .---------------------",
"-----X --- ---------------------",
"--------   ---------------------",
"-------     --------------------",
"-----------  -------------------",
"--------------------------------",
"--------------------------------",
"--------------------------------",
"- ------------------------------",
"--------------------------------",
"--------------------------------",
"---------------- ---------------",
"--------o..------ --------------",
"--------o@+.----- --------------",
"---------+X ----   -------------",
"----------------..  ------------",
"---------- -----.++.------------",
"---------X+o.--- ++X--- --------",
"-------- @@oo.--Xo..------------",
"-------- @@@.oX.@++.------------",
"---------+@%+ooo+@@ ------------",
"--------- %@X.o+@+@X------------",
"----------++---+@@++ -----------",
"---------------o@+@o+-----------",
"----------- ---+.- .+-----------",
"---------- @--- ---- -----------",
"----------.% -------------------",
"----------X@ - -----------------",
"--------- .+@o+++---------------",
"---------.+%%%@%@---------------",
"---------@%&%&%@ ---------------",
"------- - +&&&%+----------------",
"-------@%+o@&&%@ooo.XX----------",
"------.o%&o+&%%+X+X   ----------",
"------X+%%@%%%%@o+ -------------",
"-------.%%%%&&%@@%@-------------",
"--- .o@%%%%&**&%&*&.------------",
"@@%*****&&%**&%&*&&X------------",
"@%***********%%&&%+-------------",
"%&&&**&%&&***&&&+---------------",
"@%%%**%%&******%----------------",
"%&****&&*****&*%@ --------------",
"&%%%&***=****&*%*@--------------",
"**%@&**&****&%***@--------------",
".@+%*&*&***&%&***@--------------",
"-o@%%%&*****%&&**o--------------",
".@@%%**&*&*&@%%&@---------------",
"%%%*&&%@%%&%@%%% ---------------",
"@@+%@@.+@@%&&&&%o  -------------",
"---@o%+@%%&=*&*=*%#OX-----------",
"---.%**&*&*=*&***&&#O.----------",
"----@*****===*****&&#O----------",
"----X%**=**==*=******$----------",
"----.*%@*=*=*=******==#---------",
"-----o-X&=**=*&**&*===#---------",
"-------o***********==*%O--------",
"-------+*****&*===*=*&%#--------",
"-------@*=***&*====**&*#--------",
"-------%=*****&*====***# -------",
"-------%*******=====&&** -------",
"-------%&&**==**=**=*&&& -------",
"-------&*%**===*=**=*&%%.-------",
"-------%*&**========*%%%.    ---",
"-- @% -X*****=======*&%@.    .--",
" @&%X-- %%&**========*%XXX.....-",
"%%%.---+@&**==*======*&@++@oX...",
"&%%X--+&****=**=======**&%@ooX..",
"%%&% -o%********======&%@+oooX..",
"+%%@ -X%%%&%&&*********%...X....",
".@@o .@%%%%%%&*******&%@.       ",
"-X+Xo++++%@+@%&&&%%%%@+o.---- .o",
"----     .. .@++++o+X ...---- . "
};
