/* XPM */
static char *FLMEL0[] = {
/* columns rows colors chars-per-pixel */
"32 64 12 1 ",
"  c #874307",
". c #AF4300",
"X c #B74700",
"o c #CB5707",
"O c #D75F0B",
"+ c #CB7F4F",
"@ c #FF8F3B",
"# c #FFA35B",
"$ c #EFA373",
"% c #FFB37B",
"& c #FFC79B",
"* c None",
/* pixels */
"******* ************************",
"*****..X.***********************",
"*****  *.***********************",
"********************************",
"**********. *** ****************",
"******** **o.*** ***************",
"*********** ..**  **************",
"************* ... **************",
"********************************",
"********************************",
"********************************",
"********************************",
"********************************",
"********************************",
"************ X******************",
"************+@ *****************",
"************@@******************",
"*********** +..*****************",
"*********** **..**** ***********",
"************** X*** # **********",
"************ .@.*o@#@***********",
"***********X#@+ +#@#+***********",
"********** @%@o@#####***********",
"* ******** #%$##$%##@***********",
"o+****o@#@@##$%$#$## ***********",
"++ ** #$$#%%$$%#@$$.************",
"@+ * #%%%%%%%%%##$@*************",
"+o+ @$%#$%%%%%%%%$.*************",
"++###%%$%%%%%%%%%$**************",
"@+@$%#$$$%%%%%%%%% *************",
"$######$%%%%%%$$$$ *************",
"Xo@##%%%%$%%%$### **************",
"..@#o#%##%%$$$$#@***************",
"*o%$@%%#%&#+@$$@#***************",
"* $%%%%%%##o+$#@#***************",
"**@%$%%$@@+@#%#@#***************",
"**#%$%%%@+@#$$#@@***************",
"*+$%##%%@@$$$$##@***************",
" + @$%%##$$%%$$%$+* ************",
" **o$%%%%$$%%%%%%%+OX***********",
"**o$%%%%%%%%%%&&%%$+O..*********",
"* #$$#$%%&&&%$&&&&%$%+XX********",
"*o##@+#$%&&&%%%&&&&%&$X ********",
"*++#+o##$&&&&&%&&&&&%@o.********",
"*@##* @o@%&&%%%&&%%%$#$@o*******",
"*o%#X@@  $%%%$%&&%%$$%$#@*******",
"**X@o.+o @%%&%$&&%$#$%$#@*******",
"******.+ +%%&&%%&%@#%$$$@+******",
"*********X%&%%%%&%%%%$#$o*******",
"********.o&%&&&&&&&%%%#$X*******",
"******* o@&$%&&&&&&%%%##@*******",
"*******o@$%%%&&&&%%&%%##@*******",
"**** o@#%%$%%&&&&%%&&%$$@*******",
"**X@#$@@%%%%&&%&&&&%%$$$@    ***",
"*@$##@*o%$$%&%$&&&&%%%##+.....**",
" @#@@#X@%##%&&&&&&&%%###XXXXXX. ",
"*X###$%$%$$%&&&&&&&&%$%%@X+ooo.X",
"*.$$###%%%%&&&&&&&&&&&$%#Xo++oo@",
"X#%$$+#$%%$$%&&&&&&&&%###@o++Xo@",
" @$%%##@#%%%%&&&&&&&%%####ooooXX",
"o@$$%#@#$%%%%%%%%&&%%%$@##.....@",
"*o$##@@#$#$$$$$%%%%%$$#@@+   .+@",
"**+XXXX+@@@@###$####+@##+  .Xoo*",
"*******  ..+o+oooooo  o@.     **"
};
