/* XPM */
static char *FLMEN0[] = {
/* columns rows colors chars-per-pixel */
"32 54 11 1 ",
"  c #874307",
". c #AF4300",
"X c #B74700",
"o c #CB5707",
"O c #CB7F4F",
"+ c #FF8F3B",
"@ c #FFA35B",
"# c #EFA373",
"$ c #FFB37B",
"% c #FFC79B",
"& c None",
/* pixels */
"&&&&&&&&&&&&&& &&&&&&&&&&&&&&&&&",
"&&&&&&&&&&&&&& &&&&&&&&&&&&&&&&&",
"&&&&&&&&&&&&&&&&&&&&&&&X &&&&&&&",
"&&&&&&&&&&&&&&&&&&&o  o.&&&&&&&&",
"&&&&&&&&&&&&&&&&&&o@+O.&&&&&&&&&",
"&&&&&&&&&&&&&&X &o+++ &&&&&&&&&&",
"&&&&&&&&&&&& + o+OO++&&&&&&&&&&&",
"&  &&&&&&&&&o@OOOOO@@ &&&&&&&&&&",
"& &&&&&&&&&&o@@@+++@+O&&&&&&&&&&",
"& &&&&&&&&. +++@@@@#++ &&&&&&&&&",
"&XX&&&&X Xo+@@@@@##$o.&&&&&&&&&&",
"&+O&&&&X++O@$$#@#$$# &&&&&&&&&&&",
"&++ &.o+@##$$$$$#$$@.&&&&&&&&&&&",
"&++OoOo@#$$$$$$$$$$@.&&&&&&&&&&&",
"&.+o+OO@$$$$$$$$$$@o&&&&&&&&&&&&",
"&&&& O@#$$$$$$$$$#@O&&&&&&&&&&&&",
"&&&&&O@@@@##$$$$#@+.&&&&&&&&&&&&",
"&O@..@+o@###$@+#@O.&&&&&&&&&&&&&",
".##$$+&.##@#@+@$@o&&&&&&&&&&&&&&",
" +.++  +#@+@+o###O&&&&&&&&&&&&&&",
"&&& ++#$#@++@@@$$+&&&&&&&&&&&&&&",
"&&&&+@$$##+O@@@$$@&&&&&&&&&&&&&&",
"&&&&X@$#$#oo#@#$#@ &oo&&&&&&&&&&",
"&&&&&+$#@O&.####@@o  +.&&&&&&&&&",
"&&&&&+#@@o&O$@@++@O &o@X&&&&&&&&",
"&&&&.@@@##@$$#@+OOo  O@@oO &&&&&",
"&&&o#$##$$$$$##@@@+@###@o &&&&&&",
"&&o$$$$$$$#$$##$$$$$$$$+&&.&& &&",
"&o$$$###$$$$%$$$$$$$$$@+&&&& .&&",
"o#$#@o@#@#$$$$$$$$$$+@o&&&& o &&",
"#@##o&+$$$$$$$$$#+#@o@@&&&&Xo &&",
"+ o# &#$$$$$$%%%#+#@+@@X&&&&+ &&",
"O& O&&+$$$$%%%%%@@#+O@@O&&&&o&&&",
"+&&&&&.++##$$$$$$@#+o+@O&&& .&&&",
"@O&&&&&&o@$%%%$$$%%$+O@+&&& &&&&",
"+O&&&&&+##$$%$%%%%%$+O++.&.&&&&&",
"o@++&& %$$$$%%%%$#$#@+OOO..&&&&&",
"&&  &&&+#$$$%%%%$$$@#$@oO&&&&&&&",
"&&&&&&& +%$#%$%%$$#@$$@oO&&&&&&&",
"&&&&&&o@$%$#$$%%$$$@$#@..&&&&&&&",
"&&&& @@#%$$$$%%%$%$#$@@+   &&&&&",
"&&&&o@+@$$$$$%%%%%$$$##$+...&&&&",
"&&&&&o+@$%$$$%%%%%%%$$%$#XXoo&&&",
"&&&& +$$%%$$$$%$%%%%$$#$@XoOOo&&",
"&&&+#%$$%%$#$$%%%%%%$$$$@oXOOO&&",
"&&&@$$#%%%$$%$%%%%%%%%$$#@OOO+&&",
" &&@$#$$$$%%%%%%%%%%%%%$##+OO+&&",
" .+$$#$$$$%%%$%%%%%%%%%%$@@OO+X&",
" +#$$#@##$$%%%%%%%%%$%%$@@+OOOo&",
"o+@$#@##$$$$%$%%$$%$##@$@oXXoXO+",
"O+O@@@##$$####$$$$$$+++#%+.XO+@@",
"++OOO+@@@@@@@###$$@#++@@$$+@@+O ",
"&OOoOO++@+@@@+++@#@+++@@@@@o.. &",
"&&&    Xo..oX..X.OOOoOOoo++ &&&&"
};
