/* XPM */
static char *FLMEG0[] = {
/* columns rows colors chars-per-pixel */
"32 67 14 1 ",
"  c #874307",
". c #AF4300",
"X c #B74700",
"o c #CB5707",
"O c #D75F0B",
"+ c #CB7F4F",
"@ c #FF8F3B",
"# c #CF8353",
"$ c #D78B5B",
"% c #FFA35B",
"& c #EFA373",
"* c #FFB37B",
"= c #FFC79B",
"- c None",
/* pixels */
"----- .Xoo ---------------------",
"------o@@++.--------------------",
"- ....o@%%@@+-------------------",
"----.o +%%%%%@ -----------------",
"-----X o@@%%@%@o.---------------",
"------+@@@@@@+++o --------------",
"------ @@@@@+.X@+X--------------",
"----- -X@@+.- .oo --------------",
"-----.- o-----------------------",
"- Xo----------------------------",
"X++X----------------------------",
"@X.---------- ------------------",
"X------------oo-----------------",
"------------- + ----------------",
"--------------Xo ---------------",
"---------------XoX--------------",
"--------------- o++.------------",
"------------++ .o++++X ---------",
"--------- -- @%@++oo+@@ --------",
"---------@   .o+@+ooXo++--------",
"---------+o%+   X@++o+++ -------",
"--------- o%%+.X+@+oXo+o.-------",
"---------- o@%@o+%@. .+@X-------",
"----------- @&@@@%%@ooo@ -------",
"------ .-- @&%@%%%%%%@+@--------",
"------Xo--.+%%@@@%%%&%@@o-------",
"-------+X---+%%%%%%%@oX+@-------",
"-------o@o -.%%%%@@+---  -------",
"-------o@@o o. @%@@+------------",
"------ @+@@+@ .+&%%+.-----------",
"---.--+@@**%@+@@&*%%%+----------",
"-- @--.%**%@+@@@%&&&%%%---------",
"---% --+&%@@+@X  X%&*%.---------",
"---X%@%%%@@%+o@+-.&&&+----------",
"-----+%@+%@%@@%%.+&@- X---------",
"------@@+@%&&%%%@+% ------------",
"------+@@%&&&*&@o@o-------------",
"----.+@%&*****% ----------------",
"X@@%%%*&*=***+------------------",
"X%@@%%%&==*&o-------------------",
"+%&&*%%&**=@ ---+.--------------",
"@***=*&&&***%%@.@@--------------",
"+*&&***&***=*&%-oX--------------",
"+*%@&***==*&*&@...--------------",
" &**&%&*&****&%% --.------------",
"-X*%+ o%%&==*&%%@@++.-----------",
"--o%@.X+%*=**&@%%&&*#+X---------",
"--- @@X.@**=**&*%&&**#OO--------",
"----.@@%***=====*===**#O--------",
"-----@&%****=*=====***&+--------",
"-----.&&********=*&&*&##--------",
"------%&&&%&*===**%%&*%$+-------",
"------.%%%%%&====**%&&%$++OX----",
"------ %%%&&*=====*&&&*#X  -----",
"------o&%&&&*=*=*&&&&&&&.---+---",
"------o&&&*****=&%%%&&%% --- ---",
"------o&&&***==*%&&&%%%@--------",
"------X&&&&&****&&&%%@%o---...--",
"------- X%&&*****%%%%%%X--.@ X&&",
"X--------%&*==***&&&@%%o - . .o@",
" ------- %**==*****%%%%@.  .@@  ",
" ----- o%&*=***=****%%%o X@*=%. ",
"+@X---X%%***********&%&+@**%+. -",
".+@ --Xo%*&**&**&&&%&&%%%@o   --",
" ++o---o%%%&&&*&@%%%@%%X -------",
"- . ----Xo@@%%%@@@@%@@@X--------",
"----------...X.  .XoX. .--------"
};
