/* XPM */
static char *FLMEM0[] = {
/* columns rows colors chars-per-pixel */
"32 68 12 1 ",
"  c #874307",
". c #AF4300",
"X c #B74700",
"o c #CB5707",
"O c #CB7F4F",
"+ c #FF8F3B",
"@ c #FFA35B",
"# c #EFA373",
"$ c #FFB37B",
"% c #FFC79B",
"& c #FFFFB3",
"* c None",
/* pixels */
"**** ***************************",
"***   **************************",
"********************************",
"********************************",
"********************************",
"********* **********************",
"*********  *********************",
"********** *********************",
"********************************",
"********************************",
"********************************",
"********************************",
"********************************",
"********************************",
"********************************",
"********************************",
"*************. *****************",
"************ o *****************",
"************  ******************",
"********************* O*********",
"******************* X@ *********",
"************** ** ++@o**********",
"*************OO *+@++o**********",
"************O++Xo+@+.X**********",
"*.********* @@@@++@@X***********",
"*X*******   O@@@@@@@O***********",
" o**** o+@@O@@@@@@+@O***********",
"oO ** ++@@@#$$@@###+************",
"++.**O@##$$$$$$$$$$X************",
"++Ooo+@@@$$$$$$$$$# ************",
".@+@+@$##$$$$$$$$#@*************",
"X+ o@@$$$$$$$$$$#+o*************",
"++**+#$$##$$#@###+ *************",
"O@+oX#$@@$$#@@##@@O*************",
"*+$#@$@+#$#++@#@@+ *************",
"*+##$$##$$+oo+#@@+**************",
"* O@$$###+Oo+@$@@O**************",
"***+#$$$#+O+@@##@ **************",
"***+@#$$@#@@#@#$@ **************",
"** X+#$$$#@@$#$$#+** OO*********",
"****@$$#++oO$$$###X o+OO *******",
"****+#$#@@@@$##$$$#@##@@@*******",
"* o+@#$$$$$$$$$$$$$$$$#@@O** .**",
"*O##$$$$%$$$$#$$$#$$$$@O++**o.**",
"X#@@@$$$$%$$$$$%$$$$$#@@oX o+o**",
"+#o +$@@$$%$$$$$$$$$#@#O***++.**",
"@+o* O.X#%%%$$$$$$$@O@# **.@+***",
"++ ****+%%$%$$%%$$#oO@@X**X@+ **",
"@O*****.+@$$%$%%%#@@#$@+**.O+X**",
"@@@.*****o$#$$$%$#@#$#@@. XO.***",
"*o#+****X+#$%$%%$$%$#$@@Ooo*****",
"********@$#$$%%%%%%$#$#@+o******",
"*******X+$$$$%%%%$$#@$#@+*******",
"******** #$$%%%%%$$#@##@@ ******",
"****** .+$$$%%%$###$+@+++ ******",
"****X+@#$%$$%$$$@$$$+@oO+ * ****",
"** @@@@#%$$%%$$$$%%$@@+Oo   .***",
"**o+++@#%$#$%%%%%%%#@@@+X....X**",
"***o+@#$$#$%%%%#%&%$$$$$@Xoooo.*",
"**o@$$$%%$%$$%$$$%%%%$$$@XXOOOXO",
"* $$$#@$%%%%%%%%%%%%%$$$@OoOOOO@",
"  #$$@@$%%%%%%%&&%%%%%$#@@+oO+@#",
"..@$$@+#$$$$%%&%%%%%%%%#@#+oOOOO",
"@@##@@@@#%$$%%%%%%%%$$%#@#OoOoXO",
"o@$#@@@@#$##$$$$$$$$#@@#+o....O+",
"*o+@++@@@@@@#$$$@@$@@+o@@. .oO+*",
"**..XO++@@@@@@@@++@+O+oO@O.OOo**",
"*****   XooXOOXoOoOO.XX.XO. ****"
};
