/* XPM */
static char *FLMEB0[] = {
/* columns rows colors chars-per-pixel */
"32 55 15 1 ",
"  c #874307",
". c #AF4300",
"X c #B74700",
"o c #CB5707",
"O c #D75F0B",
"+ c #DF670F",
"@ c #CB7F4F",
"# c #FF8F3B",
"$ c #CF8353",
"% c #D78B5B",
"& c #FFA35B",
"* c #EFA373",
"= c #FFB37B",
"- c #FFC79B",
"; c None",
/* pixels */
";;;;;; ;;;;;;;;;;;;;;;;;;;;;;;;;",
";;;;;;@o;  ;;;;;;;;;;;;;;;;;;;;;",
";;;  X@#.o#;;;;;;;;;;;;;;;;;;;;;",
";;;;;.@#@o@. . ;;;;;;;;;;;;;;;;;",
";;;;;;o..X.oo#@ ;;;;;;;;;;;;;;;;",
";;;;;;;;;  X##&&@ ;.X;;;;;;;;;;;",
";;;;;;;;;; X##&&*#.oX;;;;;;;;;;;",
";;;;;;;;;;;; o&&&&oX ;;;;;;;;;;;",
";;;;;;;;;;;;.#&=&*##o;; .;;;;;;;",
";;;;;;;;;;; @#&&&*&&&#@o@#o;;;;;",
";;;;;;;;;;;o#&&#&&&#&#oX X@# ;;;",
";;;;;;;;;;;@##&#&&#&&#o@o@Xo@;;;",
";;;;;;;;;X@#&&&&**#@&#@o@## ;;;;",
";;;;;;;. #####&&&=&o.  ;; ;;;;;;",
";;;;;;;@#&&&##&&&**&  ;;;;;;;;;;",
";;;;;;.&&&#.&&&*****o;;;;;;;;;;;",
";;;;;;@&&=&+o&&**=*@;;;;;;;;;;;;",
";;;;;.#*#*@o #&**==o;;;;;;;;;;;;",
";;;;;@*&#@;# #&**==&. ;;;;;;;;;;",
";;;;;+&&+.;;;#&&*==@; .;;;;;;;;;",
";;;;;.@@.;;;;o**&*=& ;.o;;;;;;;;",
";;;;;;;;;;;;; &***==*o &#;;;;;;;",
";;;;;;;;;;;;;;#**=**==#&* ;;;;;;",
";;;;;;;;;;;;;;o**==*-**&*;;;;;;;",
";;;;;;  . ;;;;o&*=====*@.;;;;;;;",
";;;;;;@oXo ;X&&&=====*&#o##o ;;;",
";;;;;;o@oo@#*--===-===&@@o@#;;;;",
";;;;;o&@oo#&*=---*==-==*.;. ;;;;",
";;;;;X###&#&&*--===--==&;;;;;;;;",
";;;;; ##&&&&&==----=-*=@;;;;;;;;",
";;;; @&&**&**=**=-=--=*&;;;;;;;;",
";;;;XX#=&###**&&&=-==-==@;;;;;;;",
";;;; #*=*##&&*=&#=-=&&*&*O ;;;;;",
";;;;;&***&&&&**X@==-=&&&&@O ;;;;",
";;;;;;#&**&##*&@&-*==-=&*&O.;;;;",
";;;;&-=&*&&***====@#==*&&&;;;;;;",
";;; *==**====*====##&====-O;;;;;",
";;;@&&*==---==--=***&&&##*O;;;;;",
";;X&***=====-======****&&=@.;;;;",
";.&#&*&*====-===*=-=***==&#.;;;;",
" &&&#@&===----========-*##&@;;;;",
"; &&###===--=====-=*=-===#&@.;;;",
";;o&oo#=--====&=====----=**%.;;;",
";;@&#&**=====*&=====-======%X;;;",
";;o&*=&&=*======*=---==*=-=-X;;;",
";; &**&&=*&#=-======-==--==-X;;;",
";;;o#**&**&&=-----==-=**=&&=OX;;",
";;;#&****=&===--=-=====*==#*$.X;",
";; &*==========-==--====-=##.;X;",
";;@&&==*==========----===&*o.O@;",
";.&&&**===*=====*===-=&&&##&**=@",
";X@X#&*==*=====**=*==&&###&##**@",
";;  @#&&&&***&*&****&###@@@X@&#@",
";;; oo###&&&&##&&&&&##oX.Xoo@Xo;",
";;;;   X..ooX.  Xo@@oX ..    .;;"
};
