/* XPM */
static char *FRFXB0[] = {
/* columns rows colors chars-per-pixel */
"14 15 31 1 ",
"  c #170F07",
". c #1F170B",
"X c #2F1B0B",
"o c #372313",
"O c #3F2F17",
"+ c #530707",
"@ c #4B371B",
"# c #732B00",
"$ c #5F4323",
"% c #6B4727",
"& c #774F2B",
"* c #7F532F",
"= c #874307",
"- c #9B5B13",
"; c #A36B3F",
": c #B37347",
"> c #BF7B4B",
", c #CB7F4F",
"< c #CF8353",
"1 c #D78B5B",
"2 c #DF9363",
"3 c #E79B6B",
"4 c #EFA373",
"5 c #F7AB7B",
"6 c #FFB383",
"7 c #FFBB93",
"8 c #FFC79B",
"9 c #FFC7A7",
"0 c #FFCFB3",
"q c #FFD3BB",
"w c None",
/* pixels */
"wwwww  . wwwww",
"www X@&*$X www",
"ww X=,561&X ww",
"w X=29099<#Xww",
"w #29q0007,# w",
"wX;9q0qqqq9:o ",
" O<0q0qqqq03# ",
" +1000qqqq04% ",
" O<00qqqqqq3# ",
"wX;80qqqqq9>O ",
"w %300q0007-Xw",
"w X-4000002# w",
"ww o*15661&Xww",
"www X@*-&@X ww",
"wwwww .X. wwww"
};
