/* XPM */
static char *FRFXF0[] = {
/* columns rows colors chars-per-pixel */
"28 30 32 1 ",
"  c #170F07",
". c #1F170B",
"X c #2F1B0B",
"o c #372313",
"O c #3F2F17",
"+ c #530707",
"@ c #432F1B",
"# c #732B00",
"$ c #6B4727",
"% c #874307",
"& c #9B5B13",
"* c #AF7B1F",
"= c #875733",
"- c #9B633B",
"; c #A36B3F",
": c #AB6F43",
"> c #B37347",
", c #BF7B4B",
"< c #CB7F4F",
"1 c #CF8353",
"2 c #D78B5B",
"3 c #DF9363",
"4 c #E79B6B",
"5 c #EFA373",
"6 c #F7AB7B",
"7 c #FFB383",
"8 c #FFBB93",
"9 c #FFC79B",
"0 c #FFC7A7",
"q c #FFCFB3",
"w c #FFD3BB",
"e c None",
/* pixels */
"eeeeeeeeeeee  XXooXX eeeeeee",
"eeeeeeeeee Xo#&:,,:=#X eeeee",
"eeeeeeeee O%>40qwwq92%X eeee",
"eeeeeeee @:7qwwwwwwwq5%Xeeee",
"eeeeeeeeX-8wwwwwwwwwwq2# eee",
"eeeeeee #3wwwwwwwwwwww9=Xeee",
"eeeeee X&9wwwwwwwwwwwwq:Xeee",
"eeeeeeX#3qwwwwwwwwwwwww,+eee",
"eeeeeX#1qwwwwwwwwwwwwww<+ ee",
"eee X#<0wwwwwwwwwwwwwww1# ee",
"ee X#>9wwwwwwwwwwwwwwww4%Xee",
"e X&48wwwwwwwwwwwwwwwww0># e",
"e $5qwwwwwwwwwwwwwwwwwww9;o ",
"eo:qwwwwwwwwwwwwwwwwwwwww6%.",
" #3wwwwwwwwwwwwwwwwwwwwww0-X",
"X&9wwwwwwwwwwwwwwwwwwwwwwq>o",
"X:qwwwwwwwwwwwwwwwwwwwwwwq>o",
"+<wwwwwwwwwwwwwwwwwwwwwww0-X",
"+<wwwwwwwwwwwwwwwwwwwwwww6%.",
"X:qwwwwwwwwwwwwwwwwwwwwwq<# ",
"X%7wwwwwwwwwwwwwwwwwwwwww<+ ",
" O;8qwwwwwwwwwwwwwwwwwwww2O ",
"e +&6wwwwwwwwwwwwwwwwwwww<+ ",
"ee +,qwwwwwwwwwwwwwwwwwwq;Xe",
"eeeX%7wwwwwwwwwwwwwwwwww6%.e",
"eee o-6qwq90wwwwwwwwwwq6-o e",
"eeee o%;,,*20wwwwwwwq7,%o ee",
"eeeee XXoo+%,70qwwq9<%OX eee",
"eeeeeeeeee X+%-,<<:&+X eeeee",
"eeeeeeeeeeee XXo+oXX eeeeeee"
};
