/* XPM */
static char *FRFXI0[] = {
/* columns rows colors chars-per-pixel */
"53 61 30 1 ",
"  c black",
". c #070707",
"X c #170F07",
"o c #1F170B",
"O c #2F1B0B",
"+ c #372313",
"@ c #3F2F17",
"# c #4B371B",
"$ c #732B00",
"% c #9F3700",
"& c #A73F00",
"* c #874307",
"= c #AF4300",
"- c #B74700",
"; c #C34F00",
": c #CB5707",
"> c #D75F0B",
", c #DF670F",
"< c #EB6F0F",
"1 c #F37317",
"2 c #FF7F1B",
"3 c #FF8F3B",
"4 c #FF9F43",
"5 c #FFA35B",
"6 c #FFB37B",
"7 c #EBDB57",
"8 c #FFC79B",
"9 c #FFCFB3",
"0 c #FFD7BB",
"q c None",
/* pixels */
"qqqqqqqqqqqqqqqqqqqqq.XXX qqqqqqqqqqqqqqqqqqqqqqqqqqq",
"qqqqqqqqqqqqqqqqqq  .o$*OX  qqqqqqqqqqqqqqqqqqqqqqqqq",
"qqqqqqqqqqqqqqqq  .Xo*24;OXX  q .XXXXX. qqqqqqqqqqqqq",
"qqqqqqqqqqqqqqqq..XO=3563;OX...XOO$$$#OX. qqqqqqqqqqq",
"qqqqqqqqqqqqqqqq..o%368852*OXXo$:<122<=@oX qqqqqqqqqq",
"qqqqqqqqqqqqqqqq .O:586641$oXX#<4444431>*OX.qqqqqqqqq",
"qqqqqqqqqqqqqqqqq.o=243531*OOO:453222112<=OX. qqqqqqq",
"qqqqqqqqqqqqqqqqq.XO*;>343<;;>354311111221=OX.qqqqqqq",
"qqqqqqqqqqqqqqqq .XXO*>5686555554321111221<=OX qqqqqq",
"qqqqqqqqqqqqqq  ..XXO;388000866654321112222<$o.qqqqqq",
"qqqqqqqqqq  .....XXO-58000008888665432223321*o.qqqqqq",
"qqqqqqqqqq.XX..XXoO$28000000000088654323343<$X qqqqqq",
"qqqqqqq ..XXoXXXO+*<50000000000008654433332:OX qqqqqq",
"qqqqqq .XXXO#*$$&<2580000000000008865544433>+X qqqqqq",
"qqqqq  XXoO*<4323588900000000000098866665431*o.qqqqqq",
"qqqqq .XO$>380988900000000000000009888888655<OXqqqqqq",
"qqqq. XO=158000000000000000000000009990098883$Xqqqqqq",
"qqqq..O>5880000000000000000000000000000000005*X qqqqq",
"qqqq.X$49000000000000000000000000000000000005*X qqqqq",
"qqqq.X%50000000000000000000000000000000000095*X qqqqq",
"qqqq.X=60000000000000000000000000000000000095-o.qqqqq",
"qqqq.X%69000000099900000000000000000000000006<OX qqqq",
"qqqq.X$480000009888900000000000000000000000083*o.qqqq",
"qqqqqX+269000009888800000000000000000000000084=O.qqqq",
"qqqqqXO<69000009888900000000000000000000000072#X qqqq",
"qqqq X+169000000099000000000000000000000000081+X qqqq",
"qqqq.o&480000000000000000000000000000000000083$X .qqq",
"qqq.o*2680000000000000000000000000000000000006-o .qqq",
"qq X$26800000000000000000000000000000000000007>O..qqq",
"qq.O>690000000000000000000000000000000000000082*oX. q",
"qqX+28000000000000000000000000000000000000000961%OX.q",
"q X$380000000000000000000000000000000000000000873>@X ",
" .o*4800000000000000000000000000000000000000000853=O.",
".XO>5800000000000000000000000000000000000000000853=O.",
".o$26000000000000000000000000000000000000000000862*o ",
".o*3800000000000000000000000000000000000000000085>OX ",
".o$1690000000000000000000000000000000000000000085-O. ",
" XO<590000000000000000000000000000000000000000094*X. ",
" XO:580000000000000000000000000000000000000000004*X. ",
" .O&480000000000000000000000000000000000000000003$X. ",
" .o$168000000000000000000000000000000000000000092@X. ",
"q XO;4800000000000000000000000000000000000000008<OX. ",
"q .o$<680000000000000000000000000000000000000006:O.. ",
"qq.XO-380000000000000000000000000000000000000084*o. q",
"qq .o$<68000000000000000000000000000000000000083$X. q",
"qqq.XO-36900000000000000000000000000000000000081OX. q",
"qqq Xo@:489000000000000000000000000000000000008<OX qq",
"qqq .Xo$:46800000000000000000000000000000000095-o. qq",
"qqqq .Xo@;2688888888900000000000000000000000081@X. qq",
"qqqqq .XXO*<2334555680000000000000000000000985>OX qqq",
"qqqqqqq .XoO$$$-><<258000000000000000000998863&o.qqqq",
"qqqqqqqqq .XXXoOO@$&<4688900000000000009888652*o.qqqq",
"qqqqqqqqqqq  ..XXXoO$;<1480000000000000886543<$X qqqq",
"qqqqqqqqqqqqqqq ...XXOO@;48000000000000865431;OX qqqq",
"qqqqqqqqqqqqqqqqqq  .XXXO<68888880000086432<;+X.qqqqq",
"qqqqqqqqqqqqqqqqqqqq ..Xo%3888888808886431,%OX. qqqqq",
"qqqqqqqqqqqqqqqqqqqqq ..XO-2333234666431,-$OX. qqqqqq",
"qqqqqqqqqqqqqqqqqqqqqq ..XO#**$$*&;>,,;%$OoX qqqqqqqq",
"qqqqqqqqqqqqqqqqqqqqqqq  ..XXXXXoooOOOOOXX. qqqqqqqqq",
"qqqqqqqqqqqqqqqqqqqqqqqqqq    .......XX. qqqqqqqqqqqq",
"qqqqqqqqqqqqqqqqqqqqqqqqqqqqqq .. qqqqqqqqqqqqqqqqqqq"
};
