/* XPM */
static char *FRFXO0[] = {
/* columns rows colors chars-per-pixel */
"44 50 11 1 ",
"  c black",
". c #070707",
"X c #170F07",
"o c #1F170B",
"O c #2F1B0B",
"+ c #372313",
"@ c #3F2F17",
"# c #732B00",
"$ c #A73F00",
"% c #874307",
"& c None",
/* pixels */
"&&&&&&&&&&&&&&&&&&&&&&&&&   &&&&&&  &&&&&&&&",
"&&&&&&&&&&&&&&&&&&&&     ... &&&&&   &&&&&&&",
"&&&&&&&&&&&&&&&&&&  ......XX. &  ...  &&&&&&",
"&&&&&&&&&&&&&&&&&  .....XXXX. & ...... &&&&&",
"&&&&&&&&&&&&&&&&& ...XXXXXXXXX..XX.....  &&&",
"&&&&&&&&&&&&&&&&& ..XXXXXXoOOoooXXX.....  &&",
"&&&&&&&&&&&&&&&& ...XXXXoOOO@OOOOoXX...   &&",
"&&&&&&&&&&&&&&&  ..XXXoooOO####+OOoX...   &&",
"&&&&&&&&&&&&&& .....XXoooO+#%%#OOOoXX...  &&",
"&&&&&&&&&&&&& ......XXXooO+%$$#OOoXXX....  &",
"&&&&&&&&&&&&& .......XXXoOO#$$#OooXXX....  &",
"&&&&&&&&&&&& .......XXXXoOO#%%#OOoXXX...  &&",
"&&&&&&&&&&&&& ......XXXXXoOO@@OOOoXXX.. &&&&",
"&&&&&&&&&&&&& .......XXXXoOOOOOOOooX.. &&&&&",
"&&&&&&&&&&&& .........XXXXoOOOOOOOoX. &&&&&&",
"&&&&&&&&&& ...........XXXXoOOOOOOooX. &&&&&&",
"&&&&&&&&&& ..X........XXXXXoooOOooXX. &&&&&&",
"&&&&&&&&& ..XXX.......XXXXXXXooooXX.. &&&&&&",
"&&&&  && ..XXXXX......XXXXXXXoooXXXX.. &&&&&",
"&&&&  .....XXXXXX.XXXXXXXXXXXoooXXXX... &&&&",
"&&& ......XXXXXXXXXXXXXXXXXXooooXXXXX... &&&",
"&& ...XXXXXXXXXXXXXXXXXXXXXoooXXXXXX..... &&",
"&& ..XXXXX.XXXXXXXXXXXXXXXXoXXXX......... &&",
"&& ..XXXXX.XXX....X..XXXXXXXXX...........  &",
"&& ..XXXXXXXXX........XXXXXXXX...........   ",
"& ...XXXXXXXXX........XXXXXXXXX..........   ",
"& ...XXXXXXXXX........XXX...XXX.........  &&",
"  ....XXXXXXXX.........................  &&&",
"  ....XXXXXXXXX..................  ...  &&&&",
"& ....XXXXXXXXXX...............       &&&&&&",
"& ....XXXXooooXXX..........     &&&&&&&&&&&&",
"& ....XXXXooooooXX........ &&&&&&&&&&&&&&&&&",
"& .....XXXoooOOOoXXXX..... &&&&&&&&&&&&&&&&&",
"  ......XXXooOOOooXXX.....  &&&&&&&&&&&&&&&&",
"  ......XXXXooooXXXXX.......     &&&&&&&&&&&",
"& ........XXXXXXXXXX............. &&&&&&&&&&",
"& ............X.................. &&&&&&&&&&",
"&  .............................. &&&&&&&&&&",
"&& ........  ................... &&&&&&&&&&&",
"&&& .....          ............ &&&&&&&&&&&&",
"&&& ....  &&&&&&&&    ........ &&&&&&&&&&&&&",
"&&&& ... &&&&&&&&&&&  ......  &&&&&&&&&&&&&&",
"&&&&  .. &&&&&&&&&&  .....  &&&&&&&&&&&&&&&&",
"&&&&&       &&&&&&& ...... &&&&&&&&&&&&&&&&&",
"&&&&&&       &&&&&  ...... &&&&&&&&&&&&&&&&&",
"&&&&&&&&&  . &&&&& ......  &&&&&&&&&&&&&&&&&",
"&&&&&&&&&   &&&&&& .....  &&&&&&&&&&&&&&&&&&",
"&&&&&&&&&&&&&&&&&& ...  &&&&&&&&&&&&&&&&&&&&",
"&&&&&&&&&&&&&&&&&  .. &&&&&&&&&&&&&&&&&&&&&&",
"&&&&&&&&&&&&&&&&&&   &&&&&&&&&&&&&&&&&&&&&&&"
};
