/* XPM */
static char *FRFXM0[] = {
/* columns rows colors chars-per-pixel */
"52 73 22 1 ",
"  c black",
". c #070707",
"X c #170F07",
"o c #1F170B",
"O c #2F1B0B",
"+ c #372313",
"@ c #3F2F17",
"# c #4B371B",
"$ c #732B00",
"% c #9F3700",
"& c #A73F00",
"* c #874307",
"= c #AF4300",
"- c #B74700",
"; c #C34F00",
": c #CB5707",
"> c #D75F0B",
", c #EB6F0F",
"< c #F37317",
"1 c #FF7F1B",
"2 c #FF8F3B",
"3 c None",
/* pixels */
"3333333333333333333333333333333333333333333333333OO3",
"333333333333333333333333$3333333333333333333333O333O",
"3333333333333333333333333333333333333333333333OO33O3",
"3333333333333333333333333333333333333333333O33OO3333",
"3333333333333333333333333333333333333333333333333333",
"3333333333333333333333333333333333333333333333333333",
"3333333333333333333333333333333333333333333333333333",
"3333333333333333333333333333333333333333333333333333",
"3333333333333333333333333333333333333333333333333333",
"3333333333333333333333333333333333333333333333333333",
"3333333333333333333333333333333333333333333333333333",
"3333333333333333333333333333333333333333333333333333",
"3333333333333333333333333333333333333333333333333333",
"3333333333333333333333333333333333      333333333333",
"33333333333333333333       333333 .....  33333333333",
"33333333333333333   ........ 333 ....... 33333333333",
"333333333333333 ....XXXXXXXX. 3 .XX......   33333333",
"33333333333333 ..XXXooOOOoooXX .XXXXXXX.....33333333",
"3333333333333 .XXXooOOOOOOOOOXXXXooXXXXXXX.. 3333333",
"3333333333333 .XXoOOOO@$$$@@@OOooOooXXXXXXX. 3333333",
"3333333333333 .XooOOOOO@$$$*%%$OOOOooooXXXX. 3333333",
"3333333333333 .XoOOOOOOO@$*&:>>%@OOOOOoXXX.. 3333333",
"3333333333333 .XoOOO@@@@@$*=>,,>%@OOOOoXXX.. 3333333",
"3333333333333 XXoOO@@$$$$$%=><1,:%$@OoXXXX.  3333333",
"3333333333333 XXoOO@@$$$*%%&>121,=*@OXXXXX.  3333333",
"3333333333333 .XoOOOOO@$*%%=><22<>&@OXXX.... 3333333",
"3333333333333 .XoOOOOOO$*%&->,222,:$OXXX....    3333",
"333333333333 .XXoOOOOOO#*&;;>,1221>%OoXXX... ... 333",
"33333333333.XXooOOOOOOO#%-:>,,122<>&$OoXX... .... 33",
"333333  33 XXOOOOOOOOO@$%;>>,<222<>;*OOoXX..  .... 3",
"3333 ......XOOOOOOOOO#$$%;>,<<221<>;*OOoXXX....... 3",
"333 ..XXXXXoOOOO@@$$$**%&;>,<<121,:=$OOOooXX...... 3",
"33 ..XXoOOOOOOO+$$%===&=;:>,<,<<,:&*$+OOOOoXXXXX. 33",
"33 .XXoOO++OOOO+$$%-::::>>,<<,>>:&$$@+OOOOooXXXX..33",
"33 .XoOO@$$@OOOO$$*%-;:>,,<<<>;&*$$@@OOOOOOOoXXX.. 3",
"33.XXoOO$**$@OOO#$$*%-;>>,,,,>-%*$$@++++OOOOOoXX.. 3",
"3 .XoOO+$$$$$+OO@$$$$%;;;;:>>:-%*$$@OO@@+OOOoXX... 3",
"3 .XoOO+$$$$$$OO@@@@$*-%**%--;&*$$$+O+@@OOOoXXX..  3",
"3.XXoOO+$$$$$$@@++OO$**$$$$**&*$+OOOO+@OOoXXX...  33",
"3.XooOO+$$**$$$$+OOO$$$$@+@$$$$OOOOOO@@OoXXX.   3333",
"3.XoOOO+$$&***$$OOO+$$$@+OOOO+OOOoooOOOOoXX.. 333333",
"3.XoOOO+$$&&&&*$OOO+@@@++OOOOOOOOoooOOOoXX... 333333",
" .XoOO+$$*&-;-&$+OO++OOO++OOOOOOOOooOOOoXX... 333333",
".XoOOO+$*&-;:;;&$+OOOOOO@$OOOOOOOOOOOOOoXX.. 3333333",
".XOOOO+$*&;::::;&$+OOO+$$$$+OOOOOOOOOOooXX.. 3333333",
".XOOOOO@$*-:;&&--*$O+$$$**$$$$$+OOOOOOooXXX..  33333",
".XOOOOOO+$*&%***%$$$$$*********$$@+OOOOooXXXX.. 3333",
".XO$$@OOOO+$$$$$$$$$$*******%%%*$$+OOOOooXXXXX.. 333",
" XO$%$OOOOOOOOOOOO+$$$****%%%***$$+OOOOoXXXXXXX. 333",
" Xo$%$OOooooooOOOOO+@$$**%%%%***$@OOOOooXXX..X.. 333",
"3.XO$+OooooooooOOOOO+$$*&&&****$$+OOOoooXX.......  3",
"3 XXoooooooooooOOOOO+$$%&=%**$$$+OOOoXXXXX.. .....  ",
"33..XXXXXoOoooOOOOO+@$*&=&%$$$$+OOOOXXXXX..   .XX.. ",
"333   ..XoOOoOOOOOO@$*%=&**$$@+OOOOoX.....    .XX.. ",
"3333333 .XoOOOOOOOO$$%==&*$$@OOOOOoXX....     .XX.  ",
"3333333 .XoOOOOOOO+$*&-;-*$@+OOOooXX....      .XX. 3",
"33333333.XoOOOOOOO$*&&--&*$$+OOOoXXX...      .XXX. 3",
"33333333.XoOOOOOOO$*==&&&*$$+OOOoXXX..     ..XXX.. 3",
"33333333 .XOOOOOO+$&==&***$@OOOOoXXXX..   ..XXXX. 33",
"333333333.XXOOO+@$$&&&**$$$+OOOOOooXX......XXXX.. 33",
"333333333 .XoO+$$$****$$$@+OOOOOOOoXXX.....XXX.. 333",
"3333333333 .XOO+$$$$$$+OOOOOoOOOOoXXX...........3333",
"33333333333 XoOOO@$$@OOOOOOXXXoooXXX... ......  3333",
"33333333333 .XoOOOO+OOooooXXXXXXXXXX.........  33333",
"33333333333 .XXooOOOOoXXXXXXX.XXXXXXX......  3333333",
"333333333333 .XXXoOOoXXXXXXX...XXXXXX..... 333333333",
"3333333333333 .XXXoOoXX...........XXX...  3333333333",
"3333333333333 ..XXXooXXXXXX...........  333333333333",
"333333333333333 .XXXoXXXXXX.....     333333333333333",
"3333333333333333 .XXXXXXXXX.    33333333333333333333",
"3333333333333333 ....XXXXX.. 33333333333333333333333",
"333333333333333333  ....... 333333333333333333333333",
"33333333333333333333        333333333333333333333333"
};
