/* XPM */
static char *FRFXD0[] = {
/* columns rows colors chars-per-pixel */
"23 23 36 1 ",
"  c #170F07",
". c #1F170B",
"X c #2F1B0B",
"o c #372313",
"O c #3F2F17",
"+ c #530707",
"@ c #4B371B",
"# c #732B00",
"$ c #5F4323",
"% c #6B4727",
"& c #774F2B",
"* c #7F532F",
"= c #874307",
"- c #9B5B13",
"; c #AF7B1F",
": c #875733",
"> c #8F5F37",
", c #9B633B",
"< c #A36B3F",
"1 c #AB6F43",
"2 c #B37347",
"3 c #BF7B4B",
"4 c #CB7F4F",
"5 c #CF8353",
"6 c #D78B5B",
"7 c #DF9363",
"8 c #E79B6B",
"9 c #EFA373",
"0 c #F7AB7B",
"q c #FFB383",
"w c #FFBB93",
"e c #FFC79B",
"r c #FFC7A7",
"t c #FFCFB3",
"y c #FFD3BB",
"u c None",
/* pixels */
"uuuuuuuuuuuu     uuuuuu",
"uuuuuuuuu  XO###OX uuuu",
"uuuuuu .X+#=38973-@X uu",
"uuuuuuX%3339rtttrq3#Xuu",
"uuuuu o4trettyttrte4# u",
"uuuuu #6rtyyyyyyytrw<o ",
"uuuu X-9ryytyyyyyytt8$ ",
"uuuu.%7ryyyyyyyyyyytq:X",
"uuu +2rtyyyyyyyyyyytw>X",
"uu +-9ytyyyyyyyyyyytw,X",
"u @29ryyytyyyyyyyyytq*X",
"uX>ettyyytyyyyyyyyyr4# ",
"uX,wtyyyyyyytyyytyyr;+ ",
" #3wyyyyyyyyyyyyytyr<Xu",
"X*0rttyyyyytyyyyytyr,Xu",
"X<rttttyyyyyyyyyyyyw=Xu",
".&9tyttyyyyyyyyte082@ u",
" X*60wrtyyyyyyt9-#+X uu",
"u X+=3wtrrttttw-+  uuuu",
"uuu X#10rtytte2+ uuuuuu",
"uuuuu O&26775<+ uuuuuuu",
"uuuuuu Xo+##OX uuuuuuuu",
"uuuuuuuu     uuuuuuuuuu"
};
