/* XPM */
static char *FRFXC0[] = {
/* columns rows colors chars-per-pixel */
"17 18 33 1 ",
"  c #170F07",
". c #2F1B0B",
"X c #372313",
"o c #3F2F17",
"O c #530707",
"+ c #432F1B",
"@ c #4B371B",
"# c #732B00",
"$ c #5F4323",
"% c #6B4727",
"& c #774F2B",
"* c #874307",
"= c #9B5B13",
"- c #AF7B1F",
"; c #875733",
": c #9B633B",
"> c #A36B3F",
", c #AB6F43",
"< c #B37347",
"1 c #BF7B4B",
"2 c #CB7F4F",
"3 c #CF8353",
"4 c #D78B5B",
"5 c #E79B6B",
"6 c #EFA373",
"7 c #F7AB7B",
"8 c #FFB383",
"9 c #FFBB93",
"0 c #FFC79B",
"q c #FFC7A7",
"w c #FFCFB3",
"e c #FFD3BB",
"r c None",
/* pixels */
"rrrrrrr     rrrrr",
"rrrrr .oO##O. rrr",
"rrrr @:43375;. rr",
"rrr X>9wqqew6$ rr",
"rrr.*6wwwwww9:.rr",
"rr o<qeeewew0,Xrr",
"rr.*6weeweeeq2# r",
"r O1qeeeeeeee7*.r",
"r.=7weeeeeeeeq,.r",
" O3qweeeeeewww3o ",
" %7eweeeeeewww2o ",
" #8ewweeweweeq,Xr",
" @6eeeeeweeee8*.r",
" .>0weeeweeew5# r",
"r @,8eewww00w3o r",
"rr O:79995-<4&.rr",
"rrr X$;::*Oo+. rr",
"rrrr  ...    rrrr"
};
