/* XPM */
static char *FRFXN0[] = {
/* columns rows colors chars-per-pixel */
"49 56 17 1 ",
"  c black",
". c #070707",
"X c #170F07",
"o c #1F170B",
"O c #2F1B0B",
"+ c #372313",
"@ c #732B00",
"# c #9F3700",
"$ c #A73F00",
"% c #874307",
"& c #AF4300",
"* c #B74700",
"= c #C34F00",
"- c #CB5707",
"; c #D75F0B",
": c #EB6F0F",
"> c None",
/* pixels */
">>>>>>>>>>>>>>>>>>>>>>>>   >>>>>>>>>>>>>>>>>>>>>>",
">>>>>>>>>>>>>>>>>>>>>>> ... >>>>>     >>>>>>>>>>>",
">>>>>>>>>>>>>>>>>>   .....X.. >> .....  >>>>>>>>>",
">>>>>>>>>>>>>>>>> ...XXXXXXX. > .......  >>>>>>>>",
">>>>>>>>>>>>>>>  ..XXXXXXXooX.>.XXX...... >>>>>>>",
">>>>>>>>>>>>>  ...XXoooOOoOOoX.XXXXXX.....    >>>",
">>>>>>>>>>>>> ...XXXoOOOOOOOOOoooooXXXXX...  >>>>",
">>>>>>>>>>>> ..XXXXoOOOO++@@%%@OOOooXXXXX..  >>>>",
">>>>>>>>>>>> ..XXXXooOOO+@@%*=$@OOOooXXXXX..>>>>>",
">>>>>>>>>>>> ..XXXXoooOOO+@$-:=%OOOOoooXXX..>>>>>",
">>>>>>>>>>>> .XXXXoooooOOO@$;::*@OOOOoXX...>>>>>>",
">>>>>>>>>>>> .XXXooooOOOOO@#-::-#@OOOoX. ...>>>>>",
">>>>>>>>>>>>>.XXXooooOOOOO@%=;::=%@OoX..  ..>>>>>",
">>>>>>>>>>>>> .XXoooooOO+@@%=;::;&@OoX.   .  >>>>",
">>>>>>>>>>>> ..XXooooooO+@@@&;:::=@OoX..  >>>>>>>",
">>>>>>>>>>> ..XXXXXooooO@@@@$=::;&@OXX... >>>>>>>",
">>>>>>>>>> .XXXXXXXooooO+@+@%$===$@OoX... >>>>>>>",
">>>>>  >> .XooooXXXooooOO+@@%#$#%@@OOXX... >>>>>>",
">>>> ..  .XoOOOOoooooOOOO+@@%%%%@@@+OoXX... >>>>>",
">>> .....XoOOOOOOOOOOOOOO+@@%%%%@@+OOoXXX... >> >",
">> ..XXXXooOOOoOOOOOOOOOO+@@%%@@@+OOOoXXXXX..    ",
">>..XXXoOOOoooooOOOOOOO+++@@@@@+OOOOooXXXXX..... ",
"> ..XXoOOOOoooooOOOOOO++@@@%@+OOOOoooXXXXXXXX... ",
"> ..XXOOOOOooooooOOOOO++@@@@@+OOooooXXXXXXXXX... ",
"> .XXoOO+OOOOoooooooOOO+++@@@+OOooooooooXXXXX.. >",
">..XXoOO++OOOOoooooooOOOOOO+++OOOOoooOOoXXX... >>",
" ..XXoOOOOOOOOoooooooOOOOOOOOOOOOOoooOooXX... >>>",
" ..XXooOOOOOOOOooooooOOOooOOOOOooXXXoooXX..  >>>>",
" ..XXoOOOOOOOOOOooooOOOooooXoooXXXXXXXXX..  >>>>>",
" ..XXoOOOOO+OOOOOoooOOoooXXXXXXXX...XXXX.. >>>>>>",
">..XXoOOOOO++++OOooooooooXXXXXXXX...XXXX. >>>>>>>",
" ..XXoOOOO+@@@@@OOooooXXXXXX.XXXX...XXX.. >>>>>>>",
" .XXXooOOO+@@%@@+OOooooXXXXXX.XXX....X... >>>>>>>",
" .XXXooOOO+@@%@@@+OOooooooooXXXXXX.X.....  >>>>>>",
" .XXXooooOOO@@@+++OOOOOOOOOOooXXXXXXXX.... >>>>>>",
">..XXooXXoOOOOOOOOOOOOOOOOOOOOOOooXXXXX... >>>>>>",
"> .XXoXXXXXooOOOOOOoOOOOOOOOOOOOOoXXXXX... >>>>>>",
">>..XXXXXXXXXXXXooooooOOOOOOOOOOooXXX..... >>>>>>",
">> .XXXXXX...XXXXXXXXXooOOOOOOOOoXXX..... >>>>>>>",
">> ..XXXX.......XXXXXXooOOOOOOooXXX...    >>>>>>>",
">>> ..XXX........XXXXXoOOOOooooXXX... >>>>>>>>>>>",
">>>> ..XXXXX.....XXXXooOOOOooXXX.... >>>>>>>>>>>>",
">>>>> ..XXXX....XXXXooOOOOoXXXX..... >>>>>>>>>>>>",
">>>>> ..XXXXXXXXXXXXoOOOOoXXXX..... >>>>>>>>>>>>>",
">>>>>> .XXXXXXXXXXXoOOOOOoXXXX...  >>>>>>>>>>>>>>",
">>>>>> .XXXXXXXXXXXoOOOOOooXX.... >>>>>>>>>>>>>>>",
">>>>>>> .XXXXXXXXXXoOOOOOooXX....  >>>>>>>>>>>>>>",
">>>>>>> ...XXXXXXXXoOOoooXXXX.....  >>>>>>>>>>>>>",
">>>>>>>> ..XXXXXXXooooXXXXXX....... >>>>>>>>>>>>>",
">>>>>>>>> ..XXXXXXooXXXXXX........ >>>>>>>>>>>>>>",
">>>>>>>>> ......XXXXXX....... ... >>>>>>>>>>>>>>>",
">>>>>>>>>> ......XXXX......      >>>>>>>>>>>>>>>>",
">>>>>>>>>>> ..........     >>>>>>>>>>>>>>>>>>>>>>",
">>>>>>>>>>>>     ....   >>>>>>>>>>>>>>>>>>>>>>>>>",
">>>>>>>>>>>>>>>>>  .. >>>>>>>>>>>>>>>>>>>>>>>>>>>",
">>>>>>>>>>>>>>>>>>>   >>>>>>>>>>>>>>>>>>>>>>>>>>>"
};
