/* XPM */
static char *FRFXE0[] = {
/* columns rows colors chars-per-pixel */
"26 26 35 1 ",
"  c #170F07",
". c #1F170B",
"X c #2F1B0B",
"o c #372313",
"O c #3F2F17",
"+ c #530707",
"@ c #4B371B",
"# c #732B00",
"$ c #5F4323",
"% c #6B4727",
"& c #774F2B",
"* c #7F532F",
"= c #874307",
"- c #9B5B13",
"; c #875733",
": c #9B633B",
"> c #A36B3F",
", c #AB6F43",
"< c #B37347",
"1 c #BF7B4B",
"2 c #CB7F4F",
"3 c #CF8353",
"4 c #D78B5B",
"5 c #DF9363",
"6 c #E79B6B",
"7 c #EFA373",
"8 c #F7AB7B",
"9 c #FFB37B",
"0 c #FFB383",
"q c #FFBB93",
"w c #FFC79B",
"e c #FFC7A7",
"r c #FFCFB3",
"t c #FFD3BB",
"y c None",
/* pixels */
"yyyyyyyyyyyyyyy    yyyyyyy",
"yyyyyyyyyyyyy XO@#o yyyyyy",
"yyyyyyyyyy XX+=367,@ yyyyy",
"yyyyyyyy X@=:<7rrrq:o yyyy",
"yyyyyyy O;5qeerttre5# yyyy",
"yyyyy X#>0rtttttrrrq:Xyyyy",
"yyy X+#>0rtttetttrre4@ yyy",
"yy @,550ettttrrtttrr8=Xyyy",
"yyX;wrrrrttttttttttrq>+ yy",
"yyX*qtttttttttttrttrw3=o y",
"yy #5errtttttttttttrew7;Xy",
"yy.#5eetttttttttttttrtr5@ ",
"yyX-0ertttttttttttttrtw,oy",
"yy#2wetttrrtttttttttwr6%Xy",
"y <qrrttttrttttttttr94-X y",
" oqtttttttttttttrrtt7=o yy",
" #rttttttttttttrrttr6#Xyyy",
"X:tttrttttttttttrrtt7=Xyyy",
"o<tttttttttttttttrtrq:Xyyy",
"X<rrttrttttttttttrttr1oyyy",
"X;teerrrrtttttttrrtte<Xyyy",
" O776wrrerrerrrrrrrtq-Xyyy",
"y $&=,6qertreewerrte<+ yyy",
"yy .XO#>3567qeewqee1# yyyy",
"yyyyy  XO##=-:-===%+ yyyyy",
"yyyyyyyy   .XXXXXX  yyyyyy"
};
