/* XPM */
static char *FRFXH0[] = {
/* columns rows colors chars-per-pixel */
"45 47 30 1 ",
"  c black",
". c #070707",
"X c #170F07",
"o c #1F170B",
"O c #2F1B0B",
"+ c #372313",
"@ c #3F2F17",
"# c #4B371B",
"$ c #732B00",
"% c #9F3700",
"& c #A73F00",
"* c #874307",
"= c #AF4300",
"- c #B74700",
"; c #C34F00",
": c #CB5707",
"> c #D75F0B",
", c #DF670F",
"< c #EB6F0F",
"1 c #F37317",
"2 c #FF7F1B",
"3 c #FF8F3B",
"4 c #FF9F43",
"5 c #FFA35B",
"6 c #FFB37B",
"7 c #EBDB57",
"8 c #FFC79B",
"9 c #FFCFB3",
"0 c #FFD7BB",
"q c None",
/* pixels */
"qqqqqqqqqqqqqqqqqqqqq   qqqq ...    qqqqqqqqq",
"qqqqqqqqqqqqqqqqqq  ....   ..XX.... qqqqqqqqq",
"qqqqqqqqqqqqqqqqq ..XXXX....XXX.... qqqqqqqqq",
"qqqqqqqqqqqqqqq ..XXoXXXX..XoOOooX. qqqqqqqqq",
"qqqqqqqqqqqqqqq .XOOOooXXXXO$=--*@OX. qqqqqqq",
"qqqqqqqqqqqqqqq.XoO$OOXoXoO=356643:@o.qqqqqqq",
"qqqqqqqqqqqqqq XXoO$@OXXoO%480009871+X qqqqqq",
"qqqqqqqqqqqq .XoOOO$OXXoO*2800000005&X qqqqqq",
"qqqqqqqqqqq.XXoOOOO@Ooo+-26800000006;o. qqqqq",
"qqqqqqqqqq XoO++OO+@$$-<589000000007:O. qqqqq",
"qqqqqqqqq .o@;;*$O*=<357800000000008>O.. qqqq",
"qqqqqqqq .X@:431<,2378000000000000082+X. qqqq",
"qqqqqq .XXO=3886668800000000000000085;OX. qqq",
"qqqq  .XoO$280000000000000000000000085;OX qqq",
"qqqq  .oO=<6900000000000000000000000085;O.qqq",
"qqq ..XO*2690000000000000000000000000083#Xqqq",
"qqq .XoO>5900000000000000000000000000082@Xqqq",
"qqq.Xo@:4800000000000000000000000000006:o.qqq",
"qq Xo$:37900000000000000000000000000971@X  qq",
"qq.o$<47800000000000000000000000000962$o.  qq",
"q XO,58800000000000000000000000000095-OX.  qq",
"q X$280000000000000000000000000000095:OoX. qq",
"q.X$3800000000000000000000000000000084>$o. qq",
"q.o%480000000000000000000000000000009861#X qq",
" .O;580000000000000000000000000000000095;o.qq",
" XO>690000000000000000000000000000000098>O.qq",
" XO>690000000000000000000000000000000008<O. q",
" XO>6900000000000000000000000000000000082@X q",
" XO>6899000000000000000000000000000000093$X q",
" XO:5899000000000000000000000000000000093$X  ",
" XO-489900000000000000000000000000000086>OX  ",
" .o*380000000000000000000000000000000082$o. q",
" .X@<68000000000000000000000000000000082#X. q",
"q XO=38000000000000000000000000000000085%o. q",
"q .X#<6800000000000000000000000000000007>O. q",
"qq XO=3800000000000000000000000000000095=o. q",
"qq .X#<68000000000000000000000000000985>OX qq",
"qqq XO%3800000000000000000000000000085>+X. qq",
"qqq .XO>590000000000000000000000000083*o. qqq",
"qqqq Xo$280000000000000000000000000095=o. qqq",
"qqqqq.XO*145890000000009889000000000082$X qqq",
"qqqqq .Xo+*;270000088887557000000000005=o qqq",
"qqqqqq  .XXo$15677642332;;<580000875441$X qqq",
"qqqqqqqqq ..o+%=:>;*$$$$OOO=146763>*$$Oo. qqq",
"qqqqqqqqqq  .XXooOoXXXoXX.XoO*;>;$OXXX.. qqqq",
"qqqqqqqqqqqqq  .........    .XoooX.  qqqqqqqq",
"qqqqqqqqqqqqqqq         qqqqq     qqqqqqqqqqq"
};
