/* XPM */
static char *FRFXA0[] = {
/* columns rows colors chars-per-pixel */
"12 14 30 1 ",
"  c #170F07",
". c #1F170B",
"X c #2F1B0B",
"o c #372313",
"O c #3F2F17",
"+ c #530707",
"@ c #4B371B",
"# c #732B00",
"$ c #6B4727",
"% c #774F2B",
"& c #7F532F",
"* c #874307",
"= c #9B5B13",
"- c #9B633B",
"; c #A36B3F",
": c #AB6F43",
"> c #BF7B4B",
", c #CB7F4F",
"< c #CF8353",
"1 c #D78B5B",
"2 c #EFA373",
"3 c #F7AB7B",
"4 c #FFB383",
"5 c #FFBB93",
"6 c #FFBF9B",
"7 c #FFC79B",
"8 c #FFC7A7",
"9 c #FFCFB3",
"0 c #FFD3BB",
"q c None",
/* pixels */
"qqqqqq qqqqq",
"qqq XX+oX qq",
"q X@&:>,&o q",
"qX$<37893&Xq",
" O>8889091+ ",
" #29990003# ",
"X*70000905*X",
"X=80000005=X",
"X=70000004*X",
" #20000092$ ",
" X-600998,O ",
"q O;3553,$Xq",
"qq O%--*@X q",
"qqq  XX. qqq"
};
