/* XPM */
static char *FRFXL0[] = {
/* columns rows colors chars-per-pixel */
"55 75 23 1 ",
"  c black",
". c #070707",
"X c #170F07",
"o c #1F170B",
"O c #2F1B0B",
"+ c #372313",
"@ c #3F2F17",
"# c #732B00",
"$ c #9F3700",
"% c #A73F00",
"& c #874307",
"* c #AF4300",
"= c #B74700",
"- c #C34F00",
"; c #CB5707",
": c #D75F0B",
"> c #EB6F0F",
", c #F37317",
"< c #FF7F1B",
"1 c #FF8F3B",
"2 c #FF9F43",
"3 c #FFA35B",
"4 c None",
/* pixels */
"444444444444444444444444444444444444O444444444444444444",
"4444444444444444444444444444444444444444444444444444444",
"4444444444444444444444444444444444444444444444444444444",
"4444444444444444444444444444444444444444444444444444444",
"4444444444444444444444444444444444444444444444444444444",
"4444444444444444444444444444444444444444444444444444444",
"4444444444444444444444444444444444444444444444444444444",
"4444444444444444444444444444444444444444444444444444444",
"4444444444444444444444444444444444444444444444444444444",
"4444444444444444444444444444444444444444444444444444444",
"4444444444444444444444444444444444444444444444444444444",
"4444444444444444444444444444444444444444444444444444444",
"4444444444444444444444444444444444444   444444444444444",
"44444444444444444444444444444444444    . 44444444444444",
"4444444444444444444         444444 ...... 4444444444444",
"44444444444444444  .......... 444 ........ 444444444444",
"4444444444444444  ..XXXooooXX.   .XX.......  4444444444",
"4444444444444444 .XXooOOOOOOOoX..XoXXXXXXX...  44444444",
"4444444444444444 .XoOOO@####OOoXXoOooXXoXXX... 44444444",
"444444444444444 .XoOO#########OOOOOOOOoOooXX... 4444444",
"444444444444444 .XOO####&&#&$*%$##OOOOOOoXXX... 4444444",
"444444444444444 XoO@#&&$$$&$%;:>;$##@OOOoXX.... 4444444",
"444444444444444 XoO#&%*---***:>,>:%&#OOoX...... 4444444",
"444444444444444 XoO##%%**;;--;><<>;*#OOoX....... 444444",
"444444444444444 XoO##&&&%-;;;:><1<>:&@OoXX....... 44444",
"444444444444444 XoO@####&=;::>><12<>-#OoXXX....... 4444",
"444444444444444 XoO+####&-:>>,<1221<:$OOoXX........ 444",
"4444444444444 .XoOO+###&%;>,<112221<:$OOOoX........ 444",
"44444444 444 .XoOO##&$%%-:><1223321,:$@OOOoXX..XX.. 444",
"444444 ......XOO+#&*---;:>,1222332<>-$#+OOoXXXXXXX. 444",
"44444 .XXXXXXO+@#&=:>>:>>,<1222332<>-%&#+OOoXXXXX.. 444",
"44444.XXoOOOOO@##%:,<<,,<<11233321<>;*$#@OOooooXX..4444",
"4444 .XoOO+@####&-><1111112333321<,>:*&##@OOOOOoXX. 444",
"4444 XXOO###&&##$;>,<11222233321<,,>:=&&####@OOooX..444",
"444 .XoO+#&$$&&&%;>>,<1221122221,,>:-%$$$$&&#+OOoX.. 44",
"444.XoOO#&$$$$$$*-::>><11<,<111<,>:-*$%--*&#+OOoXX... 4",
"44 .XoO+#&$$$***----:><<,>:>,,,>:*$&&&*-*&#OOooXX.... 4",
"44 .XOO@#$%**---*%%*-><<>:;:;;:-%####$--$#OOoXX...... 4",
"44 .oOO#&%=;;;;;=&&$-:>>::;-%%=%&##@#&==#OOoXX..... 444",
"44 XoO+#&%-:>>:;%&#&-:::::-%&&$$&&###&%$#OoXXX..   4444",
"4 .XOO@&$=;:>,>:=&##%;;;;;-%&&&&&&###&$&+OoXXX. 4444444",
"4.XoOO#&%;:>,<,,:%##&*;;;;-%$$$&########OoXXX.. 4444444",
" .oOOO#&*:>>>,,,,;&@#&*;;;;****%&#######OOXXX..  444444",
" .oO@##&*;>,>>:>,:*##&*;:::;::;-%&#####@OOoXX... 444444",
"4.XO####&*;>>:;:>:;*%*-;:>>>>>>:;-$&####OOoXXXX..   444",
"4.XO######&%-***-----;;:>>>>,,>>:-*$&##+OOoooXXX...  44",
"4.XO#&##OO+##&$$%%%*-;;:>>>>>>>>:;-%&##+OOOooooXX..  44",
"4.XO&%&#+OOOO+##&&&%*--::>>:>>>::;-*&##++OOooooXX.  444",
"4 XO%;-&#@@OOO##&&&%*--::>>::::;;;-%&####OOoXXoXX.. 444",
"4 XO%::*&##@@@##&&&%*--:>,>>:;;;;-*%%&&#@OoXXXXoXXX. 44",
"44.o#::-%&&#######&%-;:>>,>>::;--=%%%&#OOOoXXXXXooXX. 4",
"44.XO$-=$&&&&#&&##&=-::>,,>>::--=%$$&#OOooXX..XXooXX. 4",
"44 .oO##&&$$$&&&&&$=-:><<<>>:;-%$$$&#OooXXX....XXoXX.. ",
"444.XXoOO#&$$&&&&$=-:>,11<>:;-=$&$&#OoXXXXX... XXoXX. 4",
"4444 .XXoO#&$&&&&$=-:><11<>:;-%&&&#@OoXXX.... .XXoXX. 4",
"444444 .XoO#&&&&&%-:>,<1<<<>>;-$&#@OOoXXX.....XXooXX. 4",
"4444444 .XoO#&%%%%->><<<,,<,>:;=&#+OOoXXX....XoOOoX..44",
"44444444 .XoO#%==-:>,,,,,,<<,>:;=&#@OoXXXXXXXoOOOoX. 44",
"444444444 ..XO$-;:>,,,,,,,>>::;;*%$#OOooXXXXoOOOoXX. 44",
"444444444   .o@%;:>,,,>>>>>:-*%*%**&@OooXXXooooooX..444",
"4444444444  .Xo@$;>,,>:;;;;*&##&&&&#OOoXXXXXoooXXX. 444",
"444444444444 .Xo@%;:::*&&&&&#++####+OoXXXXXXooXXX..4444",
"44444444444444.XO&-;:;%#++@+OOOO+++OOOoXXXXXXXXX.. 4444",
"44444444444444 XO#*;;*&+OOOOOOOOOO+OOOOoXXXXXX... 44444",
"44444444444444 XO#%=;-&+OOOOOOOOOO+++OOOoXXXXX... 44444",
"44444444444444 .o+#%;;&+OOOOOOOOOOOOOOOooXXX.... 444444",
"44444444444444 .XO+&%-$#OOOOOOOOOooOOOoXXXX.... 4444444",
"444444444444444 .XO+&%&#+OOOOooooXXXXXXXXX.... 44444444",
"4444444444444444.XoO+###++OOOoXXXXX....X....  444444444",
"4444444444444444 .XoO++++OOOoXXXX..........  4444444444",
"44444444444444444 .XXOOOOOOooXX...........  44444444444",
"444444444444444444 ..XXXooXXXXX...   ...  4444444444444",
"44444444444444444444 ...XXXXXX... 444   444444444444444",
"44444444444444444444444 ........ 4444444444444444444444",
"444444444444444444444444        44444444444444444444444"
};
