/* XPM */
static char *FRFXG0[] = {
/* columns rows colors chars-per-pixel */
"37 38 35 1 ",
"  c #170F07",
". c #1F170B",
"X c #2F1B0B",
"o c #372313",
"O c #3F2F17",
"+ c #530707",
"@ c #4B371B",
"# c #732B00",
"$ c #6B4727",
"% c #874307",
"& c #9B5B13",
"* c #B74700",
"= c #AF7B1F",
"- c #8F5F37",
"; c #9B633B",
": c #A36B3F",
"> c #AB6F43",
", c #B37347",
"< c #BF7B4B",
"1 c #CB7F4F",
"2 c #CF8353",
"3 c #D78B5B",
"4 c #FFA35B",
"5 c #DF9363",
"6 c #E79B6B",
"7 c #EFA373",
"8 c #F7AB7B",
"9 c #FFB383",
"0 c #FFBB93",
"q c #FFBF9B",
"w c #FFC79B",
"e c #FFC7A7",
"r c #FFCFB3",
"t c #FFD3BB",
"y c None",
/* pixels */
"yyyyyyyyyyyyyyyy  Xo++oX  yyyyyyyyyyy",
"yyyyyyyyyyyyyyy o#&,<<,;$X yyyyyyyyyy",
"yyyyyyyyyyyyy X#:7erttre7-o yyyyyyyyy",
"yyyyyyyyyyyyyX$1wtttttttr8%Xyyyyyyyyy",
"yyyyyyyyyyyy.#3etttttttttr2# yyyyyyyy",
"yyyyyyyyyyy +<etttttttttttw;o yyyyyyy",
"yyyyyyyyyy X&0ttttttttttttr5#X yyyyyy",
"yyyyyyyyyy.#6rtttttttttttttw=#X yyyyy",
"yyyyyyyyy o>ettttttttttttttr95;#Xyyyy",
"yyyyyyyyy #6tttttttttttttttttte2#Xyyy",
"yyyyyyyyyX&0tttttttttttttttttttr1+ yy",
"yyyyyyyyX#2rtttttttttttttttttttt0%Xyy",
"yyyyyyy #,wtttttttttttttttttttttr>Xyy",
"yyyyyy O>wttttttttttttttttttttttt1+ y",
"yyyyyyX%9tttttttttttttttttttttttt2# y",
"yyyyyyX>rtttttttttttttttttttttttt7%Xy",
"yyyyy +1ttttttttttttttttttttttttte<+ ",
"yyy X+%5rttttttttttttttttttttttttt8%.",
"yy O%:10tttttttttttttttttttttttttte;X",
"y O>qrerttttttttttttttttttttttttttr,o",
"yX&wttttttttrtttttttttttttttttttttt1+",
"yo,ttttttttrwtttttttttttttttttttttt1+",
" O2ttttttttettttttttttttttttttttttr>X",
" O3ttttttttttttttttttttttttttttttt0%X",
"yo,ttttttttttttttttttttttttttttttq>O ",
"yX%0tttttttttttttttttttttttttttw5&+ y",
"y o;7wttttttttttttttttttttttttt4*# yy",
"yy +&5ttttttttttttttttttttttttte1# yy",
"yyy +,rtttttttttttttttttttttttttq%.yy",
"yyyyX%0tttttttttttttttttttttttttr;Xyy",
"yyyy O,ettttttttttttttttttttttttw&Xyy",
"yyyyy @:8etttttttttttttttttttttr2@ yy",
"yyyyyy o%,7erttttttttttttttttr0<#Xyyy",
"yyyyyyy X+#:6etttttttttttte61>%+Xyyyy",
"yyyyyyyyy  o#,8ettttttttrw1%+XX yyyyy",
"yyyyyyyyyyy .O%,6wrtttr05;#X yyyyyyyy",
"yyyyyyyyyyyyy XO#&><<<>&#X yyyyyyyyyy",
"yyyyyyyyyyyyyyy  XXo+oXX yyyyyyyyyyyy"
};
