/* XPM */
static char *FRFXJ0[] = {
/* columns rows colors chars-per-pixel */
"55 72 28 1 ",
"  c black",
". c #070707",
"X c #170F07",
"o c #1F170B",
"O c #2F1B0B",
"+ c #372313",
"@ c #3F2F17",
"# c #4B371B",
"$ c #732B00",
"% c #9F3700",
"& c #A73F00",
"* c #874307",
"= c #AF4300",
"- c #B74700",
"; c #C34F00",
": c #CB5707",
"> c #D75F0B",
", c #EB6F0F",
"< c #F37317",
"1 c #FF7F1B",
"2 c #FF8F3B",
"3 c #FF9F43",
"4 c #FFA35B",
"5 c #FFB37B",
"6 c #FFC79B",
"7 c #FFCFB3",
"8 c #FFD7BB",
"9 c None",
/* pixels */
"999999999999999999999999999 .. 999999999999999999999999",
"999999999999999999999999  ..XX.999999999999999999999999",
"9999999999999999999999  ..XooX.999999999999999999999999",
"9999999999999999999999  XXoooX X99999999999999999999999",
"9999999999999999999999 .XoOOOX X99999999999999999999999",
"999999999999999999999  XoOOOoX. 99999999999999999999999",
"999999999999999999999  XoOOOoX. 99999999999999999999999",
"999999999999999999999  .XooXXX.999999   999999999999999",
"99999999999999999999999 .XXooX. 999 .... 99999999999999",
"99999999999999999999999  ..XXX.  ..XXXXX..9999999999999",
"9999999999999999999999999 .XX...XXooOOOoXX. 99999999999",
"9999999999999999999X99 ...  .  XoO+OOO+OOoX. 9999999999",
"999999999999999999   .XOOOX.   XO&*$$$$$$OOX.9999999999",
"999999999999999999 ..XO:,:$OoXXO&>:&&&&*$#OoX 999999999",
"99999999999999999X .X+,4553,&OO*,,>>:;&*$#+OX.999999999",
"99999999999999999X XO>4566654,,131,,:=*$+++OoX 99999999",
"999999999999999999.o&3566686665441,>;*$$$$++OX. 9999999",
"99999999999999999 X+,4566688888641,:=**$$$$$OoX 9999999",
"99999999999999999.o&24566888888651,:;=&*$$$$$OX.9999999",
"99999999999999999.O;35688888888652,>::;&**&&$Oo. 999999",
"999999999999999..X$,456888888886521,,,>;&&==*@OX.999999",
"9999999999 .  .XO$;1568888888886543211,>;;;;&$OX.999999",
"999999999.XooXo@;<246688888888876654331<>:::;*+o.999999",
"9999999 .o+**$*,344568888888888888653321<,,>>=$OX 99999",
"999999.XO$>12123455678888888888888653333221<,;*OX.99999",
"999999XO;13455655667888877888888886655555421<:*OX 99999",
"9999 .o=355566655678888877888888888666666532<>*OX 99999",
"9999 X@<5666686666888888778877788888888765421>%OX 99999",
"9999.O;4676688666678888888887677888888765321<>=OX 99999",
"9999X@167888887666788888888876678888886531<,>:%OX999999",
"9999X%56888888766678888888887667888886531,>:=%$OX 99999",
"9999o:6788778887667888888888766788888652<,>;%$$OX 99999",
"999 O>6676666788777888877678766678887641,>::%$#OX 99999",
"999.O>5666666678888888766667766667886531,::;%$@OX.99999",
"99 X@<566666666688866666666666666666543<>;--*$@Oo.99999",
"99.o%2566666666668666666666666656666542<>;-%$$@Oo.99999",
"99.O>46666666666686666866666666566654331,>;%$$+OX.99999",
"99.O,566666666668886688888886666666544421,>-%$OX. 99999",
"99.O,5688886668888888888888888666665555431,>:%OX. 99999",
"99.O>56888888888888888888888888766666665321<,-$OoX.  99",
"99.o:467888888888888888888888887666667653321<>:-$OXX. 9",
"99 X%36788888888888888888888888877778864221<,><<>$OoX. ",
"99 X$267888888888888888888888888888876542<,,>>132:$OX. ",
"99 X+<57888888888888888888888888887665432<,>:>244,%OoX ",
"99.X$<57888888888888888888888888876654332<,,>,354,&OX. ",
"9 XO=25688888888888888888888888887654333221,,1453,%OX. ",
"9.X$,46688888888888888888888888887665443433112443>%OX.9",
"9.O&246678888888888888888888888888766554444212442>%OX 9",
" .O&246668888888888888888888888888886655443212431:%OX 9",
"9.o$<3566688888888888888888888888888665543322332,-$oX 9",
"9.XO>2456678888888888888888888888888654434333321>%OX.99",
"9 XO&<45666888888888888888888888888875433444332,:$o. 99",
"99.X+:24566788888888888888888888888875433443321,;OX 999",
"99 .X+>255668888888888888888888888887543333321<>%OX9999",
"999 .o$,3556688888888888888888888888865333321<,>$o.9999",
"99999.O&14456788888888888888888888888655443321<:+X 9999",
"99999.X@>2345668888888888888888888888766655432<:OX99999",
"99999 .o*,233456888888778888888888876688766542,&O.99999",
"999999.XO*,11125688887778888888888765668887641>$o.99999",
"9999999.XO*:::>256666666668888888866556688652,=OX 99999",
"99999999.XoOOO+=15556666666888888665566666541,*O.999999",
"999999999 .XXXXO;344556666688886665555666542,:$o.999999",
"999999999999   XO>1112456668888666544555442<:*OX 999999",
"999999999999999.o$-;&*>3566666666654333332<:*Oo. 999999",
"9999999999999999.XOOOo+>35555555665422221<>*OoX 9999999",
"9999999999999999 .XXXXo*<444433444321<<<,>&@OX.99999999",
"99999999999999999 ....XO>2233333211<,,>>;&$OX. 99999999",
"99999999999999999     .o@;,12221<,,>;;=&*$OoX 999999999",
"999999999999999999 999 .XO*>111<,>;&**$$OOoX.9999999999",
"999999999999999999999999 Xo@&;>:=$OOOOOOoXX. 9999999999",
"9999999999999999999999999 .XOOOOOoXXXXXXX. 999999999999",
"999999999999999999999999999 .XXX..  .... 99999999999999"
};
