/* XPM */
static char *FRFXK0[] = {
/* columns rows colors chars-per-pixel */
"57 78 29 1 ",
"  c black",
". c #070707",
"X c #170F07",
"o c #1F170B",
"O c #2F1B0B",
"+ c #372313",
"@ c #3F2F17",
"# c #4B371B",
"$ c #732B00",
"% c #9F3700",
"& c #A73F00",
"* c #874307",
"= c #AF4300",
"- c #B74700",
"; c #C34F00",
": c #CB5707",
"> c #D75F0B",
", c #DF670F",
"< c #EB6F0F",
"1 c #F37317",
"2 c #FF7F1B",
"3 c #FF8F3B",
"4 c #FF9F43",
"5 c #FFA35B",
"6 c #FFB37B",
"7 c #FFC79B",
"8 c #FFCFB3",
"9 c #FFD7BB",
"0 c None",
/* pixels */
"0000000000000000000000000000000 .. 0000000000000000000000",
"00000000000000000000000000000  ..  0000000000000000000000",
"000000000000000000000000000    ..  0000000000000000000000",
"000000000000000000000000000    ..  0000000000000000000000",
"00000000000000000000000000 ..  ... 0000000000000000000000",
"00000000000000000000000    ..  ...  000000000000000000000",
"00000000000000000000000    ... ...  000000000000000000000",
"00000000000000000000000   0     ..  000000000000000000000",
"0000000000000000000000000000      00000000000000000000000",
"00000000000000000000000000000000000000  00000000000000000",
"00000000000000000000000000000000000  .... 000000000000000",
"000000000000000000000    000000000 ...XX.. 00000000000000",
"00000000000000000000 .XX. 000000 ..XXXXXX... 000000000000",
"0000000000000000000 .oOOoX.. 00 .XXXXXXXXXX.. 00000000000",
"0000000000000000000.XO$$@OOoX. .XoOooooooooXX.  000000000",
"0000000000000000000XO*-;;=*$OoX.XOOOOOOOOOOooX. 000000000",
"000000000000000000 XO=;>><>>;$OooO$++++OOOOooXX. 00000000",
"000000000000000000.o$-;><<<<<>=$+$*$$$@OOOoooXXX. 0000000",
"000000000000000000.o$-:><111111>:::-%$+OooXooXXX. 0000000",
"000000000000000000XO*-:><111233322<>-*OOooooooXXX. 000000",
"00000000000000000 XO%;:><<1234444431:$OOOoooOOooX. 000000",
"00000000000000000.o@&:>><12344445541;$OOOOooOOOoXX.000000",
"00000000000000000XO*;:><<23444556541;$@@OOoooOOoX..000000",
"000000000000000  XO->><1123555666641;&*$@OOoOOOoX. 000000",
"00000000000000 .XO*><<11134667777641>>;=$@OOOOOOX. 000000",
"00000000 .....XOO*:12222335678899751<<<>&$+OO++OoX 000000",
"0000000 .XooXXO$;>124455556789999753211<;%$$$$+OoX.000000",
"000000 .XO$$++$:<1245677667799999775431<>=%*$$+OoX. 00000",
"000000.XO$&;;;:<124567997779999999775421<::=&*$OOXX. 0000",
"00000 Xo$&><<<1234567999999999999877653221<>;&$+OoX..0000",
"0000 .oO%:<111234567899998889997777665443321>-*#OoX..0000",
"0000.XO%:<112334455779998778998766655554432<:&$+OoX. 0000",
"0000.o$;<112444444567899777899765454444431<:%$+OOoX.00000",
"0000.o*>122456644444578988788976444444442>-*$OOOOoX.00000",
"00 .XO&<23356765543245778877776544444443<;*$OOooooX. 0000",
"0 .XO$:234467876643124678877765544444442<&$OOOoXXXX. 0000",
" .XO*:<245666777653234567777655554433442>*$OOOXXXXX..0000",
" XO*><235666667775433456777766555443233<;$+OOoXXXXX..0000",
" X@><<124666556766555566666766655443332<-$+OOoXXXXX..0000",
" o$<22<<234444455556666666666665444432<>=$@OOoXXXXX. 0000",
".o%2331<<13444455556666765556665444431<:&$@OOOooXXX. 0000",
".O;35432<<234444445556676655565544431<>:-*$+OOOOoX. 00000",
".O-4555543344444444455676665565544431<<>;&$$@+OOXX.000000",
" X$256666544444444555667776666654442222<>;&*$$@OoX. 00000",
"0XO;367777655444455666777766666654323331>;&*$$$@OoX.. 000",
"0.X@>4678876655555667777777766665321333<>-*$$$$$$@OXX.  0",
"0 XO&2579997765556677777777665555433432>;%$#@OO#$$OoXX.  ",
"00.o$<57999977666777779997765544444442<;%$#OOOOO$$@OXX.. ",
"00.o%25799999776677778998776555444432<;*$@OOOooO$*$OoX.. ",
"00XO:3579999987777789999877766554321<:&$OOOOOooO*&$OoX. 0",
"0 XO<357999999988889998887777765531<:-*$OOOOOOO$&&$OoX. 0",
"0 X+,356799999999999987777788776542<:-*$$++OOO$-:*+OX. 00",
"0 XO:2567899999999999988888998876542>;%***$+O$&::*OoX. 00",
"00.o$>356799999999999988888998877653<:====*$$*;:;$OoX. 00",
"00.XO*<356799999999999988888776666641>;;;:=**=::=$OoX. 00",
"000.XO*>24667889999999776666665566541>;;;:=&&;:;%$OXX. 00",
"0000 XO$>2456667899998765555544455542<;;;-&&&-&&$OoX. 000",
"00000 XO*<223456799997654434333344442<:;-&&&&&*$$OX. 0000",
"000000.X+;1112457899976532232213444431>;-&&&&*$$+oX 00000",
"000000 .o$;;;<256789997531<111123455531>:=&**$$@Oo. 00000",
"0000000.XoOOO$;356779976421<<<1344566431<:=*$$$+OX. 00000",
"00000000..XXXo+:24679976531<><13444554332<;&**$OoX 000000",
"0000000000   .X+;2467976543111233222221221>=&*$OX. 000000",
"000000000000  .o+=1577654333222211<>>>><1<:&*$OoX 0000000",
"00000000000000 .XO=256654333331<>>:====:>>;*$+OX. 0000000",
"000000000000000 .XO=14553223321>:==&&&==;=&$+OOX.00000000",
"0000000000000000 .XO&>233212221>=**$*&&&&*$#OOoX 00000000",
"00000000000000000 .XO#&><<<<<<<>=*$+$$&&*$$OOoX. 00000000",
"000000000000000000 .XXO$;>:::>:;&$$OO$$*$$OOoX. 000000000",
"00000000000000000000 .XO$&&*****$$OOOO+$OOOoXX. 000000000",
"000000000000000000000 .XO+$$$$$+OOOOOOOOOoXX.  0000000000",
"0000000000000000000000 .XoOOOOOOOOooOOOooXX. 000000000000",
"00000000000000000000000 ..XOOOOOOXXXooXXX.. 0000000000000",
"0000000000000000000000000 .XoOOOoXXXXXX... 00000000000000",
"00000000000000000000000000 .XXXXX....    0000000000000000",
"000000000000000000000000000 ..... 00000000000000000000000",
"0000000000000000000000000000   00000000000000000000000000",
"0000000000000000000000000000   00000000000000000000000000"
};
