/* XPM */
static char *WFLMA0[] = {
/* columns rows colors chars-per-pixel */
"61 32 67 1 ",
"  c black",
". c #070707",
"X c #0B0B0B",
"o c #170F07",
"O c #1F170B",
"+ c #131313",
"@ c #1B1B1B",
"# c #2F1B0B",
"$ c #372313",
"% c #3F2B1B",
"& c #2F371F",
"* c #232323",
"= c #272727",
"- c #2F2F2F",
"; c #373F27",
": c #373737",
"> c gray23",
", c #430000",
"< c #530707",
"1 c #670000",
"2 c #432F1B",
"3 c #4B371B",
"4 c #732B00",
"5 c #4F3B2B",
"6 c #3F472B",
"7 c #5F4323",
"8 c #574333",
"9 c #53573B",
"0 c #6B4727",
"q c #774F2B",
"w c #7F532F",
"e c #434343",
"r c gray28",
"t c #4B4B4B",
"y c gray31",
"u c gray34",
"i c #5B5B5B",
"p c #5B6347",
"a c #676B4F",
"s c #6F7357",
"d c gray39",
"f c gray42",
"g c #6F6F6F",
"h c #777777",
"j c gray50",
"k c #8B0000",
"l c #A70000",
"z c #BF0000",
"x c #A33B3B",
"c c #A73F3F",
"v c #874307",
"b c #9B5B13",
"n c #875733",
"m c #CB5707",
"M c #836B4B",
"N c #8B735B",
"B c #BF7B4B",
"V c #9B7F6B",
"C c #C39B2F",
"Z c #FF8F3B",
"A c #9F876F",
"S c #838383",
"D c #8B8B8B",
"F c #939393",
"G c #979797",
"H c #9F9F9F",
"J c None",
/* pixels */
"JJJJJJruiiieJJJJJJJJJJJJJJJJJJJJJJJJJJJJJJJJJJJJJJJJJJJJJJJJJ",
"JJJJJ:rudgjd:JJJJJJJJJJJJJJJJJJJJJJJJJJJJJJJJJJJJJJJJJJJJJJJJ",
"JJJJ-:ruigDgr-JJJJJJJJJJJJJJJJJJJJJJJJJJJJJJJJJJJJJJJJJJJJJJJ",
"JJJJ-:ruiudie-JJJJJJJJJJJJJJJJJJJJJJJJJJJJJJJJJJJJJJJJJJJJJJJ",
"JJJJ*-eruree-*JJJJJJJJJJJJJJJJJJJJJJJJJJJJJJJJJJJJJJJJJJJJJJJ",
"JJJ#:euidiure:#JJJJJJJJJJJJJJJJJJJJJJJJJJJJJJJJJJJJJJJJJJJJJJ",
"JJJ#;%5888e:%$#JJJJJJJJJJJJJJJJJJJJJJJJJJJJJJJJJJJJJJJJJJJJJJ",
"JJJ#O#$222%$#O#JJJJJJJJJJJJJJJJJJJJJJJJJJJJJJJJJJJJJJJJJJJJJJ",
"JJJOO#$222$$#OOJJJJJJJJJJJJJJJJJJJJJJJJJJJJJJJJJJJJJJJJJJJJJJ",
"JJJo%%%222$$#OoJJJJJJJJJJJJJJJJJJJJJJJJJJJJJJJJJJJJJJJJJJJJJJ",
"JJJo-:e8855;%-oJJJJJJJJJJJJJJJJJJJJJJJJJJJJJJJJJJJJJJJJJJJJJJ",
"JJJo-:ruiure:-oJJJJJJJJJJJJJJJJJJJJJJJJJJJJJJJJJJJJJJJJJJJJJJ",
"JJJo-:ruirre:-oJJJJJJJJJJJJJJJJJJJJJJJJJJJJJJJJJJJJJJJJJJJJJJ",
"JJJo-:ruiuee:-oJJJJJJJJJJJJ.:+JJJJJJJJJJJJJJJJJJJJJJJJJJJJJJJ",
"JJJo-:rigiee:-oJJJJJJJJJJJJyFjJJJJJJJJJJJJJJJJJJJJJJJJJJJJJJJ",
"JJJo-:rugdee:-oJJJJJJSrj*7M:7Md7MJJJ=69JJJJJJJJJJJJJ&69JJJJJJ",
"JJJo-:ruiire:*oJJJJJeDuS@wV@wV@wV..=as.@-.@-.@-.@-.@6aA.4v@-J",
"JJJO-:ruiure:*OJJJJruGfr-#3-#3-#3..=69 *: *: *: *: *:&9.bC*:X",
"JJJo-:ruiure:-o1kkkeyHFS*0N*0N*0N.erjd :e :e :e :e :e*utee:e@",
"JJJo-:ruiure:-o,,11@-fd>+$q+$q+$q:ufhj<<<1kklllzzllkkfjhfu::+",
"JJ,o-:ruiure:-oJJJJ+*ur-X#7X$0X#7*:euf,,,<111<kkk11<,Dfue:*..",
"J,1o-:ruiure:-oJJJJJ+e-@.#3.#3.#3.*-:e :e :r :r :e :ehe:-*...",
",1k#-:ruiure:-#kJJJJJ-@+.o%.o%.o%..66=rfggdddddddggfr*=.4vX.J",
",kJ#-:ruiure:-#1kJJJJJJ,1k1JJJeXenM&&&dSFFgggggggFFSd&&JJJJJJ",
",kJ#-:ruiure:-#,1,JJJJJJ,,1kkk:X:7q$7&+1-:k:-z::z:-k+JJJJJJJJ",
",kJ#-:ruiure:-#J,kJJJJJJJJJ,11* *$$O#OX+++XX..X..+++XJJJJJJJJ",
",1J#-:ruiure:-#J,1JJJJJJJJJJJJJJJJ.++..JJ++.JJJJJJJJJJJJJJJJJ",
",1k#::e9pp9e55#,1kJJJJJJJJJJJJJJJJ+e*+......JJJJJJJJJJJJJJJJJ",
"J,1#XcXmXZXBXx#,kJJJJJJJJJJJJJJJJ+y-@.JJJJJJJJJJJJJJJJJJJJJJJ",
"JJ,eXxXcXZXxXx1,JJJJJJJJJJJJJJJJ:**@+JJJJJJJJJJJJJJJJJJJJJJJJ",
"JJJJ-:ruiure:-JJJJJJJJJJJJJJJJJJ-@@+.JJJJJJJJJJJJJJJJJJJJJJJJ",
"JJJJ+@-:e:-*@+JJJJJJJJJJJJJJJJJJJ++XJJJJJJJJJJJJJJJJJJJJJJJJJ"
};
