/* XPM */
static char *BPBIB4B6[] = {
/* columns rows colors chars-per-pixel */
"54 51 35 1 ",
"  c #373737",
". c gray23",
"X c #471212",
"o c #4E1313",
"O c #521414",
"+ c #591818",
"@ c #5D1C1C",
"# c #642121",
"$ c #682525",
"% c #702A2A",
"& c #742E2E",
"* c #7B3232",
"= c #434343",
"- c gray31",
"; c gray34",
": c #5B5B5B",
"> c gray42",
", c #803A3A",
"< c #873E3E",
"1 c #8B4242",
"2 c #934A4A",
"3 c #974E4E",
"4 c #9F5656",
"5 c #A45E5E",
"6 c #AC6666",
"7 c #B06A6A",
"8 c #B87272",
"9 c #BC7979",
"0 c #C48181",
"q c #CC8989",
"w c #D29494",
"e c #DA9C9C",
"r c #DEA3A3",
"t c #E7AFAF",
"y c None",
/* pixels */
"yyyyyyyyyyy38qwwwq86yyyyyyyyyyyyyyyyyyyyyyyyyyyyyyyyyy",
"yyyyyy3367777777777790ww0yyyyyyyyyyyyyyyyyyyyyyyyyyyyy",
"y23333333333555555567888700yyyyyyyyyyyyyyyyyyyyyyyyyyy",
"*46664464470q987465wrrw62469qyyyyyyyyyyyyyyyyyyyyyyyyy",
"4688664137770q985546wrr0933360yyyyyyyyyyyyyyyyyyyyyyyy",
"4478864<385380q78884660ee943368yyyyyyyyyyyyyyyyyyyyyyy",
",446643,8q853886qq088478qq041366yyyyyyyyyyyyyyyyyyyyyy",
"&*,443<,69885745qqw908678qq053368yyyyyyyyyyyyyyyyyyyyy",
"<&*,,*%1476524<28w969q856799874446yyyyyyyyyyyyyyyyyyyy",
"y*%%%%*114432,**399369q845677653380yyyyyyyyyyyyyyyyyyy",
"y1**,31*31***#,*&263369q833567664346yyyyyyyyyyyyyyyyyy",
"yy**,,42*42#++351*2260q08<<350998438yyyyyyyyyyyyyyyyyy",
"yy3<1,<32*21$o%35136558q83<3qeq097436yyyyyyyyyyyyyyyyy",
"yy3321*44*,,,$o%<*%81q8895348q09875436yyyyyyyyyyyyyyyy",
"yyy535*25*%%%$+o%$#3,8e8q83357770qq08388yyyyyyyyyyyyyy",
"yyy535&25,1%$$++oo%525qq8w533550eetrw08085yyyyyyyyyyyy",
"yyy533&24,2*$#@#ooo3818q8w831350qereq850083yyyyyyyyyyy",
"yyy531,5113*$+#%ooo3515800q3<1580qqq0855853yyyyyyyyyyy",
"yyy53<23,2,$#+#,%ooo131809q3<1469000853,851,yyyyyyyyyy",
"yyy53<31,3*$+++#<%oX$2150893<2557988531*53<,yyyyyyyyyy",
"yy45231,31*@+#+++yyyy&28wq83,588885531,*3<&,yyyyyyyyyy",
"yy442<,1,1%++#%#+yyyy%5we083,69w08533**,***,yyyyyyyyyy",
"y4541,*,,*$+++#%$yyyy8qee055,79w08533*&<1231yyyyyyyyyy",
"y552,$#$$#++++++yyyyy58qe053&80w08385&$247883yyyyyyyyy",
"y341##@##@+++++yyyyyy3180851&8qw083q6$*3580w83yyyyyyyy",
"y33<##@##@++++yyyyyyy3,3873,&80085,q6$&3589qw83yyyyyyy",
"yy1#@+O@+O+++yyyyyyyy335732#,80873185$%<5980qw85yyyyyy",
"yyy*%$oOooooyyyyyyyyyy553,,#168661383$&*35q90qw53yyyyy",
"yyyyyyyyyyyyyyyyyyyyyy83,###26865185<$&&,350q99943yyyy",
"yyyyyyyyyyyyyyyyyyyyyyyyy##<35885103,$$&,135qq9853yyyy",
"yyyyyyyyyyyyyyyyyyyyyyyyy&<25588328,#$$%%*,35q97853yyy",
"yyyyyyyyyyyyyyyyyyyyyyyyy,258388345,&$$&%&&*<5557853yy",
"yyyyyyyyyyyyyyyyyyyyyyyyy,488388364yyy&*%&&&*<3448853y",
"yyyyyyyyyyyyyyyyyyyyyyyyy&585580583yyyyy&***&*&1558953",
"yyyyyyyyyyyyyyyyyyyyyyyyy3808750882yyyyyyy&*%&&,334533",
"yyyyyyyyyyyyyyyyyyyyyyyyy6655820852yyyyyyyy&**&<3321*%",
"yyyyyyyyyyyyyyyyyyyyyyyy<542451883,yyyyyyyyy*3,1321<*$",
"yyyyyyyyyyyyyyyyyyyyyyyy1431341,*%%yyyyyyyyy*53121<*$y",
"yyyyyyyyyyyyyyyyyyyyyyy*131<341*%%yyyyyyyyyy*4522<,%yy",
"yyyyyyyyyyyyyyyyyyyyyyy**1,,54,%%yyyyyyyyyyy*3531<,yyy",
"yyyyyyyyyyyyyyyyyyyyyy1*&,,373*%yyyyyyyyyyyy*2422<<yyy",
"yyyyyyyyyyyyyyyyyyyyy41,%&373*%yyyyyyyyyyyyy,1323,yyyy",
"yyyyyyyyyyyyyyyyyyyy51<*%37<*%yyyyyyyyyyyyy3<1335,yyyy",
"yyyyyyyyyyyyyyyyyyy521,&<5<%%yyyyyyyyyyyyy81153552yyyy",
"yyyyyyyyyyyyyyyyy75431,131%yyyyyyyyyyyyyy831285853yyyy",
"yyyyyyyyyyyyyyy778754311,yyyyyyyyyyyyyy055<2508055yyyy",
"yyyyyyyyyyyyy753,387531#yyyyyyyyyyyy-=<85,,,500055yyyy",
"yyyyyyyyyyy- 3,>:,1751,$#yyyyyyyyyy-=.,4,;;#,48863yyyy",
"yyyyyyyyyy- 2,>:- ,42,*$$ yyyyyyyy-=. &, --=#343,1yyyy",
"yyyyyyyyyy ,2>:-  ,,,,*&& yyyyyyyy=.  #, -== #1,1yyyyy",
"yyyyyyyyyyyyyyyyyyyyyyyyyyyyyyyyyyyyyyyy ==  #yyyyyyyy"
};
