/* XPM */
static char *BPBIC3C7[] = {
/* columns rows colors chars-per-pixel */
"67 53 44 1 ",
"  c #3C0A0A",
". c #373737",
"X c #430B0B",
"o c #471212",
"O c #4E1313",
"+ c #521414",
"@ c #591818",
"# c #5D1C1C",
"$ c #493B30",
"% c #642121",
"& c #682525",
"* c #702A2A",
"= c #742E2E",
"- c #7B3232",
"; c #50533F",
": c #4B4B4B",
"> c gray31",
", c #595F4B",
"< c gray34",
"1 c #5B5B5B",
"2 c #6C6F5B",
"3 c gray39",
"4 c gray42",
"5 c #6F6F6F",
"6 c #777777",
"7 c gray50",
"8 c #803A3A",
"9 c #873E3E",
"0 c #8B4242",
"q c #934A4A",
"w c #974E4E",
"e c #9F5656",
"r c #A45E5E",
"t c #AC6666",
"y c #B06A6A",
"u c #B87272",
"i c #BC7979",
"p c #838383",
"a c #8B8B8B",
"s c #C48181",
"d c #CC8989",
"f c #D29494",
"g c #DA9C9C",
"h c None",
/* pixels */
"hhhhhhhhhhhhhhhhhhhhhhigdhhhhhhhhhhhhhhhhhhhhhhhhhhhhhhhhhhhhhhhhhh",
"hhhhhhhgygttgyrgygriryrtwdyrirtttuuthhhhhhhhhhhhhhhhhhhhhhhhhhhhhhh",
"hhh-9eyyyrususuuuuuuutttttrwwurttryiyyrhhhhhhhhhhhhhhhhhhhhhhhhhhhh",
"hh-wrruiuifgffsttttttuttrrrrrtyyrrsdiiiyrhhhhhhhhhhhhhhhhhhhhhhhhhh",
"hhwrruiiisfggffsrttttturerw8*uuuutusffssytthhhhhhhhhhhhhhhhhhhhhhhh",
"hwrruiiiiusfggfsuttttrwtqw8&*rudfuuudssuuyitthhhhhhhhhhhhhhhhhhhhhh",
"h-8ruiiuuuusfgfsurrrtrrqt8&&*qrufdsduuttterduthhhhhhhhhhhhhhhhhhhhh",
"hh&wrrrwrruufgfsuurrtrq-8-&@@8wruuuussssssuurrthhhhhhhhhhhhhhhhhhhh",
"hhh8wwr8wwrusffsurwwrqq-9t-%@*90qetuuuuuissfdsiduhhhhhhhhhhhhhhhhhh",
"hhh**88-qwruuffsurwq0r988rw&%@*-80qwwqrrur0wudduddshhhhhhhhhhhhhhhh",
"hh,,*;-80weuussurwq098r89rw=&&@@@@===-=qwrr0qruduudshhhhhhhhhhhhhhh",
"hh43>a$-9qetsuutrw998-rwrww8=8%%%@@%@@@rusffsrqrududshhhhhhhhhhhhhh",
"h247<5$=8rretuttww=8-8ruwwrw8--8890-@@@qwwrusduruduidshhhhhhhhhhhhh",
"h:1p.1$uutreetuw9=e=-8uw*8wrtwww9rur0-O%80wwwrruwududsrhhhhhhhhhhhh",
"h.1a$:$uutreww0988=werw*%*00wtw8wrrrww-oO=880000u8rsussrhhhhhhhhhhh",
"0wwrwuuuytrw88888--quw**%*800t-80wwwww0%OO#&*&#%80rrusfehhhhhhhhhhh",
"-0wwyytttrw9qq00w-8ew8-*8=8wte8=-0000q0%OOXXXXXX80rrusfuehhhhhhhhhh",
"=-0wwrrrrw9899qq00ee88-898wtw8=**--0908-%%+XX XXOusffdrsyehhhhhhhhh",
"&*=0wwww0988999qqww8889wwetw8==*&%%=8888**0*#OoX *rssduuurehhhhhhhh",
"&&*==88888-999q9ww999eew99=--=*=-**%=888=%--*%*9=X=russruyehhhhhhhh",
"h%&*&&&&&&===9====9ww8====--=*%*=-0&%=--*%&*%*9w-oO&0yuuuyw8hhhhhhh",
"hhh########=9####00=###==&==*%##%&*=&&*-=%%@@9rw-OOO%0wyuuw8hhhhhhh",
"hhhhhhhhhhhhhhhhhhhhhhhhh&&&&&##+++%-*&&-@oo@wr0-&OO%0wyuuw8hhhhhhh",
"hhhhhhhhhhhhhhhhhhhhhhhhhhhhhhh&+++++*=&@oo+-rq=-=&OX0rsduw0hhhhhhh",
"hhhhhhhhhhhhhhhhhhhhhhhhhhhhhhhhhhho+oXoOo+=-8#-w0q&-rdffu-hhhhhhhh",
"hhhhhhhhhhhhhhhhhhhhhhhhhhhhhhhhhhhhhhooO#####&0twww8ufdur=hhhhhhhh",
"hhhhhhhhhhhhhhhhhhhhhhhhhhhhhhhhhhhhhhhhh#####8etrww+sduw808hhhhhhh",
"hhhhhhhhhhhhhhhhhhhhhhhhhhhhhhhhhhhhhhhhhhh#@-8weurw*gw-0w088hhhhhh",
"hhhhhhhhhhhhhhhhhhhhhhhhhhhhhhhhhhhhhhhhhhhh#*8e0utw8r-ruw888whhhhh",
"hhhhhhhhhhhhhhhhhhhhhhhhhhhhhhhhhhhhhhhhhhhhh--requr%&0su0%008hhhhh",
"hhhhhhhhhhhhhhhhhhhhhhhhhhhhhhhhhhhhhhhhhhhhh-=wuewu##---**80w-hhhh",
"hhhhhhhhhhhhhhhhhhhhhhhhhhhhhhhhhhhhhhhhhhhhh8=9eu8r*=--*@q8qw=hhhh",
"hhhhhhhhhhhhhhhhhhhhhhhhhhhhhhhhhhhhhhhhhhhhhh8=wuw8r***08w80e0=hhh",
"hhhhhhhhhhhhhhhhhhhhhhhhhhhhhhhhhhhhhhhhhhhhhh0==wu=800090w00re-rhh",
"hhhhhhhhhhhhhhhhhhhhhhhhhhhhhhhhhhhhhhhhhhhhhhh8=8wq8999r0w08wuw=hh",
"hhhhhhhhhhhhhhhhhhhhhhhhhhhhhhhhhhhhhhhhhhhhhhhh==-0-qqwrqwq88te80h",
"hhhhhhhhhhhhhhhhhhhhhhhhhhhhhhhhhhhhhhhhhhhhhhhhh=880rwrtwww880088h",
"hhhhhhhhhhhhhhhhhhhhhhhhhhhhhhhhhhhhhhhhhhhhhhhhhh88qrqru0wr0808-w8",
"hhhhhhhhhhhhhhhhhhhhhhhhhhhhhhhhhhhhhhhhhhhhhhhhhhqerwrtr8quw08==ww",
"hhhhhhhhhhhhhhhhhhhhhhhhhhhhhhhhhhhhhhhhhhhhhhhhhhettwru0&ruw0=&=q-",
"hhhhhhhhhhhhhhhhhhhhhhhhhhhhhhhhhhhhhhhhhhhhhhhhhrtdurtw&8rr8O&=8-h",
"hhhhhhhhhhhhhhhhhhhhhhhhhhhhhhhhhhhhhhhhhhhhhhhhrsfduuq*-ww0O#=08hh",
"hhhhhhhhhhhhhhhhhhhhhhhhhhhhhhhhhhhhhhhhhhhhhhhrsfddur--wrwO#=008hh",
"hhhhhhhhhhhhhhhhhhhhhhhhhhhhhhhhhhhhhhhhhhhhhhrsfdssu--qrr%O=8q8-hh",
"hhhhhhhhhhhhhhhhhhhhhhhhhhhhhhhhhhhhhhhhhhhhhrsfsssu-8wrr&O=880-rhh",
"hhhhhhhhhhhhhhhhhhhhhhhhhhhhhhhhhhhhhhhhhhhhrsfddur80rurOO%*--88hhh",
"hhhhhhhhhhhhhhhhhhhhhhhhhhhhhhhhhhhhhhhhhhysdfdsrw8wrr0OO@&=---rhhh",
"hhhhhhhhhhhhhhhhhhhhhhhhhhhhhhhhhhhhhhhhysddddsuw8ww0qOO@%*-8*-hhhh",
"hhhhhhhhhhhhhhhhhhhhhhhhhhhhhhhhhhhhhhsfdduteetr0w88=XO+%*880=*hhhh",
"hhhhhhhhhhhhhhhhhhhhhhhhhhhhhhhhhhhyffdduuteppew8=OoooO@*9www-=hhhh",
"hhhhhhhhhhhhhhhhhhhhhhhhhhhhhhhhhhpeusduwee1464=-#+OOO&%9www98-hhhh",
"hhhhhhhhhhhhhhhhhhhhhhhhhhhhhhhhhp64eyrw0q->141*%@@+@O**=-899=8hhhh",
"hhhhhhhhhhhhhhhhhhhhhhhhhhhhhhhhp641<w8888%>>1>%**%@#@&-%%@8==uhhhh"
};
