/* XPM */
static char *BPBIA2A8[] = {
/* columns rows colors chars-per-pixel */
"48 54 54 1 ",
"  c black",
". c #070707",
"X c #0B0B0B",
"o c #131313",
"O c #1B1B1B",
"+ c #232323",
"@ c #272727",
"# c #2F2F2F",
"$ c #373737",
"% c gray23",
"& c #430B0B",
"* c #471212",
"= c #4E1313",
"- c #521414",
"; c #591818",
": c #5D1C1C",
"> c #642121",
", c #682525",
"< c #702A2A",
"1 c #742E2E",
"2 c #7B3232",
"3 c #434343",
"4 c gray28",
"5 c #4B4B4B",
"6 c gray31",
"7 c gray34",
"8 c #5B5B5B",
"9 c #646753",
"0 c gray39",
"q c gray42",
"w c #6F6F6F",
"e c #777777",
"r c gray50",
"t c #803A3A",
"y c #873E3E",
"u c #8B4242",
"i c #934A4A",
"p c #974E4E",
"a c #9F5656",
"s c #A45E5E",
"d c #AC6666",
"f c #B06A6A",
"g c #B87272",
"h c #BC7979",
"j c #838383",
"k c #8B8B8B",
"l c #939393",
"z c #979797",
"x c #C48181",
"c c #CC8989",
"v c #D29494",
"b c #DA9C9C",
"n c #DEA3A3",
"m c None",
/* pixels */
"mmmmmmmmmmmvgvggdppssmmmmmmmmmmmmmmmmmmmmmmmmmmm",
"mmmmmmmmmvgcgdppsshvvvfmmmmmmmmmmmmmmmmmmmmmmmmm",
"mmmadddgvggdissgfhcxhhgxvvvxmmmmmmmmmmmmmmmmmmmm",
"mpdgggvgggcvxxggccchgxbbvcccfmmmmmmmmmmmmmmmmmmm",
"paddvgghxvvvgddfggggxvnnbvxhdfmmmmmmmmmmmmmmmmmm",
"padhgggxvvvvvfsssggggcbbvxhddsmmmmmmmmmmmmmmmmmm",
"yiagpddgghxvnxfssupiggcvchgdssxbxgmmmmmmmmmmmmmm",
"yyippppddxxvvvxfspt,psghgggggggccxgmmmmmmmmmmmmm",
"ayyppuuppaxxvvvxsft<,tppppipsggggxfddmmmmmmmmmmm",
"myyuuuyyypdxxvxfsfut,;:<22tttusxgsgggdmmmmmmmmmm",
"myyu1uyyyyaffxffsssuu<,:>,,,tpxgsspsggsmmmmmmmmm",
"mmu1,1uyppacpffsssaupait1,12tscvbvgspsapmmmmmmmm",
"mm1>,,1ppaagussppdpuagspuut:tisghxccgppipmmmmmmm",
"mmt,0r00ypafpsspadupdgsppuut=2upsdddsphvchdmmmmm",
"mmr0X3wetaddadspsptsddspiuup2=<tuipiuihssfspmmmm",
"mme6 X801taaadsiautpppiutttts2&:12222isippdspmmm",
"mm5$ .3@21uppaputttttttt22<tip1&&&&==2>gcxfdsmmm",
"mmmo  +Xt2tupuuut<><22211<<ttit>>:>:;=:gvcggsimm",
"mmm   . ttuiuttt<>>;*--;>,tttt<tt2u2=;1ixgfddspm",
"mm%   #Outppiut2>>>t;*-:>2221,2puput2<u;pgfsddpm",
"mtj57oewutaaaut1>;;>,;*>1211,1ptpst2ut1:2upssgpm",
"itzqkwzruisfitt<>;==>,<<12212uttgit2uu&<=2uppfpm",
";it9ljewisfaut2<mm--&=,><222u2tpst1psu<=<:tuisam",
";2isssshffau22<mmmmm--&=:2tt2tuit<uasut>>21sggsp",
"<2iscxchfspy2<mmmmmmmm-&&,tt<t2<<upssyts<:pcvxgt",
":<2sshfaiuut<mmmmmmmmmm--=t1<<<typssiupas>xvvcct",
":::><2tyyuu2mmmmmmmmmmmm2;>>>>yypsdspuppa>pgvgp2",
"m2::><2tuuymmmmmmmmmmmmmm2;;>1tppdsgsppap:>ivpt<",
"mmmt::2222mmmmmmmmmmmmmmmmu;;2puigssxsiss1<gg1tt",
"mmmmmmmmmmmmmmmmmmmmmmmmmmm2=>pgiixsscspgits2itm",
"mmmmmmmmmmmmmmmmmmmmmmmmmmmu&=usgppxpggigut<ts2m",
"mmmmmmmmmmmmmmmmmmmmmmmmmmmu*&2igcuggugpgu1gsumm",
"mmmmmmmmmmmmmmmmmmmmmmmmmmms=&:tisgtgppspt>supmm",
"mmmmmmmmmmmmmmmmmmmmmmmmmmmm>=&,tpsupstsp<>;ummm",
"mmmmmmmmmmmmmmmmmmmmmmmmmmmmm,:;,2pptptpup<=ummm",
"mmmmmmmmmmmmmmmmmmmmmmmmmmmmmmu:;,2ptttusgat2mmm",
"mmmmmmmmmmmmmmmmmmmmmmmmmmmmmmmmp:=tytssggfp<mmm",
"mmmmmmmmmmmmmmmmmmmmmmmmmmmmmmmmm,*:pyshgsdp>mmm",
"mmmmmmmmmmmmmmmmmmmmmmmmmmmmmmmmm>;&pafcgssp2pmm",
"mmmmmmmmmmmmmmmmmmmmmmmmmmmmmmmmm<;*pfhcgsaut2mm",
"mmmmmmmmmmmmmmmmmmmmmmmmmmmmmmmmm-;2shcxgsptytmm",
"mmmmmmmmmmmmmmmmmmmmmmmmmmmmmmmmm*2shcxxgat22mmm",
"mmmmmmmmmmmmmmmmmmmmmmmmmmmmmmmmt>shvchgat1tmmmm",
"mmmmmmmmmmmmmmmmmmmmmmmmmmmmmmmm,shvcxgat2tpmmmm",
"mmmmmmmmmmmmmmmmmmmmmmmmmmmmmmmpaxvcggattuummmmm",
"mmmmmmmmmmmmmmmmmmmmmmmmmmmmmmmpxvcxga2tptmmmmmm",
"mmmmmmmmmmmmmmmmmmmmmmmmmmmmmmxxvchsituuimmmmmmm",
"mmmmmmmmmmmmmmmmmmmmmmmmmmmmhxvvchst2uummmmmmmmm",
"mmmmmmmmmmmmmmmmmmmmmmmmmmxcccbbha222pmmmmmmmmmm",
"mmmmmmmmmmmmmmmmmmmmmmmmcccggggha2q4=*2mmmmmmmmm",
"mmmmmmmmmmmmmmmmmmmmmmmuu22gdaada%8q4**mmmmmmmmm",
"mmmmmmmmmmmmmmmmmmmmmmmu8wq2piiu2%4884=>mmmmmmmm",
"mmmmmmmmmmmmmmmmmmmmmmm8rw862yy2<>%%%%mmmmmmmmmm",
"mmmmmmmmmmmmmmmmmmmmmm8eq863;>==&mmmmmmmmmmmmmmm"
};
