/* XPM */
static char *BPBIB2B8[] = {
/* columns rows colors chars-per-pixel */
"50 54 56 1 ",
"  c black",
". c #070707",
"X c #0B0B0B",
"o c #131313",
"O c #1B1B1B",
"+ c #392E1D",
"@ c #272727",
"# c #2F2F2F",
"$ c #373737",
"% c gray23",
"& c #430B0B",
"* c #471212",
"= c #4E1313",
"- c #521414",
"; c #591818",
": c #5D1C1C",
"> c #493B30",
", c #642121",
"< c #682525",
"1 c #702A2A",
"2 c #742E2E",
"3 c #7B3232",
"4 c #434343",
"5 c gray28",
"6 c #4B4B4B",
"7 c gray31",
"8 c gray34",
"9 c #5B5B5B",
"0 c #615345",
"q c #646753",
"w c gray39",
"e c gray42",
"r c #6F6F6F",
"t c #777777",
"y c gray50",
"u c #803A3A",
"i c #873E3E",
"p c #8B4242",
"a c #934A4A",
"s c #974E4E",
"d c #9F5656",
"f c #A45E5E",
"g c #AC6666",
"h c #B06A6A",
"j c #B87272",
"k c #BC7979",
"l c #838383",
"z c #8B8B8B",
"x c #939393",
"c c #9F9F9F",
"v c #C48181",
"b c #CC8989",
"n c #D29494",
"m c #DA9C9C",
"M c #DEA3A3",
"N c None",
/* pixels */
"NNNNNNNNNNNNNNnnnbjgssffNNNNNNNNNNNNNNNNNNNNNNNNNN",
"NNNNNNNNNNNNnnbjgssffknnnhNNNNNNNNNNNNNNNNNNNNNNNN",
"NNNdggknnbbjhhfjhkjhknnbkjvnnnvNNNNNNNNNNNNNNNNNNN",
"NsgjknnbjjbbvvjjbbjbbnbjjmmnbbbhNNNNNNNNNNNNNNNNNN",
"sdgknbjkvbnvjgghjjhjjjjjnMMmnvkghNNNNNNNNNNNNNNNNN",
"sdgnbjjvbnnnvjsifjffffjjbmmnvkhgfNNNNNNNNNNNNNNNNN",
"iadkgggjvbbnnvfsii33isfjjbnbkjhfsfgggNNNNNNNNNNNNN",
"iiahsddggvbnnnvfsi<<<usfhhkjjfsspfghjjgNNNNNNNNNNN",
"33isdssdddvvnnvfsi<2p11<ussssaiipffhvhgggNNNNNNNNN",
"N33isssssdgvvvfsia2uap1<;:133uuupfhfffhjggdNNNNNNN",
"N33iisssssdfffsiuauufg111<:,<<<usvjvvhffjfddNNNNNN",
"NN33iiisssdfspuupaupfg32dau2<23ufbnmnbvjfdspdNNNNN",
"NN33333dgggjsuuusfusgs3djfsppu:&afjkvbbhsappdNNNNN",
"NN33>013ssfhsppsdfsdfu3gjfssppu=&psfgggfddnbgdNNNN",
"NN+e8lr2sggfdgfsfssfd3pggfsapps3=&upasapdkhfsfsNNN",
"NN6yO#z22udddgfadpadp,3ssapuuuuf3&&=3333djbvhsdNNN",
"NN%w oru12pssdspuupdu,1uuuu331ua1-&&&&==3gnbjjfaNN",
"NNN4 o7s<12ispppu1pu,=<3332211uu1<--:,:;3agjhggfsN",
"NNNo .#d<<1ipuuu11i,=,2332<,<uuu1<123p313isghfggsN",
"NNN   od<22adpu3,up1=,uu2<:,3332<3spspuu,i3psffjsN",
"NNN     u2uiadu23p;1=;::::,2322<2susfu3i,133psshsN",
"NNN    .uuipapddd;1====::1123323puujau3i1,13upafdN",
"NNN    dpupaaduid==1:-=&=:,1333p3usfu2ssu<,32fjjfs",
"NNN    duuasdiius=1:---==&=:3uu3upau1pfsi2<,3bnvju",
"NNN    dpuddapu2p===::::--&&<uu1u311psfsiu2<:nnbbu",
"NNN  ..duudsausp,==::NNNN==-=<2::11sfffapiu2,jnjs3",
"NNw X$Odpusaps31,:::NNNNNNN3;=::1issfgfspsiu,ansu1",
"Nty#@ywgpuasi31,:;:NNNNNNNNN3;&:2ussgfjfssdi:jj2uu",
"Nxlrecegpafhi1,:;:NNNNNNNNNNNp&&3spajffvfaff2f3auN",
"Nzttwcekafhdi,:;:NNNNNNNNNNNNN*=,sjaavffbfsja3<<1N",
";rwzzxqkhhdpu:;:NNNNNNNNNNNNNN-&=pfjssvsjjajp<33NN",
"13alrvbkhfsi1;:NNNNNNNNNNNNNNNN*&3ajspsjpjsjp,,,NN",
":1affkhdapuu1:NNNNNNNNNNNNNNNNN=&:uafsusssfsu,,,NN",
":::,13uiiu33<NNNNNNNNNNNNNNNNNNN=&<usfpsfufsu1,,NN",
"N3::,13uu331NNNNNNNNNNNNNNNNNNNNN:;<3ssussffs22,NN",
"NNNu::3333NNNNNNNNNNNNNNNNNNNNNNNN:;<3s3sfffjdu3NN",
"NNNNNNNNNNNNNNNNNNNNNNNNNNNNNNNNNNN=:=ushdfjjhs1NN",
"NNNNNNNNNNNNNNNNNNNNNNNNNNNNNNNNNNNN<*:hdfkjfgs,NN",
"NNNNNNNNNNNNNNNNNNNNNNNNNNNNNNNNNNNNN;&ddhbjffs3sN",
"NNNNNNNNNNNNNNNNNNNNNNNNNNNNNNNNNNNNN;*shkbjfdpu3N",
"NNNNNNNNNNNNNNNNNNNNNNNNNNNNNNNNNNNNN;3fkbvjfsuiuN",
"NNNNNNNNNNNNNNNNNNNNNNNNNNNNNNNNNNNN*3fkbvvjdu33NN",
"NNNNNNNNNNNNNNNNNNNNNNNNNNNNNNNNNNNN,fknbkjdu2uNNN",
"NNNNNNNNNNNNNNNNNNNNNNNNNNNNNNNNNNN<fknbvjdu3usNNN",
"NNNNNNNNNNNNNNNNNNNNNNNNNNNNNNNNNNsdvnbjjduuppNNNN",
"NNNNNNNNNNNNNNNNNNNNNNNNNNNNNNNNNNsvnbvjd3usuNNNNN",
"NNNNNNNNNNNNNNNNNNNNNNNNNNNNNNNNNvvnbkfauppaNNNNNN",
"NNNNNNNNNNNNNNNNNNNNNNNNNNNNNNNkvnnbkfu3ppNNNNNNNN",
"NNNNNNNNNNNNNNNNNNNNNNNNNNNNNvbbbmmkd333s*NNNNNNNN",
"NNNNNNNNNNNNNNNNNNNNNNNNNNNbbbjjjjkd3e5=***NNNNNNN",
"NNNNNNNNNNNNNNNNNNNNNNNNNNpp33jgddgd%9e5****NNNNNN",
"NNNNNNNNNNNNNNNNNNNNNNNNNNp9re3saap3%5995=,*NNNNNN",
"NNNNNNNNNNNNNNNNNNNNNNNNNN9yr973ii31,%%%%NNNNNNNNN",
"NNNNNNNNNNNNNNNNNNNNNNNNN9te974;,==&NNNNNNNNNNNNNN"
};
