/* XPM */
static char *BPBIC4C6[] = {
/* columns rows colors chars-per-pixel */
"54 52 35 1 ",
"  c #373737",
". c gray23",
"X c #471212",
"o c #4E1313",
"O c #521414",
"+ c #591818",
"@ c #5D1C1C",
"# c #642121",
"$ c #682525",
"% c #702A2A",
"& c #742E2E",
"* c #7B3232",
"= c #434343",
"- c gray31",
"; c gray34",
": c #5B5B5B",
"> c gray42",
", c #803A3A",
"< c #873E3E",
"1 c #8B4242",
"2 c #934A4A",
"3 c #974E4E",
"4 c #9F5656",
"5 c #A45E5E",
"6 c #AC6666",
"7 c #B06A6A",
"8 c #B87272",
"9 c #BC7979",
"0 c #C48181",
"q c #CC8989",
"w c #D29494",
"e c #DA9C9C",
"r c #DEA3A3",
"t c #E7AFAF",
"y c None",
/* pixels */
"yyyyyy33666638qwwwyyyyyyyyyyyyyyyyyyyyyyyyyyyyyyyyyyyy",
"y2333333367777777786yyyyyyyyyyyyyyyyyyyyyyyyyyyyyyyyyy",
"*466644633333555557790ww0yyyyyyyyyyyyyyyyyyyyyyyyyyyyy",
"4666664164470q9874567888700yyyyyyyyyyyyyyyyyyyyyyyyyyy",
"4446664<137770q9855wrrw62469qyyyyyyyyyyyyyyyyyyyyyyyyy",
"&344443,<385380q7846wrr0933360yyyyyyyyyyyyyyyyyyyyyyyy",
"&&%333<,,8q853886q84660ee943368yyyyyyyyyyyyyyyyyyyyyyy",
"<&%***%1,69885745q08844000441366yyyyyyyyyyyyyyyyyyyyyy",
"y*%%%%*11476524<28w908690qq053368yyyyyyyyyyyyyyyyyyyyy",
"y1**,31*114432,**3969q856799874446yyyyyyyyyyyyyyyyyyyy",
"yy**,,42*31***#,*&9369q845677653380yyyyyyyyyyyyyyyyyyy",
"yy3<1,<32*42#++35163369q833567664346yyyyyyyyyyyyyyyyyy",
"yy3321*432*21$o%352260q08<<350998438yyyyyyyyyyyyyyyyyy",
"yy4553<31,3*$+++#<36558q83<3qeq097436yyyyyyyyyyyyyyyyy",
"yy445231,31*@+#+++%81q8895348q09875436yyyyyyyyyyyyyyyy",
"yy4542<,1,1%++#%#+#3,8e8q83357770qq08388yyyyyyyyyyyyyy",
"y45541,*,,*$+++#%$%525qq8w533550eetrw08085yyyyyyyyyyyy",
"y5553<&$*&$++++++oo3818q8w831350qereq850083yyyyyyyyyyy",
"y5542$$#$$#++++++oo3515800q3<1580qqq0855853yyyyyyyyyyy",
"y3431##@##@+++++#ooo131809q3<1469000853,851,yyyyyyyyyy",
"y332<##@##@++++yyyoX$2150893<2557988531*53<,yyyyyyyyyy",
"yy11#@+O@+O+++yyyyyyo&28wq83,588885531,*3<&,yyyyyyyyyy",
"yyy**%$oOoooyyyyyyyyy%5we083,69w08533**,***,yyyyyyyyyy",
"yyyyyyyyyyyyyyyyyyyyy8qee055,79w08533*&<1231yyyyyyyyyy",
"yyyyyyyyyyyyyyyyyyyyy58qe053&80w08385&$247883yyyyyyyyy",
"yyyyyyyyyyyyyyyyyyyyy3180851&8qw083q6$*3580w83yyyyyyyy",
"yyyyyyyyyyyyyyyyyyyyy3,3873,&80085,q6$&3589qw83yyyyyyy",
"yyyyyyyyyyyyyyyyyyyyy335732#,80873185$%<5980qw85yyyyyy",
"yyyyyyyyyyyyyyyyyyyyyy553,,#168661383$&*35q90qw53yyyyy",
"yyyyyyyyyyyyyyyyyyyyyy83,###26865185<$&&,350q99943yyyy",
"yyyyyyyyyyyyyyyyyyyyyyyyy##<35885103,$$&,135qq9853yyyy",
"yyyyyyyyyyyyyyyyyyyyyyyyy&<25588328,#$$%%*,35q97853yyy",
"yyyyyyyyyyyyyyyyyyyyyyyyy,258388345,&$$&%&&*<5557853yy",
"yyyyyyyyyyyyyyyyyyyyyyyyy,488388364yyy&*%&&&*<3448853y",
"yyyyyyyyyyyyyyyyyyyyyyyyy&585580583yyyyy&***&*&1558953",
"yyyyyyyyyyyyyyyyyyyyyyyyy3808750882yyyyyyy&*%&&,334533",
"yyyyyyyyyyyyyyyyyyyyyyyyy6655820852yyyyyyyy&**&<3321*%",
"yyyyyyyyyyyyyyyyyyyyyyyy<542451883,yyyyyyyyy*3,1321<*$",
"yyyyyyyyyyyyyyyyyyyyyyyy1431341,*%%yyyyyyyyy*53121<*$y",
"yyyyyyyyyyyyyyyyyyyyyyy*131<341*%%yyyyyyyyyy*4522<,%yy",
"yyyyyyyyyyyyyyyyyyyyyyy**1,,54,%%yyyyyyyyyyy*3531<,yyy",
"yyyyyyyyyyyyyyyyyyyyyy1*&,,373*%yyyyyyyyyyyy*2422<<yyy",
"yyyyyyyyyyyyyyyyyyyyy41,%&373*%yyyyyyyyyyyyy,1323,yyyy",
"yyyyyyyyyyyyyyyyyyyy51<*%37<*%yyyyyyyyyyyyy3<1335,yyyy",
"yyyyyyyyyyyyyyyyyyy521,&<5<%%yyyyyyyyyyyyy81153552yyyy",
"yyyyyyyyyyyyyyyyy75431,131%yyyyyyyyyyyyyy831285853yyyy",
"yyyyyyyyyyyyyyy778754311,yyyyyyyyyyyyyy055<2508055yyyy",
"yyyyyyyyyyyyy753,387531#yyyyyyyyyyyy-=<85,,,500055yyyy",
"yyyyyyyyyyy- 3,>:,1751,$#yyyyyyyyyy-=.,4,;;#,48863yyyy",
"yyyyyyyyyy- 2,>:- ,42,*$$ yyyyyyyy-=. &, --=#343,1yyyy",
"yyyyyyyyyy ,2>:-  ,,,,*&& yyyyyyyy=.  #, -== #1,1yyyyy",
"yyyyyyyyyyyyyyyyyyyyyyyyyyyyyyyyyyyyyyyy ==  #yyyyyyyy"
};
