/* XPM */
static char *BPBIA5[] = {
/* columns rows colors chars-per-pixel */
"42 49 30 1 ",
"  c #2F2F2F",
". c #373737",
"X c gray23",
"o c #471212",
"O c #4E1313",
"+ c #521414",
"@ c #591818",
"# c #5D1C1C",
"$ c #642121",
"% c #682525",
"& c #702A2A",
"* c #742E2E",
"= c #7B3232",
"- c #434343",
"; c gray28",
": c #803A3A",
"> c #873E3E",
", c #8B4242",
"< c #934A4A",
"1 c #974E4E",
"2 c #9F5656",
"3 c #A45E5E",
"4 c #AC6666",
"5 c #B06A6A",
"6 c #B87272",
"7 c #BC7979",
"8 c #C48181",
"9 c #CC8989",
"0 c #D29494",
"q c None",
/* pixels */
"qqqqqqqqqqqqqqqq667684756661qqqqqqqqqqqqqq",
"qqqqqqqqqqqq423489814256887534qqqqqqqqqqqq",
"qqqqqqqqqqq32223666684777532223qqqqqqqqqqq",
"qqqqqqq7777565524551429654477657777qqqqqqq",
"qqqqqq689875699245514296546993578986qqqqqq",
"qqqqq45676577786333684753898614567654qqqqq",
"qqqqq3333573>269622142637742<>1453333qqqqq",
"qqqq5114877>*>2596268442242<>=>4784115qqqq",
"qqq49149843*$*12324142215531==*54894194qqq",
"qqq59478621$%>377326841588831&*13687495qqq",
"qqq4348641>$%2554431423334554,=>1468434qqq",
"qq7114642>=$&><23437373478642<*=>2464117qq",
"qq21112<>=&$&><23437373478642<*&=><21112qq",
"q2353,<>:&$q%>479844664700063<$$&:><,3532q",
"q=571,,,:$q*%,470075447799864,$q$:,,,175=q",
"q*,,,<<>&qq%%<247974124788742>$qq&><<,,,*q",
"2*=,22,=qqq%$><2444<,,244442<*=qqq=,22,=*2",
"17<44,,*qqq%#*=:,<<<=,<2332<,>=qqq*,,44<71",
">5<72>,qqqqq#**:>,,>=>,<22<,><=qqqq,>27<5>",
"*3<4,*=qqqqq$>2,121:%:,<<<,,31>qqqq=*,4<3*",
"&1<3=*qqqqq*=3424441%%,12322762,qqqq*=3<1&",
"=121:&qqqqq=27727741$$=,57417741,qqq&:121=",
"=12<:&qqqqq,4872873<&@&,57714752,qqq&:<21=",
"=><<:$qqqq,27845972,&@$*367126631,qq$:<<>=",
"==><:$qqqq>3972694<=*@@*,36314642*qq$:<>==",
"$&%=:$Oqqq>4972973,,*@@$*14512542&qO$:=%&$",
"&&#$&&Oqq=>595494<1<=q@@$>2542542=qO&&$#&&",
"O#@@#$Oqq=>592772,22:qq@@*2451463*qO$#@@#O",
"qOO+@#qqq>>49273<143qqqq@$1262374*qq#@+OOq",
"qqoooqqqq,,38572,243qqqqq$,157585=2qqoooqq",
"qqqqqqqq,<>37742,25<qqqqqq&,37696=9qqqqqqq",
"qqqqqqqq,1>4794,,2<qqqqqqq=*,3996>72qqqqqq",
"qqqqqqqq12>4994:,<,qqqqqqq=<>>796>4=qqqqqq",
"qqqqqqqq22:2772:=,qqqqqqqq=<2=342*2=qqqqqq",
"qqqqqqqq21&,44,=*<qqqqqqqqq><=<<<$2&qqqqqq",
"qqqqqqqqq<&%==&&*qqqqqqqqqq=*&=<>&,,qqqqqq",
"qqqqqqqqq>&$$$$*2qqqqqqqqqq$*&*>,&=qqqqqqq",
"qqqqqqqqq>*$%%$*qqqqqqqqqqq=*&*:,=2qqqqqqq",
"qqqqqqqqqq=%&=%*qqqqqqqqqqqq&$$=,=qqqqqqqq",
"qqqqqqqqqq=&*:**qqqqqqqqqqqq=$#*,&qqqqqqqq",
"qqqqqqqqqqq*=>:*qqqqqqqqqqqq,$#%:@qqqqqqqq",
"qqqqqqqqqqq=:,:*qqqqqqqqqqqq,$#%=@qqqqqqqq",
"qqqqqqqqqq2>><>*qqqqqqqqqqqq$$#$*$qqqqqqqq",
"qqqqqqq;X2>,,1,>,22;qqqqqqqq$&=:*%qqqqqqqq",
"qqqqqq-X <,1<2<1,,<X;qqqqqqq**==*%qqqqqqqq",
"qqqqqq---,><24<<>:, Xqqqqq3:::==*%:3qqqqqq",
"qqqqqqqqqqqqqqqqqqqqqqqq-3<,::::*%,<3-qqqq",
"qqqqqqqqqqqqqqqqqqqqqqq-X<,>%%%%%$>,<X-qqq",
"qqqqqqqqqqqqqqqqqqqqqq...:=*$$$$$$*=:...qq"
};
