/* XPM */
static char *BPBIA4A6[] = {
/* columns rows colors chars-per-pixel */
"51 50 36 1 ",
"  c #3C0A0A",
". c #373737",
"X c gray23",
"o c #471212",
"O c #4E1313",
"+ c #521414",
"@ c #591818",
"# c #5D1C1C",
"$ c #642121",
"% c #682525",
"& c #702A2A",
"* c #742E2E",
"= c #7B3232",
"- c #434343",
"; c gray31",
": c gray34",
"> c #5B5B5B",
", c gray42",
"< c #803A3A",
"1 c #873E3E",
"2 c #8B4242",
"3 c #934A4A",
"4 c #974E4E",
"5 c #9F5656",
"6 c #A45E5E",
"7 c #AC6666",
"8 c #B06A6A",
"9 c #B87272",
"0 c #BC7979",
"q c #C48181",
"w c #CC8989",
"e c #D29494",
"r c #DA9C9C",
"t c #DEA3A3",
"y c #E7AFAF",
"u c None",
/* pixels */
"uuuuuu555558888880qeequuuuuuuuuuuuuuuuuuuuuuuuuuuuu",
"u3555554466666667899987quuuuuuuuuuuuuuuuuuuuuuuuuuu",
"35777755qeeq4576776543570wuuuuuuuuuuuuuuuuuuuuuuuuu",
"79www9736qwe966qerewq64447quuuuuuuuuuuuuuuuuuuuuuuu",
"57000w9249qw8997wertrre94479uuuuuuuuuuuuuuuuuuuuuuu",
"*11259w5289970w97579weee92477uuuuuuuuuuuuuuuuuuuuuu",
"**&1270936856wweq9570qwwq64479uuuuuuuuuuuuuuuuuuuuu",
"1*&$&587635139ee8w9467800985557uuuuuuuuuuuuuuuuuuuu",
"u===225543<==49w88w645678876449quuuuuuuuuuuuuuuuuuu",
"u2==<42===$4=*37669q7445678775457uuuuuuuuuuuuuuuuuu",
"uu==<<53$&@462=339qwq44459q009549uuuuuuuuuuuuuuuuuu",
"uu412<132<=146249669w3446wrwq08547uuuuuuuuuuuuuuuuu",
"uu==321<<<=$11=&92w9906469wq0986547uuuuuuuuuuuuuuuu",
"uuu136<&&&%@$&%$4<9r9w9446888qwwq9499uuuuuuuuuuuuuu",
"uuu136<=&%%@@@@&636ww9e64466qrryteq9q96uuuuuuuuuuuu",
"uuu<34<3=%$@@@@=4929w9e94246qwrtrw96qq94uuuuuuuuuuu",
"uuu<<34442=@O@@$46269qqw41269qwwwq966964uuuuuuuuuuu",
"uuu12442<2&@OO@@=2429q0w412570qqq964<962<uuuuuuuuuu",
"uu<244<<<=%OOoOO@%326q90413668099642=641<uuuuuuuuuu",
"u==<3<*=*%@@O oOO@*39ew942699996642<=41*<uuuuuuuuuu",
"u===*&*%%$@@O  oO@&6erq94270eq9644<=<1**<uuuuuuuuuu",
"u<**&%%$$#@OOuuuuu9wrrq66<80eq9644<*12342uuuuuuuuuu",
"u<*&&$$$$#@Ouuuuuu69wrq6429qeq9496*%358994uuuuuuuuu",
"uu*&$$$#@+Ouuuuuu6429q96249weq94w7%=469qe94uuuuuuuu",
"uuu<$#@+OOuuuuuu46<<4984<69qq96<w7%*4690we94uuuuuuu",
"uuuuuuuuuuuuuuuu44u46843=69q984296%&1689qwe96uuuuuu",
"uuuuuuuuuuuuuuuuuuu664<<=679772494%*=4670qwe64uuuuu",
"uuuuuuuuuuuuuuuuuuu94<$<$779762961%**<46q090054uuuu",
"uuuuuuuuuuuuuuuuuuu2=#==%669962q4<%%*<246w08964uuuu",
"uuuuuuuuuuuuuuuuuu*&$$*#26699439<$%%&&=<46068964uuu",
"uuuuuuuuuuuuuuuuuuuu=$<<69499456<u%%*&**=16448964uu",
"uuuuuuuuuuuuuuuuuuuuuu<599499475uuuu=&***=1<269964u",
"uuuuuuuuuuuuuuuuuuuuuu*69669q694uuuuuu===*=*<669064",
"uuuuuuuuuuuuuuuuuuuuuu49q986q993uuuuuuuu=&**<445644",
"uuuuuuuuuuuuuuuuuuuuuu776693q963uuuuuuuuu==*14432=&",
"uuuuuuuuuuuuuuuuuuuuu=653562994uuuuuuuuuu=4<24321=%",
"uuuuuuuuuuuuuuuuuuuuu2542452<=&uuuuuuuuuu=642321=%u",
"uuuuuuuuuuuuuuuuuuuuu2421452=&uuuuuuuuuuu=56331<&uu",
"uuuuuuuuuuuuuuuuuuuu==2<<65<&uuuuuuuuuuuu=46421<uuu",
"uuuuuuuuuuuuuuuuuuu2=*<<484=uuuuuuuuuuuuu=353311uuu",
"uuuuuuuuuuuuuuuuuu52<&*484=uuuuuuuuuuuuuu<2434<uuuu",
"uuuuuuuuuuuuuuuuu621=&481=uuuuuuuuuuuuuu412446<uuuu",
"uuuuuuuuuuuuuuuu632<*161<uuuuuuuuuuuuuu92264663uuuu",
"uuuuuuuuuuuuuu86542<242=uuuuuuuuuuuuuu942396964uuuu",
"uuuuuuuuuuuu889865422<uuuuuuuuuuuuuuq66136q9q66uuuu",
"uuuuuuuuuu864<498642$uuuuuuuuuuuu;-196<<<6qqq66uuuu",
"uuuuuuuu;.4<,><2862<%$uuuuuuuuuu;-X<5<::$<59974uuuu",
"uuuuuuu;.3<,>;.<53<=%%.uuuuuuuu;-X.*<.;;-$454<uuuuu",
"uuuuuuu.<3,>;..<<<<=uuuuuuuuuuu-X..$<.;--.$2<uuuuuu",
"uuuuuuuuuuuuuuuuuuuuuuuuuuuuuuuuuuuuu.--..$uuuuuuuu"
};
