/* XPM */
static char *BPBIB5[] = {
/* columns rows colors chars-per-pixel */
"42 52 31 1 ",
"  c #2F2F2F",
". c #373737",
"X c gray23",
"o c #471212",
"O c #4E1313",
"+ c #521414",
"@ c #591818",
"# c #5D1C1C",
"$ c #642121",
"% c #682525",
"& c #702A2A",
"* c #742E2E",
"= c #7B3232",
"- c #434343",
"; c gray28",
": c #803A3A",
"> c #873E3E",
", c #8B4242",
"< c #934A4A",
"1 c #974E4E",
"2 c #9F5656",
"3 c #A45E5E",
"4 c #AC6666",
"5 c #B06A6A",
"6 c #B87272",
"7 c #BC7979",
"8 c #C48181",
"9 c #CC8989",
"0 c #D29494",
"q c #DA9C9C",
"w c None",
/* pixels */
"wwwwwwwwwwwwww677893ww3446766wwwwwwwwwwwww",
"wwwwwwwwwwww7899988235236699887wwwwwwwwwww",
"wwwwwwwwwww23777777143237777773:wwwwwwwwww",
"wwwwwwwwww><223566735423668851::*wwwwwwwww",
"wwwwwwwwww#$:,148981422388721,:*Owwwwwwwww",
"wwwwwwwwwwO*:>,1466354247521,>*OOwwwwwwwww",
"wwwwwww7777565257751429752677658887wwwwwww",
"wwwwww68qq756992455142962689935qq986wwwwww",
"wwwww45677677786333684753898414567654wwwww",
"wwwww3334673>269622142637742<>1453333wwwww",
"www59236874>*>2596268442242<>=>4784115wwww",
"www43589843*$*12324142215531==*54897495www",
"ww711268621$%>377326841588831&*13688434www",
"ww21,,2641>$%2554431423334554,=>14664117ww",
"w2464,<42>=$&><23437373476642<*=>2421112ww",
"w=674,,<>=&$&>279737373487642<*&=><<,3532w",
"w*,,,<<>:&$w%>470944664790063<$$&:>,,175=w",
"2*=:12,::$ww%,479075447799864,$w$:,<<,,,*w",
"1==:4,:*&www%<247974124788742>$ww&>,22,=*2",
">5<72>*wwwww$><24442,>244442<>=www=,,44<71",
"*3<4,*wwwwww#*=:,<<<=*>2332<,>=www*,>27<5>",
"&1<3=*wwwwww#**:>,,>=**><<<,>==wwww=*,4<3*",
"=121:&wwwwww$>>,>>>:%%%*:>,,>=>wwwww*=3<1&",
"=12<:&wwwww*=34211>>%%*::,>>232,wwww&:121=",
"=><<:$wwwww=27727741$$::241>5751,www&:<21=",
"==><:$wwwww,4872873<&@&,12414452,www$:<<>=",
"$&%=:$Owww,27845972,&@$*267126631,ww$:<>==",
"&&#$&&Owww>3972694<=*@@*,36314642<wO$:=%&$",
"O#@@#$Owww>4972973,,*w@$*14512542<wO&&$#&&",
"wOO+@#www=>595494<1<=w@@$>2542542<wO$#@@#O",
"wwooowwww=>592772,22:ww@@*2451463<ww#@+OOw",
"wwwwwwwww>>49273<143wwww@$1262374<wwwoooww",
"wwwwwwwww,,38572,243wwwww$,15758522wwwwwww",
"wwwwwwww,<>37742,25<wwwwww&,37696<9wwwwwww",
"wwwwwwww,1>4794,,2<wwwwwww=*,3996<72wwwwww",
"wwwwwwww12>4994:,<,wwwwwww=<>>796>4=wwwwww",
"wwwwwwww22:2772:=,wwwwwwww=<2=342*2=wwwwww",
"wwwwwwww21&,44,=*<wwwwwwwww><=<<<$2&wwwwww",
"wwwwwwwww<&%==&&*wwwwwwwwww=*&=<>&,,wwwwww",
"wwwwwwwww>&$$$$*2wwwwwwwwww$*&*>,&=wwwwwww",
"wwwwwwwww>*$%%$*wwwwwwwwwww=*&*:,=2wwwwwww",
"wwwwwwwwww=%&=%*wwwwwwwwwwww&$$=,=wwwwwwww",
"wwwwwwwwww=&*:**wwwwwwwwwwww=$#*,&wwwwwwww",
"wwwwwwwwwww*=>:*wwwwwwwwwwww,$#%:@wwwwwwww",
"wwwwwwwwwww=:,:*wwwwwwwwwwww,$#%=@wwwwwwww",
"wwwwwwwwww2>><>*wwwwwwwwwwww$$#$*$wwwwwwww",
"wwwwwww;X2>,,1,>,22;wwwwwwww$&=:*%wwwwwwww",
"wwwwww-X <,1<2<1,,<X;wwwwwww**==*%wwwwwwww",
"wwwwww---,><24<<>:, Xwwwww3:::==*%:3wwwwww",
"wwwwwwwwwwwwwwwwwwwwwwww-3<,::::*%,<3-wwww",
"wwwwwwwwwwwwwwwwwwwwwww-X<,>%%%%%$>,<X-www",
"wwwwwwwwwwwwwwwwwwwwww...:=*$$$$$$*=:...ww"
};
