/* XPM */
static char *BPBIB3B7[] = {
/* columns rows colors chars-per-pixel */
"66 51 47 1 ",
"  c black",
". c #131313",
"X c #1B1B1B",
"o c #3C0A0A",
"O c #272727",
"+ c #373737",
"@ c #430B0B",
"# c #471212",
"$ c #4E1313",
"% c #521414",
"& c #591818",
"* c #5D1C1C",
"= c #642121",
"- c #682525",
"; c #702A2A",
": c #742E2E",
"> c #7B3232",
", c gray28",
"< c #4B4B4B",
"1 c gray31",
"2 c gray34",
"3 c #5B5B5B",
"4 c gray39",
"5 c gray42",
"6 c #6F6F6F",
"7 c #777777",
"8 c gray50",
"9 c #803A3A",
"0 c #873E3E",
"q c #8B4242",
"w c #934A4A",
"e c #974E4E",
"r c #9F5656",
"t c #A45E5E",
"y c #AC6666",
"u c #B06A6A",
"i c #B87272",
"p c #BC7979",
"a c #838383",
"s c #8B8B8B",
"d c #939393",
"f c #9F9F9F",
"g c #C48181",
"h c #CC8989",
"j c #D29494",
"k c #DA9C9C",
"l c None",
/* pixels */
"lllllllllllllllllllllpuuuutptyyyiiyyttllllllllllllllllllllllllllll",
"lllllllllllllllputptutyeyteeityytrppppttllllllllllllllllllllllllll",
"llllluuuyyuutuutiiiiyyyyttttyuuttghjjggtttllllllllllllllllllllllll",
"ll0ruuutiiigiiiiyyyyiyytte00iiiiyighggiirrtlllllllllllllllllllllll",
"letuupiggiiyyyyyyyyyyitre9-;tihjittiiyyyrthillllllllllllllllllllll",
"etuuutighhgiiittyyyyteyw9--;wtijhghggggggiittlllllllllllllllllllll",
"ttuutetighhggiittttyttwy>-&&9etiiiiiiiipggjhgpplllllllllllllllllll",
"9uuttetiighhggittttytw>9y>=&;wqewwwewtyitqeihhiiplllllllllllllllll",
"-9eee9etiighggireeetww>0te-=&;>99>>:>:wettqwtihiipllllllllllllllll",
"l999;9eetighhgiteewqt099te:--&&&&&&&&&tigjjgtwtihiplllllllllllllll",
"l;;998wetigggiitewq09t90ee9:9===&&=&&&weetighitihiphhlllllllllllll",
"ll;:+dqeriigiittt009>tetetr9>>ee0q>9>$=9qeeettieihihgtllllllllllll",
"ll;4 60wryiiiytre:9>9tie9etyree0titee>#$:99qqqqi9tgiggtlllllllllll",
"lll5 <90etyiyyeq:r:>9ie;;qqeye9ettteeq=$$*-;-*=9qttigjrlllllllllll",
"lll2 O:9etyyye099:erte;=;9qqy>9qeeewwq=$$@@@@@@9qttigjirllllllllll",
"lll2 .e0etyte099>>wie;;=:9eyr9:>qqqqq9>==%@@o@@$igjjhtgurlllllllll",
"llll  e0eyyte99>>9re9>;99eye9:;;>>>9999;;q;*$#@o;tgghiiitrllllllll",
"llll  e9eyyteqeeqrr99>90rye9::;---::>:>:=>>;===&@:tiggtiurllllllll",
"llll  e9eyttrwqqe:9990rye:>>:;:>;;-;:>>;=-;=&>e=#$-qeiiiue9lllllll",
"llll  eqtiytrwweq>>0rre9:>>:;=;:>q;--;>:==&&>te=$$$=qeiiie9lllllll",
"llll  eqtiytrqwq9>0r099:-::;=**=-;:>;-->&##&etq>-$$=qeiiie9lllllll",
"llll  eqtiytrweeq90e%-:9-----*****=-;:-&##%>tw:>:-$@itghieqlllllll",
"llll .eqtiytrwqqqw0>$*-::--llllll****@#$#%:>9*>eqw->ghjji>llllllll",
"ll6lX,eqtiytrwqqqw0$$%*--llllllllllll**$*****-qyeee9ijhit:llllllll",
"lla426eqtiytrwwqw0=$#%--llllllllllllllll*****9rytee%ghie9q9lllllll",
"llf6a7eetiytrqww0>=#=-llllllllllllllllllll*&>9erite;ke>qeq99llllll",
"llf7a6eeiiytrqee9=#-lllllllllllllllllllllll*;9rqiye9t>tie999elllll",
"llas74eiiiytrq>>>--lllllllllllllllllllllllll>>trwit=-qgiq=qq9lllll",
"l==steiiiuyte9:::*llllllllllllllllllllllllll>:eirei**>>>;;9qe>llll",
"l>99euuyyyyr09;;-lllllllllllllllllllllllllll9:0ri9t;:>>;&w9we:llll",
"l:>>>ettttr099-=lllllllllllllllllllllllllllll9:eie9t;;;q9e9qrq:lll",
"l:;:>>>qqq099>-llllllllllllllllllllllllllllllq::ei:9qqq0qeqqtr>tll",
"l:-;::99999>::llllllllllllllllllllllllllllllll9:9ew9000tqeq9eie:ll",
"ll=;;>******lllllllllllllllllllllllllllllllllll::>q>wwetwew99yr9ql",
"llllllllllllllllllllllllllllllllllllllllllllllll:99qtetieee99qq99l",
"lllllllllllllllllllllllllllllllllllllllllllllllll99wtwtiqetq9q9>e9",
"lllllllllllllllllllllllllllllllllllllllllllllllllwrtetit9wieq9::ee",
"lllllllllllllllllllllllllllllllllllllllllllllllllryyetiq-tieq:-:w>",
"lllllllllllllllllllllllllllllllllllllllllllllllltyhitie-9tt9$-:9>l",
"llllllllllllllllllllllllllllllllllllllllllllllltgjhiiw;>eeq$*:q9ll",
"lllllllllllllllllllllllllllllllllllllllllllllltgjhhit>>ete$*:qq9ll",
"llllllllllllllllllllllllllllllllllllllllllllltgjhggi>>wtt=$:9w9>ll",
"lllllllllllllllllllllllllllllllllllllllllllltgjgggi>9ett-$:99q>tll",
"llllllllllllllllllllllllllllllllllllllllllltgjhhit9qtit$$=;>>99lll",
"lllllllllllllllllllllllllllllllllllllllllughjhgte9ettq$$&-:>>>tlll",
"lllllllllllllllllllllllllllllllllllllllughhhhgie9eeqw$$&=;>9;>llll",
"lllllllllllllllllllllllllllllllllllllgjhhiyrrytqe99:@$%=;99q:;llll",
"llllllllllllllllllllllllllllllllllujjhhiiyraare9:$###$&;0eee>:llll",
"lllllllllllllllllllllllllllllllllarighierr3575:>*%$$$-=0eee09>llll",
"lllllllllllllllllllllllllllllllla75ruteqw>1353;=&&%&$;;:>900:9llll",
"llllllllllllllllllllllllllllllla7532e9999=1131=;;=&*&->==&9::illll"
};
