/* XPM */
static char *BPBIB1[] = {
/* columns rows colors chars-per-pixel */
"44 53 49 1 ",
"  c black",
". c #390A0A",
"X c #3C0A0A",
"o c #2F2F2F",
"O c #373737",
"+ c #430B0B",
"@ c #471212",
"# c #4E1313",
"$ c #521414",
"% c #591818",
"& c #5D1C1C",
"* c #642121",
"= c #682525",
"- c #702A2A",
"; c #742E2E",
": c #7B3232",
"> c gray28",
", c gray31",
"< c gray34",
"1 c #5B5B5B",
"2 c gray39",
"3 c gray42",
"4 c #6F6F6F",
"5 c #777777",
"6 c gray50",
"7 c #803A3A",
"8 c #873E3E",
"9 c #8B4242",
"0 c #934A4A",
"q c #974E4E",
"w c #9F5656",
"e c #A45E5E",
"r c #AC6666",
"t c #B06A6A",
"y c #B87272",
"u c #BC7979",
"i c #838383",
"p c #939393",
"a c #9F9F9F",
"s c #A7A7A7",
"d c #C48181",
"f c #CC8989",
"g c #D29494",
"h c #DA9C9C",
"j c #DEA3A3",
"k c #E7AFAF",
"l c #EBB6B6",
"z c #F4C1C1",
"x c None",
/* pixels */
"xxxxxxxxxxxxxxxxxuffdhfdgduxxxxxxxxxxxxxxxxx",
"xxxxxxxxxxxxxxxdfgyyyddyufgfdyxxxydggyxxxxxx",
"xxxxxxxxxxxxudfduyttuhduyyuuuyyufgjjhdexxxxx",
"xxxxxxxxudyytretttttrdduuffduuudyujjfrr8xxxx",
"xxxxxxyggdyuyrryuudftyurufduyyrrudggfew9rxxx",
"xxxxxedhgdrrwugjhhhgeyttgghhjjguwydgdye09xxx",
"xxxx8rrddrrwwdhlzzzjte0tgjzzllhdw8eyee097xxx",
"xxxr9qerrre00wfhkkllje0tjllkhhfw08:000;;:xxx",
"xxx900qeee0;:wrffffffeqeffffffr88:&:=;;=;xxx",
"xxx7900000;;:qrrrryyye0eyyyyyye8:=&:&&=;;;xx",
"xxx:79q098;=*:qqqqrrrq7qeeeeeeq8:=&%%&;;;;xx",
"xxx-=77;;;=%#*::9qqqq8:88qqqqq87;&&=79::;:xx",
"xx;08&=-==%%#%=:88888::::88888:;&&==798;=:xx",
"xx;we7&%@@@$##%;:::::;::;;::::=&@=%#=;7**;xx",
"xx:0ee8=&&.$###*;79:;:;;:;:;***+@=XX+&=$-:ex",
"xx:7ww97-=.@##@*=;;;4;33a;4*---+&%X#+++-709x",
"xx;;77;=&#x.@#@*=;;,s4> <,s4;:-@$Xx%%#%:0w7x",
"xe:--;&&##xxx#@*-;:<i4   <i4;9-@+xx:0r9;0r*x",
"x907-%###xxxxx#*-;:o2<   O2<;9-++xx:8wq*8w%x",
"x7w0:%#%%xxxxx#*-:; >O   o> :9-@&xxx:0q=70-x",
"x7r0;9r0:xxxxx;*-;; o     o 79-&;xxxx:8*;8:x",
"x7w8*qw8:xxxx%;*-;           9-=;%xxx-;:;8qx",
"x707=q0:xxxxx%=*-;           9-;&%xxx*:qr0qx",
"x:8;*8:xxxxxx#%*-:           9-&+#xxx*q8::7x",
"xq;;:;-xxxxxx-@*-;           9-..+=xx-:;:qq0",
"xq0rq:*xxxxx=$@*-;           9-.+@=xx;7-;ew0",
"x7::8q*xxxxx$@@*-::         :9*+@$%-x9-%%0e0",
"0qq:;:-xxxx=@@@@-;:         79*@$&=7x8:=&&;0",
"0we;-7;xxx=$@@@@-;:         ;9-@%&=;788:=&:9",
"0e0---9xxx$@@@@@-;: 4     4 ;0----==:xq-q8ex",
"009-8-xxxx@@@@@@-::2p2 4 2p2:w%777:-:xxxxxxx",
"9:-8088xx=$@@@@@@;;ps42p2ps47r=8097::xxxxxxx",
"xeyq-qexx-$@@***@8qps42p2ps49r=800877xxxxxxx",
"xxxxxxxxx&$&-=::-wr4p24sp4p20y;70q087xxxxxxx",
"xxxxxxxxx&--77qw:ey9;;2p4;;9er:7qeq87xxxxxxx",
"xxxxxxxxx&=770w0;*de999w999edr:799987xxxxxxx",
"xxxxxxxxxx=::we0-*rtytrertydr:80wwwq9rxxxxxx",
"xxxxxxxxxx=::0e0-*=rtdhkkgur::09990qwqxxxxxx",
"xxxxxxxxxx%:80e0-=-xrrtytrr$qw8900qqe0qxxxxx",
"xxxxxxxxxx:888q8;-&xxxxxxxxxey;9wttqe78xxxxx",
"xxxxxxxxxxx8:79::;xxxxxxxxxxwy;9eydew77xxxxx",
"xxxxxxxxxxx::99977xxxxxxxxxxwr;9eufew8:xxxxx",
"xxxxxxxxxxx79qwq8qxxxxxxxxxxxw:9rdgrw7xxxxxx",
"xxxxxxxxxxxx0wrw9xxxxxxxxxxxxq:0tfhte:xxxxxx",
"xxxxxxxxxxxxqeurqxxxxxxxxxxxx::9rgjyexxxxxxx",
"xxxxxxxxxxyeerfurxxxxxxxxxxxxx:9tgguexxxxxxx",
"xxxxxxxxwweeerfurrewxxxxxxxxxx90ufffrxxxxxxx",
"xxxxxxx399qetwwwuy09-2xxxxxxxx9wdhjfuxxxxxxx",
"xxxxxx3299qww5i5ww097<2xxxx4yq8ryrwrfur4xxxx",
"xxxxxxxxxxx8,353,8xxxxxxx642eqqyw5i5wyr246xx",
"xxxxxxxxxxx7,131,7xxxxxx642<e9wq13531qe<246x",
"xxxxxxxxxxxx,,,,,xxxxxxx42<>7977,131,:0><24x",
"xxxxxxxxxxxxxxxxxxxxxxxxxxxxxxxx<,1,<xxxxxxx"
};
