/* XPM */
static char *BPBIA3A7[] = {
/* columns rows colors chars-per-pixel */
"60 51 51 1 ",
"  c black",
". c #1B1B1B",
"X c #3C0A0A",
"o c #232323",
"O c #272727",
"+ c gray23",
"@ c #430B0B",
"# c #471212",
"$ c #4E1313",
"% c #521414",
"& c #591818",
"* c #5D1C1C",
"= c #493B30",
"- c #642121",
"; c #682525",
": c #702A2A",
"> c #742E2E",
", c #7B3232",
"< c gray28",
"1 c gray31",
"2 c gray34",
"3 c #5B5B5B",
"4 c #615345",
"5 c gray39",
"6 c gray42",
"7 c #6F6F6F",
"8 c #777777",
"9 c gray50",
"0 c #803A3A",
"q c #873E3E",
"w c #8B4242",
"e c #934A4A",
"r c #974E4E",
"t c #9F5656",
"y c #A45E5E",
"u c #AC6666",
"i c #B06A6A",
"p c #B87272",
"a c #BC7979",
"s c #838383",
"d c #8B8B8B",
"f c #939393",
"g c #979797",
"h c #9F9F9F",
"j c #A7A7A7",
"k c #C48181",
"l c #CC8989",
"z c #D29494",
"x c #DA9C9C",
"c c #DEA3A3",
"v c None",
/* pixels */
"vvvvvvvvvvvvvvvaxlliyayuuuppuuvvvvvvvvvvvvvvvvvvvvvvvvvvvvvv",
"vvvvvaiaallkkaappruyrrpyuuytuutttvvvvvvvvvvvvvvvvvvvvvvvvvvv",
"v,qeiiipalzlkaapppyyyyuiiyyylzkkuetvvvvvvvvvvvvvvvvvvvvvvvvv",
",wweeyuppakzzaaapyyr0:ppppupplpppptevvvvvvvvvvvvvvvvvvvvvvvv",
",ewweyuupaalzkapytr0;:yplzpyyppuuutwlpvvvvvvvvvvvvvvvvvvvvvv",
"ewwweyyuupakzkppte0;;:eypzllyypppppppyyvvvvvvvvvvvvvvvvvvvvv",
"www0weyuupaklapyeq,;&&0ryplklppkpakkzlkaavvvvvvvvvvvvvvvvvvv",
"vw,0weryuupakpptr00,&&:ewryppppplyryplkkkavvvvvvvvvvvvvvvvvv",
"v,,,0erryupaapuyrq,,&&&:,000ereerpywrpllppavvvvvvvvvvvvvvvvv",
"v,,,0,eryuppppuyr,0,>&;&&&-;:>,0eryyweyplppavvvvvvvvvvvvvvvv",
"v:,>,0wrtyuppuyyy0wr0>0---&&-:;>ypkzzkyeyplpavvvvvvvvvvvvvvv",
"v:=548qetyypuuyyr,wyy0,,,rrw,0,&errypklpyplpallvvvvvvvvvvvvv",
"v72.1g0qrtyuutyr::0ryy0,,rypyrr$-0wrrryyprplplkrvvvvvvvvvvvv",
"vd< +9>0rtyyttr0;-:wrtq,0ryyyrr,#$>00wwwwp0ykpkpwvvvvvvvvvvv",
"v6v o3r:ryyytree,-:0wer,0wrrreew-$$*;:;*-0wyyppzrvvvvvvvvvvv",
"vvv .+p:ryytrerrw:>00wtw>,wwwww0,--%@@X@@$ylzlpplypvvvvvvvvv",
"vvv  oy0ryytrewww0:,00,00:,,,0000::w,*$#@Xpkkzlykpyrvvvvvvvv",
"vvv   y0ryyytewww>>>>00>>;;;>>,>,>-,,,0>-&:ypklppprywvvvvvvv",
"vv   5ywypuyteeww,>>,,:>>,,:;:>,,:-;:,0,r-@>ypkkypyrwvvvvvvv",
"v8O2+dyrypuytwew00>,,-*;:>,w0>>>,>--;,,yr-#$;wrpppyyr0vvvvvv",
"vh3d9hrrppuytw,00>;>>--**-;:>,,>>,>;>,ryw,$$$-wrpppyr0vvvvvv",
"8d6j9drpppuytw,,,,;;vvvvv***-;:>;;-;>,yeer>&$@>yklpprwvvvvvv",
">--fyrpppiuyr0>>>;vvvvvvvvvv***@#$-,>,00rrwe-#wlzlly0vvvvvvv",
">,00riiuuuuye0::;vvvvvvvvvvvvvvvv$***>>0wrrrr,klzzpy,vvvvvvv",
">>,,,ryyyyyre0;-vvvvvvvvvvvvvvvvvvvv*->0eryrr0pzlpyr>vvvvvvv",
">>:>,,,werrr0,;vvvvvvvvvvvvvvvvvvvvvv&,0wryyr%klpr0w00vvvvvv",
">>;:>>00000,>>vvvvvvvvvvvvvvvvvvvvvvvv:0wwyyr:xr,wrw00rvvvvv",
"v>-::,******vvvvvvvvvvvvvvvvvvvvvvvvvv,,yeepy0y,ypr00w0vvvvv",
"vvvvvvvvvvvvvvvvvvvvvvvvvvvvvvvvvvvvvv,y>pwrp-;wkpw-wwr,vvvv",
"vvvvvvvvvvvvvvvvvvvvvvvvvvvvvvvvvvvvvv0ry0p0y**ply::0er>vvvv",
"vvvvvvvvvvvvvvvvvvvvvvvvvvvvvvvvvvvvvvv>r0pr0:>yw:&e0wtw>vvv",
"vvvvvvvvvvvvvvvvvvvvvvvvvvvvvvvvvvvvvvvwer,p>y&*@-0r0wyt,yvv",
"vvvvvvvvvvvvvvvvvvvvvvvvvvvvvvvvvvvvvvvv0w0we0*%:ywrw0rpr>vv",
"vvvvvvvvvvvvvvvvvvvvvvvvvvvvvvvvvvvvvvvvv0r,w,eeryere00ut0wv",
"vvvvvvvvvvvvvvvvvvvvvvvvvvvvvvvvvvvvvvvvvvrwwwyryprrr00ww00v",
"vvvvvvvvvvvvvvvvvvvvvvvvvvvvvvvvvvvvvvvvvvv0yeyeypwryw0w0,r0",
"vvvvvvvvvvvvvvvvvvvvvvvvvvvvvvvvvvvvvvvvvvvetyrryy0eprwww,rr",
"vvvvvvvvvvvvvvvvvvvvvvvvvvvvvvvvvvvvvvvvvvveturypw,yprww00e,",
"vvvvvvvvvvvvvvvvvvvvvvvvvvvvvvvvvvvvvvvvvvvwuprrr,0yy0ww0w,v",
"vvvvvvvvvvvvvvvvvvvvvvvvvvvvvvvvvvvvvvvvvvyyppre0,rrw0ww0:vv",
"vvvvvvvvvvvvvvvvvvvvvvvvvvvvvvvvvvvvvvvvvppplpy0,ryr,ee0,vvv",
"vvvvvvvvvvvvvvvvvvvvvvvvvvvvvvvvvvvvvvvvpppkkpw,eyy->ww,yvvv",
"vvvvvvvvvvvvvvvvvvvvvvvvvvvvvvvvvvvvvvvppkkkpw0ryy;*>000vvvv",
"vvvvvvvvvvvvvvvvvvvvvvvvvvvvvvvvvvvvvvpkllpy0wypy;&-:,,yvvvv",
"vvvvvvvvvvvvvvvvvvvvvvvvvvvvvvvvvvvvzlklkyr0ryyw*&&;>,,vvvvv",
"vvvvvvvvvvvvvvvvvvvvvvvvvvvvvvvvvvzllllkpr0rrwe&$&-:,0:vvvvv",
"vvvvvvvvvvvvvvvvvvvvvvvvvvvvvvvczllkuttuywr00>@-%-:00w>vvvvv",
"vvvvvvvvvvvvvvvvvvvvvvvvvvvvicllllputsstr0>$###-&:,wer,vvvvv",
"vvvvvvvvvvvvvvvvvvvvvvvvvvvstpklyrtt3686>,*%$$$;->0rrw0vvvvv",
"vvvvvvvvvvvvvvvvvvvvvvvvvvs86tiyrwe,1363:-&&%&$::>,0wrpvvvvv",
"vvvvvvvvvvvvvvvvvvvvvvvvvs8632r0000-1131-::-&*&;,--&0yvvvvvv"
};
