/* XPM */
static char *BPBIC2C8[] = {
/* columns rows colors chars-per-pixel */
"50 57 46 1 ",
"  c #272113",
". c #373737",
"X c gray23",
"o c #430B0B",
"O c #471212",
"+ c #4E1313",
"@ c #521414",
"# c #591818",
"$ c #5D1C1C",
"% c #493B30",
"& c #642121",
"* c #682525",
"= c #702A2A",
"- c #742E2E",
"; c #7B3232",
": c #50533F",
"> c #434343",
", c gray28",
"< c #4B4B4B",
"1 c gray31",
"2 c #595F4B",
"3 c gray34",
"4 c #5B5B5B",
"5 c gray39",
"6 c gray42",
"7 c #6F6F6F",
"8 c #777777",
"9 c gray50",
"0 c #803A3A",
"q c #873E3E",
"w c #8B4242",
"e c #934A4A",
"r c #974E4E",
"t c #9F5656",
"y c #A45E5E",
"u c #AC6666",
"i c #B06A6A",
"p c #B87272",
"a c #BC7979",
"s c #979797",
"d c #C48181",
"f c #CC8989",
"g c #D29494",
"h c #DA9C9C",
"j c #DEA3A3",
"k c None",
/* pixels */
"kkkkkkkkkkkkkkgggutrrkkkkkkkkkkkkkkkkkkkkkkkkkkkkk",
"kkkkkkkkkkkkggfpuuutrrkkkkkkkkkkkkkkkkkkkkkkkkkkkk",
"kkkkkuaggffpiiypiapitryykkkkkkkkkkkkkkkkkkkkkkkkkk",
"kkupaggpppffddppffpffadgdikkkkkkkkkkkkkkkkkkkkkkkk",
"ktuafipadfgdpuuippippdgfapdgggdkkkkkkkkkkkkkkkkkkk",
"rtufippdfgggdptrqetuidfpphhgfffikkkkkkkkkkkkkkkkkk",
"qetiuuupdffggdprrqetupppgjjhgpauikkkkkkkkkkkkkkkkk",
"$;equuuupdffgfdyrrqeyyppfhhgdtruykkkkkkkkkkkkkkkkk",
"@&-qtuuuupdfggfdyrq--ryppfgfaptqryuuukkkkkkkkkkkkk",
"k@&qrttuuupdfggdyrq=w0ryiiappyrrqyuippkkkkkkkkkkkk",
"k$*&qrttuupudffdyr-0eq=*0rrrreq0wyyidiukkkkkkkkkkk",
"k*0*&qrttrttuddyr0=wrqq*#$=;;===wyiyyyuuukkkkkkkkk",
"k;r0&q=ruuupruuyry0rtwq==*$&***0rdpddiipuutkkkkkkk",
"kk;r0-=;rryiruyrtyrtywq-te0-*-;0yfghgfyypyttkkkkkk",
"kk238-=-ruuytuyryrrytw;tpyrww0$oeypadfdpytrwtkkkkk",
"kks<648;w0tttuyetwetw0;upyrrww0+owryuufirewwtkkkkk",
"kk95759uyewrrtrw00wt0;wuuyrewwr;+o0weruyttgfutkkkk",
"k 458,5eyy-qrwww0=tr&&;rrew0000y;oo+;;ewtaiyryrkkk",
"ktX7s.4yyi=qw000=qtq+&=0000;;=0e=@oooo;;tpfdirtkkk",
"kq%48d:yiy-etw0;qtr=++*;;;--==00=*@@$&++;ugfppyekk",
"k$eyyiiite0qet0-trq#O#-;;-*&*000=*=-;w$#;eupiuuyrk",
"kk$&=;eee0qweeteqq##OO00-*$&;;;-*;rwrw;=;qruiyuurk",
"kkk$&=;00;wqqeeq&##++O$$$$&-;--*-r0ry000&q;wryyprk",
"kkkkk**;;;;;-=*##++++++$$==-;;-;w00pe0;q&=;;wrrirk",
"kkkkkkkkkkkkkkkk#++++++o+$&=;;;w;0ry0-;q=&=;0weytk",
"kkkkkkkkkkkkkkkkkkk++++++o+$;00;0we0=wrr0*&;-yppyr",
"kkkkkkkkkkkkkkkkkkkkk++&&@oo*00=0;==wryrq-*&;fgdp0",
"kkkkkkkkkkkkkkkkkkkkkkkk+&&@+*-$$==ryyyrq0-*$ggff0",
"kkkkkkkkkkkkkkkkkkkkkkkkkk&&&+$$=qrryuyewq0-&pgpr;",
"kkkkkkkkkkkkkkkkkkkkkkkkkkk+&+$$=qrryuyrwrq0&egr0=",
"kkkkkkkkkkkkkkkkkkkkkkkkkkkk+&o$-0rruypyrrtq$pp-00",
"kkkkkkkkkkkkkkkkkkkkkkkkkkkkk#oo;rwepyydyeyy-y;e0k",
"kkkkkkkkkkkkkkkkkkkkkkkkkkkkkkO+&rpeedyyfyrpe;**=k",
"kkkkkkkkkkkkkkkkkkkkkkkkkkkkkk@o+wyprrdrppepw*;;kk",
"kkkkkkkkkkkkkkkkkkkkkkkkkkkkkkkOo;eprwrpwprpw&&&kk",
"kkkkkkkkkkkkkkkkkkkkkkkkkkkkkkk+o$0eyr0rrryr0&&&kk",
"kkkkkkkkkkkkkkkkkkkkkkkkkkkkkkkk+o*0rywry0yr0=&&kk",
"kkkkkkkkkkkkkkkkkkkkkkkkkkkkkkkkk$#*;rr0rryyr--&kk",
"kkkkkkkkkkkkkkkkkkkkkkkkkkkkkkkkkk$#*;r;ryyypt0;kk",
"kkkkkkkkkkkkkkkkkkkkkkkkkkkkkkkkkkk+$+0rityppir=kk",
"kkkkkkkkkkkkkkkkkkkkkkkkkkkkkkkkkkkk*O$ityapyur&kk",
"kkkkkkkkkkkkkkkkkkkkkkkkkkkkkkkkkkkkk#ottifpyyr;rk",
"kkkkkkkkkkkkkkkkkkkkkkkkkkkkkkkkkkkkk#Oriafpytw0;k",
"kkkkkkkkkkkkkkkkkkkkkkkkkkkkkkkkkkkkk#;yafdpyr0q0k",
"kkkkkkkkkkkkkkkkkkkkkkkkkkkkkkkkkkkkO;yafddpt0;;kk",
"kkkkkkkkkkkkkkkkkkkkkkkkkkkkkkkkkkkk&yagfapt0-0kkk",
"kkkkkkkkkkkkkkkkkkkkkkkkkkkkkkkkkkk*yagfdpt0;0rkkk",
"kkkkkkkkkkkkkkkkkkkkkkkkkkkkkkkkkkrtdgfppt00wwkkkk",
"kkkkkkkkkkkkkkkkkkkkkkkkkkkkkkkkkkrdgfdpt;0r0kkkkk",
"kkkkkkkkkkkkkkkkkkkkkkkkkkkkkkkkkddgfaye0wwekkkkkk",
"kkkkkkkkkkkkkkkkkkkkkkkkkkkkkkkadggfay0;wwkkkkkkkk",
"kkkkkkkkkkkkkkkkkkkkkkkkkkkkkdfffhhat;;;rOkkkkkkkk",
"kkkkkkkkkkkkkkkkkkkkkkkkkkkfffppppat;6,+OOOkkkkkkk",
"kkkkkkkkkkkkkkkkkkkkkkkkkkww;;puttutX46,OOOOkkkkkk",
"kkkkkkkkkkkkkkkkkkkkkkkkkkw476;reew;X,44,+&Okkkkkk",
"kkkkkkkkkkkkkkkkkkkkkkkkkk49741;qq;=&XXXXkkkkkkkkk",
"kkkkkkkkkkkkkkkkkkkkkkkkk48641>#&++okkkkkkkkkkkkkk"
};
