/* XPM */
static char *BPBIC5[] = {
/* columns rows colors chars-per-pixel */
"42 54 32 1 ",
"  c #2F2F2F",
". c #373737",
"X c gray23",
"o c #471212",
"O c #4E1313",
"+ c #521414",
"@ c #591818",
"# c #5D1C1C",
"$ c #642121",
"% c #682525",
"& c #702A2A",
"* c #742E2E",
"= c #7B3232",
"- c #434343",
"; c gray28",
": c #803A3A",
"> c #873E3E",
", c #8B4242",
"< c #934A4A",
"1 c #974E4E",
"2 c #9F5656",
"3 c #A45E5E",
"4 c #AC6666",
"5 c #B06A6A",
"6 c #B87272",
"7 c #BC7979",
"8 c #C48181",
"9 c #CC8989",
"0 c #D29494",
"q c #DA9C9C",
"w c #DEA3A3",
"e c None",
/* pixels */
"eeeeeeeeeeeeeeeeeee555467668eeeeeeeeeeeeee",
"eeeeeeeeeeeee448974522469qw97eeeeeeeeeeeee",
"eeeeeeeeeee4679q0754224777772<eeeeeeeeeeee",
"eeeeeeeeee790q88777352664233<>eeeeeeeeeeee",
"eeeeeeeee277777676847288742<>:eeeeeeeeeeee",
"eeeeeeeee><2555898616165522,::eeeeeeeeeeee",
"eeeeeeeee#>12343663684377327753eeeeeeeeeee",
"eeeeeeeee7756552453444263<777658887eeeeeee",
"eeeeee68qq75699215<,41<3<799735qq986eeeeee",
"eeeee4567657778631<684<<789731,>67654eeeee",
"eeee31133573>269621,41137742<>&,53333eeeee",
"eee31,,3673>*>2593>684,1241>>=>2431155eeee",
"eee,,,24841>*>2531=111,,21>,=&>4783115eeee",
"eee2338984>*$*12>>>,41:>>,1,&&*54897495eee",
"ee711468621$%>2771::11::2883>&*13688434eee",
"ee21112641>$%255441:41>234551>=>14664117ee",
"e2353,<42>=$&,<2343>37>478641>*=>2421112ee",
"e=571,,<>=&$&<<3343737347863<<*&=><<,3532e",
"e*,,,<<>:&$O%,479844664700063<$$&:>,,175=e",
"2*=,22,,:$eO%,470075447799864,$e$:,<<,,,*e",
"17<44,,>&eee%<247974124788742>$ee&>,22,=*2",
">5<72>,=eeee$><2444<,,244442<*=eee=,,44<71",
"*3<4,*=*eeee#*=:,<<<=,<2332<,>=eee*,>27<5>",
"&1<3=*eeeeee#**:>,,>=>,<22<,><=eeee=*,4<3*",
"=121:&eeeeee$>2,121:%:,<<<,,31>,eeee*=3<1&",
"=12<:&eeeee*=3424441%%,12322762,eeee&:121=",
"=><<:$eeeee=27727741$$=,57417741,eee&:<21=",
"==><:$eeeee,4872873<&@&,57714752,eee$:<<>=",
"$&%=:$Oeee,27845972,&@$*367126631,ee$:<>==",
"&&#$&&Oeee>3972694<=*@@*,36314642*eO$:=%&$",
"O#@@#$Oeee>4972973,,*@@$*14512542&eO&&$#&&",
"eOO+@#eee=>595494<1<=e@@$>2542542=eO$#@@#O",
"eeoooeeee=>592772,22:ee@@*2451463*ee#@+OOe",
"eeeeeeeee>>49273<143eeee@$1262374*eeeoooee",
"eeeeeeeee,,38572,243eeeee$,157585=2eeeeeee",
"eeeeeeee,<>37742,25<eeeeee&,37696=9eeeeeee",
"eeeeeeee,1>4794,,2<4eeeeee=*,3996>72eeeeee",
"eeeeeeee12>4994:,<,eeeeeee=<>>796>4=eeeeee",
"eeeeeeee22:2772:=,eeeeeeee=<2=342*2=eeeeee",
"eeeeeeee21&,44,=*<eeeeeeeee><=<<<$2&eeeeee",
"eeeeeeeee<&%==&&*eeeeeeeeee=*&=<>&,,eeeeee",
"eeeeeeeee>&$$$$*2eeeeeeeeee$*&*>,&=eeeeeee",
"eeeeeeeee>*$%%$*eeeeeeeeeee=*&*:,=2eeeeeee",
"eeeeeeeeee=%&=%*eeeeeeeeeeee&$$=,=eeeeeeee",
"eeeeeeeeee=&*:**eeeeeeeeeeee=$#*,&eeeeeeee",
"eeeeeeeeeee*=>:*eeeeeeeeeeee,$#%:@eeeeeeee",
"eeeeeeeeeee=:,:*eeeeeeeeeeee,$#%=@eeeeeeee",
"eeeeeeeeee2>><>*eeeeeeeeeeee$$#$*$eeeeeeee",
"eeeeeee;X2>,,1,>,22;eeeeeeee$&=:*%eeeeeeee",
"eeeeee-X <,1<2<1,,<X;eeeeeee**==*%eeeeeeee",
"eeeeee---,><24<<>:, Xeeeee3:::==*%:3eeeeee",
"eeeeeeeeeeeeeeeeeeeeeeee-3<,::::*%,<3-eeee",
"eeeeeeeeeeeeeeeeeeeeeee-X<,>%%%%%$>,<X-eee",
"eeeeeeeeeeeeeeeeeeeeee...:=*$$$$$$*=:...ee"
};
