/* XPM */
static char *BPBIA1[] = {
/* columns rows colors chars-per-pixel */
"44 53 49 1 ",
"  c black",
". c #390A0A",
"X c #3C0A0A",
"o c #2F2F2F",
"O c #373737",
"+ c #430B0B",
"@ c #471212",
"# c #4E1313",
"$ c #521414",
"% c #591818",
"& c #5D1C1C",
"* c #642121",
"= c #682525",
"- c #702A2A",
"; c #742E2E",
": c #7B3232",
"> c gray28",
", c gray31",
"< c gray34",
"1 c #5B5B5B",
"2 c gray39",
"3 c gray42",
"4 c #6F6F6F",
"5 c #777777",
"6 c gray50",
"7 c #803A3A",
"8 c #873E3E",
"9 c #8B4242",
"0 c #934A4A",
"q c #974E4E",
"w c #9F5656",
"e c #A45E5E",
"r c #AC6666",
"t c #B06A6A",
"y c #B87272",
"u c #BC7979",
"i c #838383",
"p c #939393",
"a c #9F9F9F",
"s c #A7A7A7",
"d c #C48181",
"f c #CC8989",
"g c #D29494",
"h c #DA9C9C",
"j c #DEA3A3",
"k c #E7AFAF",
"l c #EBB6B6",
"z c #F4C1C1",
"x c None",
/* pixels */
"xxxxxxxxxxxxxxxxxufryyygfduxxxxxxxxxxxxxxxxx",
"xxxxxxxxxxxxxxxdfgyrrrrudfgfdyxxxydggyxxxxxx",
"xxxxxxxxxxxxudfduytrrdryyyuuuyyufgjjhdexxxxx",
"xxxxxxxxudyytrettttrydruuffduuudyufdurr8xxxx",
"xxxxxxyggdyuytetyuueeyuuuurrewqrudggfyw9rxxx",
"xxxxxedhjjuurrryuddteeeudfdduyrrrrtuuye09xxx",
"xxxx8rruuuuywugjhhhdeeeudghhhjguuwyuuuq97xxx",
"xxxr9wrruu08wdhlzzzjte0ugjzzzlhddw8qqq:::xxx",
"xxx90qwrr08=:wfhklllje0tjlllkhfww=#===:::xxx",
"xxx79qww088&=:rffffffeqeffffffr7=#$$&&==:;xx",
"xxx:79q098==%=:qryyyye0eyyyyrq7=###%%&=;;;xx",
"xxx-=77;;;=%=%-:qeeeeqqqeeeeq7-*%#&=79::;:xx",
"xx;08&=-==%%:=--:000000000qq7-*%#&==798;=:xx",
"xx;0e7&%@@@$::=--:::77777777-*%&-=%=798=*:xx",
"xx:0ee8=&&.$=-:-===*=*&%$%***&&%-=X#=;7**;xx",
"xx::qqq8==.@#=-:-&*=4%33a#4%***&&%XX+&=$-:ex",
"xx:;9997-=..@&==%$%,s4> <,s4--*%$X@#+++-709x",
"xx;;77;=&#.xx#&%$=-<i4   <i4#:;@+xx%%#%:0w7x",
"xe:--;&&##xxxx#@$=%o2<   O2<=9;++xx=::;7qr*x",
"x907-%###xxxxx#@$;# >O   o> ;9;@&xx:0r9;0r*x",
"x7w0:%#%%xxxxx;*$:% o     o :9=&;xx:8wq*8w%x",
"x7rq7;::=xxxx%;*%;;         7w&=;%xx:0q=70-x",
"x7r0;9r0:xxxx%=;*8q 4     4 9e=;&%xxx:8*;8:x",
"x7w8*qw8:xxxx#%&=wr2p2 4 2p20y;&+#xxx-;:;8qx",
"x707=q0:xxxxx-#@@eyps42p2ps4er$..+xxx*:qr0qx",
"x:8;*8:xxxxx===#@qd4p24sp4p2dq..++xxx*q8::7x",
"xq;;:;-xxxxx---%$@qtyt2p4tydrX.+=*%xx-:;:qq0",
"xq0rq:*xxxx=--;&%$#qtdfhhdurXX+@%:=xx;7-;ew0",
"x7::8q*xxxx--;-=*-&@8qtyt08X.+#@%::-x9;;70e0",
"0qq:;:-xxx=-;;=;::*XX.XXXX.+@##---97x888;900",
"0we;-7;xxx--7;=:8:*XXXXXX.&&##%:8:9778808;:9",
"0e0---9xxx-;7=;80-&XXX.x+.&;%%=809987eq-q8ex",
"009-8--xx=-7:-;q0*%XX+xxx##;=*=800897e9x:eex",
"9:-8088xx--9:;8w8&#X+#xxx+#=;=;70q097xxxxxxx",
"xeyq-qexx&-977qw:&@X#xxxxx$%;-:7qeq87xxxxxxx",
"xeetx9txx&-770w0;*@@&xxxxx%$=;:799987xxxxxxx",
"xxxxxxxxx&=::we0-*@&xxxxxxx$%:80wwwq9rxxxxxx",
"xxxxxxxxxx=::0e0-*=&xxxxxxx$::0w0879wqxxxxxx",
"xxxxxxxxxx%:80e0-=-xxxxxxxxxqw8900qqe0qxxxxx",
"xxxxxxxxxx:888q8;-&xxxxxxxxxey;9wttqe78xxxxx",
"xxxxxxxxxxx8:79::;xxxxxxxxxxwy;9eydew77xxxxx",
"xxxxxxxxxxx::99977xxxxxxxxxxwr;9eufew8:xxxxx",
"xxxxxxxxxxx79qwq8qxxxxxxxxxxxw:9rdgrw7xxxxxx",
"xxxxxxxxxxxx0wrw9xxxxxxxxxxxxq:0tfhte:xxxxxx",
"xxxxxxxxxxxxqeurqxxxxxxxxxxxx::9rgjyexxxxxxx",
"xxxxxxxxxxyeerfurxxxxxxxxxxxxx:9tgguexxxxxxx",
"xxxxxxxxwweeerfurrewxxxxxxxxxx90ufffrxxxxxxx",
"xxxxxxx399qetwwwuy09-2xxxxxxxx9wdhjfuxxxxxxx",
"xxxxxx3299qww5i5ww097<2xxxx4yq8ryrwrfur4xxxx",
"xxxxxxxxxxx8,353,8xxxxxxx642eqqyw5i5wyr246xx",
"xxxxxxxxxxx7,131,7xxxxxx642<e9wq13531qe<246x",
"xxxxxxxxxxxx,,,,,xxxxxxx42<>7977,131,:0><24x",
"xxxxxxxxxxxxxxxxxxxxxxxxxxxxxxxx<,1,<xxxxxxx"
};
