/* XPM */
static char *BPBIC1[] = {
/* columns rows colors chars-per-pixel */
"44 53 48 1 ",
"  c #390A0A",
". c #3C0A0A",
"X c #2F2F2F",
"o c #373737",
"O c #430B0B",
"+ c #471212",
"@ c #4E1313",
"# c #521414",
"$ c #591818",
"% c #5D1C1C",
"& c #642121",
"* c #682525",
"= c #702A2A",
"- c #742E2E",
"; c #7B3232",
": c gray28",
"> c gray31",
", c gray34",
"< c #5B5B5B",
"1 c gray39",
"2 c gray42",
"3 c #6F6F6F",
"4 c #777777",
"5 c gray50",
"6 c #803A3A",
"7 c #873E3E",
"8 c #8B4242",
"9 c #934A4A",
"0 c #974E4E",
"q c #9F5656",
"w c #A45E5E",
"e c #AC6666",
"r c #B06A6A",
"t c #B87272",
"y c #BC7979",
"u c #838383",
"i c #939393",
"p c #9F9F9F",
"a c #A7A7A7",
"s c #C48181",
"d c #CC8989",
"f c #D29494",
"g c #DA9C9C",
"h c #DEA3A3",
"j c #E7AFAF",
"k c #EBB6B6",
"l c #F4C1C1",
"z c None",
/* pixels */
"zzzzzzzzzzzzzzzeeyde00zzzzzzzzzzzzzzzzzzzzzz",
"zzzzzzzzzzzzzzqystysse0esffdstzzztsfftzzzzzz",
"zzzzzzzzzzq0;6qrydggtr09wtyyyttydfhhgswzzzzz",
"zzzzzzzzsq0066wrdghgfsw9w990wq0eysfsyee7zzzz",
"zzzzzqqeysq0068edjkkkhrw9wrdssytetyyyw98ezzz",
"zzzzq0wtdfsyq;69eddffyw98rdggggdyeety0868zzz",
"zzzz89wtyyeeq6689ettttw0wygkllkgyy0tyw0;6zzz",
"zzze680wewqw66;6899wttw7wdghkjgdss7wttw0;zzz",
"zzz8;680989q66;;6899ww7;wtttdddssr000ww0-zzz",
"zzz6=-66--696===;688966;weeettterr6-68800-zz",
"zzz0**&*=--6*%*==;666;;;qwwweeewee6-;;6---zz",
"zzz8;*@&&*;6$%%**===**=;6qqqwwwqqq$*66;;-;zz",
"zze676&@@*;$@%$%%*****==;600qqq006$*686-*;zz",
"zz-9w6%$@++@@@%$$3==-88==;6800008*.*687*&;zz",
"zz;9ww7*%  +@@$6>a3222p6==;66686=$.@*66&&-zz",
"zz;;0007**  +&+Xu31:3,p@336=;;;6*.+.O%*#=;wz",
"zz;-8886=*  +&q61,11i1>aa3*%****..+@OOO=698z",
"zz--66-*%@ zz-6w:o31i1,uu3*%%%*.Ozz$$@$;9q6z",
"zw;==-%%@@zzz=-Xr113aio113*%%*++%zz*;;-60e&z",
"z896=$@@@zzzz=-7801i3w::1*8==+#%-zz;9e8-9e&z",
"z6q9;$@$$zzzz$-7077;;0XXse8=;+ *-$z;7q0&7q$z",
"z6e06-;;*zzzz$.-7wt77767778;++#-%$zz;90*69=z",
"z6e9-8e9;zzzz@...*9wqqqrq77;+.*-O@zzz;7&-7;z",
"z6q7&0q7;zzzz=@+....*-rtr97+ #-* Ozzz=-;-70z",
"z696*09;zzzz***@.......... O+*$ OOzzz&;0e90z",
"z;7-&7;zzzzz===$#...........$# O*&$zz&07;;6z",
"z0--;-=zzzzz===$#..........##. O*&$zz=;-;009",
"z09e0;&zzzz*==-%$#............O+$;*zz-6=-wq9",
"z6;;70&zzzz==-=*&=%..........O@+$;;=z8--69w9",
"9000-;=zzz*=--*-;;&.. ......+@@===86z777-899",
"9qw006-7zz==6-*;7;&...... %%@@$;7;8667797-;8",
"9w9===87zz=-6*-79=%... zO %-$$*798876w0=07wz",
"998=7==7z*=6;=-09&$..Ozzz@@-*&*799786w8z;wwz",
"8;=7977zz==8;-7q7%@.O@zzzO@*-*-690986zzzzzzz",
"zzzzzzzzz%=8660q;%+.@zzzzz#$-=;60w076zzzzzzz",
"zzzzzzzzz%=669q9-&++%zzzzz$#*-;688876zzzzzzz",
"zzzzzzzzz%*;;qw9=&+%zzzzzzz#$;79qqq08ezzzzzz",
"zzzzzzzzzz*;;9w9=&*%zzzzzzz#;;9q9768q0zzzzzz",
"zzzzzzzzzz$;79w9=*=zzzzzzzzz0q789900w90zzzzz",
"zzzzzzzzzz;77707-=%zzzzzzzzzwt-8qrr0w67zzzzz",
"zzzzzzzzzzz7;68;;-zzzzzzzzzzqt-8wtswq66zzzzz",
"zzzzzzzzzzz;;88866zzzzzzzzzzqe-8wydwq7;zzzzz",
"zzzzzzzzzzz680q070zzzzzzzzzzzq;8esfeq6zzzzzz",
"zzzzzzzzzzzz9qeq8zzzzzzzzzzzz0;9rdgrw;zzzzzz",
"zzzzzzzzzzzz0wye0zzzzzzzzzzzz;;8efhtwzzzzzzz",
"zzzzzzzzzztwwedyezzzzzzzzzzzzz;8rffywzzzzzzz",
"zzzzzzzzqqwwwedyeewqzzzzzzzzzz89ydddezzzzzzz",
"zzzzzzz2880wrqqqyt98=1zzzzzzzz8qsghdyzzzzzzz",
"zzzzzz21880qq4u4qq986,1zzzz3t07eteqedye3zzzz",
"zzzzzzzzzzz7>242>7zzzzzzz531w00tq4u4qte135zz",
"zzzzzzzzzzz6><2<>6zzzzzz531,w8q0<242<0w,135z",
"zzzzzzzzzzzz>>>>>zzzzzzz31,:6866><2<>;9:,13z",
"zzzzzzzzzzzzzzzzzzzzzzzzzzzzzzzz,><>,zzzzzzz"
};
