/* XPM */
static char *BPDEA0[] = {
/* columns rows colors chars-per-pixel */
"54 56 54 1 ",
"  c #390A0A",
". c #3C0A0A",
"X c #232323",
"o c #2F2F2F",
"O c #373737",
"+ c #430B0B",
"@ c #471212",
"# c #4E1313",
"$ c #521414",
"% c #591818",
"& c #5D1C1C",
"* c #642121",
"= c #682525",
"- c #702A2A",
"; c #742E2E",
": c #7B3232",
"> c #434343",
", c gray28",
"< c gray31",
"1 c gray34",
"2 c #5B5B5B",
"3 c gray39",
"4 c gray42",
"5 c #6F6F6F",
"6 c #777777",
"7 c gray50",
"8 c #981A1A",
"9 c #A21C1C",
"0 c #803A3A",
"q c #873E3E",
"w c #B72020",
"e c #CB2323",
"r c #8B4242",
"t c #934A4A",
"y c #974E4E",
"u c #9F5656",
"i c #A45E5E",
"p c #AC6666",
"a c #B06A6A",
"s c #B87272",
"d c #BC7979",
"f c #838383",
"g c #939393",
"h c #9F9F9F",
"j c #A7A7A7",
"k c #C48181",
"l c #CC8989",
"z c #D29494",
"x c #DA9C9C",
"c c #DEA3A3",
"v c #E7AFAF",
"b c #EBB6B6",
"n c #F4C1C1",
"m c None",
/* pixels */
"mmmmmmmmmmmmmmssssmmmmmmmmmmmmmmmmmmmmmmmmmmmmmmmmmmmm",
"mmmmmmmmmmmzcsdszzzzkkmmmmmmmukkummmmmmmmmmmmmmmmmmmmm",
"mmmmmmssaazcluikxcczldsmmdklzsllpldsmmmmmmmmmmmmmmmmmm",
"mmmmssskaaiiuuyvvvldskskkkdsptuuudklkdsmmmmmmmmmmmmmmm",
"mmpdddkzksspiu:slzzkdpddsspppualupppasdkmmmmmmmmmmmmmm",
"mudapklzllkzpr:rddap0ukklldspuauuppiiisdssdmmmmmmmmmmm",
"mdpukzzxzzkdpyy=riu0pdxcccczdtauulldsdllssadsmmmmmmmmm",
"ydypdzypxkddpqy;=rrpddcvvbbcdulatzzzlssklzzkdammmmmmmm",
"udyplxi%:puq;0=;;;--pdxddddddtatacxzlislzzlzxklmmmmmmm",
"udidls0%.%%%=;000qpppdlpydddtkdulcxxlislxzklzvkimmmmmm",
"udadsy-%.mmmm&;;0qudksdkkpyyypluksddayszvxlslzkitmmmmm",
"usdsu0%$mmmmmm=;;quadlxxsaytisuyyyyr0:pzxxsisksrtymmmm",
"ukkiu0%mmmmmmm&=;qialxcxzkitittyiuyq=;ussssissir0-mmmm",
"ikdyi;$mmmmmmm:==;rplvbbbcaitialkkdsp0:tyuiisirr00mmmm",
"iddyq%$mmmmmmm::=:0rpllzzditralxxxxlda-:qtyyiyttu-mmmm",
"ilcbk=$mmmmmmmqi:=9ri9z9zd9tralxxxxlddr::0ryyyrip:mmmm",
"icszxk=*mmmmmmqui=0099pz9ziyidxbnnbxkksy0::ruialzypmmm",
"mcupk0=@mmmmmm:q:&=0ee99zziqilxcbvxlkkkyqisssskkvsypmm",
"mkkk=t==mmmmmm=q:&&=9eiiiiq:issslllkkky&qislvlssksrkmm",
"miii0;%mmmmmmmm:#&&%-9qq---:ipuuuuuuuuy&&qilsiispurpym",
"m0i=%@mmmmmmmmm:#=&ww&--%==-:ttttt::::;m&-qiytykiy0ipm",
"mmmmmmmmmmmmmmm:#9w8w%%%%=-==:::::--$$mmm&*00ryizstppy",
"mmmmmmmmmmmmmmm=##9895--;rr-===--=====mmmm&&:ruylvsisu",
"mmmmmmmmmmmmmmm=@#9*<j5444h0-=**-000-%mmmmm&&ulvlsyysy",
"mmmmmmmmmmmmmmm=@*@of53,51h#55*-0rr0=.mmmmmm&svzsiiasy",
"mmmmmmmmmmmmmmm=#*u*3133g3<jj5-O=;0=..mmmmmmmszsyrslir",
"mmmmmmmmmmmmmm0-@;0i,O53g31ff5-=&&=.;;mmmmmmrskt0ivsi;",
"mmmmmmmmmmmmmm0&+-;oa335jgO335-=&=@;q-@mmmm0yiy0rvzsr0",
"mmmmmmmmmmmmmm0% -;qry3g5i,,3-*--@;quy-mmmmrytr0slky:m",
"mmmmmmmmmmmmmm0# %;qyqq::yookpr-=@quiy-mmmmyyyyiksy::m",
"mmmmmmmmmmmmmt0+$$=;qisqqq0qqqr:@;udiy0-mmysiiysir:*mm",
"mmmmmmmmmmmmmtq+$$$#@=tiuuuauqq=@tsspt0:yrslxsiyr:*$mm",
"mmmmmmmmmmmmmtt*$:-;===========@;ypspq:yslxzliyr;%#mmm",
"mmmmmmmmmmmmmtt0:ttq%@mmmmm$$$$$ttppp0illcvzsiy:@+mmmm",
"mmmmmmmmmmmmmmq:tuuy*@mmmmmm$$$0:0tttytskvcssiy%@mmmmm",
"mmmmmmmmmmmmmm::tupp&@mmmmmm$$$:-::tt::skzlssy:#mmmmmm",
"mmmmmmmmmmmmmmm:yypp&%mmmmmmm$$=$$;;;0qlkissyt%@mmmmmm",
"mmmmmmmmmmmmmmm:0ppp&%mmmmmmm$$0-$$$$qlsisiyy0#mmmmmmm",
"mmmmmmmmmmmmmmm:uppp&mmmmmmmm$$=:y-$$-siisii0&mmmmmmmm",
"mmmmmmmmmmmmmmm:pppp&mmmmmmmmm$$:yy000y0tlsi=mmmmmmmmm",
"mmmmmmmmmmmmmpu=uaza&ppmmmmmmm=y;qypupy=-lsimmmmmmmmmm",
"mmmmmmmmmmmm3pu=llar&pp3mmmmmmmqyrppppy$.mmmmmmmmmmmmm",
"mmmmmmmmmmmOO0r=:ur:&r0OOmmmmmmqrrykppy$$mmmmmmmmmmmmm",
"mmmmmmmmmmmXX::====&;::XXmmmmmmmqyqqppy$$mmmmmmmmmmmmm",
"mmmmmmmmmmmmmm:-=&&-:-mmmmmmmmmmqrrpppy&$mmmmmmmmmmmmm",
"mmmmmmmmmmmmmmm:-==-*mmmmmmmmmmmmqrykp0&$mmmmmmmmmmmmm",
"mmmmmmmmmmmmmmm*---*%mmmmmmmmmmmmrtkkp0&$$mmmmmmmmmmmm",
"mmmmmmmmmmmmmmm@*%%%@mmmmmmmmmmmmtykzpq&$$mmmmmmmmmmmm",
"mmmmmmmmmmmmmmmm@@@@mmmmmmmmmmmmmyaklsq&$.mmmmmmmmmmmm",
"mmmmmmmmmmmmmmmmmmmmmmmmmmmmmmmmiuakzsq-$0$mmmmmmmmmmm",
"mmmmmmmmmmmmmmmmmmmmmmmmmmmmmmmqydccxdq;&0$mmmmmmmmmmm",
"mmmmmmmmmmmmmmmmmmmmmmmmmmmmmmmqd::-::q;$p0mmmmmmmmmmm",
"mmmmmmmmmmmmmmmmmmmmmmmmmmmmmmpy:6ghg6:;#plu=mmmmmmmmm",
"mmmmmmmmmmmmmmmmmmmmmmmmmmmm53q:$27h7>$0+uyqh5mmmmmmmm",
"mmmmmmmmmmmmmmmmmmmmmmmmmmm531q+++++++++++;%533mmmmmmm",
"mmmmmmmmmmmmmmmmmmmmmmmmmmm31X:++++++++++++$333mmmmmmm"
};
