/* XPM */
static char *BPDED0[] = {
/* columns rows colors chars-per-pixel */
"62 57 61 1 ",
"  c #390A0A",
". c #3C0A0A",
"X c #232323",
"o c #2F2F2F",
"O c #373737",
"+ c #430B0B",
"@ c #4D0D0D",
"# c #570F0F",
"$ c #471212",
"% c #4E1313",
"& c #521414",
"* c #591818",
"= c #5D1C1C",
"- c #6C1313",
"; c #761414",
": c #642121",
"> c #682525",
", c #702A2A",
"< c #742E2E",
"1 c #7B3232",
"2 c #6B4F36",
"3 c #434343",
"4 c gray28",
"5 c gray31",
"6 c gray34",
"7 c #5B5B5B",
"8 c gray39",
"9 c gray42",
"0 c #6F6F6F",
"q c #777777",
"w c #841717",
"e c #981A1A",
"r c #A21C1C",
"t c #AD1E1E",
"y c #803A3A",
"u c #873E3E",
"i c #B72020",
"p c #C12121",
"a c #CB2323",
"s c #D92626",
"d c #8B4242",
"f c #934A4A",
"g c #974E4E",
"h c #9F5656",
"j c #A45E5E",
"k c #9B7152",
"l c #AC6666",
"z c #B06A6A",
"x c #B87272",
"c c #BC7979",
"v c #DD4040",
"b c #BC8765",
"n c #939393",
"m c #9F9F9F",
"M c #C48181",
"N c #CC8989",
"B c #D29494",
"V c #DA9C9C",
"C c #DEA3A3",
"Z c #E7AFAF",
"A c None",
/* pixels */
"AAAAAAAAAAAAAAAAAAAAAAAAAAAAAAAAAAAAAAAAaAAAAAAAAAAAAAAAAAAAAA",
"AAAAAAAAAAAAAAAAAAAAAAAAAAAAAAAAAAAAAAAAAAAAAAAAAAAAAAAAAAAAAA",
"AAAAAAAAAAAAAAAAAAAAAAAAAAAAAAAAAAAAAAAAAAAAAAAAAAAAAAAAAAAAAA",
"AAAAAAAAAAAAAAAAAAAAAAAAAAAAAAAAAAAAAAAAAAAAAAAAAAAAAAAAAAAAAA",
"AAAAAAAAAAAAAAAAAAAaAAAAAaAAAAAAAAaAAAAaAAAAAAAAAAAAAAAAAAAAAA",
"AAAAAAAAAAAAAAAAAAAAAAAAAAAAAAAAAAAAAAAAAAAAAAAAAAAAAAAAAAAAAA",
"AAAAAAAAAAAAAAAAAAAAAAAAAAAAAAAAAAAAAAAAAAAAAAAAAAAAAAAAAAAAAA",
"AAAAAAAAAAAAAAAAAAAAAAAAAAAAAAAAApAAAAAAAAAAaAAAAAAAAAAAAAAAAA",
"AAAAAAAAAAAAAAAAAAAAAAAAAAAAAAiAAAAAAAccAAAAAAAAAAAAAAAAAAAAAA",
"AAAAAAAAAAAAAAAAAAAAAAAAAAAAaAAAAAAAAAacAAaAAAAAAAAAAAAAAAAAAA",
"AAAAAAAAAAAAAAAAAAAAAAAAAAAAAAAAAAAAAsAAAAAAAAAAAAAAAAAAAAAAAA",
"AAAAAAAAAAAAAAAAAAAAAAAAAaAAAAAAiAApAAAAAAAAAAAAAAAAAAAAAAAAAA",
"AAAAAAAAAAAAAAAAAAAAAAAAAAAAAAsAAApAAAAAAAAAAAAAAAAAAAAAAAAAAA",
"AAAAAAAAAAAAAAAAAAAAAAAAAAAAAAAAAvAAAAAMMAAAAAAAAAAAAAAAAAAAAA",
"AAAAAAAAAAAAAAAAAAAAAAAAAAAAAAAAAAsApAAawAAAAAAAAAAAAAAAAAAAAA",
"AAAAAAAAAAAAAAAAAAAAAAAAAAAAAiAAArAAAAAAAAAAAAAAAAAAAAAAAAAAAA",
"AAAAAAAAAAAAAAAAAAAAAAAAAAAAAAAsAAsAvAAAAAAAAAAAAAAAAAAAAAAAAA",
"AAAAAAAAAAAAAAAAAAAAAAAAAAAAAAAAAA-AAAAAAAAAAAAAAAAAAAAAAAAAAA",
"AAAAAAAAAAAAAAAAAAAAAAAAAAAAAAAAAAAAAAAAAAAAAAAAAAAAAAAAAAAAAA",
"AAAAAAAAAAAAAAAAAAAAAAAAAAAAAAAAsAA-AAAAAAAAAAAAAAAAAAAAAAAAAA",
"AAAAAAAAAAAAAAAAAAAAAAAAAAAAAAAAAAcjhjNZNllAAAAAAAAAAAAAAAAAAA",
"AAAAAAAAAAAAAAAAAAAAAAAAAAAAAAAAMMj,1jNNZZNlAAAAAAAAAAAAAAAAAA",
"AAAAAAAAAAAAAAAAAAAAAAAAAAAAAAj<iv*ivi,lNNlllAAAAAAAAAAAAAAAAA",
"AAAAAAAAAAAAAAAAAAAAAAAAAAAAA,gjzzjg,is*,lllllAAAAAAAAAAAAAAAA",
"AAAAAAAAAAAAAAAAAAAAAAAAAAAA&gNNNVVMg2ki:jNVllAAAAAAAAAAAAAAAA",
"AAAAAAAAAAAAAAAAAAAAAAAAAAAAxMxjhhxVVMk2:VZN,gAAAAAAAAAAAAAAAA",
"AAAAAAAAAAAAAAAAAAAAAAAAAAAAlxjhxxzgxVNj:NVx,,AAAAAAAAAAAAAAAA",
"AAAAAAAAAAAAAAAAAAAAAAAAAAAAgjhzNBNhgxNNjxNl==AAAAAAAAAAAAAAAA",
"AAAAAAAAAAAAAAAAAAAAAAAAAAAAjuhNBbBhdxNNxxNh%*AAAAAAAAAAAAAAAA",
"AAAAAAAAAAAAAAAAAAAAAAAAAAAAAhMaVaVxhgxNNjxu*%AAAAAAAAAAAAAAAA",
"AAAAAAAAAAAAAAAAAAAAAAAAAAAAAjMlMNVNhdxNNxl<%+AAAAAAAAAAAAAAAA",
"AAAAAAAAAAAAAAAAAAAAAAAAAcNcazNaxNVajujNMxx>zuuNlhhAAAAAAAAAAA",
"AAAAAAAAAAAAAAAAAAAAAAAAddhhjzMrzaNNj1acllg+1jNBNzuccAAAAAAAAA",
"AAAAAAAAAAAAAAAAAAAAAAAAdddahzarxsMal>11guuzjNZZzhdhBBAAAAAAAA",
"AAAAAAAAAAAAAAAAAAAAAAAAdur1fjfrcszaeugcMMcjNVZVjfdgxCcjAAAAAA",
"AAAAAAAAAAAAAAAAAAAAAAA%1jurr;iarehre#r;uugyccczhfydhgjhhAAAAA",
"AAAAAAAAAAAAAAAAAAAAAAd%<1fuw-rirese;-@ucjj1ljgfyy<zczhdxxlyyA",
"AAAAAAAAAAAAAAAAAAAAA%1jj11ggw-rire-u1jggy&%yyyy=+&uddd,gxCzhy",
"AAAAAAAAAAAAAAAAAAA,flxxxx1<gdhu-;-zh11uu++>:::&.+****.,hlVcjy",
"AAAAAAAAqqq78AAAAA%yujxxxljg<1uuu-uu1:yfcMj,&1gj + ...*,uzccjy",
"AAAAAAAO444478AAA$,yyfxxlf<:%&:::::::yfglxMhy%%........*uhxxjy",
"AAAAAAA&++ooo79,,,,,1>xhf<::&=  &&  >yfglxxMh<%:yAAAAAA1gBcxh1",
"AAAAAAA+1d1+++&y,gl:&&fy<>>:=1&&   &>yfglxlxh<%:yAAAAAAgNchhdA",
"AAAAAAA+>1>+d>+gcgu>&:>>><>:=>=&  &&><yfffhhy,::.AAAAAAgf,dh1A",
"AAAAAAA++,++,1+ylf>&:.&:,,>,y,>=&&&&:,,ffffyy,::.AAAAAAg,111AA",
"AAAAAA1++>++>,+,lh>&&&.&:,y,=AttAt&&&,,>>>>1,,,:yhnmnqAAAAAAAA",
"AA08lg>>>++++>++ffyy&+&&==+AAAAtAAAA&:::&&&:lg,yqq87653AAAAAAA",
"0086u1++>>++++>>lNh&&&&AAAAAAtAAAtAtA&&&.:&>uyy&333333+AAAAAAA",
"886Xu+++++++++++hgu>&AAAAAAAAAAtAAAtAAA&.:&>++++::+:+++AAAAAAA",
"AAAA1++++++++++++<*m0AAAAAAAAAAAAAAAAAAA&&&&&+:,yhd:dd:AAAAAAA",
"AAAAAAA+++++++++++&088AAAAAAAAAAAAAAAAAAA&yyy+:1,11:d1:AAAAAAA",
"AAAAAAAAAAAAAAAAAAA888AAAAAAAAAAAAAAAAAAAAyyy+::+:++++,,gl80AA",
"AAAAAAAAAAAAAAAAAAAAAAAAAAAAAAAAAAAAAAAAA&&hNl::++++,,::1u6800",
"AAAAAAAAAAAAAAAAAAAAAAAAAAAAAAAAAAAAAAAAA>>ugh++:+++++++:uX688",
"AAAAAAAAAAAAAAAAAAAAAAAAAAAAAAAAAAAAAAAA00m*<++++++++++1+1AAAA",
"AAAAAAAAAAAAAAAAAAAAAAAAAAAAAAAAAAAAAAA8880&++++++AAAAAAAAAAAA",
"AAAAAAAAAAAAAAAAAAAAAAAAAAAAAAAAAAAAAAA8888AAAAAAAAAAAAAAAAAAA"
};
