/* XPM */
static char *BPDEC0[] = {
/* columns rows colors chars-per-pixel */
"52 53 57 1 ",
"  c #390A0A",
". c #3C0A0A",
"X c #232323",
"o c gray23",
"O c #430B0B",
"+ c #570F0F",
"@ c #471212",
"# c #4E1313",
"$ c #521414",
"% c #591818",
"& c #5D1C1C",
"* c #761414",
"= c #642121",
"- c #682525",
"; c #702A2A",
": c #742E2E",
"> c #7B3232",
", c #56422C",
"< c #6B4F36",
"1 c #434343",
"2 c gray34",
"3 c #5B5B5B",
"4 c gray39",
"5 c #6F6F6F",
"6 c #777777",
"7 c gray50",
"8 c #841717",
"9 c #8E1919",
"0 c #A21C1C",
"q c #AD1E1E",
"w c #803A3A",
"e c #873E3E",
"r c #B72020",
"t c #C12121",
"y c #CB2323",
"u c #D92626",
"i c #8B4242",
"p c #934A4A",
"a c #974E4E",
"s c #9F5656",
"d c #A45E5E",
"f c #9B7152",
"g c #A37657",
"h c #AC6666",
"j c #B06A6A",
"k c #B87272",
"l c #BC7979",
"z c #BC8765",
"x c #939393",
"c c #9F9F9F",
"v c #C48181",
"b c #CC8989",
"n c #D29494",
"m c #DA9C9C",
"M c #DEA3A3",
"N c #E7AFAF",
"B c None",
/* pixels */
"BBBBBBBBBBBBByBBBBBBBByBBBByBBvvBBBBBBBBBBBBBBBBBBBB",
"BBBBBBBBBBBBBBBBBBBBBBBBBBBBBBy8BBBBBBBBBBBBBBBBBBBB",
"BBBBBBBBBBBBBBBBBBBBBBBBBBBBBBBBBBBBBBBBBBBBBBBBBBBB",
"BBBBBBBBBBBBBBBBBBBBBBBByByBBBBBBBBBBBBBBBBBBBBBBBBB",
"BBBBBBBBBBBBBBBBBBBBBBBBBBBllBBBBBBBBBBBBBBBBBBBBBBB",
"BBBBBBBBBBBBBBBByBBBBBBBBBBylByBBBBBBBBBBBBBBBBBBBBB",
"BBBBBBBBBBBBBBBBBBBByBBByBBBBBBBBBBBBBBBBBBBBBBBBBBB",
"BBBBBBBBBBBBBBBBBBBBBBBByByBBBvBBBBBBBBBBBBBBBBBBBBB",
"BBBBBBBBBBBBBBBBBBBBBBBBBBBBBB8BBBBBBBBBBBBBBBBBBBBB",
"BBBBBBBBBBBBBBBBBBBByByBBByBBBBBBBBBBBBBBBBBBBBBBBBB",
"BBBBBBBBBBBBBBBBBBBBBBBByBBBByBBBBBBBBBBBBBBBBBBBBBB",
"BBBBBBBBBBBBBBBBBBBBBBBBBByBBBBBBBBBBBBBBBBBBBBBBBBB",
"BBBBBBBBBBBBBBBBBBBBBBBvvldskbbkawBBBBBBBBBBBBBBBBBB",
"BBBBBBBBBBBBBBBBBBBBBd::;;;>dybbkhawBBBBBBBBBBBBBBBB",
"BBBBBBBBBBBBBBBBBBBB;=wwy%%O@;;edhhawBBBBBBBBBBBBBBB",
"BBBBBBBBBBBBBBBBBBB$wbbkdwy;$r%;ejhawwBBBBBBBBBBBBBB",
"BBBBBBBBBBBBBBBBBBBskkbmNmv,<yr=jbbhawBBBBBBBBBBBBBB",
"BBBBBBBBBBBBBBBBBBBskkhkkvmmvfyydbbhewBBBBBBBBBBBBBB",
"BBBBBBBBBBBBBBBBBBBki-pppskvmbmysbhee:BBBBBBBBBBBBBB",
"BBBBBBBBBBBBBBBBBBBi-:pgppsskbbddbhe::BBBBBBBBBBBBBB",
"BBBBBBBBBBBBBBhlbls;=:dzdpppshkbbbae:BBBBBBBBBBBBBBB",
"BBBBBBBBBBBBBlbbsws;=edzaepppsskbjeeblhsBBBBBBBBBBBB",
"BBBBBBBBBBBBislswhh;=adgyepiipsss>dbnbbjelBBBBBBBBBB",
"BBBBBBBBBBBBiudwwah;:ydjawpieep>>dbNNnjsisnnBBBBBBBB",
"BBBBBBBBBBB%wpsewwh;;adjs>qiqe>;>umNmjdpiakMldBBBBBB",
"BBBBBBBBBB%;;wwi=wsy;ydds>wiee=$wllljhspwisadssBBBBB",
"BBBBBBBB%%w:%;w%=uw;;adyd;wiw:$=hhdapiww:jljsiwisBBB",
"BBBBBB%%%w;;%%%%$$=;yeadd;te:u.wwwwwww- $sMljdwskjwB",
"BBBBBB%%%;;-%u%.  -==yayp&;:=.O=====$$&O$eiii;akMjsw",
"BBBBB%%;%;-%%%. -;u@00r8py*=O@@@@=$  &.O%%%%.;shmldw",
"BBBBB%;;%%%%BB@=>>>*908+8%*OO===%%%--  O ...%;ejlldw",
"BBBB%;;%%%%BBB>$=>e>*8+ +8*==;;%%-::-#BBBBB..%eskkdw",
"BB%%%;%%%%BBB>w:$=>eu*8+8r>>u:=$$O$;-=#BBBBBB%;skspw",
"BB%%%%%%BBBBwwude&=>>er>>>ee:-;::-$O;=#BBBBBBdjbbswB",
"BBB%%%%%BBBwadkde:#==r:eee:r:iadi;=$O##OBBBBaanlks>B",
"BBBB%%%BBBBwphkkp:&##$=====:edjjaw=$OO#OBBBBablssiBB",
"BBBBBBBBBB:wahkhi::###$$###eedljaw;$OOOOBBBBap;is>BB",
"BBBBBBBBBB;wwapi>::-$$$#$$$>wshp>;;;$OOOBBBBB;>>>BBB",
"BBBBBBBBB;;;>----;;-$$BB$$$;>pp:;:w=$OOOBBBBBB>>>BBB",
"BBBBBBBBB;aa=$$$=;;=$BBBB$$$$$pjbj:w=$$BBBBBBBBBBBBB",
"BBBBBBBBBas:$$=.$==$BBBBBB$$$ijbjaw=.$$BBBBBBBBBBBBB",
"BBBBBB>amle:$$=.$$$BBBBBBB$$iijbhpw=$$$BBBBBBBBBBBBB",
"BBBBa6xc2aa:$.=$$BBBBBBBBBBipjbja===$$BBBBBBBBBBBBBB",
"BBBe$37cx2>:$$$BBBBBBBBBBBalMMmle:$$$BBBBBBBBBBBBBBB",
"BBBeOO2471$w#w$BBBBBBBBBBBalMa>aa:$.BBBBBBBBBBBBBBBB",
"BBBaOOOOOOOOOhwBBBBBBBBBBBla27x6>:$$$BBBBBBBBBBBBBBB",
"54e>OOOOOOOOOhbs-BBBBBBBBBa6xc71$w#w$BBBBBBBBBBBBBBB",
"42eOOOOOOOOOOsaec5BBBBBBBe237coOOOOhwBBBBBBBBBBBBBBB",
"2X>OOOOOOOOOOO:%544BBBBBBeOOOOOOOOOhbs-BBBBBBBBBBBBB",
"BBBBBBBBOOOOOOO$444BBBBBhaOOOOOOOOOsaec5BBBBBBBBBBBB",
"BBBBBBBBBBBBBBBBBBBBBBB4e>OOOOOOOOOO:%544BBBBBBBBBBB",
"BBBBBBBBBBBBBBBBBBBBBB42eOOOOOOOOOOOO$444BBBBBBBBBBB",
"BBBBBBBBBBBBBBBBBBBBBB4X>OOOOOBBBBBBBBBBBBBBBBBBBBBB"
};
