/* XPM */
static char *BPDEF0[] = {
/* columns rows colors chars-per-pixel */
"64 32 71 1 ",
"  c #390A0A",
". c #3C0A0A",
"X c #2E2818",
"o c #232323",
"O c #2F2F2F",
"+ c #373737",
"@ c #430B0B",
"# c #4D0D0D",
"$ c #570F0F",
"% c #471212",
"& c #4E1313",
"* c #521414",
"= c #591818",
"- c #5D1C1C",
"; c #621111",
": c #6C1313",
"> c #761414",
", c #4B3D26",
"< c #642121",
"1 c #682525",
"2 c #702A2A",
"3 c #742E2E",
"4 c #7B3232",
"5 c #614731",
"6 c #434343",
"7 c gray28",
"8 c gray31",
"9 c gray34",
"0 c #5B5B5B",
"q c gray39",
"w c gray42",
"e c #6F6F6F",
"r c #777777",
"t c #841717",
"y c #8E1919",
"u c #981A1A",
"i c #A21C1C",
"p c #AD1E1E",
"a c #803A3A",
"s c #873E3E",
"d c #B72020",
"f c #C12121",
"g c #CB2323",
"h c #D92626",
"j c #8B4242",
"k c #934A4A",
"l c #974E4E",
"z c #9F5656",
"x c #A45E5E",
"c c #826044",
"v c #9B7152",
"b c #AC6666",
"n c #B06A6A",
"m c #B87272",
"M c #BC7979",
"N c #DD4040",
"B c #E25B5B",
"V c #E77777",
"C c #BC8765",
"Z c #8B8B8B",
"A c #939393",
"S c #9F9F9F",
"D c #C48181",
"F c #CC8989",
"G c #D29494",
"H c #DA9C9C",
"J c #DEA3A3",
"K c #E7AFAF",
"L c #EBB6B6",
"P c #F4C1C1",
"I c None",
/* pixels */
"IIIIIIIIIIIIIIIIIIIIIIIIIIIIIIIIIIIIIIBBNMlIIIIIIIIIIIIIIIIIIIII",
"IIIIIIIIIIIIIIIIIIIIIIIIIIIIIIIIIIII> BBMmbplIIIIIIIIIIIIIIIIIII",
"IIIIIIIIIIIIIIIIIIIIIIIIIIIIIIz#III>; iNfbfbzbIIIIIIIIIIIIIIIIII",
"IIIIIIIIIIIIIIIIIIIIIIIIIIIII22<####  ifubbbkzbIIIIIIIIIIIIIIIII",
"IIIIIIIIIIIIIIIIIIIIIIIIIIIII*afFux;2nziGFbb2kzIIIIIIIIIIIIIIIII",
"IIIIIIIIIIIIIIIIIIIIIIIIIIIII-lf5221uabFKGFba2&IIIIIIIIIIIIIIIII",
"IIIIIIIIIIIIIIIIIIIIIIIIIIIIIlXXv*=thp 2bFGbz21IIIIIIIIIIIIIIIII",
"IIIIIIIIIIIIIIIIIIIIIIIIIIIIIjmFFHHmx,gp<zFbl11IIIIIIIIIIIIIIIII",
"IIIIIIIIIIIIIIIIIIIIIIIIIIIIIjbzzmFHDxX>$aFzs1&IIIIIIIIIIIIIIIII",
"IIIIIIIIIIIIIIIIIIIIIIIIbMFmnjzlsa5zFHxBVlma-ssFMbzzIIIIIIIIIIII",
"IIIIIIIIIIIIIIIIIIIIIIIxjjl==334lsc41zzddmz14xFGFFnnsMIIIIIIIIII",
"IIIIIIIIIIIIIIIIIIIIIIl31----=<2lxCzaaddxdk4xFKKGnzzjzGGIIIIIIII",
"IIIIIIIIIIIIIIIIIIIIII11@=====42upvmksttltzzzHKHMxkkjlmJMxIIIIII",
"IIIIIIIIIIIIIIIIIIIIII1@=::tyyudBBgffdittzbDGDDMbzkkajFFnnzIIIII",
"IIIIIIIIIIIIIIIIIIIII1@jtdhdpddt> @;tdhBBdibxza2aja23nFFFmajzIII",
"IIIIIIIIIIIIIIIIIIII1@==@@uihht$$tt $tdfbbjdaaa-*22 *zmmmxazmnaI",
"IIIIIIIIIIIIIIIIIIIIxmFFbx@1yiiBffBffdit2@@: <22@*2@*sjjj2lmJnza",
"IIIIIIIIIIIIIIIIII2kMFmbk3<@@yufuuBuul2@:mhfu&@<<**@====.2FbHMxa",
"IIIIIIIrZZZZIIIII&aMnzzk3<<*-y$u>>Nuu=3yidbxau@@ *IIIIII=FPFLJFx",
"IIIIII+7769wAIII%2aakka311<-4y*t>>g>y3jddkkaa22 @IIIIII%FbDHGmJx",
"IIIIII*@@O690w222224111131<-1t@:;>p;y2>s41142222 IASArI3%1aDbzFI",
"IIIIII@4j4@@@*a2lb<***<2212a2t@:1>p@td2<***<bl2arre0986II333I33I",
"IIIIII@141@j1@lMls1*<.*<2a2-@>@:*>i*t<<*.<*1saa*6e0076@IIIIIIIII",
"IIIIII@@2@@24@abk1*<.**--@@@*>iBBVBdit**.<*1@@@@<<@<@@@IIIIIIIII",
"IIIII4@@1@@12@2bz1****-@@iffhBBhddghhdt******@<2azj<jj<IIIIIIIII",
"Ieqbl111@@@@1@@kkaa*@IIppIppppppIIpIIddi>*xmx@<4244<j4<IIIIIIIII",
"eA9s4@@11@@@@11bFz*@IIIIIIIIIpIIIIIIIIIII>axa@<<@<@@@@22lbqeIIII",
"q9os@@@@@@@@@@@zls1*IIIIIIIIIIIIIIIIIIIII**zFb<<@@@@22<<4s9qeeII",
"III4@@@@@@@@@@@@3=SeIIIIIIIIIIIIIIIIIIIII1aslz3@<@@@@@@@<so9qqII",
"IIIIII@@@@@@@@@@@*eSqIIIIIIIIIIIIIIIIIIIeeS=33@@@@@@@@@4@4IIIIII",
"IIIIIIIIIIIIIIIIIIqqqIIIIIIIIIIIIIIIIIIqqqe*@@@@@@IIIIIIIIIIIIII",
"IIIIIIIIIIIIIIIIIIIIIIIIIIIIIIIIIIIIIIIqqqqIIIIIIIIIIIIIIIIIIIII"
};
