/* XPM */
static char *BPDEE0[] = {
/* columns rows colors chars-per-pixel */
"64 46 70 1 ",
"  c #390A0A",
". c #3C0A0A",
"X c #2E2818",
"o c #232323",
"O c #2F2F2F",
"+ c #373737",
"@ c #430B0B",
"# c #4D0D0D",
"$ c #570F0F",
"% c #471212",
"& c #4E1313",
"* c #521414",
"= c #591818",
"- c #5D1C1C",
"; c #621111",
": c #6C1313",
"> c #761414",
", c #642121",
"< c #682525",
"1 c #702A2A",
"2 c #742E2E",
"3 c #7B3232",
"4 c #614731",
"5 c #434343",
"6 c gray28",
"7 c gray31",
"8 c gray34",
"9 c #5B5B5B",
"0 c gray39",
"q c gray42",
"w c #6F6F6F",
"e c #777777",
"r c #841717",
"t c #8E1919",
"y c #981A1A",
"u c #A21C1C",
"i c #AD1E1E",
"p c #803A3A",
"a c #873E3E",
"s c #B72020",
"d c #C12121",
"f c #CB2323",
"g c #D92626",
"h c #8B4242",
"j c #934A4A",
"k c #974E4E",
"l c #9F5656",
"z c #A45E5E",
"x c #826044",
"c c #8C6549",
"v c #9B7152",
"b c #AC6666",
"n c #B06A6A",
"m c #B87272",
"M c #BC7979",
"N c #DD4040",
"B c #E25B5B",
"V c #BC8765",
"C c #8B8B8B",
"Z c #939393",
"A c #9F9F9F",
"S c #C48181",
"D c #CC8989",
"F c #D29494",
"G c #DA9C9C",
"H c #DEA3A3",
"J c #E7AFAF",
"K c #EBB6B6",
"L c #F4C1C1",
"P c None",
/* pixels */
"PPPPPPPPPPPPPPPPPPPPPPPPPPPPPPPPPPPPPPPPPfPPPPPPPPPPPPPPPPPPPPPP",
"PPPPPPPPPPPPPPPPPPPPPPPPPPPPPPPPPPPPPPPPPPPPPPPPPPPPPPPPPPPPPPPP",
"PPPPPPPPPPPPPPPPPPPPPPPPPPPPPPPPPPPPPPPPPPPPPPPPPPPPPPPPPPPPPPPP",
"PPPPPPPPPPPPPPPPPPPPPPPPPPPPPPPPPPPPPPPPPPPPPPPPPPPPPPPPPPPPPPPP",
"PPPPPPPPPPPPPPPPPPPPfPPPPPfPPPPPsPPfPPPPfPPPPPPPPPPPPPPPPPPPPPPP",
"PPPPPPPPPPPPPPPPPPPPPPPPPPPPPPPPPPPPPPPPPPPPPPPPPPPPPPPPPPPPPPPP",
"PPPPPPPPPPPPPPPPPPPPPPPPPPPPPPPPdPPPPPPPPPPPPPPPPPPPPPPPPPPPPPPP",
"PPPPPPPPPPPPPPPPPPPPPPPPPPPPPPPPPPPPPPPPdPPPPfPPPPPPPPPPPPPPPPPP",
"PPPPPPPPPPPPPPPPPPPPPPPPPPPPPPPPPPPPPPPPPPPPPPPPPPPPPPPPPPPPPPPP",
"PPPPPPPPPPPPPPPPPPPPPPPPPPPPPfPPPPsPPPPPPPPfPPPPPPPPPPPPPPPPPPPP",
"PPPPPPPPPPPPPPPPPPPPPPPPPPPPPPPPPPPPPPPPPPPPPPPPPPPPPPPPPPPPPPPP",
"PPPPPPPPPPPPPPPPPPPPPPPPPPfPPPPPPPPPPPPPPPPPPPPPPPPPPPPPPPPPPPPP",
"PPPPPPPPPPPPPPPPPPPPPPPPPPPPPPPPPPPsPsPPPPPPPPPPPPPPPPPPPPPPPPPP",
"PPPPPPPPPPPPPPPPPPPPPPPPPPPPPPPPPsPPPPPPPPPPPPPPPPPPPPPPPPPPPPPP",
"PPPPPPPPPPPPPPPPPPPPPPPPPPPPfPsPPPPPPlnDSSmPPPPPPPPPPPPPPPPPPPPP",
"PPPPPPPPPPPPPPPPPPPPPPPPPPPPPPPPPPPyydDGJFSmkPPPPPPPPPPPPPPPPPPP",
"PPPPPPPPPPPPPPPPPPPPPPPPPPPPPPlyPPy3*zddGJFSlbPPPPPPPPPPPPPPPPPP",
"PPPPPPPPPPPPPPPPPPPPPPPPPfPPP11,yyii@%1dDGDbnlbPPPPPPPPPPPPPPPPP",
"PPPPPPPPPPPPPPPPPPPPPPPPPPPPP*pdDyzy1nlbDJJDbblPPPPPPPPPPPPPPPPP",
"PPPPPPPPPPPPPPPPPPPPPPPPPPPPP-kd411<ypbDJLLJDa&PPPPPPPPPPPPPPPPP",
"PPPPPPPPPPPPPPPPPPPPPPPPPPsPPkXsv*f i  1bDJDlp<PPPPPPPPPPPPPPPPP",
"PPPPPPPPPPPPPPPPPPPPPPPPPPPPfhmDDGGmzsf ,lDbk<<PPPPPPPPPPPPPPPPP",
"PPPPPPPPPPPPPPPPPPPPPPPPPPPPPhbflsDGSzXy pDla<&PPPPPPPPPPPPPPPPP",
"PPPPPPPPPPPPPPPPPPPPPPPPbMDmnslkap4lDGzXNkmp-aaDMbllPPPPPPPPPPPP",
"PPPPPPPPPPPPPPPPPPPPPPPzhhk==223kfxs<llMfml<3zDFDDnnaMPPPPPPPPPP",
"PPPPPPPPPPPPPPPPPPPPPPk2<----f,fkzVlppzlzij3zDJJFnllhlFFPPPPPPPP",
"PPPPPPPPPPPPPPPPPPPPPP<<@=====31yivmjapkktlllGJGnzjjhkmHMzPPPPPP",
"PPPPPPPPPPPPPPPPPPPPPP<@==@=$uyfBcfdydr3tlbFFFnzbljjphDDnnlPPPPP",
"PPPPPPPPPPPPPPPPPPPPP<@hrtgh>:gcf  c@ygBBgubzlp1php12nDDDmphlPPP",
"PPPPPPPPPPPPPPPPPPPP<@==@@augd>>rc#rydtdbbh:ppp-*11 *lmmmzplmnpP",
"PPPPPPPPPPPPPPPPPPPPzmDDbz@<tysss> rdlur1@@@  @@@**@*ahhh1kmHnlp",
"PPPPPPPPPPPPPPPPPP1jMDmbj2,@@1g>3ddydk1@:mSk2&@&***@====.1DbGMzp",
"PPPPPPPeCCCCPPPPP&pMnllj2,,*-@$jl::y==2tumbzp2@@ *PPPPPP=DLDKHDz",
"PPPPPP+6658qZPPP%1ppjjp2<<,-3-*1tka>=2htjjjpp11 @PPPPPP%DbSGFmHz",
"PPPPPP*@@O589q111113<<<<2<,-<1@<;k1;=1>a3<<31111 PZAZeP2%<pSblDP",
"PPPPPP@3h3@@@*p1kb,***,11<1p1<@@<<<@=11,***,bk1peew9875PP222P22P",
"PPPPPP@<3<@h<@kMka<*,.*,1p1-@@@******,,*.,*<app*5w9965@PPPPPPPPP",
"PPPPPP@@1@@13@pbj<*,.**--@@@**Pii>iiP***.,*<@@@@,,@,@@@PPPPPPPPP",
"PPPPP3@@<@@<1@1bl<****-@@PPPiPiPiPPPiPP******@,1plh,hh,PPPPPPPPP",
"Pw0bk<<<@@@@<@@jjpp*@PPPPiPPPPPiPPPPPPPPP*zmz@,3133,h3,PPPPPPPPP",
"wZ8a3@@<<@@@@<<bDl*@PPPPPPPPPPPPPPPPPiPPPPpzp@,,@,@@@@11kb0wPPPP",
"08oa@@@@@@@@@@@lka<*PPPPPPPPPPPPPPPPPPPPP**lDb,,@@@@11,,3a80wwPP",
"PPP3@@@@@@@@@@@@2=AwPPPPPPPPPPPPPPPPPPPPP<pakl2@,@@@@@@@,ao800PP",
"PPPPPP@@@@@@@@@@@*wA0PPPPPPPPPPPPPPPPPPPwwA=22@@@@@@@@@3@3PPPPPP",
"PPPPPPPPPPPPPPPPPP000PPPPPPPPPPPPPPPPPP000w*@@@@@@PPPPPPPPPPPPPP",
"PPPPPPPPPPPPPPPPPPPPPPPPPPPPPPPPPPPPPPP0000PPPPPPPPPPPPPPPPPPPPP"
};
