/* XPM */
static char *BPDEB0[] = {
/* columns rows colors chars-per-pixel */
"60 56 63 1 ",
"  c #390A0A",
". c #3C0A0A",
"X c #232323",
"o c #373737",
"O c gray23",
"+ c #430B0B",
"@ c #570F0F",
"# c #471212",
"$ c #4E1313",
"% c #521414",
"& c #591818",
"* c #5D1C1C",
"= c #621111",
"- c #6C1313",
"; c #761414",
": c #4B3D26",
"> c #642121",
", c #682525",
"< c #702A2A",
"1 c #742E2E",
"2 c #7B3232",
"3 c #434343",
"4 c gray28",
"5 c gray34",
"6 c #5B5B5B",
"7 c gray39",
"8 c gray42",
"9 c #6F6F6F",
"0 c #777777",
"q c gray50",
"w c #841717",
"e c #8E1919",
"r c #981A1A",
"t c #A21C1C",
"y c #803A3A",
"u c #873E3E",
"i c #B72020",
"p c #C12121",
"a c #CB2323",
"s c #D92626",
"d c #8B4242",
"f c #934A4A",
"g c #974E4E",
"h c #9F5656",
"j c #A45E5E",
"k c #946D4E",
"l c #9B7152",
"z c #AC6666",
"x c #B06A6A",
"c c #B87272",
"v c #BC7979",
"b c #E25B5B",
"n c #939393",
"m c #9F9F9F",
"M c #C48181",
"N c #CC8989",
"B c #D29494",
"V c #DA9C9C",
"C c #DEA3A3",
"Z c #E7AFAF",
"A c #EBB6B6",
"S c #F4C1C1",
"D c None",
/* pixels */
"DDDDDDDDDDDDDDDDDDDDDDDDDDaDDDDDDDDDDDDDDDDDDDDDDDDDDDDDDDDD",
"DDDDDDDDDDDDDDDDDDDDDDDDDDDDDDDDDDDDDDDDDDDDDDDDDDDDDDDDDDDD",
"DDDDDDDDDDDDDDDDDDDDDDDDDDDDpDDDDDDDDDDDDDDDDDDDDDDDDDDDDDDD",
"DDDDDDDDDDDDDDDDDDDDDDaDDiDaDDDDDDDDDDDDDDDDDDDDDDDDDDDDDDDD",
"DDDDDDDDDDDDDDDDDDDDDDDDDDDDDDaDDDDDDDDDDDDDDDDDDDDDDDDDDDDD",
"DDDDDDDDDDDDDDDDDDDDDDDDDDDpDDDDDDDDDDDDDDDDDDDDDDDDDDDDDDDD",
"DDDDDDDDDDDDDDDDDDDDDDDDcMwDaDDDDDDDDDDDDDDDDDDDDDDDDDDDDDDD",
"DDDDDDDDDDDDDDDDDDDDaDpDhjDpDDDpDDDDDDDDDDDDDDDDDDDDDDDDDDDD",
"DDDDDDDDDDDDDDDDDDDDDDDDDDDaaDDDDDDDDDDDDDDDDDDDDDDDDDDDDDDD",
"DDDDDDDDDDDDDDDDDDDDDDMMwDavvwpDDDDDDDDDDDDDDDDDDDDDDDDDDDDD",
"DDDDDDDDDDDDDDDDDDDDDDBBpptMvwDDDDDDDDDDDDDDDDDDDDDDDDDDDDDD",
"DDDDDDDDDDDDDDDDDDDDDDpatMew=DDvMNMvDDDDDDDDDDDDDDDDDDDDDDDD",
"DDDDDDDDDDDDDDBBBBBchDtw-B@@;hxNVZZVNDDDDDDDDDDDDDDDDDDDDDDD",
"DDDDDDDvvvvvxBVCCBNBccc;=;w@rjNVZSSAVgDDDDDDDDDDDDDDDDDDDDDD",
"DDDDccvvMNBVNBZZNvcxhhh1;@;rwjcNVZZVNhjDDDDDDDDDDDDDDDDDDDDD",
"DhcccMvNBVVVNBNBBMvg<<<@@ir;#jcNNNNNMzhhDDDDDDDDDDDDDDDDDDDD",
"hvzzMBBVBBNNzhvvxzg<<<>yy,%&+zvvvMMvvxgjgcNCNxDDDDDDDDDDDDDD",
"hvgzvBgzVMvvhyhjhgy*%yNNcjy<<zvMMNNMvxhggNNNCNhDDDDDDDDDDDDD",
"hvgzNVj&uzhhh%<yyyd**gjjdy,<yzvMNZZNMxhhgcNNvNzuDDDDDDDDDDDD",
"hvjvNcy&.u222#%&12y**g*<<<,<yyzNZSSZMxg2gcNNvjhdDDDDDDDDDDDD",
"jMvgj1%&.&&&&%#%&1<*aala%&$$y<,<zNZNxhfyuzcNcjfdvDDDDDDDDDDD",
"jvvgu&%%DD&&,<11##*hcccVVVVMj:a>>hNzhguy1uzczhfdhBBDDDDDDDDD",
"jNCAM,%DDDDDDD##1#*xxchhcNVVVjai>yNhuu,y2>uhffddgcCNjDDDDDDD",
"jCcBVM,>DDDDDDD#<**hdhggjxNNNVjigNcyy,ygf2>211<2djzcchDDDDDD",
"DChzMy,#DDDDDDD2#**gd2uuugjxNNNNNNhyy,yzzf1&&&<jxvxjjzdhDDDD",
"DMMM,f,,DDDDDDD2###<d1ughhguhgzxccud<&2zzg1&&&dxCCvxjhhhhhDD",
"Djjjy1&DDDDDDDD2###&2>ughhuyyhgxzh2% $2hgy%#%&ddvNvzjgccchhD",
"Dyj,&#DDDDDDDDD,#,##s>ugck2su111d,$ >&,y1%%%&&dddddd<gcCBxhD",
"DDDDDDDDDDDDDDD,#$1#>>ufbg2yu1,,*  &>>%%&%DDD&&&&&&<<hzVCvjy",
"DDDDDDDDDDDDDDD###,1,wusg<<s21,& +$>,,&%%DDDDDD&&&&<<uxvCvjy",
"DDDDDDDDDDDDDDD##,#111uwuiew2,s +&,,..,%DDDDDDDDDDDD<uhcNcjy",
"DDDDDDDDDDDDDDy##r,#s11rwe-ts,+$,,*#$1%%DDDDDDDDDDDDD<ucchfy",
"DDDDDDDDDDDDDDy#+#2,#,11e-@-e,,,*##$*1*%DDDDDDDDDDDDjxNNchyD",
"DDDDDDDDDDDDDDy# ##2,#s>>;-e,,,*##**<1<%%DDDDDDDDDDDgBvczh2D",
"DDDDDDDDDDDDDDy# ##%2&&&&&****###*ugu1<%%DDDDDDDDDDDNvhhhdDD",
"DDDDDDDDDDDDDgy#############*$$##<fcju<>%%DDDDDDDDDDf<dhf2DD",
"DDDDDDDDDDDDDgg1&......##.DD$$$$*ujcjgy>%%DDDDDDDDDD<hvvuDDD",
"DDDDDDDDDDDDDgjy>........DDD$$$$<ujcjgy<%%DDDDDDDDDDDBvh,DDD",
"DDDDDDDDDDDDDgju,*%.....DDDD$$$*ufcczfy1>%%DDDDDDDDDDDDDDDDD",
"DDDDDDDDDDDDDgjd1u1*%..DDDDD$$$<ugzczuy1<%%DDDDDDDDDDDDDDDDD",
"DDDDDDDDDDDDDugg2gu1%.%DDDDD%%%uffccjhy<<%%DDDDDDDDDDDDDDDDD",
"DDDDDDDDDDDDDudgyzg1%%DDDDDDD%%y2yfff2<<<%%DDDDDDDDDDDDDDDDD",
"DDDDDDDDDDDDDDuguzz1%%DDDDDDD%%2<2ff1<1y>%%DDDDDDDDDDDDDDDDD",
"DDDDDDDDDDDDDDuddBz1*%DDDDDDD%%,%fxNM1y>%%DDDDDDDDDDDDDDDDDD",
"DDDDDDDDDDDDDDDudBzy*%DDDDDDDDugdxNMgy>.%%DDDDDDDDDDDDDDDDDD",
"DDDDDDDDDDDDDDDdfBzy*%%DDDDDDDuddxNMfy>%%DDDDDDDDDDDDDDDDDDD",
"DDDDDDDDDDDDDDDfgBzu*%%DDDDDDDdfxNMg>>>%DDDDDDDDDDDDDDDDDDDD",
"DDDDDDDDDDDDDDDgxNcu*%.DDDDDDgvCCVvu1%%DDDDDDDDDDDDDDDDDDDDD",
"DDDDDDDDDDDDDDjhxBcu<%.%DDDDDv22<22g1%.DDDDDDDDDDDDDDDDDDDDD",
"DDDDDDDDDDDDDhugNNz1y,y,DDDDD20nmn021%%%DDDDDDDDDDDDDDDDDDDD",
"DDDDDDDDDDDDzugvCVvu1*1y,,DDu%6qmq3%y$y%DDDDDDDDDDDDDDDDDDDD",
"DDDDDDDDDD97uuv2222z1%y,&XXDu+++++++++zyDDDDDDDDDDDDDDDDDDDD",
"DDDDDDDDD975ug20nn021$,$&XXzg+++++++++zNh,DDDDDDDDDDDDDDDDDD",
"DDDDDDDDD75X22%6qq3%y+++%97u2+++++++++hgum9DDDDDDDDDDDDDDDDD",
"DDDDDDDDDDDDDD%488oX2DDD975u+++++++++++1&977DDDDDDDDDDDDDDDD",
"DDDDDDDDDDDDDDDO4OXDDDDD75X2++++++++++++%777DDDDDDDDDDDDDDDD"
};
