/* XPM */
static char *BPPAA4[] = {
/* columns rows colors chars-per-pixel */
"50 49 36 1 ",
"  c #373737",
". c gray23",
"X c #430B0B",
"o c #471212",
"O c #4E1313",
"+ c #521414",
"@ c #591818",
"# c #5D1C1C",
"$ c #642121",
"% c #682525",
"& c #702A2A",
"* c #742E2E",
"= c #7B3232",
"- c #434343",
"; c gray31",
": c gray34",
"> c #5B5B5B",
", c gray42",
"< c #803A3A",
"1 c #873E3E",
"2 c #8B4242",
"3 c #934A4A",
"4 c #974E4E",
"5 c #9F5656",
"6 c #A45E5E",
"7 c #AC6666",
"8 c #B06A6A",
"9 c #B87272",
"0 c #BC7979",
"q c #C48181",
"w c #CC8989",
"e c #D29494",
"r c #DA9C9C",
"t c #DEA3A3",
"y c #E7AFAF",
"u c None",
/* pixels */
"uuuuuuuuuuuuuuuue9eequuuuuuuuuuuuuuuuuuuuuuuuuuuuu",
"uuuuuuuuuuuuuu09q4qw97quuuuuuuuuuuuuuuuuuuuuuuuuuu",
"uuuuuuuuuuuuu05555869w40wuuuuuuuuuuuuuuuuuuuuuuuuu",
"uuuuuuuuu899996wweew869wrquuuuuuuuuuuuuuuuuuuuuuuu",
"uuuuuuu69eewq949ryyrw786479uuuuuuuuuuuuuuuuuuuuuuu",
"uuuuuu38qreww926wrre09948477uuuuuuuuuuuuuuuuuuuuuu",
"uuuuu328qwwq0w44weeq099964479uuuuuuuuuuuuuuuuuuuuu",
"uuuu<4=89000q77369qwq099985557uuuuuuuuuuuuuuuuuuuu",
"uuuu<6%46677077444567777776449quuuuuuuuuuuuuuuuuuu",
"uuuu<<*<4557e8642344445687555457uuuuuuuuuuuuuuuuuu",
"uuuuu=<&2559w6q666555559qq009549uuuuuuuuuuuuuuuuuu",
"uuuuuu4=<479w6e746085699wrrw08547uuuuuuuuuuuuuuuuu",
"uuuuuu4<<389w6e95240869qrwq0986547uuuuuuuuuuuuuuuu",
"uuuuuq5&438w96eq5<486489q888qwwq9499uuuuuuuuuuuuuu",
"uuuu373=338w96eq51254266866qrryteq9q96uuuuuuuuuuuu",
"uuu<<32<<68076wq54242<44446qwrtrw96qq94uuuuuuuuuuu",
"uu<&2<=<&668650952221<443269qwwwq966964uuuuuuuuuuu",
"u1*&*==1%34653595%<<=<4322570qqq964<962<uuuuuuuuuu",
"=&==2344<33432374$&&$232<3668099642=641<uuuuuuuuuu",
"*&==334429632=253=@$$2422699996642<=41*<uuuuuuuuuu",
"u*&==2451586eq421=$@#121670eq9644<=<1**<uuuuuuuuuu",
"uu$&==<<*154q932=#++#<<<680eq9644<*12342uuuuuuuuuu",
"uuuu$=223=3<9611&<*#++<469qeq9496*%358994uuuuuuuuu",
"uuuu=$132<9322<*=23*%#<569weq94w7%=469qe94uuuuuuuu",
"uuuuu4=1<<693=*<=134*@*569qq96<w7%*4690we94uuuuuuu",
"uuuuuuu22346842=&123<*<569q984296%&1689qwe96uuuuuu",
"uuuuuuuu233463<&%<232*15679772494%*=4670qwe64uuuuu",
"uuuuuuuuu11341=$%=<33*25779762961%**<46q090054uuuu",
"uuuuuuuuu==11<=#=<=24*45669961q4<%%*<246w08964uuuu",
"uuuuuuuuu*=<<<*O242<4*456699439<$$$&&=<46068964uuu",
"uuuuuuuuu*=<<=&@3442#<469499156<u%@@$**=16448964uu",
"uuuuuuuuu*<22<$@4443o<599499175uuuu=@@$*=1<269964u",
"uuuuuuuu3=&***$u=<<#X*69669q694uuuuuu=@@*=*<669064",
"uuuuuuuu22**=*$uuuu@O49q986q993uuuuuuuu=@$*<445644",
"uuuuuuuu$2<<1=uuuu#O$77669=q963uuuuuuuuu=$*14432=&",
"uuuuuuuu@=212<uuuu@@=65356#994uuuuuuuuuu=4<24321=%",
"uuuuuuuu@*2<<*uuuuOO254245%##&uuuuuuuuuuu=642321=%",
"uuuuuuuu@*4***uuuu@$242*45%##uuuuuuuuuuuu=56331<&u",
"uuuuuuuuu=***uuuuu===2<*65%&uuuuuuuuuuuuu=46421<uu",
"uuuuuuuuuuuuuuuuuu2=*<*484=uuuuuuuuuuuuuu=353311uu",
"uuuuuuuuuuuuuuuuu52<&*484=uuuuuuuuuuuuuuu<2434<uuu",
"uuuuuuuuuuuuuuu632<*161<uuuuuuuuuuuuuuu92264663uuu",
"uuuuuuuuuuuuu86542<242=uuuuuuuuuuuuuuu942396964uuu",
"uuuuuuuuuuu889865422<uuuuuuuuuuuuuuuq66136q9q66uuu",
"uuuuuuuuu864<498642$uuuuuuuuuuuuu;-196<<<6qqq66uuu",
"uuuuuuu; 4<,><2862<%$uuuuuuuuuuu;-.<5<::$<59974uuu",
"uuuuuu; 3<,>; <53<=%% uuuuuuuuu;-. *< ;;-$454<uuuu",
"uuuuuu <3,>;  <<<<=uuuuuuuuuuuu-.  $< ;-- $2<uuuuu",
"uuuuuuuuuuuuuuuuuuuuuuuuuuuuuuuuuuuuu --  $uuuuuuu"
};
