/* XPM */
static char *BPPAA3[] = {
/* columns rows colors chars-per-pixel */
"54 51 55 1 ",
"  c black",
". c #070707",
"X c #0B0B0B",
"o c #1B1B1B",
"O c #3C0A0A",
"+ c #272113",
"@ c #392E1D",
"# c #373737",
"$ c gray23",
"% c #430B0B",
"& c #471212",
"* c #4E1313",
"= c #521414",
"- c #591818",
"; c #5D1C1C",
": c #493B30",
"> c #642121",
", c #682525",
"< c #702A2A",
"1 c #742E2E",
"2 c #7B3232",
"3 c #56422C",
"4 c #50533F",
"5 c #434343",
"6 c #4B4B4B",
"7 c gray31",
"8 c gray34",
"9 c #5B5B5B",
"0 c #646753",
"q c #6C6F5B",
"w c gray39",
"e c gray42",
"r c #6F6F6F",
"t c #777777",
"y c gray50",
"u c #803A3A",
"i c #873E3E",
"p c #8B4242",
"a c #934A4A",
"s c #974E4E",
"d c #9F5656",
"f c #A45E5E",
"g c #AC6666",
"h c #B06A6A",
"j c #B87272",
"k c #BC7979",
"l c #838383",
"z c #939393",
"x c #9F9F9F",
"c c #C48181",
"v c #CC8989",
"b c #D29494",
"n c #DA9C9C",
"m c #DEA3A3",
"M c None",
/* pixels */
"MMMMMMMMMMMMMMMMMjndgjffffMMMMMMMMMMMMMMMMMMMMMMMMMMMM",
"MMMMMMMMMMMMMMMnjdfdjjggffffMMMMMMMMMMMMMMMMMMMMMMMMMM",
"MMMMMMMMMMMMMMndsfdhjddfggffdfMMMMMMMMMMMMMMMMMMMMMMMM",
"MMMMMMMMMMMMMnjfssgjcdjfhdsadffMMMMMMMMMMMMMMMMMMMMMMM",
"MMMMMMMMMMMMkffsdsfjcfjjfdapishjMMMMMMMMMMMMMMMMMMMMMM",
"MMMMMMMMMMMnfsjfjfjcvfjcffa2,ifffMMMMMMMMMMMMMMMMMMMMM",
"MMMMMMMMMMMhscfhkjcvbfjccfa<=2hvchMMMMMMMMMMMMMMMMMMMM",
"MMMMMMMMMMvgcjfhbjcbbsdjjfa%;2dcbvkMMMMMMMMMMMMMMMMMMM",
"MMMMMMMMMnscjduscffjjdiadp1%;2sfhcvkMMMMMMMMMMMMMMMMMM",
"MMMMMMMMkfjjgs2,sadfdap2p,*u2i2afkvjkMMMMMMMMMMMMMMMMM",
"MMMMMMMMhkjgdi2,&;2ippdp2,uda2idjkkhfkMMMMMMMMMMMMMMMM",
"MMMMMMMkbckau1<,&&;<,2pap2fjfauppfjhfdMMMMMMMMMMMMMMMM",
"MMMMMjvbbbbkuu1,,&%=;;,22sjchda2dfjgfdgMMMMMMMMMMMMMMM",
"MMMMskbmmbvjpuu,,-%=2ppu2sfcjddidshdfddfMMMMMMMMMMMMMM",
"MMMmjvbmmmbvjpu1,-&2fjkdu2sjgah2asdghfdsdMMMMMMMMMMMMM",
"MMcsjvvbmmbvjpu1;>*ijbbcaupjdif2hjjdfggggffjMMMMMMMMMM",
"Mkksfjjvbbbvjpu>><-agvbkfi2ka2s1dgvnmbvkjjgfsMMMMMMMMM",
"kmbaddfjvvvjfspi1u<afgjjga<hi<1<akbnmnvckjhfdpMMMMMMMM",
"mbvupsdfjjjffssdi2<2psfjfa2fu;,,dvkkvbbbvkhffpMMMMMMMM",
"fjc2>ssddfffdassdi2u22sffi2su2,2ggggkvccckhdfauMMMMMMM",
"2jf>&ppssdddspapssipp2fjjaia1j%ifgfhckjghggddauMMMMMMM",
"Msu-&;<12ppspuupppaaaapccfau1p;pdfdhhfddffdsaipMMMMMMM",
"MM,+->->>,222uuuiiadfkkgjjia2,uuaaafddsasdssu<MMMMMMMM",
"MMMM->-->,>144puuiahvkjhcfai,;,2uhaadjjvkfspu<MMMMMMMM",
"MMMMM-----0:xesauiavvjhjvd2,%>1igdahggfkvkgppu<MMMMMMM",
"MMMMMM--@w#5te<dpuavjhjcjp1;>1iudagjvckfkvkfpu<MMMMMMM",
"MMMMMMMM38X $6O2gafjgjvjpi;,,,,>ugjvnvckgkvkaiu<MMMMMM",
"MMMMMMMM:r  o#.upfkjjcja2,,,M,,>1ufvknbckhvjfap<MMMMMM",
"MMMMMMMMM$.  .kjjfjcjja,,,,MMM,2112dbknbckkjgdps2MMMMM",
"MMMMMMMMMMM  djccfffdai<,<MMMMMu1sfifvknvkkhgfas1MMMMM",
"MMMMMMMMMMM  iiffipdafs2,2MMMMMM12bfigkgvkhffdpdp1MMMM",
"MMMMMMMMMMM6  dpp22,fga2u1MMMMMMpi1kfifggkkgdspfd2MMMM",
"MMMMMMMMMMMl7ria2;;hhgp2uMMMMMMMMup2fd2ddgcgsausjs1MMM",
"MMMMMMMMMMMMyy-;%,vjgsi21MMMMMMMMMua1spiddkhapsugd11MM",
"MMMMMMMMMMMM-2zqyecjs2u2MMMMMMMMMMMuu11pifjcgifuds2uMM",
"MMMMMMMMMMMM-1;2adpi1;;MMMMMMMMMMMMMuuu11udbfsdusp2p1M",
"MMMMMMMMMMMMMp2ddpi<;MMMMMMMMMMMMMMMaspiu11udpgupp2spp",
"MMMMMMMMMMMMMM222u2MMMMMMMMMMMMMMMMMadsspiu2pjsppupp2M",
"MMMMMMMMMMMMMMMMMMMMMMMMMMMMMMMMMMMMpgfpsp2ujfuppup2MM",
"MMMMMMMMMMMMMMMMMMMMMMMMMMMMMMMMMMMMdjjspu2jfpuppu<MMM",
"MMMMMMMMMMMMMMMMMMMMMMMMMMMMMMMMMMMjkkjfu2sfs&aau2MMMM",
"MMMMMMMMMMMMMMMMMMMMMMMMMMMMMMMMMMjkckfp2aff&=pp2<MMMM",
"MMMMMMMMMMMMMMMMMMMMMMMMMMMMMMMMjkcccgpusff&=1uuuMMMMM",
"MMMMMMMMMMMMMMMMMMMMMMMMMMMMMMMjcvvjfupfjf&=;<2uuMMMMM",
"MMMMMMMMMMMMMMMMMMMMMMMMMMMMMbvcvkfsusffp&=-,122uMMMMM",
"MMMMMMMMMMMMMMMMMMMMMMMMMMMbvvvkhfsusspu&&&-,111uMMMMM",
"MMMMMMMMMMMMMMMMMMMMMMMMmbvvcgddgpusu<&%%&-><222uMMMMM",
"MMMMMMMMMMMMMMMMMMMMMhmvvvvjgdlldpu1*&&&&&dllduuuMMMMM",
"MMMMMMMMMMMMMMMMMMMMldjcvfsdd9ete12;=****&9ete,auMMMMM",
"MMMMMMMMMMMMMMMMMMMltedhfspa279e9<>--=-**<79e9,,uMMMMM",
"MMMMMMMMMMMMMMMMMMlte98suuuu>7797><<>-;--,7797uuMMMMMM"
};
