/* XPM */
static char *BPPAA6[] = {
/* columns rows colors chars-per-pixel */
"41 48 32 1 ",
"  c gray23",
". c #430B0B",
"X c #471212",
"o c #4E1313",
"O c #521414",
"+ c #591818",
"@ c #5D1C1C",
"# c #642121",
"$ c #682525",
"% c #702A2A",
"& c #742E2E",
"* c #7B3232",
"= c #434343",
"- c gray28",
"; c gray31",
": c gray34",
"> c #803A3A",
", c #873E3E",
"< c #8B4242",
"1 c #934A4A",
"2 c #974E4E",
"3 c #9F5656",
"4 c #A45E5E",
"5 c #AC6666",
"6 c #B06A6A",
"7 c #B87272",
"8 c #BC7979",
"9 c #C48181",
"0 c #CC8989",
"q c #D29494",
"w c #DA9C9C",
"e c None",
/* pixels */
"eeeeeeeeeeeeeeeeeeeeeeeeeeq7qeeeeeeeeeeee",
"eeeeeeeeeeeeeeeeeeeeeeee7092978eeeeeeeeee",
"eeeeeeeeeeeeeeeeeeeeeeq074633338eeeeeeeee",
"eeeeeeeeeeeeeeeeeeeew0746447864444eeeeeee",
"eeeeeeeeeeeeeeeeeeq704657809764474eeeeeee",
"eeeeeeeeeeeeeeee97096277789075447776eeeee",
"eeeeeeeeeeeeeee9787447778990752490qq74eee",
"eeeeeeeeeeee447786247078900952<700qw961ee",
"eeeeeeeeee4572744477777554321<2089009641e",
"eeeeeeee4459w7669098743221,**150988876<4>",
"eeeeeee119779478000997533334*257864222>4>",
"eeeeee110777460qqqq097753444<24679522>&>>",
"eeeeee*17646775559qq0977542<<49q7953<%>*e",
"eeeeee*79877999975359765542>25qq5972&*2ee",
"eeeee35qw0890qwq9853344232<,>20q1076>2eee",
"eeee3289084890q09843222><2<2*<902864>7eee",
"eeee2278062789098741122>,<<<$<704644%>eee",
"eeee224774267898742<<12,*>>$$2504421$$<ee",
"eeee>1444224676532<*><1<&%%#$4594211>@>2e",
"eee>*<22<,2344431<>**<2<$#+$$3494147<+%>e",
"eee**<<,>,47458082>&*,<&@+O%%<277463,@#*e",
"eee*,>>**17067q073<&%>>$@OO&&><7723,&%**e",
"eee,,><&>50w79q8412&$>&OO@&*%&>47>1*1*>ee",
"eee<4<3*27q07q07314>$*#@$&><*&><<17><>eee",
"ee24124>50q70q97147,&#X+&><1*2&*174>>eeee",
"ee14<4<>70q7q074165*#XO%><11%1236431eeeee",
"ee1414<>7q89q963152%.O#><11<$*<24311eeeee",
"ee4142<>0q8q076<22,%.+%<11<*$%*<31,,eeeee",
"ee3<42>*0q0q774>1*@oo$>22<&&*@*>,,**eeeee",
"ee314<*400q0653>%#+o%%*12>&<<o&>>>*&eeeee",
"e4122**70q0765<%#%@$&%*<2><,<+%*>>*&eeeee",
"e4<42>40q074w7>#*e+@%%*><1211+#><<>&eeeee",
"e414<*244414q9<eeeee@$%*<111<&#*<1>,*eeee",
"e543>%*<1214074eeeeeee$%*<<<>ee*<1<1&eeee",
"5652>$%>><<2947eeeeeeeeee$$$eee*>1<2%eeee",
"4761>%&><>11447eeeeeeeeeeeeeee*%%<<2*eeee",
"245<%o@>>>>>247eeeeeeeeeeeeeee*%**21%eeee",
"<221%+o&><<*13eeeeeeeeeeeeeeeee*%*%%eeeee",
"e>,,%+o&><<*><eeeeeeeeeeeeeeeeee*%%eeeeee",
"ee**$#+o><1<>>eeeeeeeeeeeeeeeeeeeeeeeeeee",
"eee*##+o*2<<>*eeeeeeeeeeeeeeeeeeeeeeeeeee",
"eeee@@#+#32<,<2eeeeeeeeeeeeeeeeeeeeeeeeee",
"eeeee#@@.6424443eeeeeeeeeeeeeeeeeeeeeeeee",
"eeeeee%+.7724553eeeeeeeeeeeeeeeeeeeeeeeee",
"eeeeee7<&472576974eeeeeeeeeeeeeeeeeeeeeee",
"eeeee-44>14277774-;:eeeeeeeeeeeeeeeeeeeee",
"eeee;-=2>>2244432=-;:eeeeeeeeeeeeeeeeeeee",
"eeee-= <**>>,<21> =-;eeeeeeeeeeeeeeeeeeee"
};
