/* XPM */
static char *BPPAA2[] = {
/* columns rows colors chars-per-pixel */
"45 53 56 1 ",
"  c black",
". c #070707",
"X c #0B0B0B",
"o c #131313",
"O c #1B1B1B",
"+ c #232323",
"@ c #272727",
"# c #2F2F2F",
"$ c #373737",
"% c gray23",
"& c #430B0B",
"* c #471212",
"= c #4E1313",
"- c #521414",
"; c #591818",
": c #5D1C1C",
"> c #642121",
", c #682525",
"< c #702A2A",
"1 c #742E2E",
"2 c #7B3232",
"3 c #434343",
"4 c gray28",
"5 c #4B4B4B",
"6 c gray31",
"7 c gray34",
"8 c #5B5B5B",
"9 c #615345",
"0 c #6C6F5B",
"q c gray39",
"w c gray42",
"e c #6F6F6F",
"r c #777777",
"t c gray50",
"y c #803A3A",
"u c #873E3E",
"i c #8B4242",
"p c #934A4A",
"a c #974E4E",
"s c #9F5656",
"d c #A45E5E",
"f c #AC6666",
"g c #B06A6A",
"h c #B87272",
"j c #BC7979",
"k c #8B8B8B",
"l c #939393",
"z c #979797",
"x c #9F9F9F",
"c c #C48181",
"v c #CC8989",
"b c #D29494",
"n c #DA9C9C",
"m c #DEA3A3",
"M c #EBB6B6",
"N c None",
/* pixels */
"NNNNNNNNNNNNNnvfhhNNNNNNNNNNNNNNNNNNNNNNNNNNN",
"NNNNNNNNNNNvnffafffdfhcvcjgNNNNNNNNNNNNNNNNNN",
"NNNNNNNNNNvpbaghhhhgjvbnncjsNNNNNNNNNNNNNNNNN",
"NNNNNNNNNNfvagdpdggjvmMmvjffuNNNNNNNNNNNNNNNN",
"NNNNNNNNNaahahdypssgjvmmnjdsiNNNNNNNNNNNNNNNN",
"NNNNNNNNcfhagbdp111isfvbvhdpijNNNNNNNNNNNNNNN",
"NNNNNNNNafagbbhjaii2yadjjfspisbbvNNNNNNNNNNNN",
"NNNNNNvaacgvvhjvvaa2<yupsppiiahvvdNNNNNNNNNNN",
"NNNNNhacbgvhdjvbvdau2,<1211<2iafhhsNNNNNNNNNN",
"NNNNhaahfvhdhhjvjdii2<>;;;;<sgdadhsNNNNNNNNNN",
"NNNciuhchbhaaaapiuusfp2,;>iyjbvdadfiNNNNNNNNN",
"NNNipvbhbhfaiyyyyisfjdu2,1>pgvvjdusssNNNNNNNN",
"NNNa>pcchfshcchfdsggjgu1>2;idjvjfdyiafNNNNNNN",
"NNNNabvjfjbmmnhfffjnvfu,>i<;iadfdsyfvjdNNNNNN",
"NNNhhvfdjbmmbchdjjnvjf1>:u1&;<iiiiavjvgsNNNNN",
"NNhajbfsvnnchgddjvvjfs>;<p1-&&;>>>sfpddaNNNNN",
"Nffhg2fbvchfgjvpfjsssu;;2a1:-=&&&;uihvjaiNNNN",
"afjjcsfvchgjnvjspspppu<,ai1>====>;;smvhdiNNNN",
"afjcvijhgcjbvjffapuuu<,yi1;,11,,;a2sbvgsiNNNN",
"2dvvn1ngfjvjjddfsi22<><y,;1yuuy1;faubjfsi2NNN",
"2sjvbijisjjdddpppipy2,<;>,yyyy<y;ya<jfdsi2NNN",
"2udfggiyiddpppyyyyuy2<;:>2221,2a=;u<fdssu2NNN",
"N1ipuu22ypppyyy111112<;>1211,1ay=&12ssspy2NNN",
"NN;>>;u11yy21y11>11211><12212iyy=&;2dssp2NNNN",
"NNN;&;>u>121112>,1yy12,1<222i2,a<;ygjhsu1NNNN",
"NNNNN&;1>&-9r;q,111y<,<<:2yy2,,pa<gvvhsy2NNNN",
"NNNNNN&;;;qq$6ke;11<<,2<&,yy<2,2fabjhfs2<NNNN",
"NNNNNNN&5l5o .7w&>2<,>2<==y1<12yavjsssi1a2NNN",
"NNNNNNNNNqq   +5X&y>>2i2,=<2<1uaup<isp22s<NNN",
"NNNNNNNNNO4o  .OO&122ai2,=:2,1ya1<sjju2isp2NN",
"NNNNNNNNNN@1     .&sgsi2,>i,12ai<nbjs1>iaa<NN",
"NNNNNNNNNNNN      &sjfp2,>N2,>ah1dsi<;;uada1N",
"NNNNNNNNNNNN     O.sgsi2,>Ni;:id>;;;&&1uyfg2N",
"NNNNNNNNNNNN#.  .65sijfp2,Ni=&2ppiyy22yyysayN",
"NNNNNNNNNNNN5r@7Orlqsjfs2,Nd>=:y2iuyayaigaay1",
"NNNNNNNNNNNNexeektleiffi1NNN>:;,,2iuyaidjga21",
"NNNNNNNNNNNNNrrwzt221sp1>NNNN,:;:=yuaddhjva<2",
"NNNNNNNNNNNNN2<>0>2i2>;,NNNNNNi:,;yashjjdva>y",
"NNNNNNNNNNNNNN2>>>>>>;,NNNNNNNNN>;yahjvjdja<y",
"NNNNNNNNNNNNNNN2<,,,yNNNNNNNNNNN<>adjjvjdsiy2",
"NNNNNNNNNNNNNNNNNNNNNNNNNNNNNNNN*2hjvcjhsy22N",
"NNNNNNNNNNNNNNNNNNNNNNNNNNNNNNNy>djbvjhsy1yNN",
"NNNNNNNNNNNNNNNNNNNNNNNNNNNNNNN,djbvchsy2yaNN",
"NNNNNNNNNNNNNNNNNNNNNNNNNNNNNNascbvhhsyyiiNNN",
"NNNNNNNNNNNNNNNNNNNNNNNNNNNNNNacbvchs2yayNNNN",
"NNNNNNNNNNNNNNNNNNNNNNNNNNNNNccbvjdpyiipNNNNN",
"NNNNNNNNNNNNNNNNNNNNNNNNNNNjcbbvjdy2iiNNNNNNN",
"NNNNNNNNNNNNNNNNNNNNNNNNNcvvvnnjs222**NNNNNNN",
"NNNNNNNNNNNNNNNNNNNNNNNvvvhhhhjs2w4=***NNNNNN",
"NNNNNNNNNNNNNNNNNNNNNNii22hfssfs%8w4****NNNNN",
"NNNNNNNNNNNNNNNNNNNNNNi8ew2appi2%4884=>*NNNNN",
"NNNNNNNNNNNNNNNNNNNNNN8te862uu2<>%%%%NNNNNNNN",
"NNNNNNNNNNNNNNNNNNNNN8rw863;>==&NNNNNNNNNNNNN"
};
