/* XPM */
static char *BPPAA7[] = {
/* columns rows colors chars-per-pixel */
"55 50 38 1 ",
"  c #2F2F2F",
". c #373737",
"X c gray23",
"o c #471212",
"O c #4E1313",
"+ c #591818",
"@ c #5D1C1C",
"# c #642121",
"$ c #682525",
"% c #702A2A",
"& c #742E2E",
"* c #7B3232",
"= c #434343",
"- c gray28",
"; c gray31",
": c gray34",
"> c #5B5B5B",
", c gray42",
"< c #777777",
"1 c #803A3A",
"2 c #873E3E",
"3 c #8B4242",
"4 c #934A4A",
"5 c #974E4E",
"6 c #9F5656",
"7 c #A45E5E",
"8 c #AC6666",
"9 c #B06A6A",
"0 c #B87272",
"q c #BC7979",
"w c #838383",
"e c #C48181",
"r c #CC8989",
"t c #D29494",
"y c #DA9C9C",
"u c #DEA3A3",
"i c #E7AFAF",
"p c None",
/* pixels */
"pppppppppppppppppppppppppppppppppppr9r9erpppppppppppppp",
"pppppppppppppppppppppppppppppppppr97770007epppppppppppp",
"pppppppppppppppppppppppppppppppr700rytre079rppppppppppp",
"pppppppppppppppppppppppppppppqq770etyttre99r9pppppppppp",
"ppppppppppppppppppppppppppppq777rrtuiuteqq97r9ppppppppp",
"ppppppppppppppppppppppppppq770er00eyuyr0rrq77e9pppppppp",
"ppppppppppppppppppppppppp07000e0880eyte8uyr774e9ppppppp",
"pppppppppppppppppppppppp777700e77780tr08iuy0r04qppppppp",
"ppppppppppppppppppppppp7755570054470r050uyt7qr04qpppppp",
"ppppppppppppppppppppppp34555764571579730ytr599q749ppppp",
"pppppppppppppppppppppp0**35574390155755rtq0*77987r9pppp",
"pppppppppppppppppppper051145539tte575370851@775385rpppp",
"ppppppppppppppppppp70tr0713433etut9755763*@O45**566rppp",
"pppppppppppppppppp570etr071535qryu07773*+OO%**136776ppp",
"ppppppppppppppptyt0570er7015550qty7051*%&%%*135746976pp",
"ppppppppppppppeuuut5370050437370r837er7*33**3*78467996p",
"ppppppppppppp0tyyytt35707737q8585q57805153*15*34444664p",
"pppppppppppp30erttrr0150757rtt00yt1566O54*$372*1332%44p",
"ppppppppppp23700qeeer5570550rrryt9*3*O#1%@*702**&%#%&2r",
"ppppppppppp*235790qqqq158370rrer91&+O+#@O%576554311**%*",
"ppppppppppp*133578000053557rte06457O++O+%1564554421**%&",
"ppppppppppp5557777899963337rre08eur1OO$%%4334654321*&&p",
"ppppppppppp99etr988887531&5eee000tu0+%*114112111**1&&pp",
"pppppppppp80etq9rq7776531%&70rre99r04*113321333****pppp",
"ppppppppp90rtq9yrq8755331%+370r0968031135215772**3ppppp",
"pppppppp80rt09yeq88755331%@1570005681344515792*&ppppppp",
"ppppppp80rr09rq865547743*$+*15777736&34533792&ppppppppp",
"ppppppp700rqrq873170735*&#O@*1345773*2333592%pppppppppp",
"pppppp5700r0q8513001371$$#+O*&*13573**22394&ppppppppppp",
"ppppp570000863*5043705$&*%+op4&*345575**9*&pppppppppppp",
"pppp57000755*17715005@#**$#opp7&134500771&ppppppppppppp",
"ppp5600e55&*35117073@O&1%&#+ppp7*35700075&ppppppppppppp",
"pp5600r74*$&&&3551#OO$***&#ppppp1470er0735%pppppppppppp",
"p56770r31*$&331#@OO#@&1**&&pppppp&70er07553pppppppppppp",
"1588507175335pp+++O1&**&**ppppppp3370074553pppppppppppp",
"*5855044802*ppp+#+#****1*ppppppppp*3775332$pppppppppppp",
"13734046802pppp+%%1*131*ppppppppppp134732*ppppppppppppp",
"p*411756803ppp1%*311333*pppppppppppp132**pppppppppppppp",
"pp13*577805ppp%**1147533*pppppppppppppppppppppppppppppp",
"ppp*2*47806pppp**&15765513ppppppppppppppppppppppppppppp",
"ppp**355085pppppp1%*1676765*ppppppppppppppppppppppppppp",
"pppp3137007ppppppp&%&1367765*7ppppppppppppppppppppppppp",
"pppp57170r08ppppppp7*%*13576631pppppppppppppppppppppppp",
"pppp57370ee97pppppppp1*&*134755117ppppppppppppppppppppp",
"pppp7038qqq0eqppppppppp**&*355553*&15pppppppppppppppppp",
"pppp7078668errtuppppppppp7**144554**%++;ppppppppppppppp",
"pppp0756ww680rrrru9ppppppppp*13--5&**%%=;pppppppppppppp",
"ppppp5&,<,>6657re06wppppppppp*-X--5&&1*.=;ppppppppppppp",
"ppppp1%>,>;*435796,<wpppppppppX X-5&&11 .=;pppppppppppp",
"pppppp#;>;;#11115:>,<wppppppppppppppppppppppppppppppppp"
};
