/* XPM */
static char *BPPAA5[] = {
/* columns rows colors chars-per-pixel */
"35 46 29 1 ",
"  c #2F2F2F",
". c #373737",
"X c gray23",
"o c #4E1313",
"O c #521414",
"+ c #591818",
"@ c #5D1C1C",
"# c #642121",
"$ c #682525",
"% c #702A2A",
"& c #742E2E",
"* c #7B3232",
"= c #434343",
"- c gray28",
"; c #803A3A",
": c #873E3E",
"> c #8B4242",
", c #934A4A",
"< c #974E4E",
"1 c #9F5656",
"2 c #A45E5E",
"3 c #AC6666",
"4 c #B06A6A",
"5 c #B87272",
"6 c #BC7979",
"7 c #C48181",
"8 c #CC8989",
"9 c #D29494",
"0 c None",
/* pixels */
"00000000000550573045550000000000000",
"00000000023787<31457764200000000000",
"00000000012555573666422243100000000",
"00000013441344<31854356664,,4540000",
"00454,,467522257364278751:;>1441000",
"01441>;:158511<31526631,:$%:>1<;000",
"0;<1>:%$:1485157333231,:$#$*>>;%000",
"0%;>>*$#$<1233<31268852>:$&<;*&#000",
"0#&*;<&$:2665457326777621*:21>&0000",
"00&>12:*144332<312223443:%>43520000",
"002534>%:,12326262367531:$,64851000",
"015846,$:368733553699952>%151662000",
"0266151%>369964336688753,$<3<242000",
"0242<3<$,136863<13677631:#><<,21000",
"012,<<>#:,1333,>>133331,&@*>:,,1000",
"01,,:>*@&*;>,,,*>,1221,>&@$*%::,000",
"0,::%*$@&&;:>>:*:>,11,>::#+%%&::000",
"0::&%%+#:1><1<;$;>,,,>>22*%++%:*000",
"0*:%++%*231333<$$><1211661*O+*>%;00",
";%>*+O*1661663<##*>463<673>*O&*#&00",
"&#*&O*>3761762,%+%>466<3761>O%$$$00",
"$$$%O>16734861>%+#&256<1682:+#@+O00",
"O+@#+:2861583,*&++&>252<683:&Ooo000",
"0ooO&:3861862>>&++#&<34<484:*ooo000",
"0ooo*:484383,<,*+++#:143184:*oo0000",
"00oo*:481661>11;++@+&134<352&000000",
"0000::38162,<32;++++#<151263&000000",
"0000>>27461>132*++++#><46474*000000",
"0000,:26631>14,%+++++%>26585*800000",
"0000<:3683>>1,:@+++++*&>2885:610000",
"000<1:3883;>,>0++++++*,::685:3*0000",
"00011;1661;*>0000#+++*,1*231&1*0000",
"0001<%>33>*&,000000000:,*,,,#1%0000",
"0000,%$**%%&0000000000*&%*,:%>>0000",
"0000:%####&10000000000#&%&:>%*00000",
"0000:&#$$#&00000000000*&%&;>*100000",
"00000*$%*$&000000000000%##*>*000000",
"00000*%&;&&000000000000*#@&>%000000",
"000000*;>;&000000000000>#@$*+000000",
"000001::,:&000000000000##@#&#000000",
"00-X1:>><>:>11-00000000#%*;&$000000",
"0=X ,><,1,<>>,X-0000000&&**&$000000",
"0===>:,13,,:;> X000002;;;**&$;20000",
"0000000000000000000=2,>;;;;&$>,2=00",
"000000000000000000=X,>:$$$$$#:>,X=0",
"00000000000000000...;*&######&*;..."
};
