/* XPM */
static char *BPPAA8[] = {
/* columns rows colors chars-per-pixel */
"54 52 57 1 ",
"  c black",
". c #0B0B0B",
"X c #131313",
"o c #1B1B1B",
"O c #3C0A0A",
"+ c #2E2818",
"@ c #392E1D",
"# c #232323",
"$ c #272727",
"% c #2F2F2F",
"& c #373737",
"* c gray23",
"= c #430B0B",
"- c #471212",
"; c #4E1313",
": c #521414",
"> c #591818",
", c #5D1C1C",
"< c #493B30",
"1 c #642121",
"2 c #682525",
"3 c #702A2A",
"4 c #742E2E",
"5 c #7B3232",
"6 c #434343",
"7 c gray28",
"8 c gray31",
"9 c gray34",
"0 c #5B5B5B",
"q c #646753",
"w c gray39",
"e c gray42",
"r c #6F6F6F",
"t c #777777",
"y c gray50",
"u c #803A3A",
"i c #873E3E",
"p c #8B4242",
"a c #934A4A",
"s c #974E4E",
"d c #9F5656",
"f c #A45E5E",
"g c #AC6666",
"h c #B06A6A",
"j c #B87272",
"k c #BC7979",
"l c #838383",
"z c #8B8B8B",
"x c #979797",
"c c #9F9F9F",
"v c #C48181",
"b c #CC8989",
"n c #D29494",
"m c #DA9C9C",
"M c #DEA3A3",
"N c #E7AFAF",
"B c None",
/* pixels */
"BBBBBBBBBBBBBBBBBBBBBBBBBBBBBBbngbgbBBBBBBBBBBBBBBBBBB",
"BBBBBBBBBBBBBBBBBBBBBBBBBBBBbbgikfikvBBBBBBBBBBBBBBBBB",
"BBBBBBBBBBBBBBBBBBBBBBBBBBBvfjbnkbjigaBBBBBBBBBBBBBBBB",
"BBBBBBBBBBBBBBBBBBBBBBBBBnvvjbbkjvnikvbBBBBBBBBBBBBBBB",
"BBBBBBBBBBBBBBBBBBBBBBBBbvnnbvjjjvbjiggffBBBBBBBBBBBBB",
"BBBBBBBBBBBBBBBBBBBBBBbvnnbnnbjfjvvnfskvhgggBBBBBBBBBB",
"BBBBBBBBBBBBBBBBBBBBBfvnnbvnmbjfjvbnbfsihjjhfBBBBBBBBB",
"BBBBBBBBBBBBBBBBBBBBafvnbjbnNnjsjjvbnbfskvjjfpBBBBBBBB",
"BBBBBBBBBBBBBBBBBBBsapjvjfjbnng5jjnbbnnfskvfspiBBBBBBB",
"BBBBBBBBBBBBBBBBBBB3upfjjfjjjjd4jjnnnvvnjssppuu3BBBBBB",
"BBBBBBBBBBBBBBBBBBBu5ppfjffdsa5ujjjbMbjjnjgs5u33BBBBBB",
"BBBBBBBBBBBBBBBBBBB3i5asfssai53pgjffvjfjbbfkv32BBBBBBB",
"BBBBBBBBBBBBBBBBBBB5gi5psspu55pddgssssssjjjfs5BBBBBBBB",
"BBBBBBBBBBBBBBBBBBbsnbhfdp55usjgfdsppupfnbvfkvBBBBBBBB",
"BBBBBBBBBBBBBBBBBbsjbvvjjjjfifvjgfspppfjknnvjskBBBBBBB",
"BBBBBBBBBBBBBBBBpvpjvjjbbbjsuhjvjgfsaafhhkknjjskvBBBBB",
"BBBBBBBBBBBBBBBssgpdgjffjbfu3fhjjhffffjjjkkvnbjsvffBBB",
"BBBBBBBBBBBBBfvpafusfvsasfu15sddapuiffffjkkkbnbjsjjfBB",
"BBBBBBBBBBBBsjvsggajnfspuu13uppu5314u5sffjkknbjnjfbnjB",
"BBBBBBBBBBBudjjdjfjbbsdp5,:3uu54114u5upsffjknnjfvfjbbf",
"BBBBBBBBBBBudggsjsjbdfj2;:;,4321145ipuppsffjfgjfsfjnbj",
"BBBBBBBBBBBusffshaffvbn5;;;;,,12454aaiuppssfuupsspjbjs",
"BBBBBBBBBBB3isssjssjbNbd;>>;;;>3213faiipppsu33upapdfsB",
"BBBBBBBBBBB35upsjhffjnnj133>===1325ffspuppu32224225aBB",
"BBBBBBBBBBffsiupfbjpsjnj5552-=O;125ssa55uu32,>>22,,BBB",
"BBBBBBBBBfgkksi4fjnfuavjppu42:==>45upi424u5>>z>21BBBBB",
"BBBBBBBBfgbvgdiupjnmpusfsu5uu5=;35uuuu322319zzxBBBBBBB",
"BBBBBBBfgbvjgs535svbjupasp5u5u;>uuuu55424u%eeezBBBBBBB",
"BBBBBBsgvjgfs53355sjvfssss5pp5>3upuuu334is#6XeBBBBBBBB",
"BBBBBBdjfffsuu55:15pfjsffjsas535uuup544is.o.BBBBBBBBBB",
"BBBBBaddfspifsu13315psfjmbjps54uuppu34is  BBBBBBBBBBBB",
"BBBBusssauuffuup3,;>4psfbnmbjs5uupu44is  BBBBBBBBBBBBB",
"BBBssfspuussussu1,3--5sfjnnMbbfuup34i<6%BBBBBBBBBBBBBB",
"BBBahgu5up55asp43BB-->sfjjMmvjasup4iqyl#o BBBBBBBBBBBB",
"BB5jjduuu55pau5BBBB:-;5sjjbnvjf5spisyxyt$lBBBBBBBBBBBB",
"Bsavdppuuup5pBBBBBBB-->asjjfvjjupfssptcrzBBBBBBBBBBBBB",
"safdppapu55BBBBBBBBB1-;ussfjfjjfujs5ptw@+BBBBBBBBBBBBB",
"5ujpafsdp4BBBBBBBBBBB-;,uffjffj4ujfp2133uBBBBBBBBBBBBB",
"pujadffgd1BBBBBBBBBBB-:>2fjfausB4pdaa554BBBBBBBBBBBBBB",
"B3sdfhgbh3BBBBBBBBBBB=;>;;;;33BBBiuppu5uBBBBBBBBBBBBBB",
"Bfufhjgbh2BBBBBBBBBBB;;:;;;;;>BBBB5uuuBBBBBBBBBBBBBBBB",
"BB5svjgbh3BBBBBBBBBBBB;;;;;;;>uBBBBBBBBBBBBBBBBBBBBBBB",
"BBB5sjfjf5BBBBBBBBBBBBB2:;;;:>1;sBBBBBBBBBBBBBBBBBBBBB",
"BBB5iffjgaBBBBBBBBBBBBBB5;>>>>354pBBBBBBBBBBBBBBBBBBBB",
"BBB5ifjvgaBBBBBBBBBBBBBBBp>1>135puuBBBBBBBBBBBBBBBBBBB",
"BBBupfjjgfjBBBBBBBBBBBBBBBs31135uppusBBBBBBBBBBBBBBBBB",
"BBBpafjbjgfjBBBBBBBBBBBBBBBBu335uppaspajBBBBBBBBBBBBBB",
"BBBaajjbjjggsfBBBBBBBBBBBBBBBBussappssssppsBBBBBBBBBBB",
"BBBpiltufvjjgffBBBBBBBBBBBBBBBpew7passsaas9wBBBBBBBBBB",
"BBB5ete0ijjjjji80BBBBBBBBBBBBB80988sfsssfa79wBBBBBBBBB",
"BBBu0e08usfffi&680BBBBBBBBBBBB7%*78upuuupp*79BBBBBBBBB",
"BBBB0086usspuu&&68BBBBBBBBBBBBBBBBBBBBBBBBBBBBBBBBBBBB"
};
