/* XPM */
static char *BPPAA1[] = {
/* columns rows colors chars-per-pixel */
"39 54 48 1 ",
"  c black",
". c #392E1D",
"X c #2F2F2F",
"o c #373737",
"O c #430B0B",
"+ c #471212",
"@ c #4E1313",
"# c #521414",
"$ c #591818",
"% c #5D1C1C",
"& c #642121",
"* c #682525",
"= c #702A2A",
"- c #742E2E",
"; c #7B3232",
": c gray28",
"> c gray31",
", c gray34",
"< c #5B5B5B",
"1 c gray39",
"2 c gray42",
"3 c #6F6F6F",
"4 c #777777",
"5 c gray50",
"6 c #803A3A",
"7 c #873E3E",
"8 c #8B4242",
"9 c #934A4A",
"0 c #974E4E",
"q c #9F5656",
"w c #A45E5E",
"e c #AC6666",
"r c #B06A6A",
"t c #B87272",
"y c #BC7979",
"u c #838383",
"i c #939393",
"p c #9F9F9F",
"a c #A7A7A7",
"s c #C48181",
"d c #CC8989",
"f c #D29494",
"g c #DA9C9C",
"h c #DEA3A3",
"j c #E7AFAF",
"k c #EBB6B6",
"l c #F4C1C1",
"z c None",
/* pixels */
"zzzzzzzzzzzzzzzzwssezzzzzzzzzzzzzzzzzzz",
"zzzzzzzzzzzzzyddesftfdyzzzzzzzzzzzzzzzz",
"zzzzzzzzzzzsdfttwtttysfdstysdsyzzzzzzzz",
"zzzzzzzzysdsytrrwsftttyyyrrrwerttsyzzzz",
"zzzzysttrewrrrrr9tsttydsyytrwrtytrrytzz",
"zztyrrtytrwrtydd9tttfhhgdddyrqtyysyrwzz",
"zzwrysyytqryddddttsyhkjhghfdy0etsdsywwz",
"zwwysdste0ydfhffrwtdgjhggjhst0qrysdsw0z",
"z0wsdsyrq0tshjhhtwttggggghdtq90qertt0=z",
"z=0ttreq09qtdhffy9stfddyeww078990009-%z",
"z%-900099870wytttwttfyrw086=;79876-%+$z",
"z$$;667897;=60eeye9wfsew66---896-=%+$zz",
"zz$$*=-698---60ety0ytfsr0===696=&+++*zz",
"zz&$$%&=696===6eyy9sfqfyr660966=&+$*88z",
"z8=*$$@@69e666ysdf9ttttsyrrr066&++*686z",
"z96&*##&76qetfggff0sstrsdfggy66&++=;9-z",
"z99-###&=7qsghllhfy9rtydhkkhhy6@+&=88&z",
"z88-###&=79edgjkkhrr9rehkjhdye%##=69;6z",
"z68###%#&=qeedddddee0y0ddstwweO@#*6;=8z",
"z8;;##@#$&000wetttew9y9ewww969O+#%*=#zz",
"z6&*#+++$$=800weeew0;w6099966;OO++O##zz",
"8;&&O++O#*$=800www000;;96666;;OO$$@%6zz",
"086;&@$Oz#*$=800w0006;-6;;;;;%O$*;8ww8z",
"q0eeq;;$zz$-$=7800066;--;;;;*@-&;-esr8z",
"qwsstq06-z#*-&688866;;;--;;=&z=779sdrqz",
"8qsdswt8=zz$&$=888=-88--*===&z-09tfdr8z",
";8tdftd0-z*$+*-6863-22p$3.@;*$;wtfdt9*z",
"=89tdfdw;**++*;-6>a3: ,>a3*8%$-tsft0*$z",
"z;80tfft-&+++$;-6,u3   ,u3-8%$6esgt8*@z",
"z=78tggd6$+++@;-6X1,   o1,;8&$6qsdt7$zz",
"zz;7tdgs6$++++;-6 :o   X: 68$0dgfsw8@zz",
"zz=8wttftw7+++=;6 X     X ;8&dgsewt8zzz",
"zzz8twetsf07++&;8O        ;q$tt78st8zzz",
"zzz8tswftqf0++&-0O        6w&t98-tq8zzz",
"zzz8wtsssew0++&;eO 3    3 ;t&0qsse97zzz",
"zzz79et00qq+++&-eO1i13 1i16e&60ww0q7zzz",
"zzz78t7777=+++%7e*ia3i1ia386*=9wwe;zzzz",
"zzzz;;;;;&=&+$&qe=3i1ai3i19$=66996qzzzz",
"zzzzz6;;&**&@&*wt08;;i3;;8w&60w97ryzzzz",
"zzzzzz;&*--=*%z*sw088q800we&9wew7dyzzzz",
"zzzzzz;==;6;&%zz0rtrewertse;0rte0tqzzzz",
"zzzzzz;==;6;=&zzz0rsdggsye$8wtsr9q9zzzz",
"zzzzzzz6-;6;=;zzzzz0rtr7@&;8wydr807zzzz",
"zzzzzzzz;686-zzzzzzzzzzzz7;8esfe99zzzzz",
"zzzzzzzz;708;zzzzzzzzzzzz6;9rdgr07zzzzz",
"zzzzzz9778w08zzzzzzzzzzzz;;8efht0zzzzzz",
"zzzzq67778w08876zzzzzzzzzz;8rffywzzzzzz",
"zzz2--;78q6609;-%1zzzzzzzz89ydddezzzzzz",
"zz21-8;664u4669&*,1zzzzzzz8qsghdyzzzzzz",
"zzzzzzz=>242>=zzzzzzzzz3t07eteqedye3zzz",
"zzzzzzz*><2<>*zzzzzzz531w00tq4u4qte135z",
"zzzzzzzz>>>>>zzzzzzz531,w8q0<242<0w,135",
"zzzzzzzzzzzzzzzzzzzz31,:6866><2<>;9:,13",
"zzzzzzzzzzzzzzzzzzzzzzzzzzzz,><>,zzzzzz"
};
