/* XPM */
static char *BPWAB2B8[] = {
/* columns rows colors chars-per-pixel */
"45 59 53 1 ",
"  c black",
". c #070707",
"X c #0B0B0B",
"o c #131313",
"O c #1B1B1B",
"+ c #390A0A",
"@ c #232323",
"# c #272727",
"$ c #2F2F2F",
"% c gray23",
"& c #430B0B",
"* c #471212",
"= c #4E1313",
"- c #521414",
"; c #591818",
": c #5D1C1C",
"> c #642121",
", c #682525",
"< c #702A2A",
"1 c #742E2E",
"2 c #7B3232",
"3 c #434343",
"4 c gray28",
"5 c gray31",
"6 c gray34",
"7 c #5B5B5B",
"8 c gray39",
"9 c gray42",
"0 c #6F6F6F",
"q c #777777",
"w c gray50",
"e c #803A3A",
"r c #873E3E",
"t c #8B4242",
"y c #934A4A",
"u c #974E4E",
"i c #9F5656",
"p c #A45E5E",
"a c #AC6666",
"s c #B06A6A",
"d c #B87272",
"f c #BC7979",
"g c #8B8B8B",
"h c #939393",
"j c #979797",
"k c #A7A7A7",
"l c #C48181",
"z c #CC8989",
"x c #D29494",
"c c #DA9C9C",
"v c #DEA3A3",
"b c #EBB6B6",
"n c None",
/* pixels */
"nnnnnnnnnnnncazcnnnnnnnnnnnnnnnnnnnnnnnnnnnnn",
"nnnnnnnnnnnaftitilnnnnnnnnnnnnnnnnnnnnnnnnnnn",
"nnnnnnnnnniziiafzlpapadlzlfsnnnnnnnnnnnnnnnnn",
"nnnnnnnnnpzpaffffzldsfzxcclfinnnnnnnnnnnnnnnn",
"nnnnnnnnitaiplddppasfzvbvzfaarnnnnnnnnnnnnnnn",
"nnnnnnnaaaztzlaiiitisfzvvcfpitnnnnnnnnnnnnnnn",
"nnnnnaaiipipzzfffat1tiazxzdpytfnnnnnnnnnnnnnn",
"nnnapffttaizzffzxxat2eupffaiytixxznnnnnnnnnnn",
"nnapffatzafxffzxccau2<eryiyyttudzzpnnnnnnnnnn",
"nipafaiiaiczflzzdauur2,<1211<2tuaddinnnnnnnnn",
"ipiiiiiaaaxffapir21tt2<>;;;;<ispupdinnnnnnnnn",
"2rtt1rpfafczaire111riay2,;>tefxzpupatnnnnnnnn",
">22t;1aaazxczaitr12tafpr2,1>yszzfpriiinnnnnnn",
"n122;;fafxvvczzayr1tafsr1>2;tpfzfapetuannnnnn",
"nn<>;apfxvvcccczay1tifar,>t<;tupapieazfpnnnnn",
"nnn<;aizcczxzcccza21iir1>:r1&;<ttttuzfzsinnnn",
"nnfs2axzxzfxczzffy21rt,e;<y1-&&;>>>iayppunnnn",
"nafliaczlzxczfzai21<<<2221,2u-=&&&;rtdzfutnnn",
"uafztfxslfxzfaaatt2,11211,1ut====>;;ivzdptnnn",
"2pzc1csapiffppaitt2<>12212trt11,,;u2ixzsitnnn",
"2ifxtftiyypeeyyytye2,1222rrrurre1;aurxfait2nn",
"2rpsst<t2>292eeeere2<12ee2etyuiue;eu<fapit2nn",
"n1trr2;>>w5h0>111112<11ee<etute1:=;r<apiir2nn",
"nn;>;r&;go#68#1>11211>1e1<122eeee=&12iiiye2nn",
"nn;&;>r74X O3o>,1ee12,<12<11tadp:=&;2piiy2nnn",
"nnnn&;1w8   X@ 1eee<2<212,1yazdat<;esfdir1nnn",
"nnnnnn;47o     ;e2<2r2<1>22azdaaiu<szzdie2nnn",
"nnnnnnn:@;      >22ytt<>>2yzzapauauxfdai22nnn",
"nnnnnnnn1&    .6Oeyuyt2;>2izzipsruzfiiit12nnn",
"nnnnnnnnn;<   o0w>yiut2;>,iddyppsry<tiy22ainn",
"nnnnnnnnnn,%X6Owkqisit2;>,iupyiir1<iffr2taain",
"nnnnnnnnnn&g87gwwwtfay2=:,,yueyiy<cxfi1>tuaai",
"nnnnnnnnnn:hg9jg>1ifai2=,&,ry2eiy1pit<;;riuai",
"nnnnnnnnnnni1>9w1iaaat1=<,&,ur2yr>;;;&&1iiuir",
"nnnnnnnnnnnntt1tiiiiy1>;<<;&,u2rr;&&&&;uiiui1",
"nnnnnnnnnnnn<>>>2t2>;,&&&:,;&,u2r1>;<e2uiiurn",
"nnnnnnnnnnnnn>>>>>>;nnnn&&&&:+>tyr>22euuiiu1n",
"nnnnnnnnnnnnnnnnnnnnnnnnnn&&&&+;ry2ttepuiur1n",
"nnnnnnnnnnnnnnnnnnnnnnnnnnnn&:=+;ryuptpiir1nn",
"nnnnnnnnnnnnnnnnnnnnnnnnnnnn&,:&-;ripuuir1nnn",
"nnnnnnnnnnnnnnnnnnnnnnnnnnnn&1,-=r2rpuyre1nnn",
"nnnnnnnnnnnnnnnnnnnnnnnnnnn&&e,:=uddayre1nnnn",
"nnnnnnnnnnnnnnnnnnnnnnnnnnn&,e,1-izdpre11nnnn",
"nnnnnnnnnnnnnnnnnnnnnnnnnnn&,e,11azdpr22nnnnn",
"nnnnnnnnnnnnnnnnnnnnnnnnnn&yeee1izzdpr21nnnnn",
"nnnnnnnnnnnnnnnnnnnnnnnnn*<yeey1izzay21nnnnnn",
"nnnnnnnnnnnnnnnnnnnnnnnnn#<yeertazdir<1nnnnnn",
"nnnnnnnnnnnnnnnnnnnnnnnnnn*,rer2izdy12nnnnnnn",
"nnnnnnnnnnnnnnnnnnnnnnnnnn**22rrzziy11nnnnnnn",
"nnnnnnnnnnnnnnnnnnnnnnnnnnn*-##yzdyt11nnnnnnn",
"nnnnnnnnnnnnnnnnnnnnnnnnnnnn##%izayi1nnnnnnnn",
"nnnnnnnnnnnnnnnnnnnnnnnnnnnnn#tfziti1nnnnnnnn",
"nnnnnnnnnnnnnnnnnnnnnnnnnnnnnyuffaia1nnnnnnnn",
"nnnnnnnnnnnnnnnnnnnnnnnnnnniiufzzssa2nnnnnnnn",
"nnnnnnnnnnnnnnnnnnnnnnnnnipfaiafxzza94nnnnnnn",
"nnnnnnnnnnnnnnnnnnnnnnnntt22dippppp%794nnnnnn",
"nnnnnnnnnnnnnnnnnnnnnnn%t7092uuu222%477nnnnnn",
"nnnnnnnnnnnnnnnnnnnnnnn$tw075<u<>>>#%%%nnnnnn",
"nnnnnnnnnnnnnnnnnnnnnnnnn9753>>>nnnnnnnnnnnnn"
};
