/* XPM */
static char *BPWAC3C7[] = {
/* columns rows colors chars-per-pixel */
"60 53 50 1 ",
"  c black",
". c #1B1B1B",
"X c #390A0A",
"o c #232323",
"O c #2F2F2F",
"+ c #373737",
"@ c gray23",
"# c #430B0B",
"$ c #471212",
"% c #4E1313",
"& c #521414",
"* c #591818",
"= c #5D1C1C",
"- c #443622",
"; c #493B30",
": c #642121",
"> c #682525",
", c #702A2A",
"< c #742E2E",
"1 c #7B3232",
"2 c #434343",
"3 c gray28",
"4 c gray31",
"5 c gray34",
"6 c #5B5B5B",
"7 c #646753",
"8 c gray39",
"9 c gray42",
"0 c #803A3A",
"q c #873E3E",
"w c #8B4242",
"e c #934A4A",
"r c #974E4E",
"t c #9F5656",
"y c #A45E5E",
"u c #AC6666",
"i c #B06A6A",
"p c #B87272",
"a c #BC7979",
"s c #838383",
"d c #8B8B8B",
"f c #C48181",
"g c #CC8989",
"h c #D29494",
"j c #DA9C9C",
"k c #DEA3A3",
"l c #E7AFAF",
"z c #EBB6B6",
"x c #F4C1C1",
"c c None",
/* pixels */
"ccccccccccccccccgfigigcccccccccccccccccccccccccccccccccccccc",
"ccccccccccccccccgfigigcccccccccccccccccccccccccccccccccccccc",
"ccccccccccccccfypppyyyigcccccccccccccccccccccccccccccccccccc",
"cccccccccccccgiypfghjgppygcccccccccccccccccccccccccccccccccc",
"cccccccccccciyyaafhkzkgggyaacccccccccccccccccccccccccccccccc",
"cccccccccccigytggpgzxjfppyyyaccccccccccccccccccccccccccccccc",
"ccccccccccifyygjkufhzfppfgfpyyaccccccccccccccccccccccccccccc",
"cccccccccifeypjllupghppyypfpppypcccccccccccccccccccccccccccc",
"cccccccccaepgyhxzprpgpyeeyfppyyyyccccccccccccccccccccccccccc",
"ccccccccaephargjkpwyiyr0yrppyrrryycccccccccccccccccccccccccc",
"cccccccieyffp1pahgrryrr0pretyrrrewcccccccccccccccccccccccccc",
"ccccccigyuppy=0rupywryrfhiweyrrw11ggcccccccccccccccccccccccc",
"ccccccgruwryy%=1wtyrryihkhiwrre00rpgfccccccccccccccccccccccc",
"cccccgttr1>1e,%%*1wyyypkjhfwwew0ypghpycccccccccccccccccccccc",
"ccccaetytw0<11,,<,10rpyjhgarwr0ypghfpyrccccccccccccccccccccc",
"cccfetuuuyrw011ww1ygfywugaprrr0pygfpyrkhjhcccccccccccccccccc",
"ccfppafpiyytw00wr:tfap0eupywyweprppywhxlkkfccccccccccccccccc",
"cayghjjhpyyyr01wr0rpuyraruruaywyypyrwkljjjhpcccccccccccccccc",
"cjaghhjhggppyw>1er%ttr0hjpphhgyrypr0pgghhgfpwccccccccccccccc",
"ppapgghjhggppy1=,0:%1w1ihlhhgprrpyrrgfffappywqcccccccccccccc",
"yyyyppggjhgpyyr,%=:*%*<0igkhgpywur0aaaapiyrwq1cccccccccccccc",
"<q0typppghgpytr0,*%**%yretkhhgyrrwrpffppppuw01cccccccccccccc",
">100rtyypggptrwe,,>%%0gzfuhfggywwwtifhhfpppurrcccccccccccccc",
"c=100rrryppitwqe001,*pkhppgfffr<0wryuhkkggpfiipccccccccccccc",
"cc=10rerrtyyyt0ww001epgpifggpy<,0wrtypfhkfahfpupcccccccccccc",
"ccccr100d5rrrr0qrw00wppyipgpyw*,0wwrryuaghfahgpipccccccccccc",
"ccccc>7899Owwww0reew0uyrpppyr0=,0wwrrtyupppfphgpupcccccccccc",
"ccccccccc2o000wwwree<twyyyyrw1*>1weyyttttrtuagggppcccccccccc",
"cccccccccc  001rwrrr1wyyrew0w=%:<1rwupyteewyuagggppycccccccc",
"ccccccccccc  r00eerw1wyrw01w1%X:>>0yyeupiyw0ruapggpyrccccccc",
"cccccccccccc  r00rrryrrew1weXXXXX<>rpyyetepr1wtupggpircccccc",
"cccccccccccccO2;0yypprewwweXXXXXXX:=rppytetyy01rryappir0cccc",
"cccccccccccc.osrryikpyrweyXXXXXXXXXX=wyppye00rw1wrrfapgi001c",
"cccccccccccs-10rwihkhpyey=XXXXXXXXXX%%:::,<0q01w0reygpfggiq1",
"ccccccccccc10rwrrihgfpy<c=XXXXXXXXXXXXccccc::<000e0wgpyfgi0q",
"ccccccccccccp>1rriyppyrwcc====**XXXXXXcccccccc<<11y0pa1uirq1",
"cccccccccccccp>rrwryyr1cccww10:===*XXXccccccccccc11eug1rurqc",
"cccccccccccccc:rwryyr0ccc1www00w:=***Xccccccccccccc1eug1yw&c",
"cccccccccccccc1w0wyp0ccc1wwr0e0011::Xccccccccccccccc1tugqe#c",
"cccccccccccccc,0<wyp0ccw0rrrwy0<11*Xcccccccccccccccc1tupyw#c",
"ccccccccccccccw1crrryc1rryyrer1><<1ccccccccccccccccc1tuyy1#c",
"cccccccccccccccccy01c1ryyree01,01cccccccccccccccccccqtyey0#c",
"ccccccccccccccccccyywryyrww0<,<cccccccccccccccccccccqpyry0#c",
"cccccccccccccccccc1wrrrew01,1yccccccccccccccccccccccyprry0&c",
"cccccccccccccccy00rryew01<10cccccccccccccccccccccccypppiyr1c",
"cccccccccccccc<1wrrrrw1<1ecccccccccccccccccccccccccyfphpyr1c",
"ccccccccccccc11erree011yccccccccccccccccccccccccccyfahkgipe=",
"cccccccccccc,1<r33w01cccccccccccccccccccccccccccccyffr%%ee=&",
"ccccccccc**,1<r33@31ccccccccccccccccccccccccccyyyygfr%ss%=&c",
"cccccccc2,,0<<r3@O@ccccccccccccccccccccccccccikgligr#4696&cc",
"ccccccc2+100<***ccccccccccccccccccccccccccccc+puuw1$#4464ccc",
"cccccccccccccccccccccccccccccccccccccccccccc++2ew1$#>ccccccc",
"ccccccccccccccccccccccccccccccccccccccccccc++++w1$#>cccccccc"
};
