/* XPM */
static char *BPWAD3D7[] = {
/* columns rows colors chars-per-pixel */
"58 56 57 1 ",
"  c black",
". c #0B0B0B",
"X c #131313",
"o c #1B1B1B",
"O c #390A0A",
"+ c #3C0A0A",
"@ c #232323",
"# c #272727",
"$ c #2F2F2F",
"% c #373737",
"& c gray23",
"* c #430B0B",
"= c #471212",
"- c #4E1313",
"; c #521414",
": c #591818",
"> c #5D1C1C",
", c #493B30",
"< c #4D3F34",
"1 c #642121",
"2 c #682525",
"3 c #702A2A",
"4 c #742E2E",
"5 c #7B3232",
"6 c #594B3D",
"7 c #434343",
"8 c gray31",
"9 c gray34",
"0 c #5B5B5B",
"q c #646753",
"w c gray39",
"e c gray42",
"r c #6F6F6F",
"t c #777777",
"y c gray50",
"u c #803A3A",
"i c #873E3E",
"p c #8B4242",
"a c #934A4A",
"s c #974E4E",
"d c #9F5656",
"f c #A45E5E",
"g c #AC6666",
"h c #B06A6A",
"j c #B87272",
"k c #BC7979",
"l c #838383",
"z c #8B8B8B",
"x c #979797",
"c c #9F9F9F",
"v c #C48181",
"b c #CC8989",
"n c #D29494",
"m c #DA9C9C",
"M c #DEA3A3",
"N c #E7AFAF",
"B c None",
/* pixels */
"BBBBBBBBBBBBBBBgfhkmmbkBBBBBBBBBBBBBBBBBBBBBBBBBBBBBBBBBBB",
"BBBBBBBBBBBBBkdgddfkbbkhdBbBBBBBBBBBBBBBBBBBBBBBBBBBBBBBBB",
"BBBBBBBBBBBBdkpdbkddgkkfsagkkBBBBBBBBBBBBBBBBBBBBBBBBBBBBB",
"BBBBBBBBBBBggdpfvmnkdfgfdsddfkBBBBBBBBBBBBBBBBBBBBBBBBBBBB",
"BBBBBBBBBBgdfg3fhknnkdfggkgkfffkBBBBBBBBBBBBBBBBBBBBBBBBBB",
"BBBBBBBBBkgddk1pdhkvbkjkkgfkkgkfjBBBBBBBBBBBBBBBBBBBBBBBBB",
"BBBBBBBBBdddgd415pddssdgjkddbkgkffBBBBBBBBBBBBBBBBBBBBBBBB",
"BBBBBBBBdgfffd5:::35uipafhksgbkggffBBBBBBBBBBBBBBBBBBBBBBB",
"BBBBBBBfkggddai::::::114gbngdgbgdapBBBBBBBBBBBBBBBBBBBBBBB",
"BBBBBBfdkaiiu55441::115dgkbnkdgkkd5bbBBBBBBBBBBBBBBBBBBBBB",
"BBBBBdgff333345upddi45:idgjkkbfkbkkdbvBBBBBBBBBBBBBBBBBBBB",
"BBBBdkggfp55545upggdai*3iddfghkfbgbkpjfBBBBBBBBBBBBBBBBBBB",
"BBBBbnbkgddspp4updddsa**3iaasdkdkbdbgpgsBBBBBBBBBBBBBBBBBB",
"BBBbnnnbjjjdaap4uipppp>**:1341aahkddfpkNfBBBBBBBBBBBBBBBBB",
"BBdkbbnnbkjjddp:3444445******1hknjdggpbNMMfBBBBBBBBBBBBBBB",
"Bfdkjkkbnbkjffdi:133434::****:nbbkgbdskmmmnjBBBBBBBBBBBBBB",
"Bdggfgjkbnbkgfdp31::1131::::*:kkbkhndsjnnbvjfBBBBBBBBBBBBB",
"ghgggfgjjkbbgddpp431:1411::::*dgkkhndshvkjjfpBBBBBBBBBBBBB",
"pppdggffgjjjghdippi5411341:::*5sjkgkd5gjhfspiBBBBBBBBBBBBB",
"1uupdpaadfgjjfd5ai544431131::=1dhkggd4gjjjgphiBBBBBBBBBBBB",
"15uupp45addfjjfddp5444:::41::=*dgkgfd4fvjjvjfhiBBBBBBBBBBB",
":155uu3445ipfjjfddpi54**:>>>:=*dfkgfpphMbbkmhhjiBBBBBBBBBB",
"B::1543z94445fjjfdapp:**>>>::pkbbbkf4fjnMvgbbkmdpBBBBBBBBB",
"BBB::qwee$4i4ifjjfddp11::>>:ggkbbkgd1bjkbnkbmjbbkfBBBBBBBB",
"BBBBBBBX7@1dd1ifjgfdd5555>>fsssggfdi4hhgjjkkmnbmjgfdBBBBBB",
"BBBBBBBB.o.:gd1dfjgdgp44aBddi4aada45phhhkkbbbmkmnvdfgfBBBB",
"BBBBBBBBBB  :dd4fjgdgd51gB4p>dggd4p:phhhhkbbbmbbmnjjfgfBBB",
"BBBBBBBBBBB  :gdpjjdgdp1BBBBghgd54:34pfjhfdkkbbbmmvMjgp5BB",
"BBBBBBBBBBBB$7,gdhjdgappBBkggfa41::2444ppppdjjkkbvnMnji5BB",
"BBBBBBBBBB o@lyqkjhdfa4BBB5pp::1::OOOOO443ppddkjjjvvnjuiBB",
"BBBBBBBBBBl#tyxykjgdppdBBBBBd11:OO*OOOOOOO44ppsvkjfgjgiBBB",
"BBBBBBBBBBBzrctghfa545BBBBBBBBBB+O***OOOOOOO44pfvjsdg4iBBB",
"BBBBBBBBBBB1:wt54343pBBBBBBBBBBBB+++***OOOOOBB44uvka44BBBB",
"BBBBBBBBBBB**:144131BBBBBBBBBBBBBB+++O**OOOO+BBBuuvk2uBBBB",
"BBBBBBBBBBB:**11133dBBBBBBBBBBBBBB:+++OOO:OO+BBB4sbkuBBBBB",
"BBBBBBBBBBBB**:::1BBBBBBBBBBBBBBBBB;>++*OOOO+BB2sivfuBBBBB",
"BBBBBBBBBBBBBB**:BBBBBBBBBBBBBBBBBB11>O*;3:;+BB4dvka5BBBBB",
"BBBBBBBBBBBBBBBBBBBBBBBBBBBBBBBBBBB122O*1u:+BB2sbfa5BBBBBB",
"BBBBBBBBBBBBBBBBBBBBBBBBBBBBBBBBBBB245O*34:BBB4jssp5BBBBBB",
"BBBBBBBBBBBBBBBBBBBBBBBBBBBBBBBBBBB24u;1u1BBB;diiddiiBBBBB",
"BBBBBBBBBBBBBBBBBBBBBBBBBBBBBBBBBBu55u;34:BBB;iidbMd08BBBB",
"BBBBBBBBBBBBBBBBBBBBBBBBBBBBBBBBBBu4ii1u1BBBB;iibbjtz0BBBB",
"BBBBBBBBBBBBBBBBBBBBBBBBBBBBBBBBBB24pi34:BBBBB;iffdcczdBBB",
"BBBBBBBBBBBBBBBBBBBBBBBBBBBBBBBBBB5ia5u1BBBBBB>4pditz0BBBB",
"BBBBBBBBBBBBBBBBBBBBBBBBBBBBBBBBB2apa5u:BBBBBB;4upi*>#BBBB",
"BBBBBBBBBBBBBBBBBBBBBBBBBBBBBBBBBpaa51uBBBBBBB+>4u**>>BBBB",
"BBBBBBBBBBBBBBBBBBBBBBBBBBBBBBBB2aap4>uBBBBBBBB;>4upi1BBBB",
"BBBBBBBBBBBBBBBBBBBBBBBBBBBBBBBBapp53>BBBBBBBBB+;>4u1iBBBB",
"BBBBBBBBBBBBBBBBBBBBBBBBBBBBBBBdfffu>1BBBBBBBBBB+;341didyd",
"BBBBBBBBBBBBBBBBBBBBBBBBBBBBBBkdkkfp>1BBBBBBBBBBB+=>1i1#&&",
"BBBBBBBBBBBBBBBBBBBBBBBBBBBBBkpkf--153BBBBBBBBBBBBB=>>&&&B",
"BBBBBBBBBBBBBBBBBBBBBBBBBBBBhsif==%=1:BBBBBBBBBBBBBBBBBBBB",
"BBBBBBBBBBBBBBBBBBBBBBBBB8fhsfu1=%6%=uBBBBBBBBBBBBBBBBBBBB",
"BBBBBBBBBBBBBBBBBBBBBBBB873>5s5:-<<<=BBBBBBBBBBBBBBBBBBBBB",
"BBBBBBBBBBBBBBBBBBBBBBB87%-=1---BBBBBBBBBBBBBBBBBBBBBBBBBB",
"BBBBBBBBBBBBBBBBBBBBBBB7%$--1--BBBBBBBBBBBBBBBBBBBBBBBBBBB"
};
