/* XPM */
static char *BPWAC1[] = {
/* columns rows colors chars-per-pixel */
"40 53 53 1 ",
"  c black",
". c #390A0A",
"X c #3C0A0A",
"o c #272113",
"O c #232323",
"+ c #2F2F2F",
"@ c #373737",
"# c gray23",
"$ c #430B0B",
"% c #471212",
"& c #4E1313",
"* c #521414",
"= c #591818",
"- c #5D1C1C",
"; c #642121",
": c #682525",
"> c #702A2A",
", c #742E2E",
"< c #7B3232",
"1 c #434343",
"2 c gray28",
"3 c gray31",
"4 c gray34",
"5 c #5B5B5B",
"6 c gray39",
"7 c gray42",
"8 c #6F6F6F",
"9 c #777777",
"0 c gray50",
"q c #803A3A",
"w c #873E3E",
"e c #8B4242",
"r c #934A4A",
"t c #974E4E",
"y c #9F5656",
"u c #A45E5E",
"i c #AC6666",
"p c #B06A6A",
"a c #B87272",
"s c #BC7979",
"d c #838383",
"f c #939393",
"g c #9F9F9F",
"h c #A7A7A7",
"j c #C48181",
"k c #CC8989",
"l c #D29494",
"z c #DA9C9C",
"x c #DEA3A3",
"c c #E7AFAF",
"v c #EBB6B6",
"b c #F4C1C1",
"n c None",
/* pixels */
"nnnnnnalllljjjannsjklakjiksnnnnnnnnnnnnn",
"nnnnnujzxxlksaajklkjpsiiialkjnnnnnnnnnnn",
"nnnnttuupksajssssspssijjipasjkjsnnnnnnnn",
"nnniqtaklljsiiasjkkssijayppppuipaajsnnnn",
"nnneruasspiqypskzxxxssaiyksapupasappsann",
"nnnqetuiuyqqryakxcvvxsjiakkkspyassjspuan",
"nnn<qetrewq:qwpkzxcczkiiplxlkstiajkjsuup",
"nn<::qq,,,:::qqpkzxzzsayaxcxjatypsjkjute",
"nn<==::::::&:qqeyakklpjyslxkayrtyipaat>>",
"nn<$&&&&&&&=:re<qtpssttraasutwerrtttr,-=",
"nn==ooooXX&==req,,qpstyrsitq><wrewqq<==:",
"nn=%ooXXXX&=:<erqqpzstyystq,,,erq,>:===n",
"nn*%oXXXX&&::rtipakliytysst>>qrq>;-==:en",
"nn*%XXXXX&&:rupppuiiyjtykjsatetq;===:wen",
"nn*%XXXXX&-wuszlksiipitylzzxattq-==:qqqn",
"nuX*XXoXX*-euxvvxksppiylxbbvpttq-=::qr,n",
"n*%XoooX&&-eisxcvxksuiykvvczuqq;-=::qr;n",
"n**%o&XXnn&tquajkksuuuylkkkiw>;-*--:qrqn",
"n=**X%&Xnnnrqqeruiurqrtiaait>;.$&&*=<uen",
"n&:*%**=nnnqqqqqrr:qqrqqttt>-&nn%%%*:<qn",
"n-;:*;%nnnnq>ree8,g7g7q8>>>-&>nn$%%$*<<e",
"n;-=-%nnnnn-<er8h34 428h3;;-&>nn$=&;<qet",
"n<&=%%nnnnn&:<e8d4    8d4--;>*nn=<<yiity",
"n;=;%$nnnnn$;<;46@    46+->w>.n,qtyajjuy",
"n:;==$nnnnq%;>> 2+    @2 $;q-..>eaujxjye",
"r<<;;$nnnnq%%<& +      + &;>*..,tkaxkaee",
"rqw;:=nnnq,%%e:          ->*...<uxxkarew",
"<;;;;,nnnq-%$e,         &>*....,avxatewn",
"n<<<<nnnq,=XXe<         =<=....qkvxaewqn",
"nnnnnnnnq-&XXyy 8     8 ,,.....qjbkawqnn",
"nnnnnnnq,=%XXuu6f6 8 6f6ww.....abkase<nn",
"nnnnnnnq:&XXXaa8hf6f68hfyy...<abziksennn",
"nnnnnntw-%XXXii6f8fh86f8uu..tlbbzklaennn",
"nnnnnnt,=%XXXtjt,,8f6,,tjt>aaulbccauennn",
"nnnnnnuq;*XXX:ijtt,,,ttpt.taq:elvjirwnnn",
"nnnnntuw::-*XXXisjzzkjpt&.qq=.qalitewnnn",
"nnnnntue,<w,-*XXwrpaptwwn.....qzkt<<nnnn",
"nnnnnwtt<wtw,*X*nnnnnnnnnn..ttzjt>u,nnnn",
"nnnnnwetqwit,**nnnnnnnnnnn..&q,&q<u<nnnn",
"nnnnnnwtwwii,**nnnnnnnnnnnn.&&.ku<<<nnnn",
"nnnnnnweetji,-*nnnnnnnnnnnn.&&<<<<<nnnnn",
"nnnnnnnwepjiq-*nnnnnnnnnnnn&&>**.nnnnnnn",
"nnnnnnnerjliq-**nnnnnnnnnnn*;>:=.nnnnnnn",
"nnnnnnnrtjliw-**nnnnnnnnnn**;tw:-*nnnnnn",
"nnnnnnntpjlaw-*Xnnnnnnnnn2**wssw:*2nnnnn",
"nnnnnnuypjlaw>*q*nnnnnnnn &.y..t:. nnnnn",
"nnnnnywtkzki,q:iqnnnnnnnnnn.#7#.:nnnnnnn",
"nnnniwtsxxzsw,-iky:nnnnnnnn**#OO*nnnnnnn",
"nn86wws<<><<w,*ytwg8nnnnnnnnnnnnnnnnnnnn",
"n864wt<9fgf9<,&w,=866nnnnnnnnnnnnnnnnnnn",
"n64O<<*50g01*q$$$*666nnnnnnnnnnnnnnnnnnn",
"nnnnnn*2707@O<nnnnnnnnnnnnnnnnnnnnnnnnnn",
"nnnnnnn#25#Onnnnnnnnnnnnnnnnnnnnnnnnnnnn"
};
