/* XPM */
static char *BPWAC2C8[] = {
/* columns rows colors chars-per-pixel */
"54 52 53 1 ",
"  c black",
". c #070707",
"X c #0B0B0B",
"o c #1B1B1B",
"O c #3C0A0A",
"+ c #2F2F2F",
"@ c #373737",
"# c gray23",
"$ c #430B0B",
"% c #4D0D0D",
"& c #471212",
"* c #4E1313",
"= c #521414",
"- c #591818",
"; c #5D1C1C",
": c #642121",
"> c #682525",
", c #702A2A",
"< c #742E2E",
"1 c #7B3232",
"2 c #434343",
"3 c gray28",
"4 c #4B4B4B",
"5 c gray31",
"6 c gray34",
"7 c #5B5B5B",
"8 c gray39",
"9 c gray42",
"0 c #6F6F6F",
"q c #777777",
"w c #803A3A",
"e c #873E3E",
"r c #8B4242",
"t c #934A4A",
"y c #974E4E",
"u c #9F5656",
"i c #A45E5E",
"p c #AC6666",
"a c #B06A6A",
"s c #B87272",
"d c #BC7979",
"f c #838383",
"g c #8B8B8B",
"h c #939393",
"j c #979797",
"k c #9F9F9F",
"l c #C48181",
"z c #CC8989",
"x c #D29494",
"c c #DA9C9C",
"v c #DEA3A3",
"b c #E7AFAF",
"n c None",
/* pixels */
"nnnnnnnnnnnnnnnnnzpzpxznnnnnnnnnnnnnnnnnnnnnnnnnnnnnnn",
"nnnnnnnnnnnnnnnnldeidepzznnnnnnnnnnnnnnnnnnnnnnnnnnnnn",
"nnnnnnnnnnnnnnntpeszdxzsilnnnnnnnnnnnnnnnnnnnnnnnnnnnn",
"nnnnnnnnnnnnnnzldexlsdzzsllxnnnnnnnnnnnnnnnnnnnnnnnnnn",
"nnnnnnnnnnnniippeszlssslzxxlznnnnnnnnnnnnnnnnnnnnnnnnn",
"nnnnnnnnnpppaldyixllsiszxxzxclznnnnnnnnnnnnnnnnnnnnnnn",
"nnnnnnnniassaeyizxzlsiszcxlzxblinnnnnnnnnnnnnnnnnnnnnn",
"nnnnnnnrissldeixxzzxsysxbczszxlitnnnnnnnnnnnnnnnnnnnnn",
"nnnnnneryildyzxllxxxs1pxccsislsrtynnnnnnnnnnnnnnnnnnnn",
"nnnnn,wwrryysxsszvzss<ussssissirw,nnnnnnnnnnnnnnnnnnnn",
"nnnnn,,w1ypsxlsisliisw1tyuiisirrwwnnnnnnnnnnnnnnnnnnnn",
"nnnnnn>,ldizzsyyyyyypr,1etyyiyttu,nnnnnnnnnnnnnnnnnnnn",
"nnnnnnn1yisssiirwrryuur11wryyyrip1nnnnnnnnnnnnnnnnnnnn",
"nnnnnnnldilzxlsirrryipsyw11ruiazxyznnnnnnnnnnnnnnnnnnn",
"nnnnnndyslxbxdaittyipslieissssllbsyznnnnnnnnnnnnnnnnnn",
"nnnnldyssxbxdzsiiiisslsawyszbzsslsrlrnnnnnnnnnnnnnnnnn",
"nnnslyszxxzdzzsiriiassai,wizsiispurpyynnnnnnnnnnnnnnnn",
"nnssyszxzzzzzsiyr:wwtuuy1:wiytyliywitrlinnnnnnnnnnnnnn",
"nsxysxszxbxzzsiyrt:,1wrrw,:wwryixstppylsynnnnnnnnnnnnn",
"izzilisxxxlzsiyrwwr<:<1ww,=;1ruyzbsisussuwnnnnnnnnnnnn",
"szxiyispiipssiyrwe>1->>,<;*=*>siuzsysyppuwnnnnnnnnnnnn",
"yszryyrwwwyiiyrwwe<><-:;;****1xzliitayiiywnnnnnnnnnnnn",
"nyirtrw>,,wyyrwwyiy,>,-***--*uzbzsyysyyye,nnnnnnnnnnnn",
"nnt>><;::,,rrwryiiy>,<$$$-,,:sbxsiiasyyyy,nnnnnnnnnnnn",
"nnn;*-::076jw1rissy><*O$&>111sxsyrsziryyuuunnnnnnnnnnn",
"nnnn:-:g6o.78<wryyr<-$$=><wrrsltwibsi<eyaapinnnnnnnnnn",
"nnnnnn-69  o3wwrwww1,$$1ww1wyiywrbxsrweupsapinnnnnnnnn",
"nnnnnnn,4-  .Xwr1<www*$w1w1rytrwszly1,1ypssapinnnnnnnn",
"nnnnnnnn:%    Xwwwwrw,-1rr1yyyyilsy11,,1yipsapynnnnnnn",
"nnnnnnnnn-$    wrrwww1,1ytysiiysir1:=11wwyiiiuutnnnnnn",
"nnnnnnnnnn-   2oyrrrww<1yrszcsiyr1:==:wyierwtyuywnnnnn",
"nnnnnnnnnni# +4hryrrww1yszcxziyr<-*$=>wwyiwwwyppsyrnnn",
"nnnnnnnnnnrg708hqryywwizzvbxsiy1&$,**=>wwyyrw1ypissrnn",
"nnnnnnnnnnrgf9kqriiiwytslbvssiy-&$nn,**:>111wwwulaisrn",
"nnnnnnnnnnr3,,f0yssiy11slxzssy1*&$nnnn1**:>wwwrrpxaisr",
"nnnnnnnnnnn,::rrisirrwezlissyt-&&$nnnnnnr**:,wtrraxtir",
"nnnnnnnnnnn<rrttuyeyrezsisiyyw*$$$nnnnnnnn1*:>eitpxwir",
"nnnnnnnnnnnn1wrrweynnysiisiiw;*$$$nnnnnnnnne*>1iuyzwyr",
"nnnnnnnnnnnnnnnnnnnnsiywtzsi>-=&$nnnnnnnnnnnne1uaizy,n",
"nnnnnnnnnnnnnnnnnnnnwyw,,zsi*-*$,nnnnnnnnnnnnnetpssiwn",
"nnnnnnnnnnnnnnnnnnnn<1n-<sit*=**nnnnnnnnnnnnnntupssy1n",
"nnnnnnnnnnnnnnnnnnnnnnw-:yr1***,nnnnnnnnnnnnnnetlasi1n",
"nnnnnnnnnnnnnnnnnnnnnwuyy,<***:nnnnnnnnnnnnnnntuadaswn",
"nnnnnnnnnnnnnnnnnnnnyyiie***=>nnnnnnnnnnnnnnnnttpsai1n",
"nnnnnnnnnnnnnnnnnnnwuiye---*1nnnnnnnnnnnnnnnnntpsxdrwn",
"nnnnnnnnnnnnnnnnnnyiiye:-:-rnnnnnnnnnnnnnnnnntisxxzt<n",
"nnnnnnnnnnnnnnnryyiaye,::,ynnnnnnnnnnnnnnnettupdr--r<n",
"nnnnnnnnnnnrrdddddarw1,,wnnnnnnnnnnnnnnnn@etuaai-9q9<n",
"nnnnnnnnnrq83yradartpywnnnnnnnnnnnnnnnnn@e>ediyr-797-n",
"nnnnnnnnn576q6ytptr3q9rnnnnnnnnnnnnnnnnnn775>e<--57@nn",
"nnnnnnnnn3+863ti-y55675nnnnnnnnnnnnnnnnnn752@>-nnnnnnn",
"nnnnnnnnnnn63#<<-<53#+3nnnnnnnnnnnnnnnnnn52@@>nnnnnnnn"
};
