/* XPM */
static char *BPWAA5[] = {
/* columns rows colors chars-per-pixel */
"35 54 38 1 ",
"  c black",
". c #390A0A",
"X c #3C0A0A",
"o c #232323",
"O c #2F2F2F",
"+ c #430B0B",
"@ c #471212",
"# c #4E1313",
"$ c #521414",
"% c #591818",
"& c #5D1C1C",
"* c #642121",
"= c #682525",
"- c #702A2A",
"; c #742E2E",
": c #7B3232",
"> c gray28",
", c gray34",
"< c gray39",
"1 c #803A3A",
"2 c #873E3E",
"3 c #8B4242",
"4 c #934A4A",
"5 c #974E4E",
"6 c #9F5656",
"7 c #A45E5E",
"8 c #AC6666",
"9 c #B06A6A",
"0 c #B87272",
"q c #BC7979",
"w c #C48181",
"e c #CC8989",
"r c #D29494",
"t c #DA9C9C",
"y c #DEA3A3",
"u c #E7AFAF",
"i c #EBB6B6",
"p c None",
/* pixels */
"ppppppppppppppppp111ppppppppppppppp",
"ppppppppppqee09748rq1pppppppppppppp",
"ppppp00770ryyeq948rr37777777ppppppp",
"ppp8qryyt70yyyrq46wr379qqq9986ppppp",
"pp7qwyyte950eryw75qr59errwww8606ppp",
"p769ew0768169qee0:9e79tiyrw86qe03pp",
"p6260weq4:;5680e0:5079rrww8649ee3pp",
"p26eyyrr21337680923079ww0864338933p",
"p59erreq5:6930666506690864355:633:p",
"p18qe89q9:0r97w552r66666450r6:863-p",
"p18tit609:6r95rw54y223649wrw1:0e05&",
"188iii6t9:1058wr93r28qr8wrw7:-0rw03",
"15qeeq6i9=;5850we3r28qr0te71-$9rw92",
"=:56669t5=:85350w503er90073-+$4w95$",
"=::333332*4325750385ww0762;++$1973X",
"=:3::53:=:2;:2579789090w963+X&;471X",
"=:58563=*2:=;:2597890754453@&%;11$p",
"=:5005=$*:$&=;:25909578073:@@&553&p",
"&:5001=pp*$&4447we58eryr07:@&$5852p",
"p=500;ppp$;58qq8800eeeew08;&@@@58;p",
"p=588;ppp#58qqqq988qqwwq86;+@&&&;-p",
"p=585;6qp#468qeq8569q0865--%&&%-$+p",
"p=565=;6q#2468884-36557773*;+++$++p",
"p1;65%%6q#:56664:+123580q72;p++++pp",
"pp=165+66#-4442::+1:40ereq4;ppppppp",
"pp+;1656;##3683:-+;44qereq6;ppppppp",
"ppp+;;;;p#%1673:=+;35qeweq82;pppppp",
"ppppppppp$&1663-&+:35qeweq83:pppppp",
"ppppppppp%&1663-$+225q00wq952pppppp",
"ppppppppp%&1641=#+456089q075;pppppp",
"ppppppppp%&164;=#+5868wt8855:pppppp",
"pppppppp#&=1641-#+686wtue825:pppppp",
"pppppppp#131641-#-878tuu8;55ppppppp",
"pppppppp#;;886;-#-0650e05;7:ppppppp",
"pppppppp##;686=;-:082:55158:ppppppp",
"pppppppp##+:6:###12e5*25585:ppppppp",
"ppppppppp#+####..p:05=2556:pppppppp",
"ppppppppp#+####..p175;2262:pppppppp",
"pppppppppp+####..p155;115:ppppppppp",
"pppppppppp#+###..p1-2;115:ppppppppp",
"ppppppppppp####.ppp&-:115:ppppppppp",
"ppppppppppp.$##.ppp&-:;:6:ppppppppp",
"ppppppppppp#%##.ppp&=:;28:ppppppppp",
"pppppppppp$&###.$pp-=1138:ppppppppp",
"ppppppppp>$####.#>p-21158:ppppppppp",
"ppppppppp .####.. :822468:ppppppppp",
"ppppppppppp#####pp5822468:ppppppppp",
"ppppppppppppppppp650256085ppppppppp",
"pppppppppppppppp8250570e056pppppppp",
"pppppppppppppp<<2257780r0528ppppppp",
"pppppppppppppO,,2;119qre7522<<ppppp",
"pppppppppppppooo;+#&557711;2,,Opppp",
"pppppppppppppp+++++&&&&&&#+;ooopppp",
"ppppppppppppppppp&#+++++++&pppppppp"
};
