/* XPM */
static char *BPWAC5[] = {
/* columns rows colors chars-per-pixel */
"35 54 38 1 ",
"  c black",
". c #390A0A",
"X c #3C0A0A",
"o c #232323",
"O c #2F2F2F",
"+ c #430B0B",
"@ c #471212",
"# c #4E1313",
"$ c #521414",
"% c #591818",
"& c #5D1C1C",
"* c #642121",
"= c #682525",
"- c #702A2A",
"; c #742E2E",
": c #7B3232",
"> c gray28",
", c gray34",
"< c gray39",
"1 c #803A3A",
"2 c #873E3E",
"3 c #8B4242",
"4 c #934A4A",
"5 c #974E4E",
"6 c #9F5656",
"7 c #A45E5E",
"8 c #AC6666",
"9 c #B06A6A",
"0 c #B87272",
"q c #BC7979",
"w c #C48181",
"e c #CC8989",
"r c #D29494",
"t c #DA9C9C",
"y c #DEA3A3",
"u c #E7AFAF",
"i c #EBB6B6",
"p c None",
/* pixels */
"ppppppppppppppp111ppppppppppppppppp",
"pppppppppppppp1qr84790eeqpppppppppp",
"ppppppp77777773rr849qeyyr07700ppppp",
"ppppp6899qqq973rw64qryyy07tyyrq8ppp",
"ppp6068wwwrre95rq57wyre059etyywq7pp",
"pp30eq68wryit97e9:0eeq9618670we967p",
"pp3ee9468wwrr9705:0e0865;:4qew0626p",
"p3398334680ww97032908673312rryye62p",
"p:336:5534680966056660396:5qerre95p",
"p-368:6r05466666r255w79r0:9q98eq81p",
"&50e0:1wrw946322y45wr59r6:906tit81p",
"30wr0-:7wrw8rq82r39rw8501:9t6iii881",
"29wr9$-17et0rq82r3ew0585;=9i6qeeq51",
"$59w4$+-37009re305w05358:=5t96665:=",
"X3791$++;2670ww5830575234*233333::=",
"X174;&X+369w0909879752:;2:=:35::3:=",
"p$11;%&@3544570987952:;=:2*=36585:=",
"p&355&@@:37087590952:;=&$:*$=5005:=",
"p2585$&@:70ryre85ew7444&$*pp=1005:&",
"p;85@@@&;80weeee0088qq85;$ppp;005=p",
"p-;&&&@+;68qwwqq889qqqq85#ppp;885=p",
"p+$-%&&%--5680q9658qeq864#pq6;585=p",
"p++$+++;*37775563-4888642#q6;=565=p",
"pp++++p;27q085321+:46665:#q6%%56;1p",
"ppppppp;4qere04:1+::2444-#66+561=pp",
"ppppppp;6qereq44;+-:3863##;6561;+pp",
"pppppp;28qeweq53;+=:3761%#p;;;;+ppp",
"pppppp:38qeweq53:+&-3661&$ppppppppp",
"pppppp259qw00q522+$-3661&%ppppppppp",
"pppppp;570q980654+#=1461&%ppppppppp",
"pppppp:5588tw8685+#=;461&%ppppppppp",
"pppppp:528eutw686+#-1461=&#pppppppp",
"ppppppp55;8uut878-#-146131#pppppppp",
"ppppppp:7;50e0560-#-;688;;#pppppppp",
"ppppppp:85155:280:-;=686;##pppppppp",
"ppppppp:58552*5e21###:6:+##pppppppp",
"pppppppp:6552=50:p..####+#ppppppppp",
"pppppppp:2622;571p..####+#ppppppppp",
"ppppppppp:511;551p..####+pppppppppp",
"ppppppppp:511;2-1p..###+#pppppppppp",
"ppppppppp:511:-&ppp.####ppppppppppp",
"ppppppppp:6:;:-&ppp.##$.ppppppppppp",
"ppppppppp:82;:=&ppp.##%#ppppppppppp",
"ppppppppp:8311=-pp$.###&$pppppppppp",
"ppppppppp:85112-p>#.####$>ppppppppp",
"ppppppppp:864228: ..####. ppppppppp",
"ppppppppp:8642285pp#####ppppppppppp",
"ppppppppp580652056ppppppppppppppppp",
"pppppppp650e0750528pppppppppppppppp",
"ppppppp8250r0877522<<pppppppppppppp",
"ppppp<<2257erq911;2,,Oppppppppppppp",
"ppppO,,2;117755&#+;oooppppppppppppp",
"ppppooo;+#&&&&&&+++++pppppppppppppp",
"pppppppp&+++++++#&ppppppppppppppppp"
};
