/* XPM */
static char *BPWAA4A6[] = {
/* columns rows colors chars-per-pixel */
"53 53 44 1 ",
"  c #390A0A",
". c #3C0A0A",
"X c #272727",
"o c #373737",
"O c gray23",
"+ c #430B0B",
"@ c #471212",
"# c #4E1313",
"$ c #521414",
"% c #591818",
"& c #5D1C1C",
"* c #642121",
"= c #682525",
"- c #702A2A",
"; c #742E2E",
": c #7B3232",
"> c #434343",
", c gray31",
"< c gray34",
"1 c #5B5B5B",
"2 c gray39",
"3 c gray42",
"4 c #777777",
"5 c gray50",
"6 c #803A3A",
"7 c #873E3E",
"8 c #8B4242",
"9 c #934A4A",
"0 c #974E4E",
"q c #9F5656",
"w c #A45E5E",
"e c #AC6666",
"r c #B06A6A",
"t c #B87272",
"y c #BC7979",
"u c #A7A7A7",
"i c #C48181",
"p c #CC8989",
"a c #D29494",
"s c #DA9C9C",
"d c #DEA3A3",
"f c #E7AFAF",
"g c #EBB6B6",
"h c None",
/* pixels */
"hhhhhhhhhhhhhhhhhhhsshhhhhhhhhhhhhhhhhhhhhhhhhhhhhhhh",
"hhhhhhhhhhhhhhhhhyiaaishhhhhhhhhhhhhhhhhhhhhhhhhhhhhh",
"hhhhhhhhhhhhhwwwertttqeiseppiqhhhhhhhhhhhhhhhhhhhhhhh",
"hhhhhhhhhhhhwwqwiaaaitqqyseespeqhhhhhhhhhhhhhhhhhhhhh",
"hhhhhhtiiaasdfdsasaapiteqei0qetqqhhhhhhhhhhhhhhhhhhhh",
"hhhhhwiaaaaasdfirasdspiteqet00qr08hhhhhhhhhhhhhhhhhhh",
"hhhh0iaiasaassirqqrpppiytt0ee08006hhhhhhhhhhhhhhhhhhh",
"hhhwettiiaaiiyrre0qryiyttrt0et06068hhhhhhhhhhhhhhhhhh",
"hhh70eeeerasfiippr960wweeeeq7qew660hhhhhhhhhhhhhhhhhh",
"hhh;900000rsfddddaw666099997:7ti0778hhhhhhhhhhhhhhhhh",
"hhhh:6899qydsfgfddaw==;;77qq0:8qe8wr0hhhhhhhhhhhhhhhh",
"hhhh;;:6-ryiaaaaptdiw==6qtiyytq8t0rar0hhhhhhhhhhhhhhh",
"hhhhh.@=-wrtipppywett;%0tpfsiyw68e0r00hhhhhhhhhhhhhhh",
"hhhhh;++=0wweyyywwqeq9=9ttpiew6668e766hhhhhhhhhhhhhhh",
"hhhh*88.@:qqqwyeqqtyy8=:9tr0rippit0tte7:hhhhhhhhhhhhh",
"hhhh*ee:.@6699eeqqappi0=-709issfdaiwitw0:hhhhhhhhhhhh",
"hhh-**qe:@@@69tswtpdddq###&9ipsdspt0iit07hhhhhhhhhhhh",
"hh--**qq6$ @@;tp80tggdq:##89tipppitw0tw067hhhhhhhhhhh",
"h---*888:$@.@$wy860qqqq7+&89eyiiitw08tw867hhhhhhhhhhh",
"h;-*-;::&&&&.@9r686====8&67wwryttw08:w0769hhhhhhhhhhh",
"-::6689;=***=@-0q806==9q;60ttttww086=6-;69hhhhhhhhhhh",
"-::6799::====.$9eqq7;7qe;60yaitw006:#=;;;7hhhhhhhhhhh",
";;:67890:::==$ 9e0t00eie;7ryaitw006==89086hhhhhhhhhhh",
"h;;6::6696:=@  ;00reeeyw;7tiait0tw;=9qrtt0hhhhhhhhhhh",
"hhh::::86066=  $90weeetw;0tpait0pe#:0wtiat0hhhhhhhhhh",
"hhhh8::9666-$$$$;00wttr98wtiitw6pe*;0wtypat0hhhhhhhhh",
"hhhhhh0666***$$$$770rtq87wtitr08tw#-7wrtipatwhhhhhhhh",
"hhhhhhhh$=***$$$$7e0wtq77wetee80t0#;:0weyipaw0hhhhhhh",
"hhhhhhhhh$**&$$$00e0wr77qeetew8tw7#*;60wiytyyq0hhhhhh",
"hhhhhhhhhh$&$&$0tirwwe66qwwttw8e06+*;680wpyrtw0hhhhhh",
"hhhhhhhhhh$$&$$t:wrwww;6qwwtt09e96#$*-:60wywryw0hhhhh",
"hhhhhhhhhhh$$$$0:tiywy=6wt0tt0qw96##$-;;:7w00ryw0hhhh",
"hhhhhhhhhhh$$$$$0epyrp&qtt0tt0eq9hh$&*;;;:768wtie0hhh",
"hhhhhhhhhhhh$$$ $ws-w7&wtwwtiwt09hhhh$&*:;:;6weape0hh",
"hhhhhhhhhhhhhhhh     #7titrwitt99hhhhhh$&:7=60epat:hh",
"hhhhhhhhhhhhhhhhhhhh#&7ewwt9itw9hhhhhhhhh$:9-00eie=hh",
"hhhhhhhhhhhhhhhhhhhh%9wq9qw8tt06hhhhhhhhhh-79-7qeq=hh",
"hhhhhhhhhhhhhhhhhhh##8q080q86:-hhhhhhhhhhh-0r9-67;-hh",
"hhhhhhhhhhhhhhhhhhh%*80870q8:-hhhhhhhhhhhhh-wr:-==-hh",
"hhhhhhhhhhhhhhhhhhh:::866wq66hhhhhhhhhhhhhhh;w0-8=:hh",
"hhhhhhhhhhhhhhhhhhh8:;660r0hhhhhhhhhhhhhhhhh6q9---7hh",
"hhhhhhhhhhhhhhhhhhq86-;0r0hhhhhhhhhhhhhhhhhh6w0:6-6hh",
"hhhhhhhhhhhhhhhhhw87:-0r7hhhhhhhhhhhhhhhhhhh6w0:0:6hh",
"hhhhhhhhhhhhhhhhw986;7w7hhhhhhhhhhhhhhhhhhh7ir08:86hh",
"hhhhhhhhhhhhhhrwq086808hhhhhhhhhhhhhhhhhhhh8ay99t07hh",
"hhhhhhhhhhhhrrtrwq0886%hhhhhhhhhhhhhhhhhhh0rai00iw6hh",
"hhhhhhhhhhrw060trw08*%%hhhhhhhhhhhhhhhhtaddaiiweie9hh",
"hhhhhhhhho063168rw86=*%%hhhhhhhhhhhhhhh253aiwteiaie,h",
"hhhhhhhho9631,o6q96:==o%hhhhhhhhhhhhhhou33>twwiaaat2,",
"hhhhhhhho961,oo6666:hhhhhhhhhhhhhhhhhto43,>w660ww0;,,",
"hhhhhhhhhhhhhhhhhhhhhhhhhhhhhhhhhhhh>0XXXXX6======$oo",
"hhhhhhhhhhhhhhhhhhhhhhhhhhhhhhhhhhh<O:-$$$$;===$$hhhh",
"hhhhhhhhhhhhhhhhhhhhhhhhhhhhhhhhhhh<o-$$$$$$$$$hhhhhh"
};
