/* XPM */
static char *BPWAA1[] = {
/* columns rows colors chars-per-pixel */
"40 53 53 1 ",
"  c black",
". c #390A0A",
"X c #3C0A0A",
"o c #272113",
"O c #232323",
"+ c #2F2F2F",
"@ c #373737",
"# c gray23",
"$ c #430B0B",
"% c #471212",
"& c #4E1313",
"* c #521414",
"= c #591818",
"- c #5D1C1C",
"; c #642121",
": c #682525",
"> c #702A2A",
", c #742E2E",
"< c #7B3232",
"1 c #434343",
"2 c gray28",
"3 c gray31",
"4 c gray34",
"5 c #5B5B5B",
"6 c gray39",
"7 c gray42",
"8 c #6F6F6F",
"9 c #777777",
"0 c gray50",
"q c #803A3A",
"w c #873E3E",
"e c #8B4242",
"r c #934A4A",
"t c #974E4E",
"y c #9F5656",
"u c #A45E5E",
"i c #AC6666",
"p c #B06A6A",
"a c #B87272",
"s c #BC7979",
"d c #838383",
"f c #939393",
"g c #9F9F9F",
"h c #A7A7A7",
"j c #C48181",
"k c #CC8989",
"l c #D29494",
"z c #DA9C9C",
"x c #DEA3A3",
"c c #E7AFAF",
"v c #EBB6B6",
"b c #F4C1C1",
"n c None",
/* pixels */
"nnnnnnnnnnnnnskijkalkjsnnajjjllllannnnnn",
"nnnnnnnnnnnjklaiiispjklkjaasklxxzjunnnnn",
"nnnnnnnnsjkjsapijjisspsssssjaskpuuttnnnn",
"nnnnsjaapiuppppyajisskkjsaiisjllkatqinnn",
"nnasppasapupaskyiassxxxzkspyqipssaurennn",
"naupsjssaypskkkaijsxvvcxkayrqqyuiuteqnnn",
"puusjkjaitsklxlpiikzccxzkpwq:qwerteq<nnn",
"etujkjspytajxcxayaszzxzkpqq:::,,,qq::<nn",
">>taapiytryakxlsyjplkkayeqq:&::::::==<nn",
"=-,rtttrrewtusaarttssptq<er:=&&&&&&&$<nn",
":==<qqwerw<>qtisrytspq,,qer==&XXoooo==nn",
"n===:>,qre,,,qtsyytszpqqre<:=&XXXXoo%=nn",
"ne:==-;>qrq>>tssytyilkapitr::&&XXXXo%*nn",
"new:===;qtetasjkytjyiiupppur:&&XXXXX%*nn",
"nqqq:==-qttaxzzlytipiisklzsuw-&XXXXX%*nn",
"n,rq::=-qttpvbbxlyippskxvvxue-*XXoXX*Xun",
"n;rq::=-;qquzcvvkyiuskxvcxsie-&&XoooX%*n",
"nqrq:--*-;>wikkklyuuuskkjauqt&nnXX&o%**n",
"neu<=*&&$.;>tiaaitrqruiureqqrnnnX&%X**=n",
"nq<:*%%%nn&->tttqqrqq:rrqqqqqnnn=**%*:&n",
"e<<*$%%$nn>&->>>8q7g7g,8eer>qnnnn%;*:;-n",
"teq<;&=$nn>&-;;3h824 43h8re<-nnnnn%-=-;n",
"ytiiy<<=nn*>;--4d8    4d8e<:&nnnnn%%=&<n",
"yujjaytq,n.>w>-+64    @64;<;$nnnnn$%;=;n",
"eyjxjuae>..-q;$ 2@    +2 >>;%qnnnn$==;:n",
"eeakxakt,..*>;& +      + &<%%qnnnn$;;<<r",
"werakxxu<...*>-          :e%%,qnnn=:;wqr",
"nwetaxva,....*>&         ,e$%-qnnn,;;;;<",
"nqweaxvkq....=<=         <eXX=,qnnn<<<<n",
"nnqwakbjq.....,, 8     8 yyXX&-qnnnnnnnn",
"nn<esakba.....ww6f6 8 6f6uuXX%=,qnnnnnnn",
"nnneskizba<...yyfh86f6fh8aaXXX&:qnnnnnnn",
"nnnealkzbblt..uu8f68hf8f6iiXXX%-wtnnnnnn",
"nnneuaccbluaa>tjt,,6f8,,tjtXXX%=,tnnnnnn",
"nnnwrijvle:qat.tptt,,,ttji:XXX*;qunnnnnn",
"nnnwetilaq.=qq.&tpjkzzjsiXXX*-::wutnnnnn",
"nnnn<<tkzq.....nwwtpaprwXX*-,w<,eutnnnnn",
"nnnn,u>tjztt..nnnnnnnnnn*X*,wtw<ttwnnnnn",
"nnnn<u<q&,q&..nnnnnnnnnnn**,tiwqtewnnnnn",
"nnnn<<<uk.&&.nnnnnnnnnnnn**,iiwwtwnnnnnn",
"nnnnn<<<<<&&.nnnnnnnnnnnn*-,ijteewnnnnnn",
"nnnnnnn.**>&&nnnnnnnnnnnn*-qijpewnnnnnnn",
"nnnnnnn.=:>;*nnnnnnnnnnn**-qiljrennnnnnn",
"nnnnnn*-:wt;**nnnnnnnnnn**-wiljtrnnnnnnn",
"nnnnn2*:wssw**2nnnnnnnnnX*-waljptnnnnnnn",
"nnnnn .:t..y.& nnnnnnnn*q*>waljpyunnnnnn",
"nnnnnnn:.#7#.nnnnnnnnnnqi:q,ikzktwynnnnn",
"nnnnnnn*OO#**nnnnnnnn:yki-,wszxxstwinnnn",
"nnnnnnnnnnnnnnnnnnnn8gwty*,w<<><<sww68nn",
"nnnnnnnnnnnnnnnnnnn668=,w&,<9fgf9<tw468n",
"nnnnnnnnnnnnnnnnnnn666*$$$q*10g05*<<O46n",
"nnnnnnnnnnnnnnnnnnnnnnnnnn<O@7072*nnnnnn",
"nnnnnnnnnnnnnnnnnnnnnnnnnnnnO#52#nnnnnnn"
};
