/* XPM */
static char *BPWAA2A8[] = {
/* columns rows colors chars-per-pixel */
"54 55 57 1 ",
"  c black",
". c #070707",
"X c #0B0B0B",
"o c #131313",
"O c #1B1B1B",
"+ c #3C0B0B",
"@ c #262013",
"# c #2F2F2F",
"$ c #373737",
"% c gray23",
"& c #420C0C",
"* c #471313",
"= c #4E1414",
"- c #511515",
"; c #581919",
": c #5C1D1D",
"> c #632222",
", c #672626",
"< c #6E2A2A",
"1 c #722E2E",
"2 c #7A3333",
"3 c #7E3A3A",
"4 c #434343",
"5 c gray28",
"6 c #4B4B4B",
"7 c gray31",
"8 c gray34",
"9 c #5B5B5B",
"0 c gray39",
"q c gray42",
"w c #6F6F6F",
"e c #777777",
"r c gray50",
"t c #863F3F",
"y c #8A4343",
"u c #924B4B",
"i c #964F4F",
"p c #9E5757",
"a c #A25E5E",
"s c #AA6666",
"d c #AE6A6A",
"f c #B67272",
"g c #BB7A7A",
"h c #838383",
"j c #8B8B8B",
"k c #939393",
"l c #979797",
"z c #9F9F9F",
"x c #A7A7A7",
"c c #C38282",
"v c #CB8A8A",
"b c #D19595",
"n c #D99D9D",
"m c #DEA4A4",
"M c #E6AFAF",
"N c #EBB7B7",
"B c None",
/* pixels */
"BBBBBBBBBBBBBBnvsffvmBBBBBBBBBBBBBBBBBBBBBBBBBBBBBBBBB",
"BBBBBBBBBBBBvnssiscbbbiisffffgsaBBBBBBBBBBBBBBBBBBBBBB",
"BBBBBBBBBBBvubidffvcffpsvMnvgfmbaaBBBBBBBBBBBBBBBBBBBB",
"BBBBBBBBBBBsvidauaccpdsvMnvggpvmbddffBBBBBBBBBBBBBBBBB",
"BBBBBBBBBBiififa3usffiyiigggpppaaddcfffBBBBBBBBBBBBBBB",
"BBBBBBBBBcsfidbautuaiidvbbbvfpasffcbcgggsBBBBBBBBBBBBB",
"BBBBBBBBBisidbbfgitutudcccccfysbcvvbvcsdgpBBBBBBBBBBBB",
"BBBBBBBviicdvvfgvvi31updfffggisgcbbnbbcpsgBBBBBBBBBBBB",
"BBBBBBficbdvfagvbvgi,1uaaaaaptsggcnsibgsigiBBBBBBBBBBB",
"BBBBBfiifsvfaffgvgfi,:1yiittt31tps2;anvsigpBBBBBBBBBBB",
"BBBBcytfcfbfiiiiuyy22,:133333>:;;;+;3fvgagpBBBBBBBBBBB",
"BBBByuvbfbvfiy333232ppu31,1<>:---++;<ifgdgpBBBBBBBBBBB",
"BBBBi>uccvcvfiiiy33icfaiyy3<222222--;3pfgfpBBBBBBBBBBB",
"BBBBBibvvbvbmcffaiiacgaiiyy3333322>-;3paccpBBBBBBBBBBB",
"BBBBffvbbbbbbbvfaiiassaiuyyutttt22>--1aigcaBBBBBBBBBBB",
"BBBfigbbvbbbbbvfaayiiiuy3333yyyy22>--;tiggaBBBBBBBBBBB",
"BBmsfgbvvvbbbvvfaa33333322<3uiuy222>-,cNmvaBBBBBBBBBBB",
"BBcifggvvvvvvvvfaa3222211<<33u3>i23>,cnbfmaBBBBBBBBBBB",
"Baaifffffvccvvffaiy2,--;>,3333<3i2y*,3cspmiaBBBBBBBBBB",
"iffuffaaaffcfffaaau31,-:>2221,2iyi3,,u,cccidaBBBBBBBBB",
"3ff3aayyyaaaiiipaaiy31>>1211,1i3ia>,;13aaa3paaBBBBBBBB",
"33i2322223yyuuiippiy33<<122,2y33fu33**;,a33ypaBBBBBBBB",
"233212222l8yyyuyiiy3331><222y2>ia33ipaptt323yaBBBBBBBB",
"Bi32122e$90333yyyyyy33-::11,>>1u3iiaappi3322tiBBBBBBBB",
"BB33219% .%o2333yuuuy3-*&,>>>,21iidappit22>13uBBBBBBBB",
"BBByy2w0  XO 3y3yiipu3-------><yaddpaiit22><31BBBBBBBB",
"BBBBBB30;    .iu3ipaiy-****---2adsapiiyt2<>,+1iBBBBBBB",
"BBBBBBB3%     <py3aapiy-**---<yddasipyyt2<>,+13iBBBBBB",
"BBBBBBBBB2   o42syuapiy--*--<yadaspauyyt1<,+;133sBBBBB",
"BBBBBBBBBB   XweisuapipuB-,-2adasapupyy2<<,+;1uuasBBBB",
"BBBBBBBBBB<.o$0zeddapiatBB,-ydaaspppuyy21,++;12aaasBBB",
"BBBBBBBBBB>j6eerkdvdaiatBBBypdaippuyyt21,,++>1yudaassB",
"BBBBBBBBBy:hjqxhvvvfaiptBBBtpdiaupyyt21,,++++>1ypfapaa",
"BBBBBBBBf332j0qjvccfai2BBBBtyaaypyttt1,,,++++=>1tpfaip",
"BBBBBBBBy33y2@#=2ddi32yBBBB<ttipipttt,,,BB+++=:>1tpfi<",
"BBBBBBBB<3=;;;:2upyt1iBBBBB,2tuiidit2,,BBBBB+-;;>1ifu<",
"BBBBBBBi33=2;12ppyt<iBBBBBB13fuipdit1,,BBBBBBB----ip3B",
"BBBBBBByui>==y222323BBBBBBB3fvpipd321,BBBBBBBB2::-yi<B",
"BBBBBBB3ii2;aBBBBBBBBBBBBBBfvpapdi>>,,BBBBBBBBB11:ti<B",
"BBBBBBB3f322BBBBBBBBBBBBBBgvfspdi21<BBBBBBBBBBBud2uy3B",
"BBBBBBBcy22iBBBBBBBBBBBBBgvcfsi3t<BBBBBBBBBBBBBuvip32B",
"BBBBBBBByy1BBBBBBBBBBBBBgvbccfp3<BBBBBBBBBBBBBBuduiy2B",
"BBBBBBBBBy3BBBBBBBBBBBBBgvvgfp3<BBBBBBBBBBBBBBBudiyi3B",
"BBBBBBBBBBBBBBBBBBBBBBBgvvcfp3<BBBBBBBBBBBBBBB2upiy32B",
"BBBBBBBBBBBBBBBBBBBBBBgvvvfp3<BBBBBBBBBBBBBBBB2aiiy13B",
"BBBBBBBBBBBBBBBBBBBBBBvnvcfp<BBBBBBBBBBBBBBB22dadaiiuu",
"BBBBBBBBBBBBBBBBBBBBBcnvgau3<BBBBBBBBBBBBBttdvday3llty",
"BBBBBBBBBBBBBBBBBBBBvnnvga323BBBBBBBBBBBBtpdvvfi19heq2",
"BBBBBBBBBBBBBBBBBBBvnnvgvngp2BBBBBBBBBBBhptttdgi<9999B",
"BBBBBBBBBBBBBBBB$vfvvvvgigp2q5BBBBBBBBBBeq997tdittBBBB",
"BBBBBBBBBBBBBBB$yf222fsi2ip%9z5BBBBBBBBBB9974$ttBBBBBB",
"BBBBBBBBBBBBBBB$2qzk52it;22O555BBBBBBBBBBBBBBBBBBBBBBB",
"BBBBBBBBBBBBBBBB5rzr5;22;2<>OOOBBBBBBBBBBBBBBBBBBBBBBB",
"BBBBBBBBBBBBBBBB5qrq5;;=;BBBBBBBBBBBBBBBBBBBBBBBBBBBBB",
"BBBBBBBBBBBBBBBB55555;;BBBBBBBBBBBBBBBBBBBBBBBBBBBBBBB"
};
