/* XPM */
static char *BPWAA3A7[] = {
/* columns rows colors chars-per-pixel */
"59 53 53 1 ",
"  c black",
". c #0B0B0B",
"X c #131313",
"o c #1B1B1B",
"O c #232323",
"+ c #272727",
"@ c #2F2F2F",
"# c #430B0B",
"$ c #471212",
"% c #4E1313",
"& c #521414",
"* c #591818",
"= c #5D1C1C",
"- c #493B30",
"; c #642121",
": c #682525",
"> c #702A2A",
", c #742E2E",
"< c #7B3232",
"1 c #56422C",
"2 c #434343",
"3 c gray28",
"4 c gray31",
"5 c gray34",
"6 c #5B5B5B",
"7 c #646753",
"8 c gray39",
"9 c gray42",
"0 c #6F6F6F",
"q c #777777",
"w c gray50",
"e c #803A3A",
"r c #873E3E",
"t c #8B4242",
"y c #934A4A",
"u c #974E4E",
"i c #9F5656",
"p c #A45E5E",
"a c #AC6666",
"s c #B06A6A",
"d c #B87272",
"f c #BC7979",
"g c #838383",
"h c #8B8B8B",
"j c #979797",
"k c #9F9F9F",
"l c #C48181",
"z c #CC8989",
"x c #D29494",
"c c #DA9C9C",
"v c #DEA3A3",
"b c #E7AFAF",
"n c None",
/* pixels */
"nnnnnnnnnnnnnnnndcaddddiiddappnnnnnnnnnnnnnnnnnnnnnnnnnnnnn",
"nnnnnnnnnnnnnncdialbczfpalxxlpppnnnnnnnnnnnnnnnnnnnnnnnnnnn",
"nnnnnnnnnnnnnciualcczffuiaassssssaddnnnnnnnnnnnnnnnnnnnnnnn",
"nnnnnnnnnnnncidapipiiisa<iiiiiilzzldddnnnnnnnnnnnnnnnnnnnnn",
"nnnnnnnnnnnfpdriazfxfais<iiapiialxxlfffannnnnnnnnnnnnnnnnnn",
"nnnnnnnnnncpuprtilcxxxartaplllfiipfzaispinnnnnnnnnnnnnnnnnn",
"nnnnnnnnnnsudprtypsfsffr<raafllfzipfziiainnnnnnnnnnnnnnnnnn",
"nnnnnnnnnzappurrypiiisir,;rafdfasityidisiunnnnnnnnnnnnnnnnn",
"nnnnnnnncuppuy<retuurrr,>**,rtiyu;;uxdisxinnnnnnnnnnnnnnnnn",
"nnnnnnnfpaapur,rreeeee<>;;;*****,;;ydzfixiunnnnnnnnnnnnnnnn",
"nnnnnnnsuapyre:,<,<=****>yyxxpieee*>udfsflinnnnnnnnnnnnnnnn",
"nnnnnncaapytr:*:,uut<=**,eypdsiuue,;<idfdlinnnnnnnnnnnnnnnn",
"nnnnnspaapyytr:*<updpu>=,eeuiiutye,,<<ifllpnnnnnnnnnnnnnnnn",
"nnnncalddaapiur:eupppuu>=,,eyuutuepdz;raflpnnnnnnnnnnnnnnnn",
"nnncadlldddaaiu<etuuuyyt;,,,eeeuu,ppii<iffpnnnnnnnnnnnnnnnn",
"nnnadllllllddait,<ttttte<;,,,,ee,ypuutcxzzpennnnnnnnnnnnnnn",
"nnspdlccccclldap=><<<eeee>*;:<,eetyy<cxscvp<nnnnnnnnnnnnnnn",
"nncdlcccccccllapt:=:,,<,<,;:><e,eeyyeccivvu,tnnnnnnnnnnnnnn",
"ncspdlllllllllauue<>>>,<<>;:><e<eeuurddllluetnnnnnnnnnnnnnn",
"nt<tpddddddlddaytyut<>,,<,>;:<<euaaau,epppu:uennnnnnnnnnnnn",
";:e<tppppppadapttutttt:=,<,==eupapiutreuuu:=<ennnnnnnnnnnnn",
";*<<<ttyuuupadattytttte,==&=>ttyyutttt::::;&;tunnnnnnnnnnnn",
";;:<<e<tttyupaaptuiyyyyr,%=>euppiyyyttt><>$&;sunnnnnnnnnnnn",
"n;:<=:,ee,,,>paaupuippy,$%=eusdpiuuuytrr>;$&;vsunnnnnnnnnnn",
"nnn*=rurh5;*;ipdpaput<>=*&=udzpiyupuyyrr;*$&;xvdunnnnnnnnnn",
"nnnn**7899@u;epadaaputte;=eszpiuayapuyrr**$&edxvdunnnnnnnnn",
"nnnnnnn1X2Oea;eadddapuee;=edsptuayuputrr%$$$esdzvdunnnnnnnn",
"nnnnnnnnn.o.<petadddaitee:udpiytyuyuurre#$$>rzfzzxunnnnnnnn",
"nnnnnnnnnnn  ep<pdddapye<eudiytaeuuutrr:#$#<rfdzddpunnnnnnn",
"nnnnnnnnnnnn  yutaddapue,eupiyyferuurr<:###<tiadddzsunnnnnn",
"nnnnnnnnnnnnn@2-padapuu<neupuyiytuutrr>:##%>e<uupfdzzuennnn",
"nnnnnnnnnnn oOgw7aapiuenneupuys,tyurr<:=#%=:>,<<uulfdzsee<n",
"nnnnnnnnnnng+qwjw7pitetnneetuysauyurr:%=%=;;;;:,<ypzdlzzsr<",
"nnnnnnnnnnnnh0kquuu<e<nnn=><tiutpyur:nnnnn====;;;<tudplzser",
"nnnnnnnnnnnnn;8q<<<,ennnn==>eypyuuur:nnnnnnnnn====;rpuasur<",
"nnnnnnnnnnnnnu<<,,re<nnnn::eeyyyuur:nnnnnnnnnnnnn==<iuuaurn",
"nnnnnnnnnnnnn&>yyr>>nnnnn<tyayyuup<:nnnnnnnnnnnnnn<<uftpten",
"nnnnnnnnnnnn<=%&%*;nnnnniiiaiyuppr,nnnnnnnnnnnnnnnn<uftet<n",
"nnnnnnnnnnnne;%;&%nnnnnniddaiupdae:nnnnnnnnnnnnnnnn<raueten",
"nnnnnnnnnnnn<;n**;nnnnnipdddppdpe,nnnnnnnnnnnnnnnnnrpaue<<n",
"nnnnnnnnnnnnn<n*><nnnnapadappye,>nnnnnnnnnnnnnnnnnnrppy<<<n",
"nnnnnnnnnnnnnnnn<<nnnipadpute,>nnnnnnnnnnnnnnnnnnnnippu<e<n",
"nnnnnnnnnnnnnnnnnnnndpaduut<,nnnnnnnnnnnnnnnnnnnnnniduu<<<n",
"nnnnnnnnnnnnnnnnnnnipzdpe:=:nnnnnnnnnnnnnnnnnnnnnnpddpy<e<<",
"nnnnnnnnnnnnnnnnnnpppupt:=:nnnnnnnnnnnnnnnnnnnnnnnpldpu<r<<",
"nnnnnnnnnnnnnnnnffapdpt:&:nnnnnnnnnnnnnnnnnnnnnnnplxl<%%==<",
"nnnnnnnnnnnnnniaiiapdp=&:nnnnnnnnnnnnnnnnnnnnnspppzd<%gg%=n",
"nnnnnnnnnnnnnssi&&iup&$$&nnnnnnnnnnnnnnnnnnnnszzlzet=4696nn",
"nnnnnnnnnnnnffs&6q&,&$::nnnnnnnnnnnnnnnnnnnnnidfdze==446nnn",
"nnnnnnnnnsczzfs+696>&$:nnnnnnnnnnnnnnnnnnnnnq9ispe<====nnnn",
"nnnnnnnn63dlp,,+464;$nnnnnnnnnnnnnnnnnnnnnnq96=pe<:=nnnnnnn",
"nnnnnnngq63su,&&&&&&nnnnnnnnnnnnnnnnnnnnnnnnnnnnnnnnnnnnnnn",
"nnnnnnnq96+ue,&&&&nnnnnnnnnnnnnnnnnnnnnnnnnnnnnnnnnnnnnnnnn"
};
