/* XPM */
static char *BPWAD4D6[] = {
/* columns rows colors chars-per-pixel */
"40 54 41 1 ",
"  c #390A0A",
". c #2F2F2F",
"X c #373737",
"o c gray23",
"O c #430B0B",
"+ c #471212",
"@ c #4E1313",
"# c #591818",
"$ c #5D1C1C",
"% c #642121",
"& c #682525",
"* c #702A2A",
"= c #742E2E",
"- c #7B3232",
"; c #434343",
": c gray31",
"> c #5B5B5B",
", c gray39",
"< c #6F6F6F",
"1 c gray50",
"2 c #803A3A",
"3 c #873E3E",
"4 c #8B4242",
"5 c #934A4A",
"6 c #974E4E",
"7 c #9F5656",
"8 c #A45E5E",
"9 c #AC6666",
"0 c #B06A6A",
"q c #B87272",
"w c #BC7979",
"e c #8B8B8B",
"r c #9F9F9F",
"t c #C48181",
"y c #CC8989",
"u c #D29494",
"i c #DA9C9C",
"p c #DEA3A3",
"a c #E7AFAF",
"s c #EBB6B6",
"d c None",
/* pixels */
"dddddddddddwyidddddddddddddddddddddddddd",
"ddddddddd733437iwttq98dddddddddddddddddd",
"dddddddd937873344iitww80dddddddddddddddd",
"ddddddd9770tyy97347t086708dddddddddddddd",
"dddd997999tuaiyw97347786705ddddddddddddd",
"dd9899tyyywwwyuyw073q8767855dddddddddddd",
"977qyiywqq090wyutw073q998833dddddddddddd",
"940yiywq8244579ww00874q9986-6ddddddddddd",
"749qqwq08=-34444444666-79qq8667ddddddddd",
"7477739wiq75375554333779779wwq63dddddddd",
"544539wiay075680553379990977q0966ddddddd",
"d22*7wypaiq75486755qtuyyw079986667dddddd",
"d*=*9yiaaa974466458yuwq0780777w0007ddddd",
"dd**8wtiai964265-58qw078wyywq979yy07dddd",
"ddd-699qit964%53-38978qtyipywq97ppy07ddd",
"ddd%4889ww974%32=387270qtyywwq976yw878dd",
"ddd#376999773%2&=2723570qww996333wq97*dd",
"dd#O476766772%%$=26--45799996663-0075*dd",
"d&%O794635672%&#=24**24577708996-362-*dd",
"d=#O79339956OO+O*=-*2-4786669tt99*****dd",
"#%##3749iiw3@@@O$**23249w657wppiq9***ddd",
"#-%4%377yw93%%%@O$&45439y7569tppsiq**ddd",
"%%%4%-05696-=4%@+O%6q839w97669typssy5ddd",
"d=%%--7059=%334%@O%7w939ww97669tuppu95dd",
"dd=%-=4707=%43--%O+-97360w996679tipyw55d",
"ddd%===474-#42=23%O+-3-36799757iaaiy952d",
"dddd%%=35=*%4-=252@++---3667758y9qat72%d",
"dddd%%==3%#=32==62=@++4222333284-9ay6%*d",
"dddd%*==*%#-75--52%%++dddd-5--4&6tu0-@dd",
"dddd%****%##58552&%#%#dddd3687*2tuq6@@dd",
"ddd5-*===57#=782&%%#%%dddd448856ut93@ddd",
"ddd44==-=de,%42&%#%#dddddd447846u95-@ddd",
"ddd%4223-dd1%=&&#%%ddddddd558748t95#@ddd",
"ddd#-4342dd**=%#%=ddddddd&758748q93@dddd",
"ddd#=422dddd*%%%dddddddd&37678-8q9&Odddd",
"ddd#=6=7dddddddddddddddd#37747-8w9#@dddd",
"ddd#-7=ddddddddddddddddd$37524-8y9&Odddd",
"dddd*6*ddddddddddddddddd&352=--wy53Odddd",
"ddddd=*ddddddddddddddddd&352=&qy06=  ddd",
"dddddddddddddddddddddddd&3-&9yy002-7- dd",
"dddddddddddddddddddddddd===.;6u62*-*@@>.",
"dddddddddddddddddddddddd==.r:;06*@&@ @..",
"dddddddddddddddddddddddd==....*-*@@ O%dd",
"dddddddddddddddddddddddd&&=*=@@#@@ =+%dd",
"dddddddddddddddddddddddd&**&%&@*6=++%%dd",
"ddddddddddddddddddddddd-&&&$%&%  5&++%dd",
"ddddddddddddddddddddddd-&&&$$dddd o<>odd",
"dddddddddddddddddddddd42&&&%&ddddddooddd",
"ddddddddddddddddddddd542&&&&&ddddddddddd",
"ddddddddddddddddddd9ww74*&&&*>dddddddddd",
"ddddddddddddddddd0>:799942=*=#>ddddddddd",
"ddddddddddddddddX6>:;########O>ddddddddd",
"dddddddddddddddX52:;X########ddddddddddd",
"dddddddddddddddX###########ddddddddddddd"
};
