/* XPM */
static char *BPWAB5[] = {
/* columns rows colors chars-per-pixel */
"39 53 37 1 ",
"  c #3C0A0A",
". c #232323",
"X c #272727",
"o c #373737",
"O c #430B0B",
"+ c #471212",
"@ c #4E1313",
"# c #521414",
"$ c #591818",
"% c #5D1C1C",
"& c #642121",
"* c #682525",
"= c #702A2A",
"- c #742E2E",
"; c #7B3232",
": c #434343",
"> c #5B5B5B",
", c gray39",
"< c #777777",
"1 c #803A3A",
"2 c #873E3E",
"3 c #8B4242",
"4 c #934A4A",
"5 c #974E4E",
"6 c #9F5656",
"7 c #A45E5E",
"8 c #AC6666",
"9 c #B06A6A",
"0 c #B87272",
"q c #BC7979",
"w c #C48181",
"e c #CC8989",
"r c #D29494",
"t c #DA9C9C",
"y c #E7AFAF",
"u c #EBB6B6",
"i c None",
/* pixels */
"iiiiiiiiiiiiiiiiiq8u&ii77777iiiiiiiiiii",
"iiiiiiiiii6677777;9t$=7qqqqq855iiiiiiii",
"iiiiiiii99wqqq877=tq#3qqeeeq8732iiiiiii",
"iiii668559weewq75$e7+5qerrr05622866iiii",
"iii6570e599qerrw8=q2$8ewee0742&q0756iii",
"iii3470qq588qeee035=-qwq97422*370743iii",
"iii1357872757qqew;8&=qq9743--3367531iii",
"iii;13543326479qq26=2q983326536-531;iii",
"iii=-167w0333479q16320835828r02-31-=iii",
"ii555&*79r0723380;3527368q26632**&555ii",
"ii3505$16weq28537=39=56wr9222==*$5053ii",
"i170w05O16q72q865=7r=qw0722*===#50w071i",
"i25wee0;*32729rwq50q=w06222--=#O0eew52i",
"i;5wwe8;O#152270w070566222--=#O%8eww5;i",
"i29we08;O#=222266q7q5009752=&O%;80ew92i",
"i68qq02;;i=26qeq7q7q5qereq7% i;;2qqq86i",
"60qtt03;ii*28qre88008rtreq8;$ii;3qttq06",
"6eqee06;ii*38qerq988qerwwq6-&ii;6qeeqe6",
"5q86649;ii*468qeq8528qwwq86-&&i;94688q5",
"4986446;ii&24688863$69875531&&i;6446894",
"3684442*ii%-;13444;$*2257773&&i*2444863",
"236311=iii%--1111==$**3889871&ii=113632",
"1233;&iiii--;222;=%$*;80009763&ii&;3321",
"23665*iiii-;33334;$$;54q008963&ii*56632",
"i47q5*iiii-2555542$;1;49089853=ii*5q74i",
"i47qq*iiii22780862$;;-47888653-;i*qq74i",
"i3680**ii122780862$;*-0007854;-;**0863i",
"i238;664i126880862$*-5ety0542-=466;832i",
"i1;6=264i126880862$*58tyyt052;5462=6;1i",
"i;1666-1i126880862$*850eee852181-6661;i",
"ii****3ii7268000622*62276871;85;3****ii",
"iiiiiiiii7568ete828i*5-6687185;1iiiiiii",
"iiiiiiii47568ttt828ii8-44421524iiiiiiii",
"iiiiiiii47568ttt828ii92;33;2244iiiiiiii",
"iiiiiiii475650e0528iii2%;;--24iiiiiiiii",
"iiiiiiii43852;3;128iii2%====22iiiiiiiii",
"iiiiiiii436e5&;&188iiii%**#=2iiiiiiiiii",
"iiiiiiii4;3e5&;&188iiii%**#@2iiiiiiiiii",
"iiiiiiiii3;68*&*158iiii%%%@@;iiiiiiiiii",
"iiiiiiiii3-35-*-328iiii%1111*iiiiiiiiii",
"iiiiiiiii31-3---3;iiii-258854;iiiiiiiii",
"iiiiiiiiiii-;-112-iii8869qq8666iiiiiiii",
"iiiiiiiiiii1--222-ii,8952==2599,iiiiiii",
"iiiiiiiiiiii1-333-iio13=;;;;*31ooiiiiii",
"iiiiiiiiiiii1-442-ii.;;=+++++;;..iiiiii",
"iiiiiiiiiiii1-572-4iii==+++++=iiiiiiiii",
"iiiiiiiiiiii1-572-2iiii2+:>:X2iiiiiiiii",
"iiiiiiiiiii41-572-14iii2X><>X2iiiiiiiii",
"iiiiiiiiiii41-574--4iii+2XXX2iiiiiiiiii",
"iiiiiiiii>:222776--2:>ii++++iiiiiiiiiii",
"iiiiiiii>:o2-4776412o:>iiiiiiiiiiiiiiii",
"iiiiiiii:oX146777511Xo:iiiiiiiiiiiiiiii",
"iiiiiiiiiiii55555;;iiiiiiiiiiiiiiiiiiii"
};
