/* XPM */
static char *BPWAD2D8[] = {
/* columns rows colors chars-per-pixel */
"48 56 55 1 ",
"  c black",
". c #070707",
"X c #0B0B0B",
"o c #131313",
"O c #1B1B1B",
"+ c #390A0A",
"@ c #232323",
"# c #272727",
"$ c #2F2F2F",
"% c gray23",
"& c #430B0B",
"* c #471212",
"= c #4E1313",
"- c #521414",
"; c #591818",
": c #5D1C1C",
"> c #642121",
", c #682525",
"< c #702A2A",
"1 c #742E2E",
"2 c #7B3232",
"3 c #434343",
"4 c gray28",
"5 c gray31",
"6 c gray34",
"7 c #5B5B5B",
"8 c gray39",
"9 c gray42",
"0 c #6F6F6F",
"q c #777777",
"w c gray50",
"e c #803A3A",
"r c #873E3E",
"t c #8B4242",
"y c #934A4A",
"u c #974E4E",
"i c #9F5656",
"p c #A45E5E",
"a c #AC6666",
"s c #B06A6A",
"d c #B87272",
"f c #BC7979",
"g c #838383",
"h c #8B8B8B",
"j c #939393",
"k c #979797",
"l c #9F9F9F",
"z c #A7A7A7",
"x c #C48181",
"c c #CC8989",
"v c #D29494",
"b c #DA9C9C",
"n c #DEA3A3",
"m c #EBB6B6",
"M c None",
/* pixels */
"MMMMMMMMMMMMbacbMMMMMMMMMMMMMMMMMMMMMMMMMMMMMMMM",
"MMMMMMMMMMMaftitixMMMMMMMMMMMMMMMMMMMMMMMMMMMMMM",
"MMMMMMMMMMiciiafcxpapadxcxfsMMMMMMMMMMMMMMMMMMMM",
"MMMMMMMMMpcpaffffcxdsfcvbbxfiMMMMMMMMMMMMMMMMMMM",
"MMMMMMMMitaipxddspasfcnmncfaarMMMMMMMMMMMMMMMMMM",
"MMMMMMMaaactcxaiiitisfcnnbfpitMMMMMMMMMMMMMMMMMM",
"MMMMMaaiipipccfffat1tiacvcdpytfMMMMMMMMMMMMMMMMM",
"MMMapffttaiccffcvvat2eupffaiytivvcMMMMMMMMMMMMMM",
"MMapffatcafvffcvbbau2<eryiyyttudccpMMMMMMMMMMMMM",
"Mipafaiiaibcfxccdauur2,<1211<2tuaddiMMMMMMMMMMMM",
"ipiiiiiaaavffapir21tt2<>;;;;<rppupdiMMMMMMMMMMMM",
"2rtt1rpfafbcaire212riay2,&&etpsfpupatMMMMMMMMMMM",
">22t;1aaacvbcait221tafpr2&&>ysccfpriiiMMMMMMMMMM",
"M122;;fafvnnbcfar211afsr1&=&tpfcfapetuaMMMMMMMMM",
"MM<>;apfvnnbbcfar211ifar,:;&;tupapieacfpMMMMMMMM",
"MM2<;aicbbcvcffair11iir1>>>1&;<ttttucfcsiMMMMMMM",
"MMas2avcvcfvbcfair21rt,eeee<ee2<<=>iafcfuMMMMMMM",
"Mafxiabcxcvbcfaiir>1><2221,2utute2;rsfcfuMMMMMMM",
"uafctfvsxfvcfaaie22,11211,1utupiiu,;sncdptMMMMMM",
"2pcb1bsapit22paite2<>12r1<treaippur<pvcsitMMMMMM",
"2ifvtftiee>>>eyytye2,1ry2>r<yppspur<uvfaitMMMMMM",
"2rpsst<t2>=9=>eeere2<1yir>>ripdsiur<yfapitMMMMMM",
"M1trr2;>>w5j0>111112<1yir>,eidfaiur<tapiirMMMMMM",
"MM;>>r&;ho#68#1>1t211>ry1:,<iffiyur<2iiiyeurMMMM",
"MMM;;>174X O3o>,tst12,<r::,1afairyr<2piiy2isurMM",
"MMMMM;1w8   X@ 1uuu<2<21-:,1appyryresfdir1iiisrM",
"MMMMMM;47o     ;ett2r2<1*-:1uutrrtpsccdie2iiyis1",
"MMMMMMM:@;      >22ytt<>**-:1eeryruvfdai22asfii1",
"MMMMMMMM>&    .6Oepuyt2;***-:<22yucfiiit12uiasi1",
"MMMMMMMMM;<   o0w>dput2;*+*>>=;,2ry<tiy22rryis1M",
"MMMMMMMMMM,%X6Owzqidit2;**++=>11,1<iffr22rr<us1M",
"MMMMMMMMMMMh87hwwwtday2;****++&>1<bvfi,,,,,ryi1M",
"MMMMMMMMMMMjh9kh>eifai2;+++++++MM>pit<;:::,rry1M",
"MMMMMMMMMMMM>>9we<taat1;+++++++<MM;;;&===&1ir1MM",
"MMMMMMMMMMMM<e<<<;1iy1>;;+>:-++&MMMMMM&&&,yir1MM",
"MMMMMMMMMMMM<>>>2t2>;,===;>,-=+&<MMMMMM&11s2:1MM",
"MMMMMMMMMMMMM>>>>>>;MM====>1:-&=&MMMMMM&ryi1:1MM",
"MMMMMMMMMMMMMMM,,MMMMMM===>1,-=;:MMMMMM&ese,1MMM",
"MMMMMMMMMMMMMMMMMMMMMMMM=>,1,-;::MMMMMM&eie,1MMM",
"MMMMMMMMMMMMMMMMMMMMMMMM>>12<<=:MMMMMMM&ru1,1MMM",
"MMMMMMMMMMMMMMMMMMMMMMMM>1e2<1;:MMMMMMM&tt,r1MMM",
"MMMMMMMMMMMMMMMMMMMMMMMM>rr2<<=MMMMMMM&,tt,y22MM",
"MMMMMMMMMMMMMMMMMMMMMMMM2tr2<1;MMMMMMM&tte,ur22M",
"MMMMMMMMMMMMMMMMMMMMMMMMrtr<1,MMMMMMM&,tteeiaqh7",
"MMMMMMMMMMMMMMMMMMMMMMM2rry1<>MMMMMMM*<yeeyayllh",
"MMMMMMMMMMMMMMMMMMMMMMM2tuir2MMMMMMMM#<yeery1qh7",
"MMMMMMMMMMMMMMMMMMMMMMM2tut1<MMMMMMMM&*,rer1&MMM",
"MMMMMMMMMMMMMMMMMMMMMM2rut1<MMMMMMMMMM**,<<<*MMM",
"MMMMMMMMMMMMMMMMMMMMM22tyr1<MMMMMMMMMMM*******%%",
"MMMMMMMMMMMMMMMMMMMM222tii;MMMMMMMMMMMMM******74",
"MMMMMMMMMMMMMMMMM2e2tyiisi;MMMMMMMMMMMMMMM***94M",
"MMMMMMMMMMMMMMMM49acttiics1MMMMMMMMMMMMMMMMMMMMM",
"MMMMMMMMMMMMMMM497g6<tis%794MMMMMMMMMMMMMMMMMMMM",
"MMMMMMMMMMMMMM477qq74<i2%4774MMMMMMMMMMMMMMMMMMM",
"MMMMMMMMMMMMMM%%9974%<y<>%%%%MMMMMMMMMMMMMMMMMMM",
"MMMMMMMMMMMMMMMM%%%%$<>;MMMMMMMMMMMMMMMMMMMMMMMM"
};
