/* XPM */
static char *BPWAC4C6[] = {
/* columns rows colors chars-per-pixel */
"48 53 40 1 ",
"  c #3C0A0A",
". c #272727",
"X c #373737",
"o c gray23",
"O c #471212",
"+ c #4E1313",
"@ c #521414",
"# c #591818",
"$ c #5D1C1C",
"% c #642121",
"& c #682525",
"* c #702A2A",
"= c #742E2E",
"- c #7B3232",
"; c #434343",
": c gray31",
"> c gray34",
", c #5B5B5B",
"< c gray39",
"1 c gray42",
"2 c #777777",
"3 c gray50",
"4 c #803A3A",
"5 c #873E3E",
"6 c #8B4242",
"7 c #934A4A",
"8 c #974E4E",
"9 c #9F5656",
"0 c #A45E5E",
"q c #AC6666",
"w c #B06A6A",
"e c #B87272",
"r c #BC7979",
"t c #A7A7A7",
"y c #C48181",
"u c #CC8989",
"i c #D29494",
"p c #DA9C9C",
"a c #DEA3A3",
"s c None",
/* pixels */
"ssssssssssssssssieisssssssssssssssssssssssssssss",
"ssssssssssssssrey8yuesssssssssssssssssssssssssss",
"sssssssssssssr9999w0euisssssssssssssssssssssssss",
"sssssssssss0000wre00w0eupsssssssssssssssssssssss",
"ssssssssss0ee0weeyureqw0ueisssssssssssssssssssss",
"ssssssss0qwryyeyuuyreee8wyueysssssssssssssssssss",
"ssssss99eruuyiieuuyyreee00ereyssssssssssssssssss",
"sssss9raauuyqqqqeyuuyreue08wree0ssssssssssssssss",
"ssss9raaye9978678890qqeeeee000e8eqssssssssssssss",
"sss4qyyrr95q9888--588890eyeueurepyqsssssssssssss",
"sss460qq0759qr9-*-99999eyyyuue00yeesssssssssssss",
"sss47588759uir9**-9yq0eeyuuuyruueeee9sssssssssss",
"sss4955555quii0**5yay0eyaiiywqqeew0we9ssssssssss",
"ssss4976=79qyiq4-5yie8waiurqeyyyyeery99sssssssss",
"sssss4-6&909qrq8*5eyq6eawqqryipiuyrupie9ssssssss",
"sssssss-&9q79908*-9e94ei800ryuiuyr0ruyr09sssssss",
"sssssss&-5967785=*6954qe770eryuyre8wure80sssssss",
"sssss6-@8-59655=*&44-48q6680eryrew85ee088sssssss",
"ssss&4*@-8-976---%444-584-689qwew08500074sssssss",
"sss&&*&#O--9q755-OO4$*-5--467900098&5586-sssssss",
"sss-66$$ O@69967-OOO$&*---48000q006&=-66-sssssss",
"s69885-*44O=666--$@OO4&*--6800qq0067&=-45sssssss",
"69qqq9ww8-%===4*-4=$@@4&&&-4680qqq864&&&ssssssss",
"%5qq0088-%%=&4&##67=&$$-&&&-4880qwee88&sssssssss",
"s%444--**%*=&####578=##$&&&&-=-80eyie88sssssssss",
"+%%--+*****&&###*5674*@#%$$&&==80eruie88ssssssss",
"s+++++*------&##&46764%#%&$$=&*50weyuie88sssssss",
"ssssss&&***&&&#---4777*#%-$$5==-80qryui088ssssss",
"ssssssssss-55444-4-6884&%--&$85=480yrerr98ssssss",
"sssssssssss44444686487-*&45-&&854680urwe08ssssss",
"ssssssssssss4-44788684-*=555-&&85-480r0wr08sssss",
"sssssssssssss444468764-**565=-&=5==-5088wr08ssss",
"sssssssssssss&444444--*&77674--$*===-5460eyq8sss",
"sssssssssssss&%44444-*&7980ye5=-s$%-=-=40qiuq8ss",
"ssssssssssssss&&&&&&*&87797ye07ssss$-5%48quie-ss",
"sssssssssssssss&&&&&7775776ee84sssss@-7%88qyq&ss",
"sssssssssssssssssss+69466664-*sssssss457%59q9&ss",
"sssssssssssssssssss%68-5666-*ssssssss48w7*45=*ss",
"sssssssssssssssssss--6-47644ssssssssss40w-4=&*ss",
"sssssssssssssssssss-=4-888sssssssssssss808464-ss",
"ssssssssssssssssss64*=8w8ssssssssssssss4974445ss",
"sssssssssssssssss65-*8w5sssssssssssssss408-4-4ss",
"sssssssssssssss0764=505ssssssssssssssss408-8-4ss",
"ssssssssssssss09864686ssssssssssssssss5yw86064ss",
"sssssssssssswew098664#ssssssssssssssss6ir77e85ss",
"ssssssssss0848ew086%##sssssssssssssss8wiy88y04ss",
"sssssssss841,46w064&%##ssssssssssseiaaiyy0qyq7ss",
"sssssssss41,:X4974-&&X#sssssssssss<31iy0eqyiyq:s",
"sssssssss4,:XX4444-ssssssssssssssXt11;e00yiiie<:",
"sssssssssssssssssssssssssssssssseX21:;0448008=::",
"sssssssssssssssssssssssssssssss;8.....4&&&&&&@XX",
"ssssssssssssssssssssssssssssss>o-*@@@@=&&&@@ssss",
"ssssssssssssssssssssssssssssss>X*@@@@@@@@@ssssss"
};
