/* XPM */
static char *BPWAB1[] = {
/* columns rows colors chars-per-pixel */
"43 56 51 1 ",
"  c black",
". c #390A0A",
"X c #3C0A0A",
"o c #232323",
"O c #272727",
"+ c #2F2F2F",
"@ c #373737",
"# c #430B0B",
"$ c #471212",
"% c #4E1313",
"& c #521414",
"* c #591818",
"= c #5D1C1C",
"- c #642121",
"; c #682525",
": c #702A2A",
"> c #742E2E",
", c #7B3232",
"< c #434343",
"1 c gray28",
"2 c gray31",
"3 c gray34",
"4 c #5B5B5B",
"5 c gray39",
"6 c gray42",
"7 c #6F6F6F",
"8 c #777777",
"9 c #803A3A",
"0 c #873E3E",
"q c #8B4242",
"w c #934A4A",
"e c #974E4E",
"r c #9F5656",
"t c #A45E5E",
"y c #AC6666",
"u c #B06A6A",
"i c #B87272",
"p c #BC7979",
"a c #838383",
"s c #939393",
"d c #9F9F9F",
"f c #A7A7A7",
"g c #C48181",
"h c #CC8989",
"j c #D29494",
"k c #DA9C9C",
"l c #DEA3A3",
"z c #E7AFAF",
"x c #EBB6B6",
"c c #F4C1C1",
"v c None",
/* pixels */
"vvvvvvvvvvvvvvviphyiiijhgpvvvvvvvvvvvvvvvvv",
"vvvvvvvvvvvgipghgprrrryipgggivvviggvvvvvvvv",
"vvvvvvvvggigpiuyyyriuryyyiippiiphgpyrrvvvvv",
"vvvvvrrypghpitttyyyruryiphhggpipgjhitervvvv",
"vvvvretihjgpiuiphhyrurpjllllkhpyyppitwqvvvv",
"vvvvqwtippyypihjjjyuirplxxzzlhitrtyteq9vvvv",
"vvvv9qetytrtiphjklurirhkzzllkhirwqweq9,vvvv",
"vvvv,9qewqwriihkklhrurpkklkhiutw9>>99>:vvvv",
"vvvv:>99>>9wtruppppriuujhhirrq09>>&;-%#evvv",
"vvve%;-;*>>900eryyyyreeppie99,99,;%%%.%qvvv",
"vvvqe.%*#;,99,-,qruyrurphu>>9qwq,;##.%*9yvv",
"vv9tu9.##;,qw>;-,wuyriepku99qrrq,;X.#*=90vv",
"vv0ete%.#;,qr9:**rpyrirhjhiuytrq,;XX#==:,vv",
"vv,ee,####;,yyyipghjrurhhhgpiuyq,;XX##=::vv",
"vv:e,*####;,rpjlkkjjeuuggghjkkpq,;XXX#===rv",
"vr,,*######;qgkxccljewuiphlxxlpq,- .=-:*=qv",
"vq-##-*##%##,rhkzxxlrtuyhlxzlpy,;v  .=:=%qv",
"vr#-###.-:vv-ryhhhhhttetphhgit9:vv*  #**%9r",
"riq#.%%-9vvvv-9eyiiite9etytweq:-vvv*.X.%:9r",
"rhw%&:9*vvvvv0#9eytte,99eeeeq9::vvv**::%9ee",
"epp%0ye*vvvvv,*;9e7e6d6d97qqq9::vvv*;0w:euw",
"wui,ir9*vvvv*,;,q2f713 32f7999,:vvv*;:0,yrq",
"qryww0;*vvvv*q*>q3a7    3a799,::vvvv&*:,rq0",
"0qrq9:*vvvvv*q***+53    @53,,::=vvvv%&:,qq9",
"90qq,-*vvvv;*&.:* 1@    +1 -;:.&vvvvv$%;qq0",
"0qqw;*vvvvv;*%.., +      + %,:%%*vvvvv$,rrq",
"qrre;vvvvvv;%...q          ;q-..%vvvvv$eptw",
"wtpe;vvvvvv;%...q>         >q=..%vvvvv$eptw",
"wtpe;vvvvv9:$...qw         wq*..$*vvvrgpptw",
"wtpgkrvvvv9=#...re 7     7 er&..#=vvrgpiyrq",
"qryipgrvvv9*....tt5s5 7 5s5tt%...*vvwrr,yq0",
"0qy,rrwvvv9%....iisf75s5sf7ii....=9vwt0:r,9",
"9,r#0twvvw9#&;;.yy7s57fs7s5yy.##.=9v9>::09,",
",90###9vvw0#;&&%egee>5s7>eege%&&%:0vvq;;;;v",
"v;;#;qvvvww->,:>;eueeeeeeegy;&&&&:wwvvvvvvv",
"vvvvvvvvvww9,ww0*ypgkkhkgpy*&&===:wwvvvvvvv",
"vvvvvvvvvv0,wrre-$00euiuw0$%=>,::>wwvvvvvvv",
"vvvvvvvvvv,,wryy=$vvvvvvvv$$-9qq9,qwvvvvvvv",
"vvvvvvvvvvv,eeyy=*vvvvvvvv$$-9qw9,qwvvvvvvv",
"vvvvvvvvvvv,9eyy=*vvvvvvvvv$-9wtw,qvvvvvvvv",
"vvvvvvvvvvv,ryjy=vvvvvvvvvv$-9ttw,qvvvvvvvv",
"vvvvvvvvvvv,yyjy=vvvvvvvvvv$-9yyt,qvvvvvvvv",
"vvvvvvvvvyr;ruju=yyvvvvvvvvv-eiit,0vvvvvvvv",
"vvvvvvvv5yr;hhuq=yy5vvvvvvvv=wppt,9vvvvvvvv",
"vvvvvvv@@9q;,rq,=q9@@vvvvvvv=wght>9vvvvvvvv",
"vvvvvvvoo,,;;;;=>,,oovvvvvvv;whht>9vvvvvvvv",
"vvvvvvvvvv,:;==:,:vvvvvvvvvv:whht,9vvvvvvvv",
"vvvvvvvvvvv,:;;:-vvvvvvvvvvv,wigu99vvvvvvvv",
"vvvvvvvvvvv-:::-*vvvvvvvvvv99wpih99vvvvvvvv",
"vvvvvvvvvvv$-***$vvvvvvvvvv99eppr>9vvvvvvvv",
"vvvvvvvvvvvv$$$$vvvvvvvvvverueyhgw0eevvvvvv",
"vvvvvvvvvvvvvvvvvvvvvvvvv4<u>yrrru>t<4vvvvv",
"vvvvvvvvvvvvvvvvvvvvvvvv4<@:wrOOOrw:@<4vvvv",
"vvvvvvvvvvvvvvvvvvvvvvvv<@O:eO484Oe:O@<vvvv",
"vvvvvvvvvvvvvvvvvvvvvvvvvvvv:O<4<O:vvvvvvvv",
"vvvvvvvvvvvvvvvvvvvvvvvvvvvvv$@<@$vvvvvvvvv"
};
