/* XPM */
static char *BPWAB4B6[] = {
/* columns rows colors chars-per-pixel */
"47 53 43 1 ",
"  c #390A0A",
". c #2F2F2F",
"X c #373737",
"o c gray23",
"O c #430B0B",
"+ c #471212",
"@ c #4E1313",
"# c #521414",
"$ c #591818",
"% c #5D1C1C",
"& c #642121",
"* c #682525",
"= c #702A2A",
"- c #742E2E",
"; c #7B3232",
": c #434343",
"> c gray31",
", c #5B5B5B",
"< c gray39",
"1 c gray42",
"2 c #6F6F6F",
"3 c gray50",
"4 c #803A3A",
"5 c #873E3E",
"6 c #8B4242",
"7 c #934A4A",
"8 c #974E4E",
"9 c #9F5656",
"0 c #A45E5E",
"q c #AC6666",
"w c #B06A6A",
"e c #B87272",
"r c #BC7979",
"t c #8B8B8B",
"y c #9F9F9F",
"u c #C48181",
"i c #CC8989",
"p c #D29494",
"a c #DA9C9C",
"s c #DEA3A3",
"d c #E7AFAF",
"f c #EBB6B6",
"g c None",
/* pixels */
"gggggggggggriaggggggggggggggggggggggggggggggggg",
"ggggggggg955659aruueq0ggggggggggggggggggggggggg",
"ggggggggq59095566aaurr0wggggggggggggggggggggggg",
"gggggggq99wuiiq9569uw089w0ggggggggggggggggggggg",
"ggggqq9qqqupdairq95699089w7gggggggggggggggggggg",
"ggq0qquiiirrripirw95e0989077ggggggggggggggggggg",
"q99eiaireewqwripurw95eqq0055ggggggggggggggggggg",
"q6wiaire046679qrrww096eqq08;8gggggggggggggggggg",
"96qeerew0-;56666666888;9qee0889gggggggggggggggg",
"969995qrae9759777655599q99qrre85ggggggggggggggg",
"76675qradiw9780w77559qqqwq99ewq88gggggggggggggg",
"g44=9risdae97608977eupiirwqqq08889ggggggggggggg",
"g=-=qiadddq96688670iprew90errqrwww99ggggggggggg",
"gg==0ruadaq86487;70erw90rirrqqiiiiw99gggggggggg",
"ggg;8qqeauq86&75;50q90euiaaie9rissiw9gggggggggg",
"ggg&600qrrq96&54-50949weuiire99iiir099ggggggggg",
"gg%$598qqq995&4*-494579werreq96err0557ggggggggg",
"g%$O698988994&&%-48;;679qwww97=80958rq7gggggggg",
"g%&O9q6857894&*$-46==46799984;==75w0qq8gggggggg",
"%-$O9q55qq78OO+O=-;=4;690q0986=&488quuqqggggggg",
"$&$$596qaar5@@@O%==4546qreqqq7;@&=9rssaeq0ggggg",
"$;&6&599irq5&&&@O%*6766qirqruw7@&=8qussfae0gggg",
"&&&6&;w78q8;-6&@+O&8e07qiiqrpu9$@=;8quisffie7gg",
"g-&&;;9w7q-&556&@O&9rq8qrirqip9*@==;8qupssppq7g",
"gg-&;-69w9-&65;;&O=6qr09qii0rp0-@%%=;9quasirr77",
"ggg&---696;$64-45&O-9qq7qriqriq-*###;9addaieq74",
"gggg&&-57-=&6;-474@+60w59eirquq;;*@@;0iqeduw94&",
"gggg&&--5&$-54--84-@+9q500ii0rw=7;;**06;qdi98&=",
"gggg&=--=&$;97;;74&&+;9400riqee=g77;;6*8upw8;@g",
"gggg&====&$$70774*&$&$;-9wqirqr;8gg77=Oupe8;@=g",
"ggg7;=---79$-904*&&$&&$-9rqirqr58gggg76puq5$@gg",
"ggg66--;-gt<&64*&$&$ggg$9rerirq68ggggg6pq7;@=gg",
"ggg&6445;gg3&-**$&&gggg%9rr0rir988gggg0uq7$@ggg",
"ggg$;6564gg==-&$&-ggggg&9rq80rir85ggg60eq5@=ggg",
"ggg$-644gggg=&&&ggggggg-9q8670qq85ggg;0eq*Ogggg",
"ggg$-8-9ggggggggggggggg-9q8670qq55ggg;0rq$@gggg",
"ggg$;9-gggggggggggggggg-97754;68*gggg;0iq*Ogggg",
"gggg=8=gggggggggggggggg56654;-&;*gggg;ri75Ogggg",
"ggggg-=ggggggggggggggggg5564-=*&gggg*eiw8-  @gg",
"gggggggggggggggggggggggg5564-=*&gg;qiiww4;9; @g",
"ggggggggggggggggggggggggg;54-=*&gg.:8p84=;=@@,.",
"ggggggggggggggggggggggggg44-=*&gg.y>:w8=@*@ @..",
"ggggggggggggggggggggggggg;;--*&gg....=;=@@ Oggg",
"ggggggggggggggggggggggggg;;--*&ggggg@@$@@ -+ggg",
"ggggggggggggggggggggggggg;;--*&gggggg@=8-++&&gg",
"gggggggggggggggggggggggg64---=;ggggggg  7*++&gg",
"ggggggggggggggggggggggg764;;--;ggggggggg o2,ogg",
"gggggggggggggggggggggg09964;-;4gggggggggggooggg",
"ggggggggggggggggggggqqwrq966446$ggggggggggggggg",
"ggggggggggggggggggg1qrrqqq0854%Oggggggggggggggg",
"gggggggggggggggggg,,>9q098854-%Oggggggggggggggg",
"ggggggggggggggggg,1,>:5==454*%@Oggggggggggggggg",
"ggggggggggggggggg,,>:X-----$$gggggggggggggggggg"
};
