/* XPM */
static char *BPWAD1[] = {
/* columns rows colors chars-per-pixel */
"43 56 51 1 ",
"  c black",
". c #390A0A",
"X c #3C0A0A",
"o c #232323",
"O c #272727",
"+ c #2F2F2F",
"@ c #373737",
"# c #430B0B",
"$ c #471212",
"% c #4E1313",
"& c #521414",
"* c #591818",
"= c #5D1C1C",
"- c #642121",
"; c #682525",
": c #702A2A",
"> c #742E2E",
", c #7B3232",
"< c #434343",
"1 c gray28",
"2 c gray31",
"3 c gray34",
"4 c #5B5B5B",
"5 c gray39",
"6 c gray42",
"7 c #6F6F6F",
"8 c #777777",
"9 c #803A3A",
"0 c #873E3E",
"q c #8B4242",
"w c #934A4A",
"e c #974E4E",
"r c #9F5656",
"t c #A45E5E",
"y c #AC6666",
"u c #B06A6A",
"i c #B87272",
"p c #BC7979",
"a c #838383",
"s c #939393",
"d c #9F9F9F",
"f c #A7A7A7",
"g c #C48181",
"h c #CC8989",
"j c #D29494",
"k c #DA9C9C",
"l c #DEA3A3",
"z c #E7AFAF",
"x c #EBB6B6",
"c c #F4C1C1",
"v c None",
/* pixels */
"vvvvvvvvvvvvvvvvvpghjiiiyhpivvvvvvvvvvvvvvv",
"vvvvvvvvggivvvigggpiyrrrrpghgpigvvvvvvvvvvv",
"vvvvvrrypghpiippiiyyyruiryyyuipgiggvvvvvvvv",
"vvvvretihjgpipgghhpiyruryyytttiphgpyrrvvvvv",
"vvvvqwtippyyphklllljpruryhhpiuipgjhitervvvv",
"vvvv9qetytrtihlzzxxlpriuyjjjhipyyppitwqvvvv",
"vvvv,9qewqwrihkllzzkhrirulkjhpitrtyteq9vvvv",
"vvvv:>99>>9wtuihklkkprurhlkkhiirwqweq9,vvvv",
"vvve#%-;&>>90qrrihhjuuirppppurtw9>>99>:vvvv",
"vvvq%.%%%;,99,99eippeeryyyyre009>>*;-;%evvv",
"vvy9*%.##;,qwq9>>uhpruryurq,-,99,;#*%.eqvvv",
"vv09=*#.X;,qrrq99ukpeiryuw,-;>wq,;##.9ut9vv",
"vv,:==#XX;,qrtyuihjhrirypr**:9rq,;#.%ete0vv",
"vv::=##XX;,qyuipghhhrurjhgpiyyy,;####,ee,vv",
"vr===#XXX;,qpkkjhggguuejjkkljpr,;####*,e:vv",
"vq=*:-=. -,qplxxlhpiuwejlccxkgq;######*,,rv",
"vq%=:=.  v;,yplzxlhyutrlxxzkhr,##%##*-##-qv",
"r9%**#  *vv:9tighhptetthhhhhyr-vv:-.###-#rv",
"r9:%.X.*vvv-:qewtyte9etiiiye9-vvvv9-%%.#qir",
"ee9%::**vvv::9qeeee99,ettye9#0vvvvv*9:&%whr",
"wue:w0;*vvv::9qqq79d6d6e7e9;*,vvvvv*ey0%ppe",
"qry,0:;*vvv:,9997f23 317f2q,;,*vvvv*9ri,iuw",
"0qr,:*&vvvv::,997a3    7a3q>*q*vvvv*;0wwyrq",
"9qq,:&%vvvv=::,,35@    35+***q*vvvvv*:9qrq0",
"0qq;%$vvvvv&.:;- 1+    @1 *:.&*;vvvv*-,qq09",
"qrr,$vvvvv*%%:,% +      + ,..%*;vvvvv*;wqq0",
"wtpe$vvvvv%..-q;          q...%;vvvvvv;errq",
"wtpe$vvvvv%..=q>         >q...%;vvvvvv;eptw",
"wtppgrvvv*$..*qw         wq...$:9vvvvv;eptw",
"qryipgrvv=#..&re 7     7 er...#=9vvvvrkgptw",
"0qy,rrwvv*...%tt5s5 7 5s5tt....*9vvvrgpiyrq",
"9,r:0twv9=....ii7fs5s57fsii....%9vvvwrr,yq0",
",90::>9v9=.##.yy5s7sf75s7yy.;;&#9wvvwt0#r,9",
"v;;;;qvv0:%&&%egee>7s5>eege%&&;#0wvv9###09,",
"vvvvvvvww:&&&&;ygeeeeeeeue;>:,>-wwvvvq;#;;v",
"vvvvvvvww:===&&*ypgkhkkgpy*0ww,9wwvvvvvvvvv",
"vvvvvvvww>::,>=%$0wuiue00$-errw,0vvvvvvvvvv",
"vvvvvvvwq,9qq9-$$vvvvvvvv$=yyrw,,vvvvvvvvvv",
"vvvvvvvwq,9wq9-$$vvvvvvvv*=yyee,vvvvvvvvvvv",
"vvvvvvvvq,wtw9-$vvvvvvvvv*=yye9,vvvvvvvvvvv",
"vvvvvvvvq,wtt9-$vvvvvvvvvv=yjyr,vvvvvvvvvvv",
"vvvvvvvvq,tyy9-$vvvvvvvvvv=yjyy,vvvvvvvvvvv",
"vvvvvvvv0,tiie-vvvvvvvvvyy=ujur;ryvvvvvvvvv",
"vvvvvvvv9,tppw=vvvvvvvv5yy=quhh;ry5vvvvvvvv",
"vvvvvvvv9>thgw=vvvvvvv@@9q=,qr,;q9@@vvvvvvv",
"vvvvvvvv9>thhw;vvvvvvvoo,,>=;;;;,,oovvvvvvv",
"vvvvvvvv9,thhw:vvvvvvvvvv:,:==;:,vvvvvvvvvv",
"vvvvvvvv99ugiw,vvvvvvvvvvv-:;;:,vvvvvvvvvvv",
"vvvvvvvv99hipw99vvvvvvvvvv*-:::-vvvvvvvvvvv",
"vvvvvvvv9>rppe99vvvvvvvvvv$***-$vvvvvvvvvvv",
"vvvvvvee0wghyeurevvvvvvvvvv$$$$vvvvvvvvvvvv",
"vvvvv4<t>urrry>u<4vvvvvvvvvvvvvvvvvvvvvvvvv",
"vvvv4<@:wrOOOrw:@<4vvvvvvvvvvvvvvvvvvvvvvvv",
"vvvv<@O:eO484Oe:O@<vvvvvvvvvvvvvvvvvvvvvvvv",
"vvvvvvvv:O<4<O:vvvvvvvvvvvvvvvvvvvvvvvvvvvv",
"vvvvvvvvv$@<@$vvvvvvvvvvvvvvvvvvvvvvvvvvvvv"
};
