/* XPM */
static char *BPWAD5[] = {
/* columns rows colors chars-per-pixel */
"39 53 37 1 ",
"  c #3C0A0A",
". c #232323",
"X c #272727",
"o c #373737",
"O c #430B0B",
"+ c #471212",
"@ c #4E1313",
"# c #521414",
"$ c #591818",
"% c #5D1C1C",
"& c #642121",
"* c #682525",
"= c #702A2A",
"- c #742E2E",
"; c #7B3232",
": c #434343",
"> c #5B5B5B",
", c gray39",
"< c #777777",
"1 c #803A3A",
"2 c #873E3E",
"3 c #8B4242",
"4 c #934A4A",
"5 c #974E4E",
"6 c #9F5656",
"7 c #A45E5E",
"8 c #AC6666",
"9 c #B06A6A",
"0 c #B87272",
"q c #BC7979",
"w c #C48181",
"e c #CC8989",
"r c #D29494",
"t c #DA9C9C",
"y c #E7AFAF",
"u c #EBB6B6",
"i c None",
/* pixels */
"iiiiiiiiiii77777ii&u8qiiiiiiiiiiiiiiiii",
"iiiiiiii558qqqqq7=$t9;7777766iiiiiiiiii",
"iiiiiii2378qeeeqq3#qt=778qqqw99iiiiiiii",
"iiii66822650rrreq5+7e$57qweew955866iiii",
"iii6570q&2470eewe8$2q=8wrreq995e0756iii",
"iii347073*22479qwq-=530eeeq885qq0743iii",
"iii1357633--3479qq=&8;weqq7572787531iii",
"iii;135-635623389q2=62qq97462334531;iii",
"iii=-13-20r82853802361q9743330w761-=iii",
"ii555&**23662q8637253;0833270r97*&555ii",
"ii3505$*==2229rw65=93=73582qew61$5053ii",
"i170w05#===*2270wq=r7=568q27q61O50w071i",
"i25wee0O#=--22260w=q05qwr92723*;0eew52i",
"i;5wwe8%O#=--222665070w072251#O;8eww5;i",
"i29we08;%O&=2579005q7q662222=#O;80ew92i",
"i68qqq2;;i %7qereq5q7q7qeq62=i;;20qq86i",
"60qttq3;ii$;8qertr80088erq82*ii;30ttq06",
"6eqeeq6;ii&-6qwwreq889qreq83*ii;60eeqe6",
"5q88649;i&&-68qwwq8258qeq864*ii;94668q5",
"4986446;i&&13557896$36888642&ii;6446894",
"3684442*i&&3777522*$;44431;-%ii*2444863",
"236311=ii&1789883**$==1111--%iii=113632",
"1233;&ii&36790008;*$%=;222;--iiii&;3321",
"23665*ii&369800q45;$$;43333;-iiii*56632",
"i47q5*ii=35898094;1;$2455552-iiii*5q74i",
"i47qq*i;-35688874-;;$26808722iiii*qq74i",
"i3680**;-;4587000-*;$268087221ii**0863i",
"i238;664=-2450yte5-*$268088621i466;832i",
"i1;6=2645;250tyyt85*$268088621i462=6;1i",
"i;1666-181258eee058*$268088621i1-6661;i",
"ii****3;58;17867226*2260008627ii3****ii",
"iiiiiii1;5817866-5*i828ete8657iiiiiiiii",
"iiiiiiii42512444-8ii828ttt86574iiiiiiii",
"iiiiiiii4422;33;29ii828ttt86574iiiiiiii",
"iiiiiiiii42--;;%2iii8250e056574iiiiiiii",
"iiiiiiiii22====%2iii821;3;25834iiiiiiii",
"iiiiiiiiii2=#**%iiii881&;&5e634iiiiiiii",
"iiiiiiiiii2@#**%iiii881&;&5e3;4iiiiiiii",
"iiiiiiiiii;@@%%%iiii851*&*86;3iiiiiiiii",
"iiiiiiiiii*1111%iiii823-*-53-3iiiiiiiii",
"iiiiiiiii;458852-iiii;3---3-13iiiiiiiii",
"iiiiiiii6668qq9688iii-211-;-iiiiiiiiiii",
"iiiiiii,9952==2598,ii-222--1iiiiiiiiiii",
"iiiiiioo13*;;;;=31oii-333-1iiiiiiiiiiii",
"iiiiii..;;+++++=;;.ii-244-1iiiiiiiiiiii",
"iiiiiiiii=+++++==iii4-275-1iiiiiiiiiiii",
"iiiiiiiii2X:>:+2iiii2-275-1iiiiiiiiiiii",
"iiiiiiiii2X><>X2iii41-275-14iiiiiiiiiii",
"iiiiiiiiii2XXX2+iii4--475-14iiiiiiiiiii",
"iiiiiiiiiii++++ii>:2--677222:>iiiiiiiii",
"iiiiiiiiiiiiiiii>:o2146774-2o:>iiiiiiii",
"iiiiiiiiiiiiiiii:oX115777641Xo:iiiiiiii",
"iiiiiiiiiiiiiiiiiiii;;55555iiiiiiiiiiii"
};
