/* XPM */
static char *BPWAB3B7[] = {
/* columns rows colors chars-per-pixel */
"57 56 52 1 ",
"  c black",
". c #0B0B0B",
"X c #131313",
"o c #1B1B1B",
"O c #232323",
"+ c #272727",
"@ c #2F2F2F",
"# c #373737",
"$ c gray23",
"% c #430B0B",
"& c #471212",
"* c #4E1313",
"= c #521414",
"- c #591818",
"; c #5D1C1C",
": c #493B30",
"> c #642121",
", c #682525",
"< c #702A2A",
"1 c #742E2E",
"2 c #7B3232",
"3 c #434343",
"4 c gray31",
"5 c gray34",
"6 c #5B5B5B",
"7 c #646753",
"8 c gray39",
"9 c gray42",
"0 c #6F6F6F",
"q c #777777",
"w c gray50",
"e c #803A3A",
"r c #873E3E",
"t c #8B4242",
"y c #934A4A",
"u c #974E4E",
"i c #9F5656",
"p c #A45E5E",
"a c #AC6666",
"s c #B06A6A",
"d c #B87272",
"f c #BC7979",
"g c #838383",
"h c #8B8B8B",
"j c #979797",
"k c #9F9F9F",
"l c #C48181",
"z c #CC8989",
"x c #D29494",
"c c #DA9C9C",
"v c #DEA3A3",
"b c None",
/* pixels */
"bbbbbbbbbbbbbbapsfcczfzzbbbbbbbbbbbbbbbbbbbbbbbbbbbbbbbbb",
"bbbbbbbbbbbbfiaiipfzzfsipfbbbbbbbbbbbbbbbbbbbbbbbbbbbbbbb",
"bbbbbbbbbbbiftizfiiaffpuyapbbbbbbbbbbbbbbbbbbbbbbbbbbbbbb",
"bbbbbbbbbbaaitplcxfipapiuiippfbbbbbbbbbbbbbbbbbbbbbbbbbbb",
"bbbbbbbbbaipa<psfxxfipaafafappdbbbbbbbbbbbbbbbbbbbbbbbbbb",
"bbbbbbbbfaiif>tisflzfdffapfzfafpbbbbbbbbbbbbbbbbbbbbbbbbb",
"bbbbbbbbiiiai1>2tiiuuiadfiiazfafpbbbbbbbbbbbbbbbbbbbbbbbb",
"bbbbbbbiapppi2---<2ertypsfuiazfaabbbbbbbbbbbbbbbbbbbbbbbb",
"bbbbbbzfaaiiyr------>>1azxauiazaizzbbbbbbbbbbbbbbbbbbbbbb",
"bbbbbbpifyrre2211>-->>2iafzxfiaffizlbbbbbbbbbbbbbbbbbbbbb",
"bbbbbiapp<<<<12etiir12-riadffzpfzffipbbbbbbbbbbbbbbbbbbbb",
"bbbbifaapt22212etaaiyr%<riipasfpzazftubbbbbbbbbbbbbbbbbbb",
"bbbbpfffaiiuyt1etiiiuy%%<ryyuififzizatabbbbbbbbbbbbbbbbbb",
"bbbzzfddappddit1ertttt;%%-><1>yysfiiptffpbbbbbbbbbbbbbbbb",
"bbizzzfddaapdit-<111112%%%%%%>sfxdiaatzzdabbbbbbbbbbbbbbb",
"bpizzzzzfddappir-><<1<1--%%%%-xzzfaziuffddutbbbbbbbbbbbbb",
"biadfffzzfddapit<>-->><>----%-pfzfsxiudfddautbbbbbbbbbbbb",
"iiifddddzzffaiitt1<>->1>>----%;affsxiussdaiyttbbbbbbbbbbb",
"111iiipppdzffsirttr21>><1>---%%pdfafi2udasiyrtbbbbbbbbbbb",
">2ee2tyyipafzfa2yr2111<>><>-r&%2sfaai1yusfpuyttbbbbbbbbbb",
">222e212yiiafzfait2111---1>ur1%<afapi1uszfpiyt-bbbbbbbbbb",
"-->>2e<112rtafzfiitr21%%-;12<&%%pfapttslzldppy1tbbbbbbbbb",
"b---21<h51112affpiytt-%%;;<1-%%2iffp1pdfpfcdpy2ettbbbbbbb",
"bbb--7899@1r1raaipiit>>--;%-%%tcxzzp>fddfazzfu1tapttbbbbb",
"bbbbbbbX3O>ii>rapapii2222bb%%2cxscvp1ffzzfzcdu,tyapittbbb",
"bbbbbbbb.o.-ai>ipaaiat11ybbb%eccivvutsffzffcsu;rtiipaptbb",
"bbbbbbbbbb  -ii1ppaiai2>abbbbrddlllutpsfszzzpu=2tpyyraptb",
"bbbbbbbbbbb  -aitadiait>bbbbbu1epppu1spsddzziu=;2aisytt2b",
"bbbbbbbbbbbb@3:aisdiayttbbbbbbreuuu,1ppiddzfiu==,epspy<2b",
"bbbbbbbbbb oOgw7fdsipy1bbbbbbbb,,,,>rrpusdzait==;>eipy,rb",
"bbbbbbbbbbg+qwjwfdaittibbbbbbbbbbb-<2rypsdfpe21==><121r2b",
"bbbbbbbbbbbh0kqaspy212bbbbbbbbbbbb=-<rripddi2*b1==>,1-rbb",
"bbbbbbbbbbb>-8q21<1<tbbbbbbbbbbbbbb=-2riipst2*bb>>>-->ebb",
"bbbbbbbbbbb%%->11><>bbbbbbbbbbbbbbb==2iiipat<*bb><>;;ebbb",
"bbbbbbbbbbb-%%>>><<ibbbbbbbbbbbbbbb%=1iiipyt*bb->2<,tbbbb",
"bbbbbbbbbbbb%%--->bbbbbbbbbbbbbbbbbb%1iiipte*b>;=1<,bbbbb",
"bbbbbbbbbbbbbb%%-bbbbbbbbbbbbbbbbbbb12iiiyre*b>,2<>2bbbbb",
"bbbbbbbbbbbbbbbbbbbbbbbbbbbbbbbbbbbb2tiiyte*b>,,<>2bbbbbb",
"bbbbbbbbbbbbbbbbbbbbbbbbbbbbbbbbbbb2tiiytre*b>2>>>2bbbbbb",
"bbbbbbbbbbbbbbbbbbbbbbbbbbbbbbbbbbb2tiitre,*=,<riirrbbbbb",
"bbbbbbbbbbbbbbbbbbbbbbbbbbbbbbbbbbbytiire,*b=<<izvi64bbbb",
"bbbbbbbbbbbbbbbbbbbbbbbbbbbbbbbbbbyiiiyr*bbb=<<zzdqh6bbbb",
"bbbbbbbbbbbbbbbbbbbbbbbbbbbbbbbbbietiir=bbbbb*<ppikkhibbb",
"bbbbbbbbbbbbbbbbbbbbbbbbbbbbbbbbbiytiyr-bbbbb;>tirqh6bbbb",
"bbbbbbbbbbbbbbbbbbbbbbbbbbbbbbbbbyiuir,-bbbbb=>etr%;+bbbb",
"bbbbbbbbbbbbbbbbbbbbbbbbbbbbbbbbpirair,bbbbbbb;1e%%==bbbb",
"bbbbbbbbbbbbbbbbbbbbbbbbbbbbbbbyiyrsu2,bbbbbbbb=;>,-<bbbb",
"bbbbbbbbbbbbbbbbbbbbbbbbbbbbbbbaiuddr2,bbbbbbbbb=;>-eriwi",
"bbbbbbbbbbbbbbbbbbbbbbbbbbbbbbapidza2,,bbbbbbbbbb&=-<>+$$",
"bbbbbbbbbbbbbbbbbbbbbbbbbbbbbaddzzdu,,bbbbbbbbbbbb&=;$$$b",
"bbbbbbbbbbbbbbbbbbbbbbbbbbbadzzlsyua<2bbbbbbbbbbbbbbbbbbb",
"bbbbbbbbbbbbbbbbbbbbbbbbbuadxxsi2--2u<bbbbbbbbbbbbbbbbbbb",
"bbbbbbbbbbbbbbbbbbbbbbbb4rupszi2*gg*2-bbbbbbbbbbbbbbbbbbb",
"bbbbbbbbbbbbbbbbbbbbbbb43<<risr24696*bbbbbbbbbbbbbbbbbbbb",
"bbbbbbbbbbbbbbbbbbbbbb43#***ru>>446bbbbbbbbbbbbbbbbbbbbbb",
"bbbbbbbbbbbbbbbbbbbbbb3#@***1bbbbbbbbbbbbbbbbbbbbbbbbbbbb"
};
