/* XPM */
static char *UCFPA0[] = {
/* columns rows colors chars-per-pixel */
"59 29 40 1 ",
"  c #0B0B0B",
". c #170F07",
"X c #1F170B",
"o c #131313",
"O c #1B1B1B",
"+ c #2F1B0B",
"@ c #2B230F",
"# c #3F2B1B",
"$ c #272727",
"% c #2F2F2F",
"& c #373737",
"* c gray23",
"= c #470000",
"- c #432F1B",
"; c #732B00",
": c #473323",
"> c #533F2F",
", c #5F4B37",
"< c #67533F",
"1 c gray28",
"2 c #4B4B4B",
"3 c gray34",
"4 c #5B5B5B",
"5 c #775F4B",
"6 c gray39",
"7 c #777777",
"8 c gray50",
"9 c #874307",
"0 c #AF4300",
"q c #CB5707",
"w c #DF670F",
"e c #FF7F1B",
"r c #FF8F3B",
"t c #8B8B8B",
"y c #9F9F9F",
"u c gray67",
"i c #B7B7B7",
"p c #FFC79B",
"a c LightGray",
"s c None",
/* pixels */
"sssssssssssssssssssssssssssssssssssssssssssssssssssssssssss",
"sssssssssssssssssssssssssssssssssssssssssssssssssssssssssss",
"sssssssssssssssssssssssssssssssssssssssssssssssssssssssssss",
"sssssssssssssssssssssssssssssssssssssssssssssssssssssssssss",
"sssssssssssssssssssssssssssssssssssssssssssssssssssssssssss",
"sssssssssssssssssssssssssssssssssssssssssssssssssssssssssss",
"sssssssssssssssssssssssssssssssssssssssssssssssssssssssssss",
"sssssssssssssssssssss;;--=sssssssssssssssssssssssssssssssss",
"sss$4$t72 8 8 t t 740q9;+= XO%::%%@Oe9O244442222241*sssssss",
"ss$&4ot21%6%6*616*40qw9;-=X@5<,,,1:@w9%%$4%4$ 2*1432%ssssss",
"ss$&7o4&14444324444qeq99;+=+++-99990w93226%4*$3123441*sssss",
"sso$4$2788t8yi2u6i4qq00qqqqrprwqqqww097t866667tiyyyy76sssss",
"sso$4$o2333332%3*2$;9999999999;9999990y8y22368u7777774sssss",
"ssoo4o$o  O O O % %--;;---+  ;rq9;990y84u3*23y77444463sssss",
"sso$4$&77774tuuia86*4764444123y71,5655,5u3$*2t7444444:sssss",
"ssoo4o$$$$$%3344u44$24444211%:84>>>>>>>%t3%%15,11111,@sssss",
"sso$4$$%%%%&1223t33$2331:%@@OX74O@@@@@@@83@%@%%%%>>>>>sssss",
"sssoOOOO$$$$$11261*$421:%@@@O@21O3OO$o  2$OOOOOOOO@OX%sssss",
"ssssssssssssX..XO%:%%%%@@ooooO$$oOOssssoss$     sssssssssss",
"sssssssssssssssssssssssssssssssss$%ssss%ss%o   Oossssssssss",
"ssssssssssssssssssssssssssssssssss%$ss2sss&Oo1O$ossssssssss",
"ssssssssssssssssssssssssssssssssss1*234444%%OOOO$Osssssssss",
"sssssssssssssssssssssssssssssssssss**%%%$%$&%$$$%$Ossssssss",
"sssssssssssssssssssssssssssssssssssssssssss$&%%$%%Ossssssss",
"ssssssssssssssssssssssssssssssssssssssssssss$&%2O%$Osssssss",
"ssssssssssssssssssssssssssssssssssssssssssss$&1%$%#Osssssss",
"sssssssssssssssssssssssssssssssssssssssssssss%&%%%%Osssssss",
"sssssssssssssssssssssssssssssssssssssssssssss$&&%%%Osssssss",
"ssssssssssssssssssssssssssssssssssssssssssssssOOOoossssssss"
};
