/* XPM */
static char *DMFLC3C7[] = {
/* columns rows colors chars-per-pixel */
"41 23 7 1 ",
"  c #9F3700",
". c #A73F00",
"X c #C34F00",
"o c #DF670F",
"O c #FF7F1B",
"+ c #FFE74B",
"@ c None",
/* pixels */
"@@@@@@@@@@@@@@@@@@ XXX @@@@@ @@@@@@@@@@@@",
"@@@@@@@@@@@@@@@@ XoOOOoX @@X @@@@@@@@@@@@",
"@@@@@@@@@@@@@ XooOOOOoXXXXX @@@@@@@@@@@@@",
"@@@@@@@@@@ XXX @@@@@    @@@@@@@@ X @@@@@@",
"@@@@@@   XX     XX @@@@@@@@@@@ X.@@@@@@@@",
"@@@@ XX  XXXooooXXXoooXX @@@@@@@@@@@@@@@@",
"@@@ XooXXXoooOOOooooOOoXXXX  @@@@@@@@@@@@",
"@@ XoOOOOooOOOOOOo @@@@@@@@@@@@@@@@@@ XX ",
"@@ oOOOoooOOOoOooXX @@@@@@@@@@@@@@@ XoX @",
"@ XoOOoOOOOOOOOOOOooX   XoX @@@@X @@@@@@@",
"@  XooOOO+++OOOOO+OOoXXX @@@@@X @@@@@@@@@",
"@ XooOOO++OO++OOOOoXX @@@@@@@@@@@@@@@@@@@",
"@ XoOO+++OOOOOOOOOOoX@@@@@@@ ooX@@@@@@@@@",
"@ XoOO+++OO+OOOO++OOo @@@@ XoOOo @@@@@@@@",
" XXoOO++OOOOOooOOooOOooOOooo @@XoX @@@@@@",
" XXoOOO+OOOoooooXXXXXXXX @@@@@@@@@@@@@@@@",
"@ XooOOO+OOOOOOoX @@@@@@@@@@@@@@@@ XX @@@",
"@@ XoooOOOOOOooOoooXX @@@@@@@@@@@@@@@ .@@",
"@@@  XooooooooXoooOOooX @@@@@@@@@@@@@@@@@",
"@@@@@ XXXoOOo @ XXXXXoOoXXX @@@@@@@@@@@@@",
"@@@@@@   XooOX@@@@@@@   oOOoXXXX @@@@@@@@",
"@@@@@@@@@  XoOX @@@@@@@@ XXXX    X @@@@@@",
"@@@@@@@@@@@    @@@@@@@@@@   @@@@@@@@@@@@@"
};
