/* XPM */
static char *DMFLE0[] = {
/* columns rows colors chars-per-pixel */
"35 36 7 1 ",
"  c #9F3700",
". c #A73F00",
"X c #C34F00",
"o c #DF670F",
"O c #FF7F1B",
"+ c #FFE74B",
"@ c None",
/* pixels */
"@@@@@@@@@@@@    @@@@@@@@@@@@@@@@@@@",
"@@@@@@@@@    XXX   XX..@@@@@@@@@@@@",
"@@@@@@@@@@@@  XoXXXXXXXX. @@@@@@@@@",
"@@@@@@@@@@@@@@ XoooooooXX @@@@@@@@@",
"@@@@@@@@@@@@@@@ XoOOOoooXXX. @@@@@@",
"@@@@@@@@ ...XX. XooOOOOoooXX. @@@@@",
"@@@@@@@ .XXXoXX.XooOOOOOOoooXX.@@@@",
"@@@@@@@ XXXoooXXooOOOOOOOoooXX.@@@@",
"@@@  @@.XoooooXooOOoOoOOOOOOooX@@@@",
"@@@X@@ XoooOOoooOoooOoooOOOOOoX  @@",
"@@  @@XXoOOOOooooooOOOoooOOOOoXX.@@",
"@@@@@@XooOOOoooOOOOOOOOOoooOOooX.@@",
"@@@@@@XoOOOOooOOOOOOOOOOooooOooX.@@",
"@@ @@@XoOO+OoOOOOOO++OOOooXXoooX.@@",
"@@ @@@XoOO+OOOOO++++++OOOooX XoX. @",
"@ X@@@ XOOOOOOO+++++OOOOOOoXX XX. @",
"@ X@@@ XoOOOOOOO+++OOOOOOOooX X.. @",
" .XX@@@XooOOoOOOOOOOOOoOOooX. .. .@",
"..XooX@ XoOOoOOOOOOOOoooOoX. @@  X@",
".XooOoX@XooOoooOOooooXooooX.@@ XXX ",
".XooOoooXoooXoooOOOoXXooXoX.@ XooX ",
".XXoOOooXXooXXooOOOooXXoXXX.@XXooX ",
"..XoOOOooXXX..XooOOOoXXXX....XoOoX ",
" ..XoOOOoooX@  XoooooXX. @@@XoOOoX ",
"@ .XoOOOOooo@@@ .XooXX. @@ XoOOOoX ",
"@@.XoooOOOoo@@@@ .XXX. @@ XXoOOOoX ",
"@@ XXXoooOOoX@@@@@@ . @@..oooOOooX@",
"@@@ ..XXoooooXXX @@@@@@@ooOOOOoooX@",
"@@@@   .XXXXX  @@@@@.XXooOOOoooXX @",
"@@@@@@@@@@@@@@@@.XXXoooOOoooooX. @@",
"@@@@@@@@@@@@@@@   .XXXXoooooXX. @@@",
"@@@@@@@@@@@@@@@@@@@@@@ .X. @@@@@@@@",
"@@@@@@@@@@@@@  .XoOoX@@@@@@@@@@@@@@",
"@@@@@@@@@@@@@@@ .XoOOoX  @@@@@@@@@@",
"@@@@@@@@@@@@@@@@ XXooX @@@@@@@@@@@@",
"@@@@@@@@@@@@@@@@@  .. @@@@@@@@@@@@@"
};
