/* XPM */
static char *DMFLA5[] = {
/* columns rows colors chars-per-pixel */
"30 28 6 1 ",
"  c #9F3700",
". c #C34F00",
"X c #DF670F",
"o c #FF7F1B",
"O c #FFE74B",
"+ c None",
/* pixels */
"+++++++++++++++++++++ ++++++++",
"++++++++++++++++++++ +++++++++",
"++++++++++++++++++++. ++++++++",
"++++++ ++++     +++++X.+++++++",
"++++++. ++ .XXXXX. ++.X ++++++",
"++++++ ...XXoooooX.+ .X ++++++",
"+++++++ .XooooooooX+ X. +   ++",
"++++++++ .XXooooooX .X.  .X. +",
"+++ ..XoXXXXXXXXoooXXoX .X. + ",
"+++.+ .XoooooX..oooXXoX .X +++",
"++ +++ .XoooooXXooXXooX .X. ++",
"+++++++ .XooooooooXoooX..XX. +",
"+++++.XX..XooOoooOooooXXXoX. +",
"++ . XooXX.XooOOOOoooXXoooX. +",
"+++ XoXoooXXooooOOOoXXoooX. ++",
"+++++ .XoooooooOOOooXXoooX. ++",
"  . +  .XoooooOOoOooooooX. +++",
"+++X .XXXXoooooooooooooX. ++++",
"+++.XXoooXXooooooooooooX +++++",
"++++ .XoooooooooooooooX.+++ ++",
"++++  .XoooooooooooXoX. +++ ++",
"++++++ .XoooooXXXXX.XoX. X.+++",
"+++++++ .XXXooX.    .XXXX.++++",
"++++++++++ .XooX. ++     +++++",
"+++++++++++ .XXXX.++++++++++++",
"+++++++++++++++ .X++++++++++++",
"+++++++++++++++++.++++++++++++",
"++++++++++++++++++ +++++++++++"
};
