/* XPM */
static char *DMFLG0[] = {
/* columns rows colors chars-per-pixel */
"64 57 6 1 ",
"  c #9F3700",
". c #A73F00",
"X c #C34F00",
"o c #DF670F",
"O c #FF7F1B",
"+ c None",
/* pixels */
"+++++++++++++++++++++++++++++++++    +++++++++++++++++++++++++++",
"++++++++++++++++++++++++++++++  XoOoX ++++++++++++++++++++++++++",
"+++++++++++++++++++++++++++++ XoX ++ X++++++++    ++++++++++++++",
"+++++++++++++++++++++++++++++ +  +++++ +++++  XooX +++++++++++++",
"++++++++++++++++++++++++++++++++++++++++++++++++ XXX +++++++++++",
"++++++++++++++++++++++++++++++++++++++++++++++++++ X +++++++++++",
"+++++++++++++++++++++++++++++++++++++++++++++++++++ X+++++++++++",
"++++++++++   ++++++++++ ++++++++++++++++++++++    ++ +++++++++++",
"+++++++++ XooX  ++++++++++++++++++++++++++++  XooX +++++++++++++",
"++++++++ XX  +++++++++++++++++++++++++++++++++    X ++++++++++++",
"++++++++ o ++++++++++++++++++++++++++++ ++++++++++ X +++++++++++",
"++++++++ X++++++++++++++++++++++++++++ ++++++++++++ o ++++++++++",
"+++++++++X++++++++++++++++++++++++++++ ++++++++++++ Xo +++++++++",
"+++++++++ ++++++++++++++++++++++++++++++++++++++++++ XX ++++++++",
"+++++++++ +++++++++++++++++++   +++++++++++++++++++++ o ++++++++",
"+++++++++++++++++++++++++++ XooX ++++++++++++++++++++ O ++++++++",
"+++++++++++++++++++X ++++ XX ++ X ++++++++++++++++++++O ++++++++",
"++++++++++++++++++ ++++++ +++++++ ++++++++++++++++++++o ++++++++",
"+++++++++++ XX ++++++++++++++++++++   XX  ++++++++++++X ++++++++",
"++++++++++ Xo ++++++++++++++++++++ XXXoOoX X++++++++++  ++++++++",
"+++++++++ Xo +++++++++++++++++++++++++ XoOX X+++++++++ +++++++ +",
"+++++++++ XO+++++++++++++++++++++++++++ XoOX +++++++++ +++++++X ",
"+++++++++ Xo++++++++++++++++++++++++++++ XoX+++++++++++++++++++ ",
"++++++++++ X+++++++++++++++++  ++++++++++ XX++++++++++++++++++++",
"+++++++++++  ++++++++++++++++++++++++++++++X+ X +++++++++++ ++++",
"+++++++++++++++++++++ X  ++++++++++++++++++ ++ X ++++++++++ ++++",
"++++++++++++++++++++ XX++++++++++++++++++++++++ X +++++++++.++++",
"++++++++++++++++++++XX ++++++++++++++++++++++++ o +++++++++X++++",
"+++++++++++++++++++ Xo+++++++++++++++++++++++++ X +++++++++X++++",
"+++++++++ +++++++++ XO++++++++++++++++++++++++++ +++++++++ X +++",
"++++ ++++X+++++++++ Xo+++++++++++++ ++++++++++++ +++++++++ oX ++",
"++ X ++++ ++++++++++ X ++++++++++o.+++++++++++++++++++++++ OX ++",
"++X ++++++ ++++++++++ X ++++++++++++++++++++++++++++++++++ Oo ++",
"+ X ++++++++++++++++++++++++++ ++++++++ ++++++++++++++++++ Oo ++",
" Xo.++++++++++++++++++++++++++XX +++++ X ++++++++++++++++ XOX ++",
" XOX+++++++++++++++++++++++++++ X +++ XX+++++++++++++++++ XOX ++",
" XOX++++++++++ ++++++++++++++++ XXoOoXX ++++++ ++++++++++XoX +++",
"+ o +++++++++ +++++++++++++++++++ XoX +++++++X +++++++++ oX ++++",
"+ X ++++++++++++++++++++++++++++++++++++++++X +++++++++ XX +++++",
"++XX ++++ ++++++++++++++++++++++++++++++++   ++++++++ XX +++++++",
"++ X ++++ ++++++++++++++++++++++++++++++++++++++++++XXX ++++++++",
"+++X ++++X+++++++++++++++++++++++++++++++++++++++++   ++++++++++",
"+++  +++ X++++++++ +++++++++++++++++++++++++++++++++++++++++++++",
"++++ ++ Xo++++++++ X+++++++++++++++++++++ ++++++++++++++++++++++",
"+++++++ XO ++++++++XX    ++++++++++++++ .+++++++++++++++++++++++",
"+++++++ XoX +++++++ XoOOoXXX  ++++++++++++++++++++++++++++++++++",
"+++++++  XoX +++++++  XooX +++++++++++++++++++++++++++++++++++++",
"+++++++++ XoX ++++++++    ++++++++++++++++++++++++++++++++++++++",
"++++++++++  XXX ++++++++++++++++++++++++++++++++++++++++++++++++",
"+++++++++++++ XX +++++++++++++++++++++++++++++++++++++++++++++++",
"++++++++++++++ ++++++++++++++++++++X +++++++ +++++++++++++++++++",
"++++++++++++++X +++++++++++++++++++ ++++++++ +++++++++++++++++++",
"++++++++++++++ X ++++++++++++++++++++++++++ X+++++++++++++++++++",
"++++++++++++++ XXX +++++++++++++++++++++   X +++++++++++++++++++",
"++++++++++++++++ XooX  ++++++++++++     XoX ++++++++++++++++++++",
"+++++++++++++++++    +++++++++    XXoOOoX ++++++++++++++++++++++",
"++++++++++++++++++++++++++++++++++      ++++++++++++++++++++++++"
};
