/* XPM */
static char *DMFLF0[] = {
/* columns rows colors chars-per-pixel */
"52 49 7 1 ",
"  c #9F3700",
". c #A73F00",
"X c #C34F00",
"o c #DF670F",
"O c #FF7F1B",
"+ c #FFE74B",
"@ c None",
/* pixels */
"@@@@@@@@@@@@@@@@@@@ .... @@@@@@@@@@@@@@@@@@@@@@@@@@@",
"@@@@@@@@@@@@@@@@@ XXoOOoX. @@@@@@@@@@@@@@@@@@@@@@@@@",
"@@@@@@@@@@@@@@@@.XooOOOOoXX @@@@@@@@@@   @@@@@@@@@@@",
"@@@@@@@@@@@@@@@ XooOooXX. @. @@@@@@   ... @@@@@@@@@@",
"@@@@@@@@@@@@@@ X @ XX @@@@@@@@    XooooXOX @@@@@@@@@",
"@@@@@@@@@@@@@@ .@@@ @@@@@@@@ XoooXoOOOooooX@@@@@@@@@",
"@@@@@@@@@@@@@@ @@@ @@ X @@ XooOOOooOOOOOOoo@@@@@@@@@",
"@@@@@@@@@@@@@@@@@@@@.ooX @@@XXooOOOOO+OOOOo @@@@@@@@",
"@@@@@@@@@@@@   @@@@ X @@.@@@@@@XoooOOO++OOoX @@@@@@@",
"@@@@@@@@@@ XooX @@@@@@@@@@@@@@@@  XoOOO+OOoX @@@@@@@",
"@@@@ XXX  XoOOo @@@@@@@@@@@@@@@@@@XXoOOOOOOX @@@@@@@",
"@@@ XXoooooOOoX@@@@@    @@@@@@.X @ OoOOOoOOX  @@@@@@",
"@@@ XoooOO+OOoX@@@@ XXOX @@@@.oOX@ XoOOoXoOoX @@@@@@",
"@@@XooOOOOOOoX @@@XooooooX @@@@XX@@ ooOoX ooX @@@@@@",
"@@@XoOOOOoooX @@@XoOOOOOOoX @@@@. @@XoOo @ X @@@@@@@",
"@@@XoOOOoXX  @@@ oOOOooo @@@@@@@@ @@ Xoo @@X@@@@@@@@",
"@@@ oOOOo @@@  @ oOooX @@@@@@@@@@@@@@ XX@ @ @@  @@@@",
"@ @@ooOOo@@@@X@@@XoXX @@ XoooX @@@@@@@ X@@@@@@@X.@@@",
"@X@@ oooX @@@ @@@ X  @@ XoOOOoX@@@@ @@@ @@@@@@@ oX@@",
"@ @@@ OXoX@@@@@@@@ @@@@@@ XoOOo @@@X@@@ @@@@.@@@oX.@",
"@@@ @@@@@  @@@@@ @@@@@@@@@ XoOo @@ o @@@@@@@@@@@XoX ",
"@@ X@@@@@@@@ @@@o @@ @@@@@@ oOo @@XoX@@@@@@@@@@@ OX ",
"@@Xo @@@@@ .@@@ oX@@@@@@@@@@ Oo@@@oOo @@@ @@@@@@.o.@",
"@@oOX@@@@.oX@@ XOoX@@@@@@@@@@oX@@@oOoX@@@. @@@@.oX @",
"@@oOo@@@ XO @@ XOOo@@@@@@@ @@X@@@ oOoX@@@@X @@ XX @@",
"@ oOo@@@.oO @@ XoOo @@@@@.o@@ @@.XoOoX @@@o @@ @@@@@",
"@ oOo@@@ XoX@@ XoOoX @@@@@X@@ @@XooOoo @@@o.@@@@@ @@",
" XoOo@@@@  o @@ oOoooX@@@@@@@@@@XoOOoX @@ X @@@@@.@@",
" oOOX @@@@@ X@@@oOOOOoo @@@@@@@ ooOooX@@@X.@@ @@@o@@",
" oOOoX@@@@@@@@@@XoOOOOOOoX @@@ XoOOoX @@@ @@@X @ X@@",
" oOOOo@@@@ @@@@@ XooooooX @@XoooOOOX @@@@@@@@X @ @@@",
" ooOOo @@@.@@@@@@@  o   @@XooOOOOOo @@@@@@@@ oX@@@@@",
" XoOOo  @@X @@@@@@@@@@@@@@@ XoOoooX @@@@@@@ oOX@@@@@",
"@XoOOoXo@@ooX @@@@@@@@@@@@@@ XooXX @@@ @@@ ooOo @@@@",
"@XoOOoXX @oOoX @@@@@@@ .@@@@@   @@@@  @@@@XoOOo @@@@",
"@XooOOooX XOOoX@@@@@@ o@@@@@@@@@@@@@@@@@ XoOOoOX@@@@",
"@ XOoOOOOo oOooX @@@@@@@@@@@ oOoXX@@@@@ XoOOOoX @@@@",
"@@ XoooOOOo OOoooooooX@@@@ XoOOooo.@@@ XoOOOoXX @@@@",
"@@@@ XooOOOooXoOOooOOoX @@@ XoOOOOo.@XoXO+OoOX @@@@@",
"@@@@ XoooOOooXooOOOoOoX @@@ XoOOOOOo@XooOOooX  @@@@@",
"@@@@@@  XooOooXooooooX @@@@@ XoooooX oOOOooX @@@@@@@",
"@@@@@@@@ XooOOoXXXX  @@@@@@@@@@@@@ XXXoooXX @@@@@@@@",
"@@@@@@@@@@ XoOOOOoo@@@@@@@@@@@@@@@@@@ XXX @@@@@@@@@@",
"@@@@@@@@@@@ Xooooo @@@@@@@@@@ X @@@@@@@@@@@@@@@@@@@@",
"@@@@@@@@@@@@      @@@@@@  XXXXXoOOo@@@@X@@@@@@@@@@@@",
"@@@@@@@@@@@@@@@@@@@   XXXXoXooOOooX@@ X @@@@@@@@@@@@",
"@@@@@@@@@@@@@@@@@@@@@@@ oooOOOOoXX @@@@@@@@@@@@@@@@@",
"@@@@@@@@@@@@@@@@@@@@@@@@@ XooooX  @@@@@@@@@@@@@@@@@@",
"@@@@@@@@@@@@@@@@@@@@@@@@@@@     @@@@@@@@@@@@@@@@@@@@"
};
