/* XPM */
static char *MP40E0[] = {
/* columns rows colors chars-per-pixel */
"78 31 15 1 ",
"  c #0B0B0B",
". c #131313",
"X c #1B1B1B",
"o c #232323",
"O c #2F2F2F",
"+ c #373737",
"@ c #434343",
"# c gray28",
"$ c gray34",
"% c #5B5B5B",
"& c gray39",
"* c #6F6F6F",
"= c gray50",
"- c #8B8B8B",
"; c None",
/* pixels */
";;;;;;;;;;;;;;;;;;;;;;;;;;;;;;;;;;;;;;;;;;;;;;;;;;;;;;;;;;;;;;;;;;;;;;;;;;@*;;",
";;;;;;;;X XX.XX;;;;;;;;;;;  X.;;;;;;;;;;;;;;;;;;;;;;;;;;;;;;;;;;;;;;;;;;;;o#;;",
";;;;;;;. X..X.oXooooXXXXX..  ......XXoooooooOOO++++OoOOO#;;;;;;;;;;;;;;;;;o+;;",
";;;;;; #&&%%&&&**&%$$$##*$=&$OXXXXXoOO+@@@$%====*%$#%*$@@.X#;;;;;;;;;;;;;;.o;;",
";;;;Xo@o+.XXoX.        X.......XXXXXX..XX+@++@@@@++@OOXo@o+#o####+O++@$##@O@O+",
";;;.+*o.XXoXoo  O@@OoXoX                ..#X+#XO+++@oOXXO .Oo%%%$++#*-*+$+X O+",
";;;+#o    . oo  OOoo....Xo            ..X.Xo+OOX.X.  . .o  . ....  XXXX.XXXXX#",
";;;XOX      ..  ..        oO+#@$#OooX    ......      .  X;;;;;;;;;  .;;;;;;;;;",
";;O.        XXX.       .X XXXXXXXXXoo  Oo .XOo. .;;;;;;;;;;;;;;;;; .;;;;;;;;;;",
";;         .+=$oXXOOOOOO+OOOoooX...XX  X X.XOX.X.;;;;;;;;;;;;;;;;;;;;;;;;;;;;;",
"OX. . . X.....            ....XXXXX. ;   X  .XXO;;;;;;;;;;;;;;;;;;;;;;;;;;;;;;",
"&o  X.o.... ..               ... ... ;;; .   ..O;;;;;;;;;;;;;;;;;;;;;;;;;;;;;;",
"    oo .    .o.                 ... ;;;;      .O;;;;;;;;;;;;;;;;;;;;;;;;;;;;;;",
";;;;...          X;;  ......    .  ;;;;;;     X;;;;;;;;;;;;;;;;;;;;;;;;;;;;;;;",
";;;;;;..  .. .;; @;;; o;;;;;      ;;;;;;;   . o;;;;;;;;;;;;;;;;;;;;;;;;;;;;;;;",
";;;;;;;o.  ..o;; +;;; O;;;;;;;;;;;;;;;;;;   . O;;;;;;;;;;;;;;;;;;;;;;;;;;;;;;;",
";;;;;;;OX   .o;;;o;;; +;;;;;;;;;;;;;;;;;;   ..+;;;;;;;;;;;;;;;;;;;;;;;;;;;;;;;",
";;;;;;;o.   .O. .....X;;;;;;;;;;;;;;;;;;;   X.@;;;;;;;;;;;;;;;;;;;;;;;;;;;;;;;",
";;;;;;oX.   .+       ;;;;;;;;;;;;;;;;;;;; . X.@;;;;;;;;;;;;;;;;;;;;;;;;;;;;;;;",
";;;;OoXX.   .X;;;;;;;;;;;;;;;;;;;;;;;;;;; . X.@;;;;;;;;;;;;;;;;;;;;;;;;;;;;;;;",
";;;oXXX..  .X;;;;;;;;;;;;;;;;;;;;;;;;;;;; . XX@;;;;;;;;;;;;;;;;;;;;;;;;;;;;;;;",
";;oX....   o+;;;;;;;;;;;;;;;;;;;;;;;;;;;; ..OX#;;;;;;;;;;;;;;;;;;;;;;;;;;;;;;;",
";oX....   X+;;;;;;;;;;;;;;;;;;;;;;;;;;;;; X.+X$;;;;;;;;;;;;;;;;;;;;;;;;;;;;;;;",
"; ....   X+;;;;;;;;;;;;;;;;;;;;;;;;;;;;;; X.+X%;;;;;;;;;;;;;;;;;;;;;;;;;;;;;;;",
";  ..   X+;;;;;;;;;;;;;;;;;;;;;;;;;;;;;;; X.#X%;;;;;;;;;;;;;;;;;;;;;;;;;;;;;;;",
";      .O;;;;;;;;;;;;;;;;;;;;;;;;;;;;;;;; X.@X$;;;;;;;;;;;;;;;;;;;;;;;;;;;;;;;",
";X     X;;;;;;;;;;;;;;;;;;;;;;;;;;;;;;;;; X.+X@;;;;;;;;;;;;;;;;;;;;;;;;;;;;;;;",
";;o    ;;;;;;;;;;;;;;;;;;;;;;;;;;;;;;;;;; X.@XO;;;;;;;;;;;;;;;;;;;;;;;;;;;;;;;",
";;;ooXX;;;;;;;;;;;;;;;;;;;;;;;;;;;;;;;;;; o.+OO;;;;;;;;;;;;;;;;;;;;;;;;;;;;;;;",
";;;;;;;;;;;;;;;;;;;;;;;;;;;;;;;;;;;;;;;;; . X.O;;;;;;;;;;;;;;;;;;;;;;;;;;;;;;;",
";;;;;;;;;;;;;;;;;;;;;;;;;;;;;;;;;;;;;;;;;     o;;;;;;;;;;;;;;;;;;;;;;;;;;;;;;;"
};
