/* XPM */
static char *MP40B0[] = {
/* columns rows colors chars-per-pixel */
"62 77 88 1 ",
"  c black",
". c #070707",
"X c #0B0B0B",
"o c #131313",
"O c #1B1B1B",
"+ c #2B230F",
"@ c #332B13",
"# c #3F2F17",
"$ c #232323",
"% c #272727",
"& c #2F2F2F",
"* c #373737",
"= c gray23",
"- c #7F1B1B",
"; c #43331B",
": c #4B371B",
"> c #533F1F",
", c #5F4323",
"< c #6B4727",
"1 c #774F2B",
"2 c #7F532F",
"3 c #434343",
"4 c gray28",
"5 c #4B4B4B",
"6 c gray34",
"7 c #5B5B5B",
"8 c gray39",
"9 c gray42",
"0 c #6F6F6F",
"q c #B30000",
"w c #BF0000",
"e c #972F2F",
"r c #9B3333",
"t c #A33B3B",
"y c #A73F3F",
"u c #CB0000",
"i c #D70000",
"p c #E30000",
"a c #EF0000",
"s c red",
"d c #FF1F1F",
"f c #FF3F3F",
"g c #AF7B1F",
"h c #875733",
"j c #8F5F37",
"k c #9B633B",
"l c #A36B3F",
"z c #C34F00",
"x c #DF670F",
"c c #F37317",
"v c #AF4747",
"b c #B34F4F",
"n c #BB5757",
"m c #BF5B5B",
"M c #AB6F43",
"N c #B37347",
"B c #BF7B4B",
"V c #FF5F5F",
"C c #CB7F4F",
"Z c #FF7B7B",
"A c #CF8353",
"S c #D78B5B",
"D c #DF9363",
"F c #E79B6B",
"G c #EFA373",
"H c #F7AB7B",
"J c #FFB37B",
"K c #DF8787",
"L c #E78F8F",
"P c #FF9B9B",
"I c #FFB383",
"U c #FFBB93",
"Y c #FFBF9B",
"T c #F3A3A3",
"R c #F7ABAB",
"E c #FFB7B7",
"W c #FFBBBB",
"Q c #FFC79B",
"! c #FFD7BB",
"~ c #FFFFB3",
"^ c #FFDBC7",
"/ c #FFDBDB",
"( c #FFE3D3",
") c #FFEBDB",
"_ c #FFEBDF",
"` c #FFFFD7",
"' c white",
"] c None",
/* pixels */
"]]]]]]]]]]]]]]]]]]]]]]]]]]]]]]]]]]]]]]]]g]]]]]]]]]]]]]]]]]]]]]",
"]]]]]]]]]]]]]]]]]]]]]]]]]]]]]]]]]]]]]]]mbn]]]]]]]]]]]]]]]]]]]]",
"]]]]]]]]]]]]]]]]]]]]]]]]]]]]]]]]]]]]]]mnnnb]]]]]]]]]]]]]]]]]]]",
"]]]]]]]]]]]]]]]]]]]]]]]]]]]]]]]]]]]]]nbASCn]]n]]]]]]]]]]]]]]]]",
"]]]]]]]]]]]]]]]]]]]]]]]]]]]]]]]]]]]]]tfJGSBnvv]]]]]]]]]]]]]]]]",
"]]]]]]]]]]]]]]]]]]]]]]]]]]]]]]]]mm]]]fLHIGSber]]]]]]]]]]]]]]]]",
"]]]]]]]]]]]]]]]]]]]]]]]]]]]]]]]]]mmbaZPUQUHVdiy]]]]]]]]]]]]]]]",
"]]]]]]]]]]]]]]]]]]]]]]]]]]]]]]]]]mvfdZRQQQYPZaa]]]]]]]]]]]]]]]",
"]]]]]]]]]]]]]]]]]]]]]]]]]]]]]]]]]vddfVRQ~~QRZfsa]]]]]]]]]]]]]]",
"]]]]]]]]]]]]]]]]]]]]]]]]]]]]]]]]bedafVR!``!RVaads]]]]]]]]]]]]]",
"]]]]]]]]]]]]]]]]]]]]]]]]]]]]]]]]vrddfZR(``(RZfdda-]]]]]]]]]]]]",
"]]]]]]]]]]]]]]]]]]]]]]]]]]]]]]]nvfffVPo$$$$oPVffap]]]]]]]]]]]]",
"]]]]]]]]]]]]]]]]]]]]]]]]]]]]nmmwdfVVZo$_''_$oZVVf]]]]]]]]]]]]]",
"]]]]]]]]]]]]]]]]]]]]]]]]]]]nytdVdVZTX$/_''_/$XTZVV]]]]]]]]]]]]",
"]]]]]]]]]]]]]]]]]]]]]]]]]]]bdpasdZZoo()_''__(ooZZVpw]]]]]]]]]]",
"]]]]]]]]]]]]]]]]]]]]]]]]]]]nupfVfZRoX)_'OX')_XoRZfiaw]]]]]]]]]",
"]]]]]]]]]]]]]]]]]]]]]]]]]]]bddsfVZE$o)`'oX'``o$EZVfii]i]]]]]]]",
"]]]]]]]]]]]]]]]]]]]]]]]]]]]rddfVVPW(.o'O. O'o.(WPVVfddaaa]]]]]",
"]]]]]]]]]]]]]]]]]]]]]]]]]]]qadfZZW^)`OoooOooO`)^WZZfdaaadw]]]]",
"]]]]]]]]]]]]]]]]]]]]]]]]]]euaVVLW_)``'XXoOXX'``)_WLVVafaau]]]]",
"]]]]]]]]]]]]]]]]]]]]]]]]]yqufZZR^_``''XOO$OX'``)_^RZZfaaa]]]]]",
"]]]]]]]]]]]]]]]]]]]]]]]]]]epafVW(``'''oO$$Oo'___)(WVfafdp]]]]]",
"]]]]]]]]]]]]]]]]]]]]]]]]]]]dfVZW_`''''X$O$$X'''()_WZVfddar]]n]",
"]]]]]]]]]]]]]]]]]]]]]]]]]]dfVKR('~$oo..XXoX..oo$^'(RKVfdaaddb]",
"]]]]]]]]]]]]]]]]]]]]]]]]asfVZR^)`$o&$$$OXoO$$$&o$`)^RZVfsaxzb]",
"]]]]]]]]]]]]]]]]]]]]]zcde5$ooo.XoO$ooXX$OX$XXoo$Oo`//PZVsdad]]",
"]]]]]]]]]]]]]]]]]]]]]]fdO..  XoX%=65..........56=%X^EPZVfdafd]",
"]]]]]]]]]]]]]]]]]]]]]]xdo5fVZXXX365=.oX    Xo.=563XEPZVffffd]]",
"]]]]]]]]]]]]]]]]]]]]]]]b.4ddVooo35653*445844*35653ooVVffdfdd]]",
"]]]]]]]]]]]]]]]]]]]]]]vaX4dadoOO*$$$OoOOO$OOoO$$$*OOofddVdaae]",
"]]]]]]]]]]]]]]]]]]]]]]yaX=ddVOoXXoX...XoOooX...XoXXoOfddaaf]t]",
"]]]]]]]]]]]]]]]]]]]]]]bpo*ddOo%&O=&$X....X...X$&=O&%oOddsaiut]",
"]]]]]]]]]]]]]]]]]]]]]]]yo&d$o%3&OOOooXX..X.XXooOOO&3%o$appiq]]",
"]]]]]]]]]]]]]]]]]]]]]]]vo&doX&=%$OOoOooooXoooOoOO$%=&Xoappt]]]",
"]]]]]]]]]]]]]]]]]]]]]]]]o$ OOO&*=4%oo$$$$$$$$oo%4=*&OOO p]]]]]",
"]]]]]]]]]]]]]]]]]]]]]]]]X$XoOO$$3OO&=354*=453=&OO3$$OOoXv]]]]]",
"]]]]]]]]]]]]]]]]]]]]]]]]oooOo&&&&8083..    ..3808&&&&oOoo]]]]]",
"]]]]]]]]]]]]]]]]]]]]]]]]Xo$*&$$O.Xo$$35554*&$oXoX.O$$&*$o]]]]]",
"]]]]]]]]]]]]]]]]]]]]]]]]XX%*&$ .$oo49009768687=oo$. $&*%XX]]]]",
"]]]]]]]]]]]]]]]]]]]]]]]].$*OO.o%385$........  o583%o.OO*$.]]]]",
"]]]]]]]]]]]]]]]]]]]]]]]o$&o..O%=6=&%  .XoooXXo$&=6=%O..o&$o]]]",
"]]]]]]]]]]]]]]]]]]]]]]1OOO XO$&&%$$%$*&&&%&%%&5$$%&&$OX OOO]]]",
"]]]]]]]]]]]]]]]]]]]]]<j$O o$$&$$$$O**33*%&&&&*6O$$$$&$$o O$]]]",
"]]]]]]]]]]]]]]]]]]]1hj$$. O$$$$$$Oo=33333=****5oO$$$$$$O .$$]]",
"]]]]]]]]]]]]]]]]]]<hjl$o.o$$$$$$$oo*555533=***5oo$$$$$$$o.o$]]",
"]]]]]]]]]]]]]]]]]<jjkM. .o$OOOO$OoO5866553=***5OoO$OOOO$o. .]]",
"]]]]]]]]]]]]]]]]]<jjNOX.XoO$$$OOooo5866653=&&&6oooOO$$$OoX.XO]",
"]]]]]]]]]]]]]]]]]<1kNX.X.oO$$OooXoo5986653=*&&7ooXooO$$Oo.X.X]",
"]]]]]]]]]]]]]]]]]:1kNX.XXoOOOooXXoX4088654==&&6XoXXooOOOoXX.X]",
"]]]]]]]]]]]]]]]]]>1hkXXXXXoooooXXXo409866553&&5oXXXoooooXXXXX]",
"]]]]]]]]]]]]]]]],:<1h.X.XXXXXXXXXXo698866553&&6oXXXXXXXXXX.X.]",
"]]]]]]]]]]]]]]]]1;,11.X..XXXXXXXXXX5988655==&&4XXXXXXXXXX..X.]",
"]]]]]]]]]]]]]]]]M@:,. o..XXXXXXXXXo508844==*&&*oXXXXXXXXX..o .",
"]]]]]]]]]]]]]]]]k@:,XXo.  XXXXXXX.o4986553**&&4o.XXXXXXX  .oXX",
"]]]]]]]]]]]]]]]],+@,XX$.   .XXXX.Xo48645333&&%4oX.XXXX.   .$XX",
"]]]]]]]]]]]]]]]]>+;,.oOoX  .......o=7===*3=*&&=o.......  XoOo.",
"]]]]]]]]]]]]]]]]]@;1oo%OX. ..    .o56****=**&&=o.    .. .XO%oo",
"]]]]]]]]]]]]]]]]];;h.X$oX.        X46*&****&&&4X        .Xo$X.",
"]]]]]]]]]]]]]]]]]>>M.Xo%OX.      .o56**&&&&&&&3o.      .XO%oX.",
"]]]]]]]]]]]]]]]]]:<NXXXO%OX       o*5&&&&&%%&&*o       XO%OXXX",
"]]]]]]]]]]]]]]]]]:<lkXXXo%Oo ...  o*6&&**&&%%%*o  ... oO%oXXX]",
"]]]]]]]]]]]]]]]]]><<1oXXXo$Oo     X&4*&&&&&&&&=X     oO$oXXXo]",
"]]]]]]]]]]]]]]]]],jjMoXXXXO$$oo.  X&4*&&&&&&&&3X  .oo$$OXXXXo]",
"]]]]]]]]]]]]]]]]+kNkj.....XoOOoo. o&4*&&&&&&%&5o .ooOOoX.....]",
"]]]]]]]]]]]]]],,hNkh<     ..   .. .&4****&%%%&5. ..   ..     ]",
"]]]]]]]]]]]],,;,<NSSF              $4***&%%%%%4              ]",
"]]]]]]]]]]],@@;:1hhhhh     ..      $=&&&&&%%%%4      ..     ]]",
"]]]]]]]]]],+++##;>>,,,      oooXXXX$*&&&%%%%%%*XXXXooo      ]]",
"]]]]]]]]]]++#;h1MAkNNSA   X%%$$$ooo&3%%&&&%%%%*ooo$$$%%X   ]]]",
"]]]]]]]]]]>+hBMklChNDADA Xo&3&%$$oo$%$$%%%%%%$&oo$$%&3&oX ]]]]",
"]]]]]]]]]:>2kCCjMChNCABANXX$*&&$$$o$%$$$$$$$$$%o$$$&&*$XX]]]]]",
"]]]]]]]]<kMMSADNkGNhSDDDAX..$=&&$oo$$$O$OO$OO$$oo$&&=$..X]]]]]",
"]]]]]]:12NSSAlDNDSCNADSDo  X$&*%$XX$%&&*3&***&*XX$%*&$X ]]]]]]",
"]]]]]2:,MSMSGFSAGDGANXoooXXoo$$$OoX$$OOO$oOO$$&XoO$$$ooX]]]]]]",
"]]];><ljDSDMDFSSUGGANXoXoXOOOo$$OXX$OooOOO$O$$&XXO$$$o.X]]]]]]",
"]<<<1<1lCSGBkDDDQFDNA$$$$$$$&*$$oX.oOoooOoOOo$%.Xo$$$o ]]]]]]]",
"<h<2hlMMFNSDNCBBGUlkD.XoOO$$%&$ooXXo$oooooooO$$o.XXO$oX]]]]]]]"
};
