/* XPM */
static char *MP40A0[] = {
/* columns rows colors chars-per-pixel */
"62 66 44 1 ",
"  c black",
". c #070707",
"X c #0B0B0B",
"o c #131313",
"O c #1B1B1B",
"+ c #2B230F",
"@ c #332B13",
"# c #3F2F17",
"$ c #232323",
"% c #272727",
"& c #2F2F2F",
"* c #373737",
"= c gray23",
"- c #43331B",
"; c #4B371B",
": c #533F1F",
"> c #5F4323",
", c #6B4727",
"< c #774F2B",
"1 c #7F532F",
"2 c #434343",
"3 c gray28",
"4 c #4B4B4B",
"5 c gray34",
"6 c #5B5B5B",
"7 c gray39",
"8 c gray42",
"9 c #6F6F6F",
"0 c #875733",
"q c #8F5F37",
"w c #9B633B",
"e c #A36B3F",
"r c #AB6F43",
"t c #B37347",
"y c #BF7B4B",
"u c #CB7F4F",
"i c #CF8353",
"p c #D78B5B",
"a c #DF9363",
"s c #E79B6B",
"d c #EFA373",
"f c #FFBB93",
"g c #FFC79B",
"h c None",
/* pixels */
"hhhhhhhhhhhhhhhhhhhhhhhhhhhhhhhhhhhhhho$$$$ohhhhhhhhhhhhhhhhhh",
"hhhhhhhhhhhhhhhhhhhhhhhhhhhhhhhhhhhhho$hhhh$ohhhhhhhhhhhhhhhhh",
"hhhhhhhhhhhhhhhhhhhhhhhhhhhhhhhhhhhhX$hhhhhh$Xhhhhhhhhhhhhhhhh",
"hhhhhhhhhhhhhhhhhhhhhhhhhhhhhhhhhhhoohhhhhhhhoohhhhhhhhhhhhhhh",
"hhhhhhhhhhhhhhhhhhhhhhhhhhhhhhhhhhhoXhhhOXhhhXohhhhhhhhhhhhhhh",
"hhhhhhhhhhhhhhhhhhhhhhhhhhhhhhhhhhh$ohhhoXhhho$hhhhhhhhhhhhhhh",
"hhhhhhhhhhhhhhhhhhhhhhhhhhhhhhhhhhhh.ohO. Oho.hhhhhhhhhhhhhhhh",
"hhhhhhhhhhhhhhhhhhhhhhhhhhhhhhhhhhhhhOoooOooOhhhhhhhhhhhhhhhhh",
"hhhhhhhhhhhhhhhhhhhhhhhhhhhhhhhhhhhhhhXXoOXXhhhhhhhhhhhhhhhhhh",
"hhhhhhhhhhhhhhhhhhhhhhhhhhhhhhhhhhhhhhXOO$OXhhhhhhhhhhhhhhhhhh",
"hhhhhhhhhhhhhhhhhhhhhhhhhhhhhhhhhhhhhhoO$$Oohhhhhhhhhhhhhhhhhh",
"hhhhhhhhhhhhhhhhhhhhhhhhhhhhhhhhhhhhhhX$O$$Xhhhhhhhhhhhhhhhhhh",
"hhhhhhhhhhhhhhhhhhhhhhhhhhhhhhhhhh$oo..XXoX..oo$hhhhhhhhhhhhhh",
"hhhhhhhhhhhhhhhhhhhhhhhhhhhhhhhhh$o&$$$OXoO$$$&o$hhhhhhhhhhhhh",
"hhhhhhhhhhhhhhhhhhhhhhhhh4$ooo.XoO$ooXX$OX$XXoo$Oohhhhhhhhhhhh",
"hhhhhhhhhhhhhhhhhhhhhhhhO..  XoX%=54..........45=%Xhhhhhhhhhhh",
"hhhhhhhhhhhhhhhhhhhhhhhho4hhhXXX254=.oX    Xo.=452Xhhhhhhhhhhh",
"hhhhhhhhhhhhhhhhhhhhhhhh.3hhhooo24542*334733*24542oohhhhhhhhhh",
"hhhhhhhhhhhhhhhhhhhhhhhhX3hhhoOO*$$$OoOOO$OOoO$$$*OOohhhhhhhhh",
"hhhhhhhhhhhhhhhhhhhhhhhhX=hhhOoXXoX...XoOooX...XoXXoOhhhhhhhhh",
"hhhhhhhhhhhhhhhhhhhhhhhho*hhOo%&O=&$X....X...X$&=O&%oOhhhhhhhh",
"hhhhhhhhhhhhhhhhhhhhhhhho&h$o%2&OOOooXX..X.XXooOOO&2%o$hhhhhhh",
"hhhhhhhhhhhhhhhhhhhhhhhho&hoX&=%$OOoOooooXoooOoOO$%=&Xohhhhhhh",
"hhhhhhhhhhhhhhhhhhhhhhhho$ OOO&*=3%oo$$$$$$$$oo%3=*&OOO hhhhhh",
"hhhhhhhhhhhhhhhhhhhhhhhhX$XoOO$$2OO&=243*=342=&OO2$$OOoXhhhhhh",
"hhhhhhhhhhhhhhhhhhhhhhhhoooOo&&&&7972..    ..2797&&&&oOoohhhhh",
"hhhhhhhhhhhhhhhhhhhhhhhhXo$*&$$O.Xo$$24443*&$oXoX.O$$&*$ohhhhh",
"hhhhhhhhhhhhhhhhhhhhhhhhXX%*&$ .$oo38998657576=oo$. $&*%XXhhhh",
"hhhhhhhhhhhhhhhhhhhhhhhh.$*OO.o%274$........  o472%o.OO*$.hhhh",
"hhhhhhhhhhhhhhhhhhhhhhho$&o..O%=5=&%  .XoooXXo$&=5=%O..o&$ohhh",
"hhhhhhhhhhhhhhhhhhhhhh<OOO XO$&&%$$%$*&&&%&%%&4$$%&&$OX OOOhhh",
"hhhhhhhhhhhhhhhhhhhhh,q$O o$$&$$$$O**22*%&&&&*5O$$$$&$$o O$hhh",
"hhhhhhhhhhhhhhhhhhh<0q$$. O$$$$$$Oo=22222=****4oO$$$$$$O .$$hh",
"hhhhhhhhhhhhhhhhhh,0qe$o.o$$$$$$$oo*444422=***4oo$$$$$$$o.o$hh",
"hhhhhhhhhhhhhhhhh,qqwr. .o$OOOO$OoO4755442=***4OoO$OOOO$o. .hh",
"hhhhhhhhhhhhhhhhh,qqtOX.XoO$$$OOooo4755542=&&&5oooOO$$$OoX.XOh",
"hhhhhhhhhhhhhhhhh,<wtX.X.oO$$OooXoo4875542=*&&6ooXooO$$Oo.X.Xh",
"hhhhhhhhhhhhhhhhh;<wtX.XXoOOOooXXoX3977543==&&5XoXXooOOOoXX.Xh",
"hhhhhhhhhhhhhhhhh:<0wXXXXXoooooXXXo398755442&&4oXXXoooooXXXXXh",
"hhhhhhhhhhhhhhhh>;,<0.X.XXXXXXXXXXo587755442&&5oXXXXXXXXXX.X.h",
"hhhhhhhhhhhhhhhh<-><<.X..XXXXXXXXXX4877544==&&3XXXXXXXXXX..X.h",
"hhhhhhhhhhhhhhhhr@;>. o..XXXXXXXXXo497733==*&&*oXXXXXXXXX..o .",
"hhhhhhhhhhhhhhhhw@;>XXo.  XXXXXXX.o3875442**&&3o.XXXXXXX  .oXX",
"hhhhhhhhhhhhhhhh>+@>XX$.   .XXXX.Xo37534222&&%3oX.XXXX.   .$XX",
"hhhhhhhhhhhhhhhh:+->.oOoX  .......o=6===*2=*&&=o.......  XoOo.",
"hhhhhhhhhhhhhhhhh@-<oo%OX. ..    .o45****=**&&=o.    .. .XO%oo",
"hhhhhhhhhhhhhhhhh--0.X$oX.        X35*&****&&&3X        .Xo$X.",
"hhhhhhhhhhhhhhhhh::r.Xo%OX.      .o45**&&&&&&&2o.      .XO%oX.",
"hhhhhhhhhhhhhhhhh;,tXXXO%OX       o*4&&&&&%%&&*o       XO%OXXX",
"hhhhhhhhhhhhhhhhh;,ewXXXo%Oo ...  o*5&&**&&%%%*o  ... oO%oXXXh",
"hhhhhhhhhhhhhhhhh:,,<oXXXo$Oo     X&3*&&&&&&&&=X     oO$oXXXoh",
"hhhhhhhhhhhhhhhhh>qqroXXXXO$$oo.  X&3*&&&&&&&&2X  .oo$$OXXXXoh",
"hhhhhhhhhhhhhhhh+wtwq.....XoOOoo. o&3*&&&&&&%&4o .ooOOoX.....h",
"hhhhhhhhhhhhhh>>0tw0,     ..   .. .&3****&%%%&4. ..   ..     h",
"hhhhhhhhhhhh>>->,tpps              $3***&%%%%%3              h",
"hhhhhhhhhhh>@@-;<00000     ..      $=&&&&&%%%%3      ..     hh",
"hhhhhhhhhh>+++##-::>>>      oooXXXX$*&&&%%%%%%*XXXXooo      hh",
"hhhhhhhhhh++#-0<riwttpi   X%%$$$ooo&2%%&&&%%%%*ooo$$$%%X   hhh",
"hhhhhhhhhh:+0yrweu0taiai Xo&2&%$$oo$%$$%%%%%%$&oo$$%&2&oX hhhh",
"hhhhhhhhh;:1wuuqru0tuiyitXX$*&&$$$o$%$$$$$$$$$%o$$$&&*$XXhhhhh",
"hhhhhhhh,wrrpiatwdt0paaaiX..$=&&$oo$$$O$OO$OO$$oo$&&=$..Xhhhhh",
"hhhhhh;<1tppieataputiapao  X$&*%$XX$%&&*2&***&*XX$%*&$X hhhhhh",
"hhhhh1;>rprpdspidaditXoooXXoo$$$OoX$$OOO$oOO$$&XoO$$$ooXhhhhhh",
"hhh-:,eqaparasppfdditXoXoXOOOo$$OXX$OooOOO$O$$&XXO$$$o.Xhhhhhh",
"h,,,<,<eupdywaaagsati$$$$$$$&*$$oX.oOoooOoOOo$%.Xo$$$o hhhhhhh",
",0,10errstpatuyydfewa.XoOO$$%&$ooXXo$oooooooO$$o.XXO$oXhhhhhhh"
};
