/* XPM */
static char *MP40D0[] = {
/* columns rows colors chars-per-pixel */
"62 72 45 1 ",
"  c black",
". c #070707",
"X c #0B0B0B",
"o c #131313",
"O c #1B1B1B",
"+ c #2B230F",
"@ c #332B13",
"# c #3F2F17",
"$ c #232323",
"% c #272727",
"& c #2F2F2F",
"* c #373737",
"= c gray23",
"- c #43331B",
"; c #4B371B",
": c #533F1F",
"> c #5F4323",
", c #6B4727",
"< c #774F2B",
"1 c #7F532F",
"2 c #434343",
"3 c gray28",
"4 c #4B4B4B",
"5 c gray34",
"6 c #5B5B5B",
"7 c gray39",
"8 c gray42",
"9 c #6F6F6F",
"0 c #875733",
"q c #8F5F37",
"w c #9B633B",
"e c #A36B3F",
"r c #AB6F43",
"t c #B37347",
"y c #BF7B4B",
"u c #CB7F4F",
"i c #CF8353",
"p c #D78B5B",
"a c #DF9363",
"s c #E79B6B",
"d c #EFA373",
"f c #F7AB7B",
"g c #FFBB93",
"h c #FFC79B",
"j c None",
/* pixels */
"jjjjjjjjjjjjjjjjjjjjjjjjjjjjjjjjjjjjjjjoOOOojjjjjjjjjjjjjjjjjj",
"jjjjjjjjjjjjjjjjjjjjjjjjjjjjjjjjjjjjjjo&jjj&ojjjjjjjjjjjjjjjjj",
"jjjjjjjjjjjjjjjjjjjjjjjjjjjjjjjjjjjjjX&jjjjj&Xjjjjjjjjjjjjjjjj",
"jjjjjjjjjjjjjjjjjjjjjjjjjjjjjjjjjjjj$XjjjjjjjX$jjjjjjjjjjjjjjj",
"jjjjjjjjjjjjjjjjjjjjjjjjjjjjjjjjjjjj$XjjjojjjX$jjjjjjjjjjjjjjj",
"jjjjjjjjjjjjjjjjjjjjjjjjjjjjjjjjjjjjjXjjj jjjXjjjjjjjjjjjjjjjj",
"jjjjjjjjjjjjjjjjjjjjjjjjjjjjjjjjjjjjjXXjXoXjXXjjjjjjjjjjjjjjjj",
"jjjjjjjjjjjjjjjjjjjjjjjjjjjjjjjjjjjjjjoooOooojjjjjjjjjjjjjjjjj",
"jjjjjjjjjjjjjjjjjjjjjjjjjjjjjjjjjjjjjjjoo$oojjjjjjjjjjjjjjjjjj",
"jjjjjjjjjjjjjjjjjjjjjjjjjjjjjjjjjjjjjjjoo$oojjjjjjjjjjjjjjjjjj",
"jjjjjjjjjjjjjjjjjjjjjjjjjjjjjjjjjjjjjjjoo$oojjjjjjjjjjjjjjjjjj",
"jjjjjjjjjjjjjjjjjjjjjjjjjjjjjjjjjjjjjjjXoooXjjjjjjjjjjjjjjjjjj",
"jjjjjjjjjjjjjjjjjjjjjjjjjjjjjjjjjjjjjj$oO$Oo$$jjjjjjjjjjjjjjjj",
"jjjjjjjjjjjjjjjjjjjjjjjjjjjjjjjjjjjjj*%oXXXo%*$jjjjjjjjjjjjjjj",
"jjjjjjjjjjjjjjjjjjjjjjjjjjjjjjjjjjjj*&=$oXo$=&*%jjjjjjjjjjjjjj",
"jjjjjjjjjjjjjjjjjjjjjjjjjj&&$Ooo...Xoo$$$o$$$ooX..jjjjjjjjjjjj",
"jjjjjjjjjjjjjjjjjjjjjjjjjOooX  XXXoooOOooXooOOoooXXjjjjjjjjjjj",
"jjjjjjjjjjjjjjjjjjjjjjjjjo4jjjj.XX.53&&$ooo$&&35.XX.jjjjjjjjjj",
"jjjjjjjjjjjjjjjjjjjjjjjjj.3jjjj.XX$&%XoooooooX%&$XX.jjjjjjjjjj",
"jjjjjjjjjjjjjjjjjjjjjjjjjX=jjjjXo$&==&&$OXO$&&==&$oXjjjjjjjjjj",
"jjjjjjjjjjjjjjjjjjjjjjjjjX3jjjjoo$.X$$$ooooo$$$X.$oojjjjjjjjjj",
"jjjjjjjjjjjjjjjjjjjjjjjjjo*jjj.XX%oo$XX     XX$oo%XX.jjjjjjjjj",
"jjjjjjjjjjjjjjjjjjjjjjjjjO*jjjXX.*543.XX   XX.345*.XXjjjjjjjjj",
"jjjjjjjjjjjjjjjjjjjjjjjjjo&jjjXOo%**=$$$&&&$$$=**%oOXjjjjjjjjj",
"jjjjjjjjjjjjjjjjjjjjjjjjjo$jjj.o$%$$&**&&&&&**&$$%$o.jjjjjjjjj",
"jjjjjjjjjjjjjjjjjjjjjjjjjo$jjOXooXXX..o.X.X.o..XXXooXOjjjjjjjj",
"jjjjjjjjjjjjjjjjjjjjjjjjjoojjOO$oOO$$$$oXXXo$$$$OOo$OOjjjjjjjj",
"jjjjjjjjjjjjjjjjjjjjjjjjjoOjOo$=oo=*$OooXXXooO$*=oo=$oOjjjjjjj",
"jjjjjjjjjjjjjjjjjjjjjjjjjXXjoO==$$$XooooXXXooooX$$$==Oojjjjjjj",
"jjjjjjjjjjjjjjjjjjjjjjjjjXXXo%4353&.OoooXXXoooO.&3534%oXjjjjjj",
"jjjjjjjjjjjjjjjjjjjjjjjjjXoo$244&&&.ooooXXXoooo.&&&442$ojjjjjj",
"jjjjjjjjjjjjjjjjjjjjjjjjjXXX$**$o*&oXoooXXXoooXo&*o$**$XXjjjjj",
"jjjjjjjjjjjjjjjjjjjjjjjjjooo%$$o63$oXoOoooooOoXo$36o$$%oojjjjj",
"jjjjjjjjjjjjjjjjjjjjjjjjj.XoOXX*OO$XXO&$OOO$&OXX$OO*XXOoX.jjjj",
"jjjjjjjjjjjjjjjjjjjjjjjjq.oXXX&$OOX$46443*34464$XOO$&XXXo.jjjj",
"jjjjjjjjjjjjjjjjjjjjjjj<$.oo$o$$**.. $$$OoO$$$ ..**$$o$oo.ojjj",
"jjjjjjjjjjjjjjjjjjjjjj,qX.$*$$$O  o$$oXXoXoXXo$$o  O$$$*$.Xjjj",
"jjjjjjjjjjjjjjjjjjjj<0qeXX$=$X..OO$=79864646897=$OO..X$=$XXjjj",
"jjjjjjjjjjjjjjjjjjj,0qeeoo&%o.Xo&&2$$    ...  $$2&&oX.o%&oojjj",
"jjjjjjjjjjjjjjjjjj,qqwroOO$.X$$2=*2OoX..XXoXoooO2*=2$$X.$OOojj",
"jjjjjjjjjjjjjjjjjj,qqteO$%..$%==&&$$$$$$$$$$$%&&*&&==%$..%$Ojj",
"jjjjjjjjjjjjjjjjjj,<wtro$XX$&&&&%%$$&22=&&&&&&*&$%%&&&&$XX$ojj",
"jjjjjjjjjjjjjjjjjj;<wteOO.o%%%%%$$$&*4422*&&&**&$$$%%%%%o.OOjj",
"jjjjjjjjjjjjjjjjjj:<0wX$.o$$$$$$$$$%25554==*&*&&O$$$$$$$$o.$Xj",
"jjjjjjjjjjjjjjjjj>;,<0oO OO$$$$%$Oo&355553==*&&&OO$%$$$$OO Ooj",
"jjjjjjjjjjjjjjjjj<-><<$o.oO$O$$$$OOO5876553=2=&&XO$$$$O$Oo.o$j",
"jjjjjjjjjjjjjjjjjr@;>,OX XooooOOooO&6887553===**XooOOooooX XOj",
"jjjjjjjjjjjjjjjjjw@;>$O. XXXXoooXXX%688775442=&= XXoooXXXX .O$",
"jjjjjjjjjjjjjjjjj>+@>XX .XX..XXXXXX$587775442=*=.XXXXX..XX. XX",
"jjjjjjjjjjjjjjjjj:+->.X. XX..XXXXXo&77776544=**3XXXXXX..XX .X.",
"jjjjjjjjjjjjjjjjjj@-<XX  XX...XXX.o$777755442=&=X.XXX...XX  XX",
"jjjjjjjjjjjjjjjjjj--0...  ....XXX.X$676654422=*=X.XXX....  ...",
"jjjjjjjjjjjjjjjjjj::rX..  .XXXXX..X$676553==2*&=...XXXXX.  ..X",
"jjjjjjjjjjjjjjjjjj;,t$OX    ..    X$55554422=*=4.    ..    XO$",
"jjjjjjjjjjjjjjjjjj;,eoO$..   ..  .X$5544422=*=*4..  ..   ..$Oo",
"jjjjjjjjjjjjjjjjjj:,,XX%X         X$4432222*==&3X         X%XX",
"jjjjjjjjjjjjjjjjjj>qq.XOO.        .$422222*==*=5X        .OOX.",
"jjjjjjjjjjjjjjjjj+wtw.X$%O.       .%4222====**=4o       .O%$X.",
"jjjjjjjjjjjjjjj>>0tw0.Xo$&X.      .$522====***=3X      .X&$oX.",
"jjjjjjjjjjjjj>>->,tpp.XXo&%o...   .$3**&&*****&=X   ...o%&oXX.",
"jjjjjjjjjjjj>@@-;<000.oXXo%$o     .$3*&&&*****&=o     o$%oXXo.",
"jjjjjjjjjjj>+++##-::>.X..Xo$%$OXX.o$3***&***&%&*o.XXO$%$oX..X.",
"jjjjjjjjjjj++#-0<riwt X...XXO%$$XXO&3*===*&&%%&3oXX$$%OXX...X ",
"jjjjjjjjjjj:+0yrweu0t        .XXO.X%==3*&&&&%%&2O.OXX.        ",
"jjjjjjjjjj;:1wuuqru0to            X%2&*&&&&%&&&&X            o",
"jjjjjjjjj,wrrpiatwdt0$  ...       .$*&&&&&%$$$&&X       ...  $",
"jjjjjjj;<1tppieataputi.          ..$*&%$$$$$$$&&..          .j",
"jjjjjj1;>rprpdspidadits   .XooooXoo$=%&&$$$%$$%%XoXooooX.   jj",
"jjjj-:,eqaparasppgdditss..oO$&$%o$O$4%%%%$$$$$$$o$o%$&$Oo..jjj",
"jj,,,<,<eupdywaaahsatidaXo$$&*&%$$$%=&$$$$$$$$%$o$$%&*&$$oXjjj",
"j,0,10errstpatuyydgewadiXo%*==&%$$$&*$$$$$%%%$%$o$$%&==*%oXjjj",
",1><qrwyifywsrwrtahewagtXoo$&33&&&$%$$$$$$$$$$$$$&&&33&$ooXjjj"
};
