/* XPM */
static char *FLITB0[] = {
/* columns rows colors chars-per-pixel */
"55 58 82 1 ",
"  c #070707",
". c #0B0B0B",
"X c #170F07",
"o c #1F170B",
"O c #131313",
"+ c #1B1B1B",
"@ c #2F1B0B",
"# c #2B230F",
"$ c #372313",
"% c #332B13",
"& c #3F2F17",
"* c #3F2B1B",
"= c #232323",
"- c #272727",
"; c #2F2F2F",
": c #373737",
"> c gray23",
", c #430000",
"< c #470000",
"1 c #4F0000",
"2 c #5B0000",
"3 c #5F0707",
"4 c #670B0B",
"5 c #6B0F0F",
"6 c #730000",
"7 c #7F0000",
"8 c #731313",
"9 c #7F1B1B",
"0 c #432F1B",
"q c #43331B",
"w c #4B371B",
"e c #533F1F",
"r c #473323",
"t c #4F3B23",
"y c #533F2F",
"u c #5F4323",
"i c #5B472B",
"p c #5F4B37",
"a c #6B4727",
"s c #774F2B",
"d c #7F532F",
"f c #675333",
"g c #775F3F",
"h c #434343",
"j c gray28",
"k c #4B4B4B",
"l c gray31",
"z c gray34",
"x c #5B5B5B",
"c c gray39",
"v c gray42",
"b c #6F6F6F",
"n c #777777",
"m c gray50",
"M c #8B0000",
"N c #9B0000",
"B c #872300",
"V c #9F3700",
"C c #B74700",
"Z c #875733",
"A c #8F5F37",
"S c #9B633B",
"D c #A36B3F",
"F c #D75F0B",
"G c #836B4B",
"H c #AB6F43",
"J c #B37347",
"K c #BF7B4B",
"L c #CB7F4F",
"P c #CF8353",
"I c #D78B5B",
"U c #DF9363",
"Y c #E79B6B",
"T c #EFA373",
"R c #F7AB7B",
"E c #838383",
"W c #8B8B8B",
"Q c #939393",
"! c #A7A7A7",
"~ c gray70",
"^ c #FFB383",
"/ c None",
/* pixels */
"/////////////>zxxxxxxz>////////////////////////////////",
"///////////&:vEvcjjcvEv:&//////////////////////////////",
"//////////&&xWExl>>lxEWx&&/////////////////////////////",
"/////////eawWWvljhhjlvWWwae////////////////////////////",
"////////eaexQmcljhhjlcmQxeae///////////////////////////",
"///////;sewmEnxljhhjlxnEmwes;//////////////////////////",
"//////euaw%mbcj>8338>jcbm%waue/////////////////////////",
"//////uue%xmcx=8CFCV8=xcmx%euu/////////////////////////",
"/////euaw#xvxxj;;>>;;jxxvx#waue////////////////////////",
"/////uue%xj:jzcljjjjlczj:jx%euu////////////////////////",
"/////uuwzj>;OO=;;>>;;=OO;>jzwuu////////////////////////",
"////uuue:>;O+=;DJHHHSdSSa;>:euuu///////////////////////",
"////uah-:+..+sHKIPJLKJHAsaf:-hau///////////////////////",
"////>h+-=...ZHHJKLPPPLKKJGgi-+h>e//////////////////////",
"///&>h+-+.;;HDSJKKKJKPIYTIDy++h>&//////////////////////",
"///&>h+-+.sDDSSDJKJDKIT^^^Ha0+h>&//////////////////////",
"///#:;--uSJJAZASDDSJPITR^TKAr+;:#//////////////////////",
"///::=+eSJJDAdsdSAZKKIYTRTIDa0;>>//////////////////////",
"///:h:=waASAsaaaAsAKPIUTRTIHZy*>://////////////////////",
"////:uq#wuasuuuusaAKPIUTRTPKDZt=;//////////////////////",
"///qtZuq%tuuttt0raAJLIIYTTPKHAsr=*/////////////////////",
"//qaAZsw%##,1126$aAHKIIUTTPKDZspyu/////////////////////",
"//wZAdaw$#@112265aSDKLIUYYIKDAsaiyr////////////////////",
"//qaZauq##@112265uZDJKPIUYILHZsaatrr///////////////////",
"//&tsuq#oO@112265tdDJJLIUYILJAsayt0*0//////////////////",
"//&qtq#oo#@1,2264rdSJKLPIUILKDZsaur**//////////////////",
"///&q+OooO,1,2264wsSHKPPIUIIKJSZaauw**/////////////////",
"//wtwa$,,,,1,2264qaADKPPIIIILJHSdsauq**////////////////",
"/wZJDHs*,,<1122640uZDKPPIIIIIKDDAZsut0*$///////////////",
"/wADKJJsO,11126640uZDJLIIIIUILHSAZduuw0$#//////////////",
"/wsZDSDs=@11126630udDJLPIIIUUIKDAZduttw$#//////////////",
"/qusAZZu$,,1126635udDJLLIIIUTYPHSAsautr*#//////////////",
"/qeusuae%,11126665tdDJLPIIUYRTIJDSdauut*##/////////////",
"/&qtuqwq$,11166665wsSJKIIIUYTTUKJDAdaut0$O/////////////",
"//qq*##$#,11166665waSHJPIIUYTTUPJJDAsuuw$O/////////////",
"/qaa0q##,<11166664qaADKLIIUYYYUIKJHDZauw0+o////////////",
"qaSAafr+O,1,1666678uZDJLPIUUYUIPJDSSAdatq#X////////////",
"wZSDAZa=O,1,2666678tZDJLPIIUUUPJDDSZZZsut#X////////////",
"qdADDSZr#,1,2666677wdSJKLIIIILJDDJJSZasat$.////////////",
"qesZAAZqO,1,266667M9aSJKLPLPLJJJKHJJAauau*OX///////////",
"/0taZaa*O,1,266667NBuADJLLPLKKKKJSSDDZuuwqoX///////////",
"/&qwuq0#O,,1266667NBtADJKLLLLLJJDAZZSSstwq#.///////////",
"//&#&###@111266667NBtZDHKLKLLKJKDsaadAdutw#.///////////",
"//q##O##,111266667NBudSDKKJKKPKSduuuasZauw$.///////////",
"//tu*oO,,111266667NBtsSDHJJKPPDsuaddaassuw*o///////////",
"/wsdtOO,,111266667N7waADDHJPPDZaaSDSdassueq#///////////",
"/waZu#O,,111266667N7qaZASDPPJAdasAauuuuuuuw0///////////",
"/quuw#O,,111266667N70adZAHPPDZZADZZZZZdaSdu0$//////////",
"/&ww0#.,,111266667NN*addZJPKAASSADHJJHDHAAsuw&/////////",
"//q*#..,,1112226667M*ussAKLDSDDDDJHDSASAdassuw&////////",
"//+O,,,,,1,,;hzcvnvc*usdDLHSHLKJJZAAASAAtttttu&$///////",
"//+O,,,,==:hzcvQ~!Qm*uaZJPDJPPJSASDDSSZaAZdsuwwt0//////",
"//+O,,=:hhzvczkhhhhk&wuALJJPPDdsAKJDsaasZdAAZauyt0/////",
"//OO=:hh::;=+OO====;=wuZDDPLDauADHZSKJSAwwwwtaawttw0///",
"//O:h::;+OO===;;::hkhwaZDJKZuuAKPSKJAawww000tttaatww0//",
"//:h:;=O++==;hhkzzczcwaAJPAtuALPSJSu0qwwDJDSHAadsu0wq0/",
"//h:=O O++=;:kcvmWmvvwsDLKtwdLLSDdwwuZZSZZsaZSSAda0$00/",
"//:=+   O+=;:kcvmQmvvtZJLD0aHHAHHtuSDSSAtqwusZsdqda0$*$"
};
