/* XPM */
static char *FLSHB0[] = {
/* columns rows colors chars-per-pixel */
"22 3 20 1 ",
"  c #1B1B1B",
". c #232323",
"X c #2F2F2F",
"o c #373737",
"O c gray23",
"+ c #5B0000",
"@ c #670000",
"# c #730000",
"$ c #7F0000",
"% c #434343",
"& c gray28",
"* c gray31",
"= c gray42",
"- c #6F6F6F",
"; c #9B0000",
": c #979797",
"> c #9F9F9F",
", c gray70",
"< c white",
"1 c None",
/* pixels */
"1X.XXXX @@@@@@@$X.OXX1",
"X=X&=%X$$$$$$$;*>:--<,",
"X*XX*..+++++++#X&OOOo1"
};
